<svg width="334" height="324" viewBox="0 0 334 324" fill="none" xmlns="http://www.w3.org/2000/svg">
<g filter="url(#filter0_d_254332_5741)">
<mask id="path-1-inside-1_254332_5741" fill="white">
<path d="M291.093 46.909L206.028 0L166.94 21.5481L127.851 0L42.8469 46.909V89.7163L4 111.091V204.851L42.8469 226.226V269.091L127.911 316L167 294.452L206.089 316L291.153 269.091V226.226L330 204.851V111.091L291.153 89.7163V46.909H291.093ZM244.271 75.5627C246.446 75.5627 248.198 77.238 248.198 79.26C248.198 81.2819 246.446 82.9572 244.271 82.9572C242.096 82.9572 240.344 81.2819 240.344 79.26C240.344 77.238 242.096 75.5627 244.271 75.5627ZM89.6686 75.5627C91.8436 75.5627 93.5956 77.238 93.5956 79.26C93.5956 81.2819 91.8436 82.9572 89.6686 82.9572C87.4937 82.9572 85.7417 81.2819 85.7417 79.26C85.7417 77.238 87.4937 75.5627 89.6686 75.5627ZM89.6686 240.437C87.4937 240.437 85.7417 238.762 85.7417 236.74C85.7417 234.718 87.4937 233.043 89.6686 233.043C91.8436 233.043 93.5956 234.718 93.5956 236.74C93.5956 238.762 91.8436 240.437 89.6686 240.437ZM161.14 285.382L127.911 303.753L95.2873 285.729V246.041C98.6705 244.192 101.027 240.726 101.027 236.74C101.027 230.79 95.9518 225.937 89.7291 225.937C83.5063 225.937 78.4314 230.79 78.4314 236.74C78.4314 240.726 80.7272 244.192 84.1709 246.041V279.605L54.0237 263.025V226.63L89.5478 207.162L122.957 225.59V262.621C119.635 264.469 117.399 267.936 117.399 271.864C117.399 277.814 122.474 282.667 128.697 282.667C134.92 282.667 139.994 277.814 139.994 271.864C139.994 267.82 137.638 264.296 134.134 262.505V219.467L95.5893 198.208V167.185C98.7913 165.279 100.966 161.928 100.966 158.058C100.966 152.107 95.8914 147.255 89.6686 147.255C83.4459 147.255 78.371 152.107 78.371 158.058C78.371 162.217 80.848 165.741 84.4125 167.532V197.63L48.6468 217.214L15.1164 198.728V165.972L39.5845 179.375C39.5845 183.13 41.5782 186.769 45.2031 188.733C50.5801 191.737 57.5278 189.947 60.609 184.805C63.7506 179.664 61.8777 173.078 56.5007 170.074C52.8758 168.052 48.5864 168.283 45.2031 170.132L15.1768 153.667V117.215L48.2843 98.9594L77.7065 115.077L56.1987 126.92C54.6279 126.111 52.8758 125.649 50.9426 125.649C44.7198 125.649 39.6449 130.502 39.6449 136.452C39.6449 142.402 44.7198 147.255 50.9426 147.255C57.1653 147.255 62.2402 142.402 62.2402 136.452C62.2402 136.279 62.2402 136.105 62.2402 135.932L133.893 96.5331V53.668C137.517 51.8771 139.994 48.2954 139.994 44.136C139.994 38.1857 134.92 33.3331 128.697 33.3331C122.474 33.3331 117.399 38.1857 117.399 44.136C117.399 48.0066 119.514 51.3572 122.716 53.2636V90.4095L88.9437 109.011L54.0237 89.8896V53.0325L84.1709 36.4526V69.959C80.7876 71.8077 78.4314 75.2739 78.4314 79.26C78.4314 85.2102 83.5063 90.0629 89.7291 90.0629C95.9518 90.0629 101.027 85.2102 101.027 79.26C101.027 75.2739 98.7309 71.8077 95.2873 69.959V30.3291L127.911 12.3049L161.14 30.6757V112.246L122.897 133.679V182.263L161.381 203.522L161.14 285.44V285.382ZM85.7417 158C85.7417 155.92 87.4937 154.303 89.6686 154.303C91.8436 154.303 93.5956 155.978 93.5956 158C93.5956 160.022 91.8436 161.697 89.6686 161.697C87.4937 161.697 85.7417 160.022 85.7417 158ZM124.709 271.806C124.709 269.727 126.461 268.109 128.636 268.109C130.811 268.109 132.563 269.784 132.563 271.806C132.563 273.828 130.811 275.503 128.636 275.503C126.461 275.503 124.709 273.828 124.709 271.806ZM47.4385 177.526C48.5259 175.735 50.8821 175.158 52.755 176.14C54.6279 177.18 55.232 179.433 54.205 181.223C53.1175 183.014 50.7613 183.592 48.8884 182.61C47.0156 181.57 46.4114 179.317 47.4385 177.526ZM54.8695 136.452C54.8695 138.532 53.1175 140.149 50.9426 140.149C48.7676 140.149 47.0156 138.474 47.0156 136.452C47.0156 134.43 48.7676 132.755 50.9426 132.755C53.1175 132.755 54.8695 134.43 54.8695 136.452ZM124.77 44.136C124.77 42.0563 126.522 40.4388 128.697 40.4388C130.872 40.4388 132.624 42.1141 132.624 44.136C132.624 46.158 130.872 47.8333 128.697 47.8333C126.522 47.8333 124.77 46.158 124.77 44.136ZM134.013 176.082V139.745L166.94 121.316L199.866 139.745V176.082L166.94 194.279L134.013 176.082ZM244.271 240.437C242.096 240.437 240.344 238.762 240.344 236.74C240.344 234.718 242.096 233.043 244.271 233.043C246.446 233.043 248.198 234.718 248.198 236.74C248.198 238.762 246.446 240.437 244.271 240.437ZM318.823 117.272V153.725L288.797 170.189C285.414 168.283 281.124 168.11 277.499 170.132C272.122 173.136 270.249 179.721 273.391 184.863C276.533 190.004 283.42 191.795 288.797 188.791C292.422 186.769 294.415 183.13 294.415 179.433L318.884 166.03V198.785L285.353 217.272L249.587 197.688V167.59C253.152 165.799 255.629 162.217 255.629 158.116C255.629 152.165 250.554 147.313 244.331 147.313C238.109 147.313 233.034 152.165 233.034 158.116C233.034 161.986 235.209 165.337 238.411 167.243V198.265L199.866 219.525V262.563C196.422 264.412 194.006 267.878 194.006 271.922C194.006 277.872 199.08 282.725 205.303 282.725C211.526 282.725 216.601 277.872 216.601 271.922C216.601 267.993 214.365 264.527 211.043 262.679V225.648L244.452 207.22L279.976 226.688V263.083L249.829 279.663V246.099C253.212 244.25 255.569 240.784 255.569 236.798C255.569 230.848 250.494 225.995 244.271 225.995C238.048 225.995 232.973 230.848 232.973 236.798C232.973 240.784 235.269 244.25 238.713 246.099V285.844L206.089 303.868L172.86 285.498L172.619 203.58L211.103 182.321V133.737L172.86 112.304V30.6179L206.089 12.2472L238.713 30.2713V69.9013C235.329 71.7499 232.973 75.2161 232.973 79.2022C232.973 85.1525 238.048 90.0051 244.271 90.0051C250.494 90.0051 255.569 85.1525 255.569 79.2022C255.569 75.2161 253.273 71.7499 249.829 69.9013V36.3949L279.976 53.0325V89.8896L245.056 109.011L211.284 90.4095V53.2636C214.486 51.3572 216.601 48.0066 216.601 44.136C216.601 38.1857 211.526 33.3331 205.303 33.3331C199.08 33.3331 194.006 38.1857 194.006 44.136C194.006 48.2954 196.483 51.8771 200.107 53.668V96.5331L271.76 135.932C271.76 135.932 271.76 136.279 271.76 136.452C271.76 142.402 276.835 147.255 283.057 147.255C289.28 147.255 294.355 142.402 294.355 136.452C294.355 130.502 289.28 125.649 283.057 125.649C281.185 125.649 279.372 126.169 277.801 126.92L256.294 115.077L285.716 98.9594L318.823 117.215V117.272ZM285.112 182.61C283.239 183.65 280.883 183.014 279.795 181.223C278.708 179.433 279.372 177.18 281.245 176.14C283.118 175.1 285.474 175.735 286.562 177.526C287.649 179.317 286.984 181.57 285.112 182.61ZM248.198 158C248.198 160.08 246.446 161.697 244.271 161.697C242.096 161.697 240.344 160.022 240.344 158C240.344 155.978 242.096 154.303 244.271 154.303C246.446 154.303 248.198 155.978 248.198 158ZM209.23 271.806C209.23 273.886 207.478 275.503 205.303 275.503C203.128 275.503 201.376 273.828 201.376 271.806C201.376 269.784 203.128 268.109 205.303 268.109C207.478 268.109 209.23 269.784 209.23 271.806ZM209.23 44.136C209.23 46.2157 207.478 47.8333 205.303 47.8333C203.128 47.8333 201.376 46.158 201.376 44.136C201.376 42.1141 203.128 40.4388 205.303 40.4388C207.478 40.4388 209.23 42.1141 209.23 44.136ZM279.13 136.452C279.13 134.372 280.883 132.755 283.057 132.755C285.232 132.755 286.984 134.43 286.984 136.452C286.984 138.474 285.232 140.149 283.057 140.149C280.883 140.149 279.13 138.474 279.13 136.452Z"/>
</mask>
<path d="M291.093 46.909L206.028 0L166.94 21.5481L127.851 0L42.8469 46.909V89.7163L4 111.091V204.851L42.8469 226.226V269.091L127.911 316L167 294.452L206.089 316L291.153 269.091V226.226L330 204.851V111.091L291.153 89.7163V46.909H291.093ZM244.271 75.5627C246.446 75.5627 248.198 77.238 248.198 79.26C248.198 81.2819 246.446 82.9572 244.271 82.9572C242.096 82.9572 240.344 81.2819 240.344 79.26C240.344 77.238 242.096 75.5627 244.271 75.5627ZM89.6686 75.5627C91.8436 75.5627 93.5956 77.238 93.5956 79.26C93.5956 81.2819 91.8436 82.9572 89.6686 82.9572C87.4937 82.9572 85.7417 81.2819 85.7417 79.26C85.7417 77.238 87.4937 75.5627 89.6686 75.5627ZM89.6686 240.437C87.4937 240.437 85.7417 238.762 85.7417 236.74C85.7417 234.718 87.4937 233.043 89.6686 233.043C91.8436 233.043 93.5956 234.718 93.5956 236.74C93.5956 238.762 91.8436 240.437 89.6686 240.437ZM161.14 285.382L127.911 303.753L95.2873 285.729V246.041C98.6705 244.192 101.027 240.726 101.027 236.74C101.027 230.79 95.9518 225.937 89.7291 225.937C83.5063 225.937 78.4314 230.79 78.4314 236.74C78.4314 240.726 80.7272 244.192 84.1709 246.041V279.605L54.0237 263.025V226.63L89.5478 207.162L122.957 225.59V262.621C119.635 264.469 117.399 267.936 117.399 271.864C117.399 277.814 122.474 282.667 128.697 282.667C134.92 282.667 139.994 277.814 139.994 271.864C139.994 267.82 137.638 264.296 134.134 262.505V219.467L95.5893 198.208V167.185C98.7913 165.279 100.966 161.928 100.966 158.058C100.966 152.107 95.8914 147.255 89.6686 147.255C83.4459 147.255 78.371 152.107 78.371 158.058C78.371 162.217 80.848 165.741 84.4125 167.532V197.63L48.6468 217.214L15.1164 198.728V165.972L39.5845 179.375C39.5845 183.13 41.5782 186.769 45.2031 188.733C50.5801 191.737 57.5278 189.947 60.609 184.805C63.7506 179.664 61.8777 173.078 56.5007 170.074C52.8758 168.052 48.5864 168.283 45.2031 170.132L15.1768 153.667V117.215L48.2843 98.9594L77.7065 115.077L56.1987 126.92C54.6279 126.111 52.8758 125.649 50.9426 125.649C44.7198 125.649 39.6449 130.502 39.6449 136.452C39.6449 142.402 44.7198 147.255 50.9426 147.255C57.1653 147.255 62.2402 142.402 62.2402 136.452C62.2402 136.279 62.2402 136.105 62.2402 135.932L133.893 96.5331V53.668C137.517 51.8771 139.994 48.2954 139.994 44.136C139.994 38.1857 134.92 33.3331 128.697 33.3331C122.474 33.3331 117.399 38.1857 117.399 44.136C117.399 48.0066 119.514 51.3572 122.716 53.2636V90.4095L88.9437 109.011L54.0237 89.8896V53.0325L84.1709 36.4526V69.959C80.7876 71.8077 78.4314 75.2739 78.4314 79.26C78.4314 85.2102 83.5063 90.0629 89.7291 90.0629C95.9518 90.0629 101.027 85.2102 101.027 79.26C101.027 75.2739 98.7309 71.8077 95.2873 69.959V30.3291L127.911 12.3049L161.14 30.6757V112.246L122.897 133.679V182.263L161.381 203.522L161.14 285.44V285.382ZM85.7417 158C85.7417 155.92 87.4937 154.303 89.6686 154.303C91.8436 154.303 93.5956 155.978 93.5956 158C93.5956 160.022 91.8436 161.697 89.6686 161.697C87.4937 161.697 85.7417 160.022 85.7417 158ZM124.709 271.806C124.709 269.727 126.461 268.109 128.636 268.109C130.811 268.109 132.563 269.784 132.563 271.806C132.563 273.828 130.811 275.503 128.636 275.503C126.461 275.503 124.709 273.828 124.709 271.806ZM47.4385 177.526C48.5259 175.735 50.8821 175.158 52.755 176.14C54.6279 177.18 55.232 179.433 54.205 181.223C53.1175 183.014 50.7613 183.592 48.8884 182.61C47.0156 181.57 46.4114 179.317 47.4385 177.526ZM54.8695 136.452C54.8695 138.532 53.1175 140.149 50.9426 140.149C48.7676 140.149 47.0156 138.474 47.0156 136.452C47.0156 134.43 48.7676 132.755 50.9426 132.755C53.1175 132.755 54.8695 134.43 54.8695 136.452ZM124.77 44.136C124.77 42.0563 126.522 40.4388 128.697 40.4388C130.872 40.4388 132.624 42.1141 132.624 44.136C132.624 46.158 130.872 47.8333 128.697 47.8333C126.522 47.8333 124.77 46.158 124.77 44.136ZM134.013 176.082V139.745L166.94 121.316L199.866 139.745V176.082L166.94 194.279L134.013 176.082ZM244.271 240.437C242.096 240.437 240.344 238.762 240.344 236.74C240.344 234.718 242.096 233.043 244.271 233.043C246.446 233.043 248.198 234.718 248.198 236.74C248.198 238.762 246.446 240.437 244.271 240.437ZM318.823 117.272V153.725L288.797 170.189C285.414 168.283 281.124 168.11 277.499 170.132C272.122 173.136 270.249 179.721 273.391 184.863C276.533 190.004 283.42 191.795 288.797 188.791C292.422 186.769 294.415 183.13 294.415 179.433L318.884 166.03V198.785L285.353 217.272L249.587 197.688V167.59C253.152 165.799 255.629 162.217 255.629 158.116C255.629 152.165 250.554 147.313 244.331 147.313C238.109 147.313 233.034 152.165 233.034 158.116C233.034 161.986 235.209 165.337 238.411 167.243V198.265L199.866 219.525V262.563C196.422 264.412 194.006 267.878 194.006 271.922C194.006 277.872 199.08 282.725 205.303 282.725C211.526 282.725 216.601 277.872 216.601 271.922C216.601 267.993 214.365 264.527 211.043 262.679V225.648L244.452 207.22L279.976 226.688V263.083L249.829 279.663V246.099C253.212 244.25 255.569 240.784 255.569 236.798C255.569 230.848 250.494 225.995 244.271 225.995C238.048 225.995 232.973 230.848 232.973 236.798C232.973 240.784 235.269 244.25 238.713 246.099V285.844L206.089 303.868L172.86 285.498L172.619 203.58L211.103 182.321V133.737L172.86 112.304V30.6179L206.089 12.2472L238.713 30.2713V69.9013C235.329 71.7499 232.973 75.2161 232.973 79.2022C232.973 85.1525 238.048 90.0051 244.271 90.0051C250.494 90.0051 255.569 85.1525 255.569 79.2022C255.569 75.2161 253.273 71.7499 249.829 69.9013V36.3949L279.976 53.0325V89.8896L245.056 109.011L211.284 90.4095V53.2636C214.486 51.3572 216.601 48.0066 216.601 44.136C216.601 38.1857 211.526 33.3331 205.303 33.3331C199.08 33.3331 194.006 38.1857 194.006 44.136C194.006 48.2954 196.483 51.8771 200.107 53.668V96.5331L271.76 135.932C271.76 135.932 271.76 136.279 271.76 136.452C271.76 142.402 276.835 147.255 283.057 147.255C289.28 147.255 294.355 142.402 294.355 136.452C294.355 130.502 289.28 125.649 283.057 125.649C281.185 125.649 279.372 126.169 277.801 126.92L256.294 115.077L285.716 98.9594L318.823 117.215V117.272ZM285.112 182.61C283.239 183.65 280.883 183.014 279.795 181.223C278.708 179.433 279.372 177.18 281.245 176.14C283.118 175.1 285.474 175.735 286.562 177.526C287.649 179.317 286.984 181.57 285.112 182.61ZM248.198 158C248.198 160.08 246.446 161.697 244.271 161.697C242.096 161.697 240.344 160.022 240.344 158C240.344 155.978 242.096 154.303 244.271 154.303C246.446 154.303 248.198 155.978 248.198 158ZM209.23 271.806C209.23 273.886 207.478 275.503 205.303 275.503C203.128 275.503 201.376 273.828 201.376 271.806C201.376 269.784 203.128 268.109 205.303 268.109C207.478 268.109 209.23 269.784 209.23 271.806ZM209.23 44.136C209.23 46.2157 207.478 47.8333 205.303 47.8333C203.128 47.8333 201.376 46.158 201.376 44.136C201.376 42.1141 203.128 40.4388 205.303 40.4388C207.478 40.4388 209.23 42.1141 209.23 44.136ZM279.13 136.452C279.13 134.372 280.883 132.755 283.057 132.755C285.232 132.755 286.984 134.43 286.984 136.452C286.984 138.474 285.232 140.149 283.057 140.149C280.883 140.149 279.13 138.474 279.13 136.452Z" fill="url(#paint0_linear_254332_5741)"/>
<path d="M291.093 46.909L206.028 0L166.94 21.5481L127.851 0L42.8469 46.909V89.7163L4 111.091V204.851L42.8469 226.226V269.091L127.911 316L167 294.452L206.089 316L291.153 269.091V226.226L330 204.851V111.091L291.153 89.7163V46.909H291.093ZM244.271 75.5627C246.446 75.5627 248.198 77.238 248.198 79.26C248.198 81.2819 246.446 82.9572 244.271 82.9572C242.096 82.9572 240.344 81.2819 240.344 79.26C240.344 77.238 242.096 75.5627 244.271 75.5627ZM89.6686 75.5627C91.8436 75.5627 93.5956 77.238 93.5956 79.26C93.5956 81.2819 91.8436 82.9572 89.6686 82.9572C87.4937 82.9572 85.7417 81.2819 85.7417 79.26C85.7417 77.238 87.4937 75.5627 89.6686 75.5627ZM89.6686 240.437C87.4937 240.437 85.7417 238.762 85.7417 236.74C85.7417 234.718 87.4937 233.043 89.6686 233.043C91.8436 233.043 93.5956 234.718 93.5956 236.74C93.5956 238.762 91.8436 240.437 89.6686 240.437ZM161.14 285.382L127.911 303.753L95.2873 285.729V246.041C98.6705 244.192 101.027 240.726 101.027 236.74C101.027 230.79 95.9518 225.937 89.7291 225.937C83.5063 225.937 78.4314 230.79 78.4314 236.74C78.4314 240.726 80.7272 244.192 84.1709 246.041V279.605L54.0237 263.025V226.63L89.5478 207.162L122.957 225.59V262.621C119.635 264.469 117.399 267.936 117.399 271.864C117.399 277.814 122.474 282.667 128.697 282.667C134.92 282.667 139.994 277.814 139.994 271.864C139.994 267.82 137.638 264.296 134.134 262.505V219.467L95.5893 198.208V167.185C98.7913 165.279 100.966 161.928 100.966 158.058C100.966 152.107 95.8914 147.255 89.6686 147.255C83.4459 147.255 78.371 152.107 78.371 158.058C78.371 162.217 80.848 165.741 84.4125 167.532V197.63L48.6468 217.214L15.1164 198.728V165.972L39.5845 179.375C39.5845 183.13 41.5782 186.769 45.2031 188.733C50.5801 191.737 57.5278 189.947 60.609 184.805C63.7506 179.664 61.8777 173.078 56.5007 170.074C52.8758 168.052 48.5864 168.283 45.2031 170.132L15.1768 153.667V117.215L48.2843 98.9594L77.7065 115.077L56.1987 126.92C54.6279 126.111 52.8758 125.649 50.9426 125.649C44.7198 125.649 39.6449 130.502 39.6449 136.452C39.6449 142.402 44.7198 147.255 50.9426 147.255C57.1653 147.255 62.2402 142.402 62.2402 136.452C62.2402 136.279 62.2402 136.105 62.2402 135.932L133.893 96.5331V53.668C137.517 51.8771 139.994 48.2954 139.994 44.136C139.994 38.1857 134.92 33.3331 128.697 33.3331C122.474 33.3331 117.399 38.1857 117.399 44.136C117.399 48.0066 119.514 51.3572 122.716 53.2636V90.4095L88.9437 109.011L54.0237 89.8896V53.0325L84.1709 36.4526V69.959C80.7876 71.8077 78.4314 75.2739 78.4314 79.26C78.4314 85.2102 83.5063 90.0629 89.7291 90.0629C95.9518 90.0629 101.027 85.2102 101.027 79.26C101.027 75.2739 98.7309 71.8077 95.2873 69.959V30.3291L127.911 12.3049L161.14 30.6757V112.246L122.897 133.679V182.263L161.381 203.522L161.14 285.44V285.382ZM85.7417 158C85.7417 155.92 87.4937 154.303 89.6686 154.303C91.8436 154.303 93.5956 155.978 93.5956 158C93.5956 160.022 91.8436 161.697 89.6686 161.697C87.4937 161.697 85.7417 160.022 85.7417 158ZM124.709 271.806C124.709 269.727 126.461 268.109 128.636 268.109C130.811 268.109 132.563 269.784 132.563 271.806C132.563 273.828 130.811 275.503 128.636 275.503C126.461 275.503 124.709 273.828 124.709 271.806ZM47.4385 177.526C48.5259 175.735 50.8821 175.158 52.755 176.14C54.6279 177.18 55.232 179.433 54.205 181.223C53.1175 183.014 50.7613 183.592 48.8884 182.61C47.0156 181.57 46.4114 179.317 47.4385 177.526ZM54.8695 136.452C54.8695 138.532 53.1175 140.149 50.9426 140.149C48.7676 140.149 47.0156 138.474 47.0156 136.452C47.0156 134.43 48.7676 132.755 50.9426 132.755C53.1175 132.755 54.8695 134.43 54.8695 136.452ZM124.77 44.136C124.77 42.0563 126.522 40.4388 128.697 40.4388C130.872 40.4388 132.624 42.1141 132.624 44.136C132.624 46.158 130.872 47.8333 128.697 47.8333C126.522 47.8333 124.77 46.158 124.77 44.136ZM134.013 176.082V139.745L166.94 121.316L199.866 139.745V176.082L166.94 194.279L134.013 176.082ZM244.271 240.437C242.096 240.437 240.344 238.762 240.344 236.74C240.344 234.718 242.096 233.043 244.271 233.043C246.446 233.043 248.198 234.718 248.198 236.74C248.198 238.762 246.446 240.437 244.271 240.437ZM318.823 117.272V153.725L288.797 170.189C285.414 168.283 281.124 168.11 277.499 170.132C272.122 173.136 270.249 179.721 273.391 184.863C276.533 190.004 283.42 191.795 288.797 188.791C292.422 186.769 294.415 183.13 294.415 179.433L318.884 166.03V198.785L285.353 217.272L249.587 197.688V167.59C253.152 165.799 255.629 162.217 255.629 158.116C255.629 152.165 250.554 147.313 244.331 147.313C238.109 147.313 233.034 152.165 233.034 158.116C233.034 161.986 235.209 165.337 238.411 167.243V198.265L199.866 219.525V262.563C196.422 264.412 194.006 267.878 194.006 271.922C194.006 277.872 199.08 282.725 205.303 282.725C211.526 282.725 216.601 277.872 216.601 271.922C216.601 267.993 214.365 264.527 211.043 262.679V225.648L244.452 207.22L279.976 226.688V263.083L249.829 279.663V246.099C253.212 244.25 255.569 240.784 255.569 236.798C255.569 230.848 250.494 225.995 244.271 225.995C238.048 225.995 232.973 230.848 232.973 236.798C232.973 240.784 235.269 244.25 238.713 246.099V285.844L206.089 303.868L172.86 285.498L172.619 203.58L211.103 182.321V133.737L172.86 112.304V30.6179L206.089 12.2472L238.713 30.2713V69.9013C235.329 71.7499 232.973 75.2161 232.973 79.2022C232.973 85.1525 238.048 90.0051 244.271 90.0051C250.494 90.0051 255.569 85.1525 255.569 79.2022C255.569 75.2161 253.273 71.7499 249.829 69.9013V36.3949L279.976 53.0325V89.8896L245.056 109.011L211.284 90.4095V53.2636C214.486 51.3572 216.601 48.0066 216.601 44.136C216.601 38.1857 211.526 33.3331 205.303 33.3331C199.08 33.3331 194.006 38.1857 194.006 44.136C194.006 48.2954 196.483 51.8771 200.107 53.668V96.5331L271.76 135.932C271.76 135.932 271.76 136.279 271.76 136.452C271.76 142.402 276.835 147.255 283.057 147.255C289.28 147.255 294.355 142.402 294.355 136.452C294.355 130.502 289.28 125.649 283.057 125.649C281.185 125.649 279.372 126.169 277.801 126.92L256.294 115.077L285.716 98.9594L318.823 117.215V117.272ZM285.112 182.61C283.239 183.65 280.883 183.014 279.795 181.223C278.708 179.433 279.372 177.18 281.245 176.14C283.118 175.1 285.474 175.735 286.562 177.526C287.649 179.317 286.984 181.57 285.112 182.61ZM248.198 158C248.198 160.08 246.446 161.697 244.271 161.697C242.096 161.697 240.344 160.022 240.344 158C240.344 155.978 242.096 154.303 244.271 154.303C246.446 154.303 248.198 155.978 248.198 158ZM209.23 271.806C209.23 273.886 207.478 275.503 205.303 275.503C203.128 275.503 201.376 273.828 201.376 271.806C201.376 269.784 203.128 268.109 205.303 268.109C207.478 268.109 209.23 269.784 209.23 271.806ZM209.23 44.136C209.23 46.2157 207.478 47.8333 205.303 47.8333C203.128 47.8333 201.376 46.158 201.376 44.136C201.376 42.1141 203.128 40.4388 205.303 40.4388C207.478 40.4388 209.23 42.1141 209.23 44.136ZM279.13 136.452C279.13 134.372 280.883 132.755 283.057 132.755C285.232 132.755 286.984 134.43 286.984 136.452C286.984 138.474 285.232 140.149 283.057 140.149C280.883 140.149 279.13 138.474 279.13 136.452Z" stroke="black" stroke-width="2" mask="url(#path-1-inside-1_254332_5741)"/>
</g>
<defs>
<filter id="filter0_d_254332_5741" x="0" y="0" width="334" height="324" filterUnits="userSpaceOnUse" color-interpolation-filters="sRGB">
<feFlood flood-opacity="0" result="BackgroundImageFix"/>
<feColorMatrix in="SourceAlpha" type="matrix" values="0 0 0 0 0 0 0 0 0 0 0 0 0 0 0 0 0 0 127 0" result="hardAlpha"/>
<feOffset dy="4"/>
<feGaussianBlur stdDeviation="2"/>
<feComposite in2="hardAlpha" operator="out"/>
<feColorMatrix type="matrix" values="0 0 0 0 0 0 0 0 0 0 0 0 0 0 0 0 0 0 0.25 0"/>
<feBlend mode="normal" in2="BackgroundImageFix" result="effect1_dropShadow_254332_5741"/>
<feBlend mode="normal" in="SourceGraphic" in2="effect1_dropShadow_254332_5741" result="shape"/>
</filter>
<linearGradient id="paint0_linear_254332_5741" x1="46.7739" y1="43.0962" x2="276.351" y2="283.187" gradientUnits="userSpaceOnUse">
<stop stop-color="#FBB315"/>
<stop offset="0.3" stop-color="#F05F47"/>
<stop offset="0.6" stop-color="#DE3593"/>
<stop offset="1" stop-color="#9D4F9D"/>
</linearGradient>
</defs>
</svg>
