<svg version="1.0" xmlns="http://www.w3.org/2000/svg"
 width="900.000000pt" height="50.000000pt" viewBox="0 0 800.000000 900.000000"
 preserveAspectRatio="xMidYMid meet">

<g transform="translate(-7650.000000,910.000000) scale(0.100000,-0.100000)"
fill="#FFFFFF" stroke="none">
<path d="M0 4500 l0 -4480 4500 0 4500 0 0 4480 0 4480 -4500 0 -4500 0 0
-4480z m3995 3602 c-98 -52 -156 -94 -237 -170 -87 -83 -137 -144 -120 -150 7
-2 19 -10 26 -17 12 -12 90 -1 510 72 l497 87 72 -72 c40 -40 81 -72 92 -72
41 -1 81 -55 71 -96 -15 -60 -81 -81 -131 -42 -24 19 -27 26 -23 69 5 46 4 49
-46 98 -29 28 -60 51 -70 51 -50 0 -942 -163 -945 -173 -17 -49 -96 -74 -131
-42 -16 14 -20 8 -57 -72 -35 -76 -74 -184 -73 -202 1 -3 42 38 93 91 l92 97
265 50 c159 30 266 55 269 63 2 6 14 22 27 35 31 31 78 30 109 -2 71 -70 -27
-178 -106 -117 -24 18 -29 18 -279 -30 l-255 -48 -120 -123 c-104 -106 -120
-127 -121 -157 -1 -19 -7 -55 -12 -80 -6 -25 -11 -81 -12 -126 l0 -81 57 -64
c31 -35 65 -74 76 -86 l19 -22 -61 -75 c-33 -41 -61 -82 -61 -92 0 -34 52
-234 60 -229 4 2 74 84 155 180 l147 175 -43 47 c-32 35 -50 47 -67 44 -54 -7
-100 54 -81 109 13 35 35 50 78 50 51 0 77 -35 71 -98 -1 -16 16 -42 54 -82
31 -32 56 -62 56 -66 0 -4 -79 -101 -175 -215 -96 -115 -175 -215 -175 -223 0
-25 60 -187 115 -309 235 -520 661 -1018 1147 -1340 136 -90 301 -181 422
-233 l89 -39 -119 -109 c-554 -510 -764 -820 -856 -1264 l-24 -113 -188 385
c-104 211 -230 462 -281 557 -84 157 -96 175 -130 190 -66 29 -149 31 -435 9
-356 -28 -495 -17 -615 48 -107 58 -149 226 -103 413 15 64 -1 102 -59 135
-56 33 -73 59 -73 109 1 44 13 66 60 100 l31 23 -53 30 c-29 16 -66 42 -82 56
-25 24 -28 32 -22 66 3 21 19 68 36 105 53 117 39 161 -71 220 -100 55 -169
121 -169 163 0 58 26 98 140 219 128 135 274 313 308 374 29 55 28 101 -4 276
-26 142 -27 143 -10 235 78 429 314 826 671 1126 216 182 476 316 755 391 103
27 105 26 25 -17z m1133 -152 c28 -26 37 -62 22 -90 -10 -19 -5 -39 41 -141
28 -66 50 -121 48 -123 -5 -5 -677 -216 -687 -216 -4 0 -29 54 -57 120 -44
105 -53 120 -77 125 -41 9 -71 53 -64 90 10 49 41 70 99 66 44 -3 73 -73 48
-119 -7 -13 3 -45 34 -117 23 -55 47 -99 51 -99 25 5 570 177 575 183 4 3 -10
44 -30 91 -31 69 -43 85 -66 91 -44 12 -65 38 -65 80 0 67 80 104 128 59z
m311 -85 c41 -21 55 -73 30 -113 -10 -15 -3 -43 36 -146 27 -72 44 -130 39
-135 -5 -4 -115 -38 -244 -75 -150 -42 -239 -73 -245 -83 -22 -36 -46 -53 -77
-53 -71 0 -104 84 -53 135 29 30 64 32 98 5 l26 -20 215 62 c119 34 216 67
215 73 0 5 -17 53 -37 105 -30 76 -42 96 -60 98 -28 4 -62 48 -62 79 0 28 50
83 75 83 9 0 29 -7 44 -15z m252 -154 c17 -13 23 -29 23 -56 0 -35 9 -46 157
-186 l156 -150 -50 -200 c-48 -194 -49 -202 -34 -229 24 -40 21 -77 -8 -105
-26 -27 -70 -32 -96 -12 -49 38 -47 106 4 138 30 18 34 27 78 204 l47 186
-144 137 c-137 130 -147 137 -186 138 -50 0 -78 30 -78 80 0 66 77 99 131 55z
m-1386 -236 c33 -33 32 -70 -4 -106 -35 -34 -54 -36 -99 -9 l-32 20 -216 -45
-217 -45 -86 -92 c-77 -82 -86 -95 -87 -131 -1 -31 -7 -46 -28 -64 -34 -29
-68 -29 -102 0 -55 48 -20 137 55 137 31 0 45 10 130 101 l96 100 228 47 c125
25 227 50 227 56 0 5 10 20 22 33 30 32 81 31 113 -2z m1459 -66 c20 -16 26
-29 26 -59 0 -30 -6 -43 -26 -59 -15 -12 -32 -21 -38 -21 -12 0 -170 -463
-164 -481 2 -6 109 -55 237 -109 222 -93 235 -97 265 -85 84 35 151 -77 81
-135 -23 -19 -80 -18 -103 4 -11 9 -22 29 -25 44 -6 25 -28 36 -259 131 -139
57 -257 107 -261 111 -5 4 30 125 78 268 83 253 85 262 70 291 -21 42 -19 59
14 92 35 34 68 37 105 8z m-1030 -70 c20 -15 26 -29 26 -57 0 -34 7 -43 79
-105 l80 -67 240 72 c133 40 241 78 241 84 0 23 53 64 82 64 39 0 78 -40 78
-80 0 -39 -39 -80 -76 -80 -14 0 -38 7 -53 16 -26 15 -37 13 -276 -60 -209
-64 -251 -74 -264 -63 -9 7 -50 43 -91 79 -64 56 -80 65 -104 61 -36 -7 -72
13 -86 48 -32 76 58 140 124 88z m-256 -45 c24 -27 28 -54 12 -84 -8 -15 11
-42 116 -161 69 -79 134 -152 144 -163 16 -16 27 -18 84 -11 37 4 66 11 66 18
0 22 44 57 71 57 41 0 58 -9 74 -41 21 -40 19 -57 -14 -90 -34 -34 -68 -37
-104 -9 -23 19 -31 19 -103 9 -70 -9 -79 -9 -94 8 -9 10 -81 91 -160 181 -98
111 -149 162 -163 162 -32 0 -67 39 -67 75 0 78 85 108 138 49z m1675 -134
c34 -27 41 -52 26 -93 -12 -33 -8 -42 124 -301 l136 -267 -59 -95 c-49 -77
-58 -100 -54 -124 10 -47 -3 -80 -37 -94 -60 -25 -113 7 -113 70 0 41 27 71
68 77 25 3 39 17 77 78 26 41 48 81 48 88 1 8 -56 129 -126 268 -101 199 -132
253 -147 253 -62 0 -90 100 -40 139 34 26 64 27 97 1z m-1712 -345 c246 -281
288 -325 312 -325 39 0 62 -14 76 -48 24 -57 -28 -120 -89 -107 -39 8 -60 40
-60 88 0 35 -18 58 -270 347 l-270 309 -92 -38 c-78 -33 -94 -43 -107 -72 -40
-85 -151 -66 -151 26 0 61 51 93 109 69 30 -13 38 -11 139 31 59 24 110 44
113 45 4 0 134 -146 290 -325z m891 221 c51 -38 39 -108 -22 -138 -31 -15 -39
-28 -64 -99 -24 -67 -27 -83 -15 -90 8 -4 132 -58 277 -119 211 -89 266 -109
281 -100 11 5 35 10 54 10 88 0 98 -133 11 -154 -35 -9 -83 19 -90 53 -5 26
-26 36 -298 150 -161 68 -299 127 -306 131 -10 6 -4 33 29 121 29 78 39 115
31 123 -18 18 -12 78 12 103 24 26 72 30 100 9z m-1311 -206 c22 0 49 -42 49
-76 0 -32 14 -50 152 -195 147 -154 153 -159 185 -153 27 5 37 1 64 -25 26
-27 30 -37 25 -64 -18 -95 -156 -85 -156 12 0 31 -14 49 -152 190 -142 145
-156 156 -192 158 -64 3 -100 56 -74 111 14 29 55 55 76 47 8 -3 18 -5 23 -5z
m-86 -325 c16 -15 25 -36 25 -57 1 -29 21 -53 158 -194 l157 -161 448 171
c426 163 450 173 462 202 36 87 170 46 150 -46 -12 -53 -62 -73 -129 -50 -28
10 -74 -5 -486 -164 l-455 -175 -171 174 c-140 141 -176 173 -193 168 -48 -12
-101 34 -101 88 0 31 44 69 80 69 19 0 40 -9 55 -25z m-260 -111 c20 -8 48
-61 41 -79 -3 -9 90 -104 241 -247 135 -128 248 -233 252 -233 3 0 180 68 393
150 365 141 388 152 393 177 19 85 155 70 155 -17 0 -63 -64 -104 -113 -72
-21 13 -52 3 -432 -144 -393 -153 -410 -158 -429 -141 -11 9 -126 118 -255
240 -214 204 -238 223 -263 218 -41 -8 -77 10 -92 46 -30 71 34 130 109 102z
m2100 -114 c191 -56 207 -60 228 -45 52 36 127 -2 127 -65 0 -41 -39 -80 -80
-80 -32 0 -80 37 -80 63 0 9 -65 32 -200 72 l-200 58 -81 -23 c-74 -21 -82
-26 -99 -60 -21 -40 -36 -50 -79 -50 -68 0 -99 97 -45 139 31 25 61 27 90 7
18 -13 30 -12 110 14 49 16 92 29 97 29 4 1 99 -26 212 -59z m-106 -255 c71
-58 82 -64 121 -62 35 1 46 -3 66 -26 30 -35 30 -69 2 -101 -50 -55 -137 -26
-139 47 0 27 -10 40 -61 82 -34 28 -67 54 -75 58 -8 5 -99 -11 -221 -38 -279
-62 -280 -62 -287 -86 -28 -88 -155 -71 -155 21 0 64 66 101 116 66 19 -13 47
-9 275 44 140 32 260 58 268 59 7 1 48 -28 90 -64z m491 -25 c26 -48 -3 -119
-47 -121 -10 0 -30 -2 -45 -2 -19 -2 -89 -55 -238 -180 l-211 -177 -247 -15
-247 -15 -150 150 c-133 132 -154 150 -183 150 -38 0 -82 37 -82 70 0 29 26
76 45 84 58 22 120 -21 113 -79 -4 -33 4 -42 138 -176 l143 -142 223 12 c134
8 229 18 238 24 8 7 102 86 210 176 134 113 194 170 193 183 -8 57 54 105 109
86 16 -6 33 -18 38 -28z m-1495 -130 c12 -12 19 -33 19 -56 0 -34 17 -52 329
-357 317 -310 331 -322 368 -323 58 -1 84 -33 80 -96 -2 -30 -38 -58 -76 -58
-22 0 -43 8 -55 20 -19 19 -21 27 -24 77 -1 14 -110 127 -331 342 -313 304
-332 320 -367 321 -48 0 -78 28 -78 73 0 76 80 110 135 57z m985 -10 c20 -20
26 -63 14 -95 -9 -23 -61 -47 -87 -39 -12 3 -31 15 -43 25 -20 19 -24 19 -162
2 -139 -17 -141 -17 -153 -45 -33 -81 -149 -55 -149 33 0 64 66 99 119 63 22
-16 34 -15 171 1 143 17 149 19 169 46 18 24 29 29 61 29 27 0 47 -7 60 -20z
m-256 -421 c21 -16 26 -29 26 -62 0 -35 6 -48 41 -83 36 -36 46 -42 73 -37 75
12 120 -89 60 -136 -34 -27 -74 -27 -102 -1 -23 21 -39 66 -28 77 4 4 -15 28
-41 55 -36 37 -54 48 -78 48 -57 0 -100 64 -74 112 27 51 78 63 123 27z
m-3955 -2985 c100 -29 170 -110 186 -211 l7 -43 -89 0 -88 0 -16 39 c-23 55
-82 81 -180 81 -85 0 -135 -20 -158 -62 -19 -33 -7 -73 29 -100 15 -11 90 -31
191 -52 251 -51 318 -97 327 -226 5 -70 -10 -120 -51 -166 -54 -62 -125 -90
-262 -104 -183 -18 -343 26 -405 111 -24 33 -50 111 -50 149 0 6 40 10 90 10
76 0 90 -3 90 -16 0 -27 64 -81 111 -94 63 -17 188 -8 230 16 46 27 66 65 54
100 -17 47 -52 62 -213 94 -212 42 -271 70 -312 150 -25 49 -27 147 -4 193 45
90 105 123 274 151 44 8 188 -4 239 -20z m471 -199 c0 -110 4 -195 9 -195 5 0
92 88 193 195 l183 194 109 1 109 0 -19 -22 c-10 -13 -86 -94 -167 -180 -100
-105 -146 -162 -141 -170 4 -7 83 -109 176 -226 92 -117 168 -214 168 -217 0
-3 -44 -5 -97 -5 l-98 0 -120 151 c-66 82 -128 160 -137 172 l-17 22 -76 -75
-75 -74 0 -98 0 -98 -95 0 -95 0 0 410 0 410 95 0 95 0 0 -195z m860 -215 l0
-410 -95 0 -95 0 0 410 0 410 95 0 95 0 0 -410z m280 80 l0 -330 235 0 235 0
0 -80 0 -80 -332 2 -333 3 -3 408 -2 407 100 0 100 0 0 -330z m740 0 l0 -330
235 0 235 0 0 -80 0 -80 -330 0 -330 0 0 410 0 410 95 0 95 0 0 -330z m1230
250 l0 -80 -245 0 -245 0 0 -100 0 -100 235 0 235 0 0 -70 0 -70 -235 0 -235
0 0 -160 0 -160 -95 0 -95 0 0 410 0 410 340 0 340 0 0 -80z m280 -167 c1
-260 7 -317 42 -366 60 -83 240 -89 311 -9 41 45 46 86 47 360 l0 262 101 0
101 0 -4 -287 c-4 -270 -6 -292 -28 -348 -16 -42 -38 -75 -75 -112 -71 -69
-148 -94 -291 -94 -194 -1 -306 57 -367 190 -20 43 -22 65 -25 349 l-3 302 95
0 96 0 0 -247z m872 -80 l3 -328 233 -3 232 -2 0 -80 0 -80 -330 0 -330 0 0
410 0 410 95 0 95 0 2 -327z m1506 -65 c84 -216 155 -401 158 -410 6 -16 -3
-18 -94 -18 l-99 0 -25 68 -25 67 -203 0 -203 0 -25 -67 -25 -68 -99 0 c-91 0
-100 2 -94 18 4 9 75 194 158 410 l151 392 137 0 137 0 151 -392z m412 -18 l0
-410 -95 0 -95 0 0 410 0 410 95 0 95 0 0 -410z m-5320 -765 c39 -20 60 -53
60 -93 0 -29 -3 -33 -22 -30 -17 2 -24 11 -26 30 -2 15 -15 37 -29 48 -23 18
-40 20 -170 20 -139 0 -145 -1 -168 -25 -24 -23 -25 -30 -25 -148 0 -178 -6
-172 193 -172 173 0 193 7 199 69 2 23 8 32 26 34 19 3 22 -1 22 -30 0 -47
-20 -80 -60 -100 -29 -15 -62 -18 -183 -18 -233 0 -247 12 -247 215 0 173 14
198 124 216 76 12 272 2 306 -16z m2345 -1 c53 -25 64 -60 64 -199 1 -196 -22
-215 -262 -215 -244 0 -260 12 -266 193 -3 124 7 184 35 208 34 28 108 39 249
36 114 -3 148 -7 180 -23z m1399 6 c62 -31 71 -58 71 -204 0 -209 -14 -219
-279 -214 -240 4 -246 10 -246 220 0 202 22 219 285 215 99 -2 149 -7 169 -17z
m766 -2 c46 -20 61 -39 67 -88 5 -38 4 -40 -21 -40 -21 0 -26 5 -26 25 0 14
-11 37 -25 50 -24 24 -28 25 -180 25 -152 0 -156 -1 -180 -25 -24 -23 -25 -30
-25 -148 0 -179 -8 -172 205 -172 163 0 167 1 186 24 11 14 19 39 19 62 l0 39
-106 0 c-104 0 -105 0 -102 23 3 21 7 22 131 25 l127 3 0 -66 c0 -136 -31
-155 -255 -155 -243 0 -255 11 -255 215 0 171 14 196 119 215 71 14 280 5 321
-12z m-5855 -13 c0 -19 -8 -20 -102 -23 l-103 -3 0 -189 0 -190 -25 0 -25 0 0
190 0 189 -102 3 c-98 3 -103 4 -106 26 l-3 22 233 -2 c225 -3 233 -4 233 -23z
m675 0 l0 -25 -180 0 -181 0 3 -67 3 -68 173 -3 c164 -2 172 -3 172 -22 0 -19
-7 -20 -175 -20 l-175 0 0 -75 0 -75 180 0 180 0 0 -25 0 -25 -202 2 -203 3
-3 213 -2 212 205 0 205 0 0 -25z m1050 -70 l0 -95 190 0 190 0 0 95 c0 95 0
95 25 95 l25 0 0 -215 0 -215 -25 0 -25 0 0 100 0 100 -190 0 -190 0 0 -100 0
-100 -25 0 -25 0 0 215 0 215 25 0 c25 0 25 0 25 -95z m992 -92 l188 -188 0
188 0 187 25 0 25 0 0 -215 0 -215 -30 0 c-26 0 -62 29 -233 192 l-202 191 -3
-192 -2 -192 -23 3 c-22 3 -22 5 -25 203 -1 110 0 205 2 212 3 8 23 13 48 13
42 0 46 -3 230 -187z m1358 -3 l0 -190 160 0 c153 0 160 -1 160 -20 0 -19 -7
-20 -185 -20 l-185 0 0 210 0 210 25 0 25 0 0 -190z m2262 88 l97 -103 98 104
c87 91 101 103 127 100 29 -4 28 -6 -87 -128 l-117 -125 0 -83 c0 -82 0 -83
-25 -83 -25 0 -25 1 -25 88 l0 87 -110 117 c-61 64 -110 119 -110 122 0 3 12
6 28 6 22 0 46 -20 124 -102z"/>
<path d="M3584 7719 c-3 -6 1 -18 9 -27 13 -12 19 -13 31 -3 8 7 12 19 9 27
-6 17 -39 19 -49 3z"/>
<path d="M4813 7723 c-17 -6 -17 -28 0 -41 17 -14 40 1 35 23 -3 20 -16 26
-35 18z"/>
<path d="M4210 7664 c-11 -12 -10 -18 3 -32 16 -15 18 -15 34 0 13 14 14 20 3
32 -7 9 -16 16 -20 16 -4 0 -13 -7 -20 -16z"/>
<path d="M3637 6924 c-4 -4 -7 -16 -7 -26 0 -14 6 -19 23 -16 14 2 22 10 22
23 0 20 -25 32 -38 19z"/>
<path d="M3381 6830 c1 -19 4 -60 7 -90 l7 -54 34 42 34 43 -34 37 c-19 20
-37 41 -41 47 -5 5 -8 -7 -7 -25z"/>
<path d="M5061 7907 c-16 -16 -14 -34 5 -41 21 -8 34 1 34 24 0 22 -23 33 -39
17z"/>
<path d="M4414 7715 c-4 -9 -2 -21 4 -27 15 -15 44 -1 40 19 -4 23 -36 29 -44
8z"/>
<path d="M5377 7806 c-6 -15 11 -36 29 -36 14 0 27 28 18 41 -8 14 -41 11 -47
-5z"/>
<path d="M4953 7344 c-3 -8 -1 -20 5 -26 16 -16 42 -2 42 22 0 24 -38 28 -47
4z"/>
<path d="M5614 7665 c-4 -9 -2 -21 4 -27 15 -15 44 -1 40 19 -4 23 -36 29 -44
8z"/>
<path d="M5867 6863 c-12 -12 -7 -41 7 -46 22 -9 41 19 26 38 -14 16 -23 19
-33 8z"/>
<path d="M4224 7436 c-8 -21 3 -36 27 -36 15 0 20 6 17 22 -4 27 -35 37 -44
14z"/>
<path d="M3473 7083 c-7 -3 -13 -13 -13 -23 0 -19 17 -30 38 -23 6 3 12 13 12
23 0 19 -17 30 -37 23z"/>
<path d="M5703 7373 c-15 -5 -17 -39 -4 -47 14 -9 41 4 41 19 0 17 -22 33 -37
28z"/>
<path d="M6074 6535 c-4 -9 -2 -21 4 -27 15 -15 44 -1 40 19 -4 23 -36 29 -44
8z"/>
<path d="M4667 7303 c-22 -21 2 -56 31 -46 17 7 15 40 -4 47 -19 7 -19 7 -27
-1z"/>
<path d="M5466 7264 c-16 -15 -16 -18 -2 -33 15 -14 18 -14 33 2 16 15 16 18
2 33 -15 14 -18 14 -33 -2z"/>
<path d="M4393 7254 c-3 -8 -1 -20 5 -26 16 -16 42 -2 42 22 0 24 -38 28 -47
4z"/>
<path d="M4954 6886 c-8 -21 3 -36 27 -36 15 0 20 6 17 22 -4 27 -35 37 -44
14z"/>
<path d="M6091 7117 c-16 -16 -14 -34 5 -41 21 -8 34 1 34 24 0 22 -23 33 -39
17z"/>
<path d="M6234 6265 c-4 -9 -2 -21 4 -27 15 -15 44 -1 40 19 -4 23 -36 29 -44
8z"/>
<path d="M3844 7005 c-4 -9 -2 -21 4 -27 15 -15 44 -1 40 19 -4 23 -36 29 -44
8z"/>
<path d="M4734 6426 c-8 -21 3 -36 27 -36 15 0 20 6 17 22 -4 27 -35 37 -44
14z"/>
<path d="M5264 6986 c-8 -21 3 -36 27 -36 15 0 20 6 17 22 -4 27 -35 37 -44
14z"/>
<path d="M5814 6435 c-4 -9 -2 -21 4 -27 15 -15 44 -1 40 19 -4 23 -36 29 -44
8z"/>
<path d="M3974 6765 c-4 -9 -2 -21 4 -27 15 -15 44 -1 40 19 -4 23 -36 29 -44
8z"/>
<path d="M4393 6334 c-3 -8 -1 -20 5 -26 16 -16 42 -2 42 22 0 24 -38 28 -47
4z"/>
<path d="M3867 6473 c-15 -14 -7 -43 12 -43 26 0 36 17 21 35 -14 16 -23 19
-33 8z"/>
<path d="M5233 6444 c-3 -8 -1 -20 5 -26 16 -16 42 -2 42 22 0 24 -38 28 -47
4z"/>
<path d="M3614 6335 c-4 -9 -2 -21 4 -27 15 -15 44 -1 40 19 -4 23 -36 29 -44
8z"/>
<path d="M5057 6164 c-4 -4 -7 -16 -7 -26 0 -14 6 -19 23 -16 14 2 22 10 22
23 0 20 -25 32 -38 19z"/>
<path d="M5293 6234 c-3 -8 -1 -20 5 -26 16 -16 42 -2 42 22 0 24 -38 28 -47
4z"/>
<path d="M6037 6193 c-11 -10 -8 -41 4 -49 6 -3 18 1 27 9 13 13 13 19 2 31
-14 17 -23 20 -33 9z"/>
<path d="M4983 5943 c-18 -7 -16 -40 3 -47 21 -8 34 1 34 24 0 19 -17 30 -37
23z"/>
<path d="M5774 5895 c-8 -20 4 -35 27 -35 14 0 19 7 19 25 0 18 -5 25 -20 25
-11 0 -23 -7 -26 -15z"/>
<path d="M6074 5965 c-4 -9 -2 -21 4 -27 15 -15 44 -1 40 19 -4 23 -36 29 -44
8z"/>
<path d="M4777 5893 c-11 -10 -8 -41 4 -49 6 -3 18 1 27 9 13 13 13 19 2 31
-14 17 -23 20 -33 9z"/>
<path d="M4584 5825 c-4 -9 -2 -21 4 -27 15 -15 44 -1 40 19 -4 23 -36 29 -44
8z"/>
<path d="M5364 5065 c-4 -9 -2 -21 4 -27 15 -15 44 -1 40 19 -4 23 -36 29 -44
8z"/>
<path d="M5574 5815 c-4 -9 -2 -21 4 -27 15 -15 44 -1 40 19 -4 23 -36 29 -44
8z"/>
<path d="M5131 5757 c-16 -16 -14 -34 5 -41 21 -8 34 1 34 24 0 22 -23 33 -39
17z"/>
<path d="M5327 5403 c-11 -10 -8 -41 4 -49 6 -3 18 1 27 9 13 13 13 19 2 31
-14 17 -23 20 -33 9z"/>
<path d="M5533 5203 c-15 -5 -17 -39 -4 -47 14 -9 41 4 41 19 0 17 -22 33 -37
28z"/>
<path d="M7311 2103 c-34 -93 -61 -171 -61 -175 0 -5 63 -8 140 -8 77 0 140 3
140 8 0 4 -28 82 -62 175 -46 127 -65 167 -78 167 -13 0 -32 -40 -79 -167z"/>
<path d="M4729 1231 c-23 -19 -24 -24 -24 -155 0 -182 -13 -171 210 -171 223
0 210 -11 210 171 0 182 9 174 -210 174 -145 0 -165 -2 -186 -19z"/>
<path d="M6135 1225 c-24 -23 -25 -30 -25 -148 0 -176 -5 -171 187 -175 156
-4 216 6 228 36 11 28 18 176 11 226 -13 83 -21 86 -211 86 -163 0 -166 0
-190 -25z"/>
</g>
</svg>
