<svg width="155" height="28" viewBox="0 0 155 28" fill="none" xmlns="http://www.w3.org/2000/svg">
<g id="BNB">
<g id="_2085448168176">
<path id="Vector" d="M4.5384 4.1974L11.7924 0L19.0464 4.1974L16.3246 5.673L11.7924 3.0628L7.1424 5.673L4.5384 4.1974ZM18.9348 9.4116L16.3246 7.936L11.7924 10.5462L7.1424 7.936L4.5322 9.4116V12.4744L9.0706 15.0846V20.4166L11.6808 22.0038L14.291 20.4166V15.2024L18.8294 12.5922V9.4178H18.9348V9.4116ZM18.9348 17.8064V14.7436L16.3246 16.3308V19.2758L18.9348 17.8064ZM20.863 18.8232L16.3308 21.4334V24.4962L23.591 20.2988V11.9102L20.8692 13.609L20.863 18.8232ZM18.2528 6.8076L20.863 8.3948V11.4576L23.4732 9.8704V6.8076L20.863 5.2204L18.2528 6.8076ZM9.0706 22.568V25.6308L11.6808 27.218L14.291 25.6308V22.568L11.6808 24.1552L9.0706 22.568ZM4.5322 17.8064L7.1424 19.282V16.2192L4.5322 14.632V17.8064ZM9.0706 6.8076L11.6808 8.3948L14.4026 6.8076L11.7924 5.2204L9.0706 6.8076ZM2.6102 8.3948L5.332 6.8076L2.6102 5.2204L0 6.8076V9.8704L2.6102 11.4576V8.3948ZM2.6102 13.609L0 12.0218V20.4104L7.2602 24.6078V21.545L2.7218 18.9348V13.6028L2.6102 13.609Z" fill="white"/>
<path id="Vector_2" d="M44.4477 17.1245C44.4477 15.0847 43.3131 14.0617 41.6143 13.3797C42.7489 12.8155 43.6541 11.7925 43.6541 10.0937C43.6541 7.71293 41.7259 6.12573 38.6631 6.12573H31.6323V21.3219H38.8863C42.1785 21.2041 44.4477 19.8463 44.4477 17.1245ZM40.2503 10.6579C40.2503 11.7925 39.3451 12.2451 37.8695 12.2451H34.8067V8.95913H38.0927C39.5745 8.95913 40.2503 9.52953 40.2503 10.6579ZM41.1617 16.6719C41.1617 17.8065 40.2565 18.3707 38.7809 18.3707H34.8129V15.0847H38.6693C40.3681 14.9669 41.1617 15.6489 41.1617 16.6719Z" fill="white"/>
<path id="Vector_3" d="M60.8901 21.2041V6.12573H57.5979V15.4257L50.4555 6.12573H47.3989V21.3219H50.6849V11.6809L58.0567 21.3219H60.8901V21.2041Z" fill="white"/>
<path id="Vector_4" d="M77.5556 17.1245C77.5556 15.0847 76.421 14.0617 74.7222 13.3797C75.8568 12.8155 76.762 11.7925 76.762 10.0937C76.762 7.71293 74.8338 6.12573 71.771 6.12573H64.7402V21.3219H71.9942C75.2864 21.2041 77.5556 19.8463 77.5556 17.1245ZM73.476 10.6579C73.476 11.7925 72.5708 12.2451 71.0952 12.2451H68.0324V8.95913H71.3184C72.6824 8.95913 73.476 9.52953 73.476 10.6579ZM74.2696 16.6719C74.2696 17.8065 73.3644 18.3707 71.8888 18.3707H67.9208V15.0847H71.7772C73.476 14.9669 74.2696 15.6489 74.2696 16.6719Z" fill="white"/>
<path id="Vector_5" d="M97.6252 18.6L95.9264 16.9012C94.6802 18.1474 93.434 18.8294 91.6174 18.8294C88.6662 18.8294 86.6264 16.4486 86.6264 13.3858C86.6264 10.4346 88.784 8.06003 91.6174 8.06003C93.3162 8.06003 94.6802 8.85363 95.8148 9.98823L97.5136 7.94843C96.038 6.59063 94.3392 5.56763 91.6174 5.56763C87.079 5.56763 83.793 9.08303 83.793 13.392C83.793 17.8126 87.079 21.2164 91.5058 21.2164C94.3392 21.204 96.038 20.1872 97.6252 18.6Z" fill="white"/>
<path id="Vector_6" d="M110.552 14.6321V20.9809H113.162V5.78467H110.552V12.1335H103.298V5.78467H100.688V20.9809H103.298V14.6321H110.552Z" fill="white"/>
<path id="Vector_7" d="M125.178 5.78467H122.685L115.996 21.0925H118.717L120.305 17.4655H127.447L129.034 21.0925H131.868L125.178 5.78467ZM126.542 14.9669H121.328L123.938 8.95907L126.542 14.9669Z" fill="white"/>
<path id="Vector_8" d="M134.819 5.78467V20.9809H137.423V5.78467H134.819Z" fill="white"/>
<path id="Vector_9" d="M152.278 16.3309L144.113 5.89627H141.732V21.0925H144.342V10.2053L152.731 20.9809H155V5.78467H152.39V16.3309H152.278Z" fill="white"/>
</g>
</g>
</svg>
