<svg width="26" height="23" viewBox="0 0 26 23" fill="none" xmlns="http://www.w3.org/2000/svg">
<g id="Clip path group">
<mask id="mask0_254592_11274" style="mask-type:luminance" maskUnits="userSpaceOnUse" x="0" y="0" width="26" height="23">
<g id="38232bebcd">
<path id="Vector" d="M0.780273 0.274414H25.4273V22.5983H0.780273V0.274414Z" fill="white"/>
</g>
</mask>
<g mask="url(#mask0_254592_11274)">
<g id="Group">
<g id="Clip path group_2">
<mask id="mask1_254592_11274" style="mask-type:luminance" maskUnits="userSpaceOnUse" x="0" y="-38" width="74" height="93">
<g id="e90d4d3e11">
<path id="Vector_2" d="M33.9383 -35.6073C33.9531 -35.61 33.9669 -35.6119 33.9817 -35.6137C33.96 -35.61 33.9393 -35.6064 33.9186 -35.6018C33.9245 -35.6045 33.9314 -35.6064 33.9383 -35.6073ZM46.9886 -24.1436C46.9955 -24.1418 47.0014 -24.139 47.0083 -24.1363C46.9955 -24.1418 46.9827 -24.1454 46.9689 -24.1491C46.9758 -24.1473 46.9817 -24.1454 46.9886 -24.1436ZM47.0448 -24.1243C47.0537 -24.1206 47.0616 -24.1179 47.0694 -24.1151C47.0813 -24.1105 47.0911 -24.105 47.102 -24.1014C47.0773 -24.1124 47.0507 -24.1216 47.0251 -24.1317C47.032 -24.1289 47.0389 -24.1262 47.0448 -24.1243ZM72.7155 6.08756L55.7197 -3.04314C54.913 -5.64431 52.7386 -7.8 51.933 -8.78003C50.7911 -10.1348 49.5061 -11.6035 48.95 -12.1371C48.3129 -12.7479 47.3288 -13.6352 46.6316 -14.257V-14.2588L44.757 -16.5201C44.682 -16.6662 44.6051 -16.8251 44.5272 -17.0014C44.5943 -16.9959 44.6544 -16.9941 44.7037 -16.9941H44.7264C44.7353 -16.995 44.7442 -16.995 44.7531 -16.995H44.8053C44.9098 -16.9941 45.0518 -17.006 45.1544 -17.0226L45.1574 -17.0235C45.1751 -17.0253 45.1938 -17.0281 45.2116 -17.0308L45.2205 -17.0327C45.255 -17.0373 45.2895 -17.0437 45.326 -17.051C45.3329 -17.0519 45.3388 -17.0529 45.3447 -17.0538L45.3684 -17.0584C45.3773 -17.0611 45.3861 -17.0639 45.397 -17.0648L45.4039 -17.0666C45.4305 -17.0722 45.4571 -17.0777 45.4848 -17.0841L45.4907 -17.0859L45.4995 -17.0878C46.9689 -17.3146 48.3524 -18.978 48.6127 -20.4733C48.6798 -20.8159 48.7163 -21.2439 48.6364 -21.6986C48.6206 -21.8152 48.5802 -21.9649 48.5447 -22.0761L48.5417 -22.0816L48.5388 -22.0917C48.5338 -22.1091 48.5269 -22.1284 48.521 -22.1477L48.52 -22.1486C48.4845 -22.2506 48.4372 -22.3682 48.3908 -22.4554C48.3869 -22.4637 48.383 -22.472 48.378 -22.4811C48.3366 -22.5656 48.2784 -22.6685 48.2262 -22.7429H48.2252L48.2173 -22.7539C48.1818 -22.8081 48.1433 -22.8632 48.1078 -22.9073L48.0999 -22.9156C48.0723 -22.9523 48.0467 -22.9845 48.0181 -23.0175C47.8771 -23.4951 47.6039 -23.8433 47.2341 -24.0398L47.2233 -24.0453L47.2223 -24.0462L46.7056 -24.3245C46.9758 -25.1558 47.1454 -26.0981 47.1168 -27.1324C47.1099 -27.3822 47.2144 -31.7358 43.3202 -34.0247C43.3094 -34.0376 43.2975 -34.0523 43.2857 -34.066C43.2177 -34.1469 43.1476 -34.2268 43.0776 -34.3058L43.0668 -34.3177L43.0609 -34.326C42.9859 -34.4086 42.911 -34.4904 42.8341 -34.5721C42.7601 -34.652 42.6842 -34.7301 42.6073 -34.8063C42.5964 -34.8183 42.5846 -34.8284 42.5727 -34.8403C42.5609 -34.8523 42.5471 -34.8642 42.5343 -34.878C42.4791 -34.9322 42.4238 -34.9873 42.3666 -35.0406C42.2858 -35.1177 42.2029 -35.193 42.1201 -35.2674C42.0964 -35.2886 42.0708 -35.3097 42.0471 -35.3308C42.0284 -35.3473 42.0087 -35.3639 41.9899 -35.3804C41.9475 -35.4171 41.9061 -35.4539 41.8637 -35.4897C41.7769 -35.5623 41.6902 -35.6321 41.6034 -35.701C41.5659 -35.7303 41.5284 -35.757 41.491 -35.7864C41.4712 -35.802 41.4525 -35.8158 41.4328 -35.8314C41.4032 -35.8534 41.3726 -35.8773 41.3431 -35.8984C41.2582 -35.9609 41.1725 -36.0215 41.0867 -36.0803C41.0255 -36.1225 40.9634 -36.162 40.9023 -36.2025C40.8904 -36.2098 40.8786 -36.219 40.8668 -36.2263C40.8549 -36.2337 40.8441 -36.241 40.8322 -36.2484C40.7514 -36.3007 40.6685 -36.3522 40.5857 -36.4018C40.5029 -36.4495 40.421 -36.4964 40.3382 -36.5414C40.3195 -36.5515 40.2997 -36.5625 40.281 -36.5726C40.2189 -36.6066 40.1567 -36.6387 40.0946 -36.669C40.0147 -36.7104 39.9359 -36.749 39.856 -36.7839C39.8037 -36.8087 39.7515 -36.8307 39.6992 -36.8537C39.6874 -36.8583 39.6755 -36.8638 39.6637 -36.8684C39.6499 -36.8757 39.6341 -36.8821 39.6193 -36.8886C39.5414 -36.9216 39.4635 -36.9519 39.3856 -36.9813C39.3067 -37.0107 39.2278 -37.0374 39.1499 -37.0631C39.1351 -37.0677 39.1213 -37.0713 39.1065 -37.0759C39.0957 -37.0796 39.0829 -37.0833 39.071 -37.087C39.0188 -37.1035 38.9675 -37.12 38.9152 -37.1338C38.8344 -37.1577 38.7535 -37.1788 38.6736 -37.1972C38.6332 -37.2064 38.5947 -37.2137 38.5553 -37.2211C38.5385 -37.2247 38.5218 -37.2284 38.505 -37.2312C38.4813 -37.2358 38.4567 -37.2422 38.434 -37.2468C38.3472 -37.2615 38.2614 -37.2752 38.1766 -37.2863C38.1234 -37.2927 38.0711 -37.2973 38.0169 -37.301C38.0001 -37.3028 37.9833 -37.3046 37.9656 -37.3056C37.9498 -37.3074 37.933 -37.3102 37.9163 -37.3102C37.8226 -37.3166 37.7309 -37.3193 37.6402 -37.3193C37.5988 -37.3193 37.5593 -37.3157 37.5189 -37.3138C37.4893 -37.312 37.4587 -37.3111 37.4272 -37.3102C37.3976 -37.3083 37.366 -37.3083 37.3355 -37.3056C37.2211 -37.2955 37.1067 -37.2808 36.9962 -37.2596L36.9903 -37.2578C36.9617 -37.2532 36.9361 -37.2431 36.9095 -37.2376C36.799 -37.2137 36.6905 -37.1889 36.586 -37.1549C36.5771 -37.1513 36.5692 -37.1467 36.5604 -37.1439C36.4036 -37.0897 36.2517 -37.0273 36.1097 -36.9492L33.0587 -35.2996C33.1454 -35.3455 33.2362 -35.3878 33.3279 -35.4254C33.2371 -35.3868 33.1464 -35.3455 33.0596 -35.2987C32.4029 -34.9423 31.901 -34.3388 31.614 -33.5177C29.1734 -31.7037 28.201 -29.1282 27.9358 -28.4082C27.9042 -28.32 27.8253 -28.2502 27.7218 -28.2033L27.7169 -28.2006C27.6784 -28.1822 27.635 -28.1693 27.5906 -28.1583C27.5344 -28.1455 27.4822 -28.1262 27.4328 -28.1041C27.2159 -28.0031 27.069 -27.8139 27.0266 -27.6026C27.0019 -27.4805 27.0118 -27.3519 27.0621 -27.227C27.283 -26.6897 27.6419 -26.1128 28.2198 -25.7822C28.2277 -23.981 28.7138 -22.6455 28.7138 -22.6455C28.7138 -22.6455 28.6833 -21.7656 28.6872 -21.311C28.6911 -20.8554 28.6823 -19.316 29.3124 -17.8988C29.3124 -17.8988 29.2197 -17.4993 29.1941 -17.2944L11.937 -26.5666C11.3502 -26.8825 10.796 -26.5941 10.6974 -25.9246L6.55572 2.28869L1.49199 -0.431877L0.806641 0.328632L5.75696 7.73166L3.92475 20.2121C3.82515 20.8826 4.22157 21.6808 4.80733 21.9949L22.0585 31.2634L49.7793 46.1576L65.5848 54.649C66.1716 54.965 66.7258 54.6766 66.8244 54.007L73.597 7.87035C73.6966 7.20077 73.3012 6.4026 72.7155 6.08756Z" fill="white"/>
</g>
</mask>
<g mask="url(#mask1_254592_11274)">
<g id="Group_2">
<path id="Vector_3" d="M15.9199 8.44849L25.3788 22.5951L10.2655 14.4756L0.806641 0.328125L15.9199 8.44849Z" fill="#CCCCCC"/>
</g>
</g>
</g>
</g>
</g>
</g>
</svg>
