<svg width="144" height="50" viewBox="0 0 144 50" fill="none" xmlns="http://www.w3.org/2000/svg">
<g id="Ethereum">
<g id="Clip path group">
<mask id="mask0_254554_8624" style="mask-type:luminance" maskUnits="userSpaceOnUse" x="0" y="0" width="16" height="35">
<g id="D">
<path id="Vector" d="M0 0H15.1737V34.1408H0V0Z" fill="white"/>
</g>
</mask>
<g mask="url(#mask0_254554_8624)">
<path id="Vector_2" d="M0 25.1762L15.1737 34.1408V0L0 25.1762Z" fill="white"/>
</g>
</g>
<g id="Clip path group_2">
<mask id="mask1_254554_8624" style="mask-type:luminance" maskUnits="userSpaceOnUse" x="15" y="0" width="16" height="35">
<g id="F">
<path id="Vector_3" d="M15.1733 0H30.347V34.1408H15.1733V0Z" fill="white"/>
</g>
</mask>
<g mask="url(#mask1_254554_8624)">
<path id="Vector_4" d="M15.1733 0V34.1408L30.3411 25.1762L15.1733 0Z" fill="#D8D8D8"/>
</g>
</g>
<path id="Vector_5" d="M15.1737 18.2751L0 25.1761L15.1737 34.1407L30.3414 25.1761L15.1737 18.2751Z" fill="#BDBDBD"/>
<path id="Vector_6" d="M46.3509 28.7521C46.3509 28.9889 46.1528 29.1818 45.916 29.1818H37.5426C37.7531 31.251 39.3085 33.1379 41.4987 33.1379C42.1767 33.1676 42.8507 33.0205 43.4546 32.7109C44.0584 32.4013 44.5713 31.9399 44.9428 31.372C45.0656 31.2072 45.2462 31.1019 45.4759 31.2019C45.5375 31.2287 45.5914 31.2705 45.6328 31.3235C45.6741 31.3765 45.7016 31.439 45.7126 31.5053C45.7354 31.642 45.6951 31.7192 45.66 31.7964C44.8183 33.2659 43.1401 33.9884 41.4952 33.9884C38.679 33.9884 36.6729 31.4684 36.6729 28.7732C36.6729 26.0779 38.6807 23.558 41.4952 23.558C44.3098 23.558 46.3474 26.0656 46.3527 28.7574M45.4759 28.3506C45.2935 26.2813 43.71 24.3944 41.5198 24.3944C39.3295 24.3944 37.7724 26.2813 37.5637 28.3506H45.4759ZM56.5341 23.7614C56.7761 23.7614 56.9514 23.9718 56.9514 24.1787C56.9514 24.4207 56.769 24.5961 56.5341 24.5961H54.2895V33.4044C54.2895 33.6148 54.1071 33.8218 53.8721 33.8218C53.6371 33.8218 53.4548 33.6113 53.4548 33.4044V24.5961H51.2978C51.0558 24.5961 50.8805 24.4137 50.8805 24.1787C50.8805 23.9683 51.0628 23.7614 51.2978 23.7614H53.4548V20.5313C53.4548 20.3279 53.5915 20.1402 53.8055 20.1069C54.086 20.0631 54.3052 20.256 54.3052 20.519V23.7544L56.5341 23.7614ZM70.2121 28.0191V33.3553C70.2121 33.5973 70.0017 33.7727 69.7947 33.7727C69.5527 33.7727 69.3774 33.5903 69.3774 33.3553V28.0367C69.3774 26.2375 68.3603 24.4383 66.3507 24.4383C63.7764 24.4383 62.6646 26.6881 62.8137 28.9941C62.8137 29.0555 62.8417 29.3238 62.8417 29.3519V33.3571C62.8417 33.5605 62.705 33.7481 62.491 33.7814C62.2104 33.8253 61.9912 33.6324 61.9912 33.3693V15.8422C61.9912 15.6317 62.1736 15.4248 62.4086 15.4248C62.6436 15.4248 62.826 15.6352 62.826 15.8422V25.7622C63.5274 24.4751 64.8338 23.6053 66.3296 23.6053C68.7882 23.6053 70.1981 25.7622 70.1981 28.0419M85.2123 28.7784C85.2123 29.0152 85.0142 29.2081 84.7775 29.2081H76.3988C76.6092 31.2773 78.1646 33.1642 80.3549 33.1642C81.0328 33.194 81.7069 33.0468 82.3107 32.7372C82.9146 32.4276 83.4274 31.9662 83.799 31.3983C83.9217 31.2335 84.1023 31.1282 84.332 31.2282C84.3937 31.255 84.4476 31.2969 84.4889 31.3498C84.5303 31.4028 84.5577 31.4653 84.5688 31.5316C84.5916 31.6684 84.5512 31.7455 84.5162 31.8227C83.6744 33.2922 81.9963 34.0147 80.3514 34.0147C77.5351 34.0147 75.529 31.4947 75.529 28.7995C75.529 26.1042 77.5369 23.5843 80.3514 23.5843C83.1659 23.5843 85.2088 26.0919 85.2141 28.7837M84.311 28.3769C84.1286 26.3076 82.5451 24.4207 80.3549 24.4207C78.1646 24.4207 76.6075 26.3076 76.3988 28.3769H84.311ZM95.5095 24.1787C95.5095 24.4488 95.3604 24.5961 95.1184 24.6294C92.6599 24.9872 91.5533 26.9968 91.5533 29.3326V33.3378C91.5533 33.5412 91.4166 33.7288 91.2026 33.7621C90.9221 33.806 90.7029 33.6131 90.7029 33.35V24.2226C90.7029 24.0192 90.8396 23.8315 91.0536 23.7982C91.3341 23.7544 91.5533 23.9473 91.5533 24.2103V26.0691C92.2408 24.903 93.6226 23.7895 95.057 23.7895C95.2675 23.7842 95.5077 23.9385 95.5077 24.1752M109.261 28.7802C109.261 29.0169 109.063 29.2098 108.826 29.2098H100.453C100.663 31.2791 102.219 33.1659 104.409 33.1659C105.087 33.1957 105.761 33.0486 106.365 32.7389C106.969 32.4293 107.482 31.9679 107.853 31.4001C107.976 31.2352 108.156 31.13 108.386 31.23C108.448 31.2568 108.502 31.2986 108.543 31.3516C108.584 31.4046 108.612 31.467 108.623 31.5333C108.646 31.6701 108.605 31.7473 108.57 31.8244C107.729 33.2939 106.05 34.0164 104.405 34.0164C101.589 34.0164 99.5831 31.4965 99.5831 28.8012C99.5831 26.1059 101.591 23.586 104.405 23.586C107.22 23.586 109.258 26.0937 109.263 28.7854M108.386 28.3786C108.204 26.3094 106.62 24.4225 104.43 24.4225C102.24 24.4225 100.683 26.3094 100.474 28.3786H108.386ZM122.801 24.2857V33.4342C122.801 33.6762 122.59 33.8516 122.383 33.8516C122.141 33.8516 121.966 33.6692 121.966 33.4342V31.6806C121.279 33.0607 120.046 34.048 118.489 34.048C116.002 34.048 114.62 31.8911 114.62 29.6114V24.2454C114.62 24.035 114.803 23.828 115.037 23.828C115.272 23.828 115.455 24.0385 115.455 24.2454V29.6114C115.455 31.4106 116.472 33.2098 118.482 33.2098C121.298 33.2098 121.959 30.5741 121.959 27.6649V24.2314C121.959 23.9894 122.201 23.7403 122.497 23.828C122.68 23.8894 122.801 24.0648 122.801 24.2524M143.984 27.9823V33.3483C143.984 33.5903 143.774 33.7656 143.567 33.7656C143.325 33.7656 143.149 33.5833 143.149 33.3483V27.9823C143.149 26.1831 142.132 24.4172 140.123 24.4172C137.603 24.4172 136.645 27.1125 136.645 29.2098V33.3483C136.645 33.5903 136.435 33.7656 136.228 33.7656C135.986 33.7656 135.811 33.5833 135.811 33.3483V27.9823C135.811 26.1831 134.793 24.4172 132.784 24.4172C130.236 24.4172 129.185 26.4251 129.28 29.0941C129.28 29.1554 129.308 29.2764 129.28 29.3045V33.3378C129.28 33.5412 129.143 33.7288 128.938 33.7621C128.658 33.806 128.438 33.6131 128.438 33.35V24.1787C128.438 23.9753 128.575 23.7877 128.789 23.7544C129.07 23.7105 129.289 23.9034 129.289 24.1665V25.6956C129.99 24.4085 131.297 23.5667 132.793 23.5667C134.499 23.5667 135.819 24.6452 136.358 26.2357C137.045 24.6785 138.392 23.5667 140.131 23.5667C142.59 23.5667 144 25.6711 144 27.9507" fill="white"/>
<g id="Clip path group_3">
<mask id="mask2_254554_8624" style="mask-type:luminance" maskUnits="userSpaceOnUse" x="0" y="28" width="16" height="22">
<g id="H">
<path id="Vector_7" d="M0 28.051H15.1737V49.4278H0V28.051Z" fill="white"/>
</g>
</mask>
<g mask="url(#mask2_254554_8624)">
<path id="Vector_8" d="M0 28.051L15.1737 49.4278V37.0157L0 28.051Z" fill="white"/>
</g>
</g>
<g id="Clip path group_4">
<mask id="mask3_254554_8624" style="mask-type:luminance" maskUnits="userSpaceOnUse" x="15" y="28" width="16" height="22">
<g id="J">
<path id="Vector_9" d="M15.1733 28.051H30.353V49.4278H15.1733V28.051Z" fill="white"/>
</g>
</mask>
<g mask="url(#mask3_254554_8624)">
<path id="Vector_10" d="M15.1733 37.0157V49.4278L30.353 28.051L15.1733 37.0157Z" fill="#D6D6D6"/>
</g>
</g>
<path id="Vector 660" d="M15.115 34.0704V18.2361L0.000488281 25.2326L15.115 34.0704Z" fill="#D9D9D9"/>
</g>
</svg>
