<svg width="160" height="36" viewBox="0 0 160 36" fill="none" xmlns="http://www.w3.org/2000/svg">
<g id="HuggingFace">
<path id="Vector" d="M45.2041 24.1291V11.3945H48.5739V16.1356H52.3748V11.3945H55.7445V24.1291H52.3748V19.0745H48.5739V24.1291H45.2041ZM61.2623 24.3642C60.1913 24.3642 59.4141 24.005 58.9308 23.2867C58.4476 22.5552 58.206 21.5822 58.206 20.3675V14.3333H61.5758V19.9365C61.5758 20.5635 61.6542 20.9813 61.8109 21.1903C61.9806 21.3993 62.2288 21.5038 62.5555 21.5038C62.8688 21.5038 63.1301 21.4385 63.3391 21.3079C63.5481 21.1773 63.7571 20.9552 63.9661 20.6417V14.3333H67.3358V24.1291H64.5928L64.3578 22.8362H64.2794C63.8876 23.3063 63.4501 23.6786 62.9668 23.9529C62.4966 24.2272 61.9285 24.3642 61.2623 24.3642ZM73.1765 28.1651C72.4321 28.1651 71.7463 28.0802 71.1193 27.9104C70.4925 27.7536 69.9897 27.4989 69.6109 27.1462C69.2451 26.7937 69.0623 26.3234 69.0623 25.7356C69.0623 24.9651 69.5193 24.3381 70.4337 23.8548V23.7764C70.1833 23.5913 69.9649 23.3662 69.7871 23.1104C69.6174 22.8362 69.5325 22.4964 69.5325 22.0915C69.5325 21.752 69.6305 21.4189 69.8263 21.0925C70.0353 20.7658 70.3032 20.4851 70.6296 20.25V20.1716C70.2769 19.9365 69.9636 19.6034 69.6893 19.1723C69.428 18.7283 69.2974 18.2254 69.2974 17.6639C69.2974 16.854 69.4933 16.188 69.8852 15.6655C70.29 15.1299 70.8125 14.7382 71.4524 14.49C72.0925 14.2288 72.7717 14.0981 73.49 14.0981C74.0646 14.0981 74.5871 14.1765 75.0573 14.3333H78.7015V16.7626H77.2909C77.3299 16.8802 77.3626 17.0304 77.3887 17.2132C77.4279 17.3961 77.4475 17.5855 77.4475 17.7813C77.4475 18.552 77.2713 19.179 76.9186 19.6622C76.5659 20.1324 76.0893 20.4786 75.4884 20.7005C74.8875 20.9227 74.2215 21.0336 73.49 21.0336C73.1636 21.0336 72.7977 20.988 72.3929 20.8964C72.236 21.0401 72.1578 21.2295 72.1578 21.4646C72.1578 21.6736 72.2623 21.8237 72.4713 21.9153C72.6932 22.0067 73.0459 22.0523 73.5292 22.0523H74.9986C76.2263 22.0523 77.1733 22.2549 77.8394 22.6597C78.5186 23.0516 78.8581 23.698 78.8581 24.5993C78.8581 25.3047 78.6231 25.925 78.1529 26.4606C77.6957 26.996 77.0427 27.414 76.1936 27.7144C75.3447 28.0149 74.3389 28.1651 73.1765 28.1651ZM73.49 19.0353C73.8035 19.0353 74.0582 18.9243 74.254 18.7022C74.4501 18.4802 74.5479 18.134 74.5479 17.6639C74.5479 17.2067 74.4501 16.8736 74.254 16.6646C74.0582 16.4427 73.8035 16.3317 73.49 16.3317C73.1765 16.3317 72.9218 16.4427 72.726 16.6646C72.5299 16.8736 72.4321 17.2067 72.4321 17.6639C72.4321 18.134 72.5299 18.4802 72.726 18.7022C72.9218 18.9243 73.1765 19.0353 73.49 19.0353ZM73.7251 26.0883C74.2736 26.0883 74.7308 26.0034 75.0965 25.8336C75.4623 25.6768 75.645 25.4613 75.645 25.187C75.645 24.9259 75.5276 24.7626 75.2925 24.6973C75.0704 24.632 74.7504 24.5993 74.3324 24.5993H73.5684C73.1765 24.5993 72.8762 24.5863 72.6672 24.5601C72.4713 24.5471 72.3015 24.521 72.1578 24.4818C71.9227 24.7169 71.8051 24.952 71.8051 25.187C71.8051 25.5005 71.9814 25.7291 72.3341 25.8728C72.6999 26.0165 73.1636 26.0883 73.7251 26.0883ZM83.8717 28.1651C83.1271 28.1651 82.4415 28.0802 81.8146 27.9104C81.1876 27.7536 80.6847 27.4989 80.3059 27.1462C79.9403 26.7937 79.7574 26.3234 79.7574 25.7356C79.7574 24.9651 80.2146 24.3381 81.1288 23.8548V23.7764C80.8783 23.5913 80.6599 23.3662 80.4824 23.1104C80.3124 22.8362 80.2275 22.4964 80.2275 22.0915C80.2275 21.752 80.3255 21.4189 80.5214 21.0925C80.7304 20.7658 80.9982 20.4851 81.3248 20.25V20.1716C80.9721 19.9365 80.6586 19.6034 80.3843 19.1723C80.123 18.7283 79.9924 18.2254 79.9924 17.6639C79.9924 16.854 80.1885 16.188 80.5802 15.6655C80.9851 15.1299 81.5075 14.7382 82.1476 14.49C82.7876 14.2288 83.4667 14.0981 84.185 14.0981C84.7599 14.0981 85.2823 14.1765 85.7525 14.3333H89.3965V16.7626H87.9859C88.0251 16.8802 88.0577 17.0304 88.084 17.2132C88.123 17.3961 88.1426 17.5855 88.1426 17.7813C88.1426 18.552 87.9663 19.179 87.6136 19.6622C87.2611 20.1324 86.7843 20.4786 86.1834 20.7005C85.5827 20.9227 84.9165 21.0336 84.185 21.0336C83.8586 21.0336 83.493 20.988 83.0879 20.8964C82.9313 21.0401 82.8529 21.2295 82.8529 21.4646C82.8529 21.6736 82.9574 21.8237 83.1663 21.9153C83.3885 22.0067 83.741 22.0523 84.2243 22.0523H85.6937C86.9214 22.0523 87.8683 22.2549 88.5345 22.6597C89.2136 23.0516 89.5532 23.698 89.5532 24.5993C89.5532 25.3047 89.3181 25.925 88.848 26.4606C88.3908 26.996 87.7377 27.414 86.8888 27.7144C86.0399 28.0149 85.0341 28.1651 83.8717 28.1651ZM84.185 19.0353C84.4985 19.0353 84.7532 18.9243 84.9492 18.7022C85.1451 18.4802 85.2431 18.134 85.2431 17.6639C85.2431 17.2067 85.1451 16.8736 84.9492 16.6646C84.7532 16.4427 84.4985 16.3317 84.185 16.3317C83.8717 16.3317 83.6169 16.4427 83.421 16.6646C83.2252 16.8736 83.1271 17.2067 83.1271 17.6639C83.1271 18.134 83.2252 18.4802 83.421 18.7022C83.6169 18.9243 83.8717 19.0353 84.185 19.0353ZM84.4203 26.0883C84.9689 26.0883 85.4259 26.0034 85.7917 25.8336C86.1573 25.6768 86.3403 25.4613 86.3403 25.187C86.3403 24.9259 86.2226 24.7626 85.9876 24.6973C85.7656 24.632 85.4455 24.5993 85.0275 24.5993H84.2635C83.8717 24.5993 83.5712 24.5863 83.3622 24.5601C83.1663 24.5471 82.9966 24.521 82.8529 24.4818C82.6178 24.7169 82.5002 24.952 82.5002 25.187C82.5002 25.5005 82.6766 25.7291 83.0293 25.8728C83.3949 26.0165 83.8586 26.0883 84.4203 26.0883ZM91.0012 24.1291V14.3333H94.3709V24.1291H91.0012ZM92.686 13.1186C92.1375 13.1186 91.6932 12.9684 91.3537 12.668C91.0141 12.3545 90.8443 11.943 90.8443 11.4337C90.8443 10.9243 91.0141 10.5193 91.3537 10.2189C91.6932 9.90543 92.1375 9.74878 92.686 9.74878C93.2346 9.74878 93.6787 9.90543 94.0182 10.2189C94.3578 10.5193 94.5276 10.9243 94.5276 11.4337C94.5276 11.943 94.3578 12.3545 94.0182 12.668C93.6787 12.9684 93.2346 13.1186 92.686 13.1186ZM96.6452 24.1291V14.3333H99.388L99.6231 15.5087H99.7015C100.093 15.1299 100.537 14.8035 101.034 14.5292C101.543 14.2418 102.131 14.0981 102.797 14.0981C103.881 14.0981 104.658 14.4639 105.128 15.1954C105.612 15.9137 105.853 16.8802 105.853 18.0948V24.1291H102.484V18.5259C102.484 17.8989 102.405 17.481 102.248 17.272C102.092 17.063 101.844 16.9585 101.504 16.9585C101.191 16.9585 100.929 17.0238 100.72 17.1545C100.511 17.2851 100.276 17.468 100.015 17.7031V24.1291H96.6452ZM111.614 28.1651C110.869 28.1651 110.184 28.0802 109.557 27.9104C108.93 27.7536 108.427 27.4989 108.048 27.1462C107.682 26.7937 107.5 26.3234 107.5 25.7356C107.5 24.9651 107.957 24.3381 108.871 23.8548V23.7764C108.621 23.5913 108.402 23.3662 108.225 23.1104C108.055 22.8362 107.97 22.4964 107.97 22.0915C107.97 21.752 108.068 21.4189 108.264 21.0925C108.473 20.7658 108.741 20.4851 109.067 20.25V20.1716C108.714 19.9365 108.401 19.6034 108.126 19.1723C107.865 18.7283 107.735 18.2254 107.735 17.6639C107.735 16.854 107.931 16.188 108.323 15.6655C108.727 15.1299 109.25 14.7382 109.89 14.49C110.53 14.2288 111.209 14.0981 111.927 14.0981C112.502 14.0981 113.024 14.1765 113.495 14.3333H117.139V16.7626H115.728C115.767 16.8802 115.8 17.0304 115.826 17.2132C115.865 17.3961 115.885 17.5855 115.885 17.7813C115.885 18.552 115.709 19.179 115.356 19.6622C115.003 20.1324 114.526 20.4786 113.926 20.7005C113.325 20.9227 112.659 21.0336 111.927 21.0336C111.601 21.0336 111.235 20.988 110.83 20.8964C110.673 21.0401 110.595 21.2295 110.595 21.4646C110.595 21.6736 110.7 21.8237 110.909 21.9153C111.131 22.0067 111.483 22.0523 111.967 22.0523H113.436C114.664 22.0523 115.611 22.2549 116.277 22.6597C116.956 23.0516 117.296 23.698 117.296 24.5993C117.296 25.3047 117.06 25.925 116.59 26.4606C116.133 26.996 115.48 27.414 114.631 27.7144C113.782 28.0149 112.776 28.1651 111.614 28.1651ZM111.927 19.0353C112.241 19.0353 112.496 18.9243 112.691 18.7022C112.887 18.4802 112.985 18.134 112.985 17.6639C112.985 17.2067 112.887 16.8736 112.691 16.6646C112.496 16.4427 112.241 16.3317 111.927 16.3317C111.614 16.3317 111.359 16.4427 111.163 16.6646C110.967 16.8736 110.869 17.2067 110.869 17.6639C110.869 18.134 110.967 18.4802 111.163 18.7022C111.359 18.9243 111.614 19.0353 111.927 19.0353ZM112.162 26.0883C112.711 26.0883 113.168 26.0034 113.534 25.8336C113.9 25.6768 114.082 25.4613 114.082 25.187C114.082 24.9259 113.965 24.7626 113.73 24.6973C113.508 24.632 113.188 24.5993 112.77 24.5993H112.006C111.614 24.5993 111.314 24.5863 111.105 24.5601C110.909 24.5471 110.739 24.521 110.595 24.4818C110.36 24.7169 110.242 24.952 110.242 25.187C110.242 25.5005 110.419 25.7291 110.771 25.8728C111.137 26.0165 111.601 26.0883 112.162 26.0883ZM122.94 24.1291V11.3945H131.247V14.2157H126.31V16.645H130.541V19.4662H126.31V24.1291H122.94ZM134.932 24.3642C134.318 24.3642 133.789 24.2272 133.345 23.9529C132.921 23.6732 132.577 23.2885 132.346 22.8362C132.11 22.379 131.993 21.8826 131.993 21.3471C131.993 20.3282 132.411 19.5317 133.247 18.9568C134.083 18.3691 135.441 17.9774 137.322 17.7813C137.244 17.1022 136.786 16.7626 135.951 16.7626C135.598 16.7626 135.226 16.8344 134.834 16.9781C134.442 17.1087 133.991 17.3112 133.482 17.5855L132.307 15.3912C132.999 14.9732 133.698 14.6533 134.403 14.4311C135.12 14.2094 135.866 14.0971 136.617 14.0981C137.897 14.0981 138.896 14.4639 139.614 15.1954C140.333 15.9137 140.692 17.0761 140.692 18.6826V24.1291H137.949L137.714 23.1887H137.635C137.244 23.5414 136.826 23.8288 136.382 24.0507C135.951 24.2597 135.467 24.3642 134.932 24.3642ZM136.107 21.7781C136.382 21.7781 136.61 21.7192 136.793 21.6018C136.976 21.4712 137.152 21.3079 137.322 21.1121V19.7797C136.525 19.8973 135.97 20.0736 135.657 20.3086C135.356 20.5439 135.206 20.7986 135.206 21.0728C135.206 21.543 135.507 21.7781 136.107 21.7781ZM147.316 24.3642C146.389 24.3642 145.553 24.1617 144.809 23.7568C144.064 23.352 143.47 22.7707 143.026 22.0131C142.595 21.2426 142.379 20.3153 142.379 19.2311C142.379 18.1471 142.621 17.2263 143.104 16.4687C143.6 15.698 144.247 15.1105 145.044 14.7054C145.84 14.3006 146.702 14.0981 147.63 14.0981C148.217 14.0981 148.747 14.1896 149.217 14.3723C149.7 14.5552 150.124 14.8035 150.49 15.1169L148.923 17.272C148.714 17.0892 148.524 16.9651 148.355 16.8998C148.186 16.8346 148.007 16.8015 147.826 16.8018C147.199 16.8018 146.709 17.0238 146.356 17.468C146.004 17.8989 145.827 18.4867 145.827 19.2311C145.827 19.9757 146.01 20.57 146.376 21.014C146.742 21.445 147.186 21.6606 147.708 21.6606C147.982 21.6606 148.25 21.6018 148.511 21.4842C148.779 21.3575 149.035 21.2066 149.276 21.0336L150.569 23.2279C150.085 23.659 149.55 23.9593 148.962 24.1291C148.374 24.2858 147.826 24.3642 147.316 24.3642ZM156.082 24.3642C155.128 24.3642 154.266 24.1617 153.496 23.7568C152.738 23.352 152.137 22.7707 151.693 22.0131C151.249 21.2426 151.027 20.3153 151.027 19.2311C151.027 18.1732 151.249 17.2655 151.693 16.5079C152.15 15.7373 152.738 15.143 153.457 14.725C154.175 14.307 154.932 14.0981 155.729 14.0981C156.696 14.0981 157.492 14.3137 158.119 14.7446C158.759 15.1626 159.23 15.7308 159.53 16.4491C159.843 17.1675 160 17.9642 160 18.8394C160 19.1266 159.981 19.4076 159.941 19.6818C159.915 19.943 159.889 20.1324 159.863 20.25H154.279C154.436 20.8378 154.717 21.2491 155.122 21.4842C155.527 21.7063 156.003 21.8173 156.552 21.8173C157.179 21.8173 157.845 21.6214 158.55 21.2295L159.648 23.2279C159.125 23.5935 158.537 23.8745 157.884 24.0703C157.231 24.2662 156.63 24.3642 156.082 24.3642ZM154.24 18.0556H157.14C157.14 17.6768 157.042 17.3504 156.846 17.0761C156.663 16.7887 156.317 16.645 155.808 16.645C155.442 16.645 155.115 16.7561 154.828 16.9781C154.541 17.2002 154.345 17.5594 154.24 18.0556Z" fill="white"/>
<path id="Vector_2" d="M37.961 25.9955C37.8616 25.6206 37.7007 25.2649 37.4849 24.9428C37.5311 24.773 37.5663 24.6006 37.5899 24.4266C37.7431 23.3213 37.3601 22.3095 36.6378 21.5264C36.2467 21.0988 35.8274 20.8166 35.3833 20.6433C35.6748 19.3961 35.8224 18.1198 35.8231 16.839C35.8231 16.2542 35.79 15.6813 35.7345 15.1168C35.7055 14.8349 35.6705 14.5536 35.6297 14.2732C35.5024 13.446 35.3138 12.6293 35.0652 11.8301C34.9023 11.3049 34.7138 10.7881 34.5006 10.2813C34.1808 9.53086 33.8074 8.80434 33.3833 8.10742C33.1049 7.64386 32.802 7.19557 32.4756 6.76451C32.3156 6.54682 32.1489 6.33428 31.9755 6.12717C31.4617 5.50267 30.9035 4.91626 30.3048 4.37256C30.1062 4.1898 29.9018 4.01334 29.6919 3.84342C29.4853 3.67109 29.2741 3.50426 29.0586 3.34314C28.6249 3.02036 28.1766 2.71753 27.7153 2.43559C25.1666 0.88757 22.1776 0 18.983 0C9.68174 0 2.14303 7.53889 2.14303 16.8398C2.14279 18.1366 2.29304 19.4291 2.59079 20.6912C2.1913 20.8646 1.80827 21.1349 1.45336 21.526C0.731318 22.3085 0.348104 23.3169 0.501426 24.4219C0.524545 24.5976 0.559685 24.7715 0.606292 24.9424C0.390587 25.2648 0.229736 25.6206 0.130234 25.9955C-0.0917049 26.839 -0.0186498 27.5997 0.263397 28.2661C-0.0430631 29.1374 0.0335051 30.0651 0.43281 30.8717C0.723179 31.4607 1.13876 31.9163 1.65088 32.3237C2.25992 32.8077 3.02228 33.2192 3.94203 33.6137C5.03915 34.0816 6.37818 34.5213 6.98721 34.6825C8.56039 35.09 10.0688 35.3482 11.5978 35.3606C13.7757 35.3809 15.6515 34.8686 16.9946 33.5579C17.6543 33.6387 18.3183 33.6792 18.983 33.679C19.6852 33.6775 20.3867 33.6331 21.0836 33.5466C22.4234 34.8656 24.3064 35.3826 26.4925 35.3617C28.0211 35.3497 29.5295 35.0915 31.0986 34.6835C31.7117 34.5222 33.0504 34.0826 34.148 33.6148C35.0678 33.2194 35.83 32.8081 36.4433 32.3246C36.9515 31.9174 37.3667 31.4617 37.6573 30.8726C38.0606 30.066 38.1333 29.1383 37.8307 28.267C38.1102 27.6007 38.1827 26.8383 37.961 25.9955ZM36.4002 28.2097C36.7092 28.7962 36.729 29.4588 36.4562 30.076C36.0427 31.0115 35.0155 31.7481 33.0204 32.5392C31.78 33.0313 30.6438 33.3457 30.6338 33.3487C28.993 33.7743 27.5089 33.9903 26.2243 33.9903C24.097 33.9903 22.5142 33.4034 21.5103 32.2442C19.8127 32.5332 18.0791 32.5431 16.3783 32.2732C15.3733 33.4132 13.7992 33.9903 11.6899 33.9903C10.4051 33.9903 8.92122 33.7743 7.28036 33.3487C7.27018 33.3457 6.13478 33.0313 4.89378 32.5392C2.89873 31.7481 1.87134 31.0119 1.45798 30.076C1.18518 29.4588 1.20497 28.7962 1.51402 28.2097C1.54269 28.1553 1.5732 28.1021 1.60594 28.0508C1.4207 27.7727 1.29647 27.4583 1.24137 27.1287C1.18629 26.7991 1.20162 26.4614 1.28635 26.1381C1.40916 25.6716 1.6629 25.2836 2.00728 25.0049C1.84145 24.7323 1.73261 24.429 1.68732 24.1131C1.58819 23.4262 1.81604 22.7402 2.32909 22.1811C2.7284 21.7459 3.29304 21.5064 3.91836 21.5064H3.935C3.46362 19.9956 3.22459 18.4218 3.22609 16.8392C3.22609 8.20729 10.224 1.2092 18.8568 1.2092C27.4899 1.2092 34.4876 8.20674 34.4876 16.8392C34.4887 18.4261 34.2481 20.0039 33.7739 21.5182C33.8494 21.5109 33.9233 21.507 33.9958 21.507C34.621 21.507 35.1858 21.7463 35.5851 22.1815C36.0978 22.7402 36.3262 23.4267 36.2269 24.1135C36.1816 24.4293 36.0728 24.7328 35.9069 25.0055C36.2513 25.284 36.505 25.672 36.6278 26.1386C36.7124 26.4619 36.7277 26.7995 36.6726 27.1292C36.6175 27.4588 36.4934 27.773 36.3083 28.0514C36.341 28.1021 36.3719 28.1553 36.4002 28.2097Z" fill="white"/>
<path id="Vector_3" d="M36.3079 28.0515C36.493 27.7731 36.6171 27.4589 36.6722 27.1293C36.7273 26.7996 36.712 26.462 36.6274 26.1387C36.5046 25.6723 36.2509 25.2843 35.9065 25.0056C36.0722 24.7329 36.1812 24.4296 36.2265 24.1137C36.3256 23.4268 36.0978 22.7409 35.5847 22.1818C35.1854 21.7466 34.6206 21.5071 33.9954 21.5071C33.9228 21.5071 33.849 21.5108 33.7735 21.5183C34.2472 20.004 34.4874 18.4262 34.4859 16.8395C34.4859 8.20773 27.488 1.20947 18.8559 1.20947C10.2238 1.20947 3.22512 8.20699 3.22512 16.8395C3.22362 18.4221 3.46265 19.9958 3.93403 21.5067H3.91738C3.29225 21.5067 2.72761 21.7462 2.3283 22.1814C1.81562 22.7401 1.5874 23.4265 1.68653 24.1134C1.73179 24.4293 1.84063 24.7326 2.00649 25.0052C1.66212 25.2839 1.40837 25.6719 1.28575 26.1385C1.20108 26.4618 1.1858 26.7996 1.24095 27.1293C1.2961 27.4589 1.42041 27.7733 1.60571 28.0515C1.5726 28.1027 1.54227 28.156 1.51379 28.2103C1.20492 28.7968 1.18495 29.4595 1.45775 30.0767C1.87111 31.012 2.8985 31.749 4.89354 32.5398C6.134 33.032 7.27014 33.3464 7.28012 33.3493C8.92099 33.7749 10.4048 33.9911 11.6895 33.9911C13.799 33.9911 15.3729 33.4141 16.3781 32.2739C18.0789 32.5437 19.8124 32.5339 21.5101 32.2448C22.5138 33.4041 24.0968 33.9911 26.2241 33.9911C27.5087 33.9911 28.9928 33.7749 30.6336 33.3493C30.6436 33.3464 31.7792 33.032 33.0202 32.5398C35.0152 31.749 36.0426 31.012 36.456 30.0767C36.7288 29.4595 36.709 28.7968 36.4 28.2103C36.3717 28.1554 36.3406 28.1023 36.3079 28.0515ZM15.6589 30.4891C15.5723 30.6406 15.4796 30.7883 15.3809 30.9321C15.121 31.3125 14.7792 31.603 14.3827 31.8193C13.6242 32.2326 12.6645 32.3772 11.6893 32.3772C10.1491 32.3772 8.56996 32.0168 7.68479 31.7871C7.64133 31.7758 2.2595 30.2557 2.94085 28.9618C3.05552 28.7443 3.24435 28.6574 3.48183 28.6574C4.44116 28.6574 6.18802 30.0859 6.93891 30.0859C7.10648 30.0859 7.22482 30.0143 7.2731 29.8403C7.59306 28.6927 2.41023 28.2103 2.84671 26.5488C2.92384 26.2547 3.13264 26.1354 3.42653 26.1354C4.69472 26.1352 7.54146 28.3657 8.13681 28.3657C8.18249 28.3657 8.21523 28.3524 8.23298 28.3243L8.24075 28.3115C8.52002 27.8501 8.35985 27.5146 6.44526 26.342L6.26143 26.2301C4.15486 24.9549 2.67601 24.1877 3.51715 23.2722C3.61388 23.1664 3.75093 23.1196 3.91757 23.1196C4.11528 23.1196 4.35442 23.1858 4.61778 23.2966C5.73044 23.7658 7.27254 25.0455 7.91672 25.6037C8.10666 25.769 8.21855 25.87 8.21855 25.87C8.21855 25.87 9.03418 26.7182 9.52744 26.7182C9.641 26.7182 9.73717 26.6736 9.80246 26.5628C10.1524 25.9732 6.5542 23.2467 6.35131 22.1218C6.21389 21.3595 6.44785 20.9735 6.88082 20.9735C7.08648 20.9735 7.33764 21.061 7.61488 21.2368C8.47489 21.7828 10.1354 24.6362 10.7433 25.7461C10.9471 26.1182 11.295 26.2754 11.6085 26.2754C12.2305 26.2754 12.7167 25.6571 11.6654 24.8715C10.0854 23.6891 10.6399 21.7567 11.3939 21.6378C11.4261 21.6328 11.4587 21.6302 11.491 21.6301C12.1768 21.6301 12.4794 22.8119 12.4794 22.8119C12.4794 22.8119 13.3659 25.0383 14.8889 26.56C16.271 27.9414 16.4639 29.0752 15.6589 30.4891ZM20.5839 30.7499L20.5049 30.7593L20.3701 30.7748C20.2992 30.7821 20.2284 30.7891 20.1572 30.7957L20.0877 30.802L20.0244 30.8074L19.9343 30.8146C19.9012 30.817 19.8681 30.8196 19.835 30.8216L19.7359 30.8283L19.7141 30.8296L19.636 30.8342L19.6029 30.8359L19.5104 30.8405L19.403 30.8449L19.3053 30.8483L19.2402 30.8501H19.2073C19.187 30.8501 19.1668 30.8512 19.1464 30.8514H19.1141C19.0937 30.8514 19.0736 30.8514 19.0532 30.8525L18.9706 30.8535H18.8548C18.764 30.8535 18.6735 30.8525 18.5831 30.8509L18.5099 30.8492C18.4891 30.8492 18.4682 30.8481 18.4475 30.8475L18.37 30.8451L18.2735 30.8414L18.1867 30.8377L18.1642 30.8368L18.0815 30.8324C18.0586 30.8311 18.0356 30.83 18.0129 30.8285L17.9594 30.8253C17.8923 30.8211 17.8252 30.8163 17.758 30.8111L17.6878 30.8056L17.599 30.798L17.4952 30.7884C17.4373 30.783 17.3794 30.7771 17.3216 30.7706H17.3188C18.164 28.885 17.7366 27.1241 16.0286 25.4174C14.9085 24.2989 14.1632 22.6467 14.0088 22.284C13.6958 21.2104 12.8674 20.0169 11.492 20.0169C11.3756 20.0171 11.2597 20.0264 11.1448 20.0445C10.5421 20.1392 10.0153 20.4861 9.63952 21.0081C9.23355 20.503 8.83869 20.1014 8.48174 19.8745C7.94354 19.5335 7.40663 19.3604 6.88322 19.3604C6.23035 19.3604 5.64647 19.6285 5.23958 20.1149L5.22941 20.1273L5.20648 20.031L5.20555 20.0269C5.12817 19.6959 5.06316 19.3618 5.01062 19.026C5.01062 19.0236 5.01062 19.0213 5.00951 19.0191L4.99804 18.9431C4.99184 18.9021 4.9858 18.8608 4.97991 18.8198C4.97511 18.7855 4.9703 18.7513 4.96586 18.7173C4.96142 18.6833 4.95661 18.649 4.95254 18.6148C4.9481 18.5804 4.94403 18.5462 4.93996 18.512C4.93606 18.4794 4.93231 18.4469 4.92868 18.4143L4.92759 18.406C4.91091 18.2558 4.89661 18.1055 4.88467 17.9549L4.87819 17.8678C4.87634 17.844 4.87468 17.8199 4.8732 17.7957C4.8732 17.7901 4.87246 17.7844 4.87209 17.7792L4.866 17.6827C4.86379 17.6477 4.8621 17.6128 4.86025 17.5778C4.8584 17.543 4.85655 17.5081 4.85507 17.473L4.85137 17.3814L4.85026 17.3537L4.84749 17.269L4.84548 17.1972C4.84548 17.1685 4.84416 17.1397 4.84361 17.111L4.84213 17.0206C4.84176 16.9904 4.84213 16.9605 4.84139 16.9303C4.84046 16.9 4.84139 16.8698 4.84139 16.8395C4.84139 9.099 11.1169 2.8235 18.8581 2.8235C26.5993 2.8235 32.8746 9.09863 32.8746 16.8395V17.0206C32.8746 17.0507 32.8739 17.081 32.8732 17.111C32.8732 17.1362 32.8722 17.1608 32.8715 17.1859C32.8715 17.2083 32.8706 17.2305 32.8697 17.2521C32.8697 17.2804 32.868 17.3085 32.8671 17.3368V17.3392C32.8647 17.4006 32.8621 17.462 32.8595 17.5234L32.8584 17.5438L32.8536 17.6355L32.8491 17.7082C32.8388 17.8804 32.8253 18.0526 32.8088 18.2244V18.2268C32.8058 18.259 32.8025 18.2914 32.799 18.3235C32.7909 18.3984 32.7825 18.4733 32.7742 18.5482L32.7648 18.6235L32.7531 18.7119C32.7491 18.7443 32.7446 18.7765 32.74 18.8087C32.735 18.8447 32.7296 18.8806 32.7245 18.9165L32.7115 19.0012L32.6964 19.0974C32.6912 19.1294 32.686 19.1612 32.6799 19.1932C32.6736 19.225 32.6688 19.2568 32.6632 19.2888C32.6522 19.3524 32.6407 19.4158 32.6283 19.4793C32.6037 19.6056 32.578 19.7315 32.5508 19.8573C32.544 19.8886 32.5369 19.92 32.5297 19.9513C32.1352 19.5679 31.6129 19.3591 31.0366 19.3591C30.5138 19.3591 29.9763 19.532 29.4383 19.8732C29.0812 20.1 28.6867 20.5017 28.2803 21.0068C27.904 20.4847 27.3772 20.1379 26.7752 20.043C26.6604 20.0251 26.5442 20.0158 26.4279 20.0156C25.052 20.0156 24.2242 21.2091 23.9111 22.2827C23.7559 22.6454 23.0106 24.2974 21.8892 25.4178C20.1825 27.119 19.7518 28.8721 20.5839 30.7499ZM35.0543 26.9754L35.0487 26.9919C35.0448 27.0024 35.041 27.013 35.0367 27.0233C35.03 27.0391 35.023 27.0544 35.0156 27.0698C34.9977 27.1064 34.9773 27.1419 34.955 27.1759C34.9241 27.222 34.8902 27.266 34.8534 27.3074C34.8449 27.317 34.8368 27.3265 34.8272 27.3359C34.8142 27.3501 34.8003 27.364 34.7866 27.3779C34.5375 27.6248 34.158 27.841 33.7289 28.0396C33.6803 28.0616 33.6311 28.0837 33.5812 28.1057L33.5316 28.1277C33.4985 28.1423 33.4656 28.1569 33.4308 28.1711C33.3969 28.1856 33.3629 28.1998 33.3289 28.2139L33.2257 28.2566C32.9843 28.3559 32.737 28.4504 32.4957 28.544L32.3927 28.5839L32.2906 28.6239C32.2229 28.6503 32.1559 28.6768 32.0899 28.7032L31.9917 28.7428L31.8953 28.7824L31.8478 28.8022C31.8164 28.8155 31.7853 28.8284 31.7546 28.8418C31.0448 29.1462 30.5343 29.456 30.6416 29.8405C30.6445 29.8514 30.6479 29.8618 30.6516 29.8717C30.6612 29.9002 30.6743 29.9272 30.6906 29.9524C30.7002 29.9675 30.7113 29.9818 30.7237 29.9947C30.8498 30.1257 31.0793 30.105 31.3688 30.001C31.3923 29.9925 31.4163 29.9835 31.4406 29.9738C31.4572 29.9675 31.4737 29.9609 31.4903 29.9542L31.5153 29.9437C31.5815 29.9156 31.6516 29.8843 31.7233 29.8501C31.7413 29.8418 31.7594 29.8336 31.7775 29.824C32.1313 29.6511 32.5325 29.4179 32.9305 29.2057C32.9915 29.1726 33.0528 29.141 33.1136 29.1096C33.2131 29.058 33.3135 29.0082 33.4149 28.9607C33.7918 28.7835 34.146 28.6577 34.431 28.6577C34.5645 28.6577 34.6827 28.6851 34.7809 28.748L34.7974 28.7589C34.8471 28.794 34.8904 28.8371 34.9257 28.8867C34.9339 28.8984 34.9424 28.9104 34.9496 28.9228C34.9574 28.9355 34.9648 28.9487 34.9718 28.962C35.1125 29.229 34.9947 29.5059 34.7191 29.7772C34.4545 30.0376 34.0428 30.2931 33.5747 30.5296C33.5401 30.5472 33.5051 30.5647 33.47 30.5818C32.0771 31.2657 30.2536 31.7808 30.228 31.7873C29.742 31.9132 29.0469 32.0787 28.2641 32.2025L28.1481 32.2204L28.1292 32.2232C27.9517 32.2498 27.7736 32.2733 27.5951 32.2936L27.5786 32.2953C27.2541 32.3323 26.9211 32.3591 26.5877 32.3704H26.5827C26.4628 32.3748 26.3432 32.3769 26.2233 32.3769H26.0854C25.9026 32.3743 25.7201 32.3661 25.5379 32.3521C25.5337 32.3521 25.5292 32.3521 25.5248 32.3512C25.4597 32.3462 25.3944 32.3401 25.3295 32.3329C25.2178 32.3208 25.1062 32.306 24.9951 32.2887C24.9518 32.2814 24.9056 32.2739 24.861 32.2661C24.8407 32.2624 24.8205 32.2587 24.8003 32.2546L24.7955 32.2537C24.7313 32.2415 24.6675 32.228 24.6039 32.2134C24.5671 32.2051 24.5301 32.1967 24.4937 32.1869L24.4719 32.1812C24.4537 32.1768 24.436 32.172 24.4182 32.1671L24.4084 32.1646L24.3513 32.1481C24.3306 32.1422 24.31 32.1361 24.2893 32.13L24.2819 32.1277L24.2281 32.1113C24.2078 32.105 24.1876 32.0983 24.1674 32.0919C24.1508 32.0863 24.1343 32.0806 24.1177 32.0752L24.0813 32.0625C24.0461 32.0503 24.0113 32.0373 23.9766 32.024L23.9436 32.0112L23.9165 32.0003C23.8641 31.9792 23.812 31.9572 23.7604 31.9341L23.726 31.9176L23.7202 31.9151C23.708 31.9093 23.696 31.9036 23.6838 31.8984C23.6599 31.8869 23.6363 31.8751 23.6128 31.8631L23.6057 31.8596L23.5717 31.8416C23.5112 31.8102 23.4519 31.7765 23.3938 31.7407L23.362 31.7212C23.3455 31.7112 23.3305 31.7011 23.3148 31.6909L23.2734 31.6633C23.2584 31.6534 23.2434 31.6432 23.2288 31.6326L23.2022 31.6138C23.1741 31.5936 23.1465 31.5731 23.1193 31.5518C23.1049 31.5407 23.0907 31.5293 23.0764 31.5187C23.0448 31.4934 23.0139 31.4673 22.9834 31.4405L22.9821 31.4394C22.9523 31.4137 22.9233 31.387 22.895 31.3598L22.8935 31.358C22.8787 31.3439 22.8643 31.3299 22.8499 31.3153C22.8356 31.3007 22.8212 31.2862 22.8073 31.2716C22.7933 31.2568 22.7792 31.2418 22.7655 31.2265C22.7522 31.2121 22.7393 31.1975 22.7263 31.1827L22.7219 31.1777C22.6551 31.1002 22.5926 31.019 22.5347 30.9345L22.5118 30.9006C22.4966 30.8782 22.4816 30.8557 22.4668 30.8331L22.4232 30.766C22.4017 30.7332 22.3808 30.7001 22.3605 30.6668C22.3459 30.6432 22.3315 30.6195 22.3172 30.5956C22.3052 30.5753 22.2932 30.5551 22.2817 30.5352C22.2752 30.5242 22.2691 30.5131 22.263 30.502C22.2569 30.4906 22.2497 30.4789 22.2432 30.4673L22.2329 30.449C22.2294 30.4429 22.2282 30.441 22.2264 30.4369C22.2138 30.4149 22.2016 30.3926 22.1898 30.3698C22.1844 30.36 22.1791 30.35 22.1733 30.3402L22.1567 30.3084L22.1402 30.2768L22.1084 30.2126C22.1032 30.2021 22.0982 30.1915 22.0932 30.181C22.0823 30.1582 22.072 30.1359 22.0616 30.1135C22.0575 30.1044 22.0533 30.0953 22.0496 30.0863C22.0353 30.0554 22.0218 30.0241 22.0091 29.9925C22.0004 29.9716 21.9924 29.9509 21.9839 29.9302C21.9601 29.8692 21.9377 29.8076 21.9172 29.7452C21.9111 29.7267 21.905 29.7084 21.8996 29.6899C21.8863 29.648 21.8743 29.6056 21.8635 29.5629C21.8504 29.5131 21.8387 29.4628 21.8289 29.4123C21.8227 29.3826 21.8171 29.3526 21.8125 29.3224C21.8075 29.2927 21.8032 29.2629 21.7997 29.2333C21.7921 29.1743 21.7868 29.1151 21.7836 29.0557C21.7836 29.0459 21.7827 29.036 21.7825 29.0262C21.7816 29.0066 21.781 28.9869 21.7809 28.9673C21.7705 28.1772 22.1705 27.4173 23.0256 26.5626C24.5484 25.0411 25.4351 22.8145 25.4351 22.8145C25.4351 22.8145 25.4589 22.7211 25.5087 22.5868C25.5253 22.5422 25.5427 22.4978 25.561 22.454C25.5819 22.4044 25.6043 22.3554 25.6283 22.3073L25.6354 22.2933C25.6663 22.2319 25.6997 22.1721 25.7362 22.1139C25.7445 22.1004 25.7526 22.0869 25.7623 22.0736C25.7893 22.0332 25.8179 21.9942 25.8481 21.9563C25.8714 21.9273 25.8962 21.8992 25.9222 21.8725C26.0106 21.7815 26.1114 21.7072 26.2255 21.6674L26.24 21.6628C26.2496 21.6596 26.259 21.6567 26.2688 21.6539C26.2803 21.6509 26.2918 21.6482 26.3032 21.6458L26.3084 21.6448C26.3326 21.64 26.3569 21.6367 26.3815 21.635H26.3837C26.3964 21.635 26.4092 21.6337 26.4223 21.6337C26.4551 21.6339 26.4876 21.6365 26.52 21.6415C26.6572 21.6632 26.788 21.7449 26.9004 21.871L26.9156 21.8888C26.9522 21.9317 26.9855 21.9776 27.0151 22.0257C27.0373 22.0614 27.0582 22.0989 27.078 22.1383C27.0859 22.1549 27.0935 22.1701 27.1011 22.1864C27.1048 22.1947 27.1085 22.2028 27.112 22.2113C27.1194 22.2278 27.1263 22.2444 27.1331 22.2618C27.1717 22.361 27.2017 22.4632 27.2228 22.5676C27.2452 22.6802 27.2581 22.7945 27.2618 22.9093C27.2631 22.9598 27.2631 23.0109 27.2618 23.0627C27.2609 23.0823 27.26 23.1021 27.2585 23.1218C27.2433 23.3418 27.1954 23.5581 27.1163 23.764C27.1083 23.7843 27.0996 23.805 27.0915 23.8258C27.0517 23.9208 27.0055 24.0129 26.9533 24.1017C26.9235 24.1524 26.8914 24.2027 26.857 24.2526L26.8359 24.2826C26.7543 24.3965 26.6633 24.5034 26.5638 24.6022C26.4658 24.7004 26.3607 24.7912 26.2496 24.8742C26.1381 24.9565 26.0336 25.0479 25.937 25.1472C25.659 25.4391 25.5943 25.6963 25.6568 25.8915C25.6642 25.9135 25.6729 25.9351 25.6829 25.956C25.706 26.0013 25.736 26.0429 25.7719 26.0792L25.7817 26.089C25.7918 26.0988 25.8026 26.1082 25.8135 26.1173L25.8246 26.1263C25.8516 26.1471 25.8801 26.1656 25.9098 26.1816C25.9183 26.1863 25.9263 26.1909 25.9361 26.1953C25.977 26.2157 26.0197 26.2319 26.0637 26.2443L26.0759 26.2475L26.0924 26.2519L26.1068 26.2554L26.1222 26.2588L26.1375 26.2619L26.1521 26.2643C26.163 26.2663 26.1741 26.268 26.185 26.2695L26.1958 26.271L26.2148 26.273L26.2267 26.2741L26.2463 26.2756H26.2575L26.2779 26.2765H26.3421L26.3604 26.2756L26.3815 26.2743L26.4072 26.2719L26.4312 26.2689C26.4366 26.2689 26.4421 26.2675 26.4477 26.2665C26.5324 26.2541 26.6149 26.2303 26.6929 26.1955C26.7096 26.1885 26.726 26.1807 26.7412 26.1726C26.7737 26.1563 26.8054 26.138 26.8357 26.1178C26.878 26.0901 26.918 26.0588 26.9555 26.0248L26.9816 26C26.9857 25.996 26.9899 25.9921 26.9938 25.9878C27.0194 25.9623 27.0434 25.9353 27.0658 25.907C27.1053 25.8571 27.1405 25.804 27.171 25.7481C27.533 25.0901 27.9123 24.4416 28.3086 23.8038L28.363 23.7166L28.4179 23.6293C28.4455 23.5853 28.473 23.5417 28.5006 23.4986L28.5285 23.4551L28.5842 23.3684C28.6589 23.2528 28.7338 23.1385 28.8093 23.0253L28.8657 22.941C28.9789 22.7734 29.0919 22.6103 29.2036 22.4551L29.2595 22.3785C29.381 22.2106 29.5077 22.0466 29.6392 21.8864L29.6915 21.8239C29.7 21.8133 29.708 21.8032 29.7174 21.793L29.7686 21.7336C29.7771 21.7238 29.7853 21.7142 29.7941 21.7048L29.8437 21.6487L29.8687 21.6217C29.8927 21.5956 29.9171 21.5699 29.9419 21.5444C29.9586 21.528 29.9739 21.5113 29.99 21.496C30.0838 21.4 30.1872 21.314 30.2987 21.2394L30.3244 21.223L30.3505 21.2063C30.3671 21.196 30.3839 21.186 30.4011 21.1766C30.8384 20.9285 31.2005 20.9102 31.4087 21.1185C31.5351 21.2448 31.6048 21.454 31.6011 21.7449C31.6011 21.7579 31.6011 21.7706 31.6 21.7839V21.7984C31.6 21.8115 31.5989 21.825 31.5979 21.8385C31.5979 21.8549 31.5959 21.8716 31.5942 21.8881C31.5926 21.9047 31.5918 21.9173 31.5902 21.9319C31.5902 21.9361 31.5893 21.9404 31.5887 21.9446C31.5874 21.9576 31.5857 21.9707 31.5841 21.9837C31.5841 21.9877 31.5841 21.9916 31.5824 21.9957C31.5806 22.0133 31.578 22.0308 31.5748 22.0482C31.5728 22.0643 31.5702 22.0804 31.5671 22.0965C31.5658 22.1057 31.5639 22.1148 31.5624 22.1241C31.5576 22.1503 31.5513 22.1764 31.5438 22.2019C31.5295 22.2496 31.5121 22.2964 31.4916 22.3419C31.4827 22.3617 31.4733 22.3815 31.4637 22.4009C31.4437 22.4411 31.4211 22.4821 31.3964 22.5246C31.384 22.5455 31.3712 22.5672 31.3575 22.5888L31.3368 22.6217C31.3157 22.6549 31.2937 22.6883 31.2708 22.7222C31.2478 22.756 31.2232 22.7906 31.1968 22.8256C31.1626 22.8722 31.1265 22.9197 31.0884 22.9678L31.0596 23.0042C30.978 23.1058 30.8944 23.2056 30.809 23.3038L30.7411 23.3806L30.7065 23.4194C30.6593 23.4721 30.612 23.5245 30.5643 23.5765L30.5276 23.616C30.5034 23.6423 30.4781 23.6689 30.4538 23.6954C30.4291 23.7222 30.4039 23.7488 30.3788 23.7755L30.3026 23.8557L30.2254 23.9362C30.1997 23.963 30.1738 23.9902 30.1478 24.017L29.9907 24.1788C29.2408 24.948 28.4505 25.7146 28.183 26.1926C28.1653 26.2238 28.1492 26.2558 28.1346 26.2885C28.0967 26.3755 28.0808 26.4498 28.0915 26.5099C28.095 26.5297 28.102 26.5488 28.1122 26.566C28.1274 26.592 28.1457 26.6161 28.1668 26.6375C28.1766 26.6472 28.1867 26.6562 28.1978 26.6644C28.2528 26.7036 28.3194 26.7237 28.3869 26.7217H28.4079L28.4296 26.7202L28.4514 26.7176L28.4693 26.715C28.4718 26.7149 28.4742 26.7143 28.4766 26.7137L28.493 26.7106L28.4975 26.7095L28.5156 26.7056L28.5221 26.7039L28.5415 26.6989L28.5646 26.6921C28.5798 26.6875 28.5949 26.6823 28.6105 26.6766C28.6439 26.6647 28.6767 26.651 28.7087 26.6357C28.7168 26.6318 28.7251 26.6281 28.7331 26.6239L28.7577 26.6116C28.7899 26.5954 28.8219 26.5778 28.854 26.5588C28.8798 26.5436 28.9053 26.5281 28.9308 26.5116L28.9556 26.4951C28.9637 26.49 28.972 26.4846 28.9802 26.4785L29.0048 26.462L29.0177 26.453L29.0532 26.4282C29.0863 26.4052 29.1172 26.3818 29.1487 26.3579L29.1514 26.3559L29.201 26.3174C29.2689 26.2638 29.3334 26.2098 29.3917 26.1589L29.4305 26.1247L29.4342 26.1213L29.4544 26.1034C29.5021 26.0607 29.5446 26.0207 29.5802 25.9876L29.5946 25.9736L29.6295 25.9405L29.6504 25.9201L29.6576 25.9127L29.6597 25.9107C29.6774 25.8929 29.6774 25.8929 29.6952 25.875L29.6967 25.8735L29.7033 25.8676C29.7054 25.8654 29.7081 25.8632 29.7113 25.8604L29.7139 25.858L29.7209 25.8517L29.7584 25.8186L29.7795 25.7995C29.7899 25.7907 29.8012 25.7805 29.8126 25.7696L29.838 25.7474C29.8424 25.7437 29.8468 25.7394 29.8515 25.7354L29.8779 25.7122L29.9169 25.6782L29.9375 25.6603C30.0179 25.5902 30.1159 25.5057 30.2282 25.4104L30.2743 25.3716L30.3505 25.3078L30.4281 25.2427C30.5299 25.1583 30.6394 25.0686 30.7551 24.9754L30.8311 24.9144C30.8959 24.863 30.9625 24.8102 31.0298 24.7574C31.0568 24.7361 31.0843 24.7148 31.1125 24.6937C31.1814 24.6405 31.2508 24.5874 31.3203 24.535C31.479 24.4152 31.6427 24.2952 31.8082 24.1781L31.8794 24.1287C31.929 24.0943 31.9786 24.0601 32.0283 24.0266L32.0733 23.9961C32.1622 23.9362 32.2519 23.8775 32.3424 23.8202L32.3873 23.7919L32.4319 23.7642C32.4765 23.7366 32.521 23.7092 32.565 23.6828L32.6092 23.6565L32.6978 23.6049C32.7269 23.5881 32.7557 23.5716 32.7846 23.5554L32.802 23.5456L32.8708 23.508C32.8992 23.4925 32.9279 23.4775 32.9562 23.4629L32.9987 23.4411L33.0398 23.4202C33.1338 23.373 33.2294 23.3294 33.3267 23.2894C33.34 23.2839 33.3531 23.2785 33.3662 23.2728C33.3923 23.2619 33.4182 23.2519 33.4439 23.243C33.4696 23.2343 33.495 23.2252 33.5199 23.2164C33.5427 23.2088 33.5647 23.2017 33.5861 23.1951L33.5934 23.1929C33.6048 23.1894 33.6163 23.186 33.6278 23.1831L33.6311 23.1821C33.6544 23.1755 33.6777 23.1694 33.7012 23.1638H33.703C33.7376 23.1555 33.7713 23.1485 33.8042 23.1429C33.8155 23.1411 33.8266 23.1392 33.8373 23.1378C33.8693 23.1329 33.9015 23.1296 33.9337 23.1274C33.954 23.1259 33.9745 23.1254 33.9949 23.1254H34.0104C34.0311 23.1254 34.0511 23.1267 34.0709 23.1287C34.08 23.1287 34.089 23.1304 34.0979 23.1317H34.1016C34.1105 23.1326 34.1195 23.1341 34.1282 23.1359C34.1369 23.1378 34.1458 23.139 34.1543 23.1411H34.1573C34.1658 23.1429 34.1737 23.1453 34.1826 23.1477C34.2533 23.1668 34.3182 23.2027 34.372 23.2522L34.3768 23.257L34.3862 23.2663L34.3955 23.2761C34.4696 23.3541 34.5311 23.4435 34.5773 23.5408L34.5845 23.5572C34.6002 23.5942 34.6126 23.6325 34.6213 23.6717C34.6453 23.781 34.6389 23.8949 34.6024 24.0007C34.5867 24.0468 34.5675 24.0915 34.5447 24.1344L34.5296 24.1618C34.4719 24.2585 34.4038 24.3486 34.3263 24.4304L34.3097 24.4479C34.2732 24.4866 34.2353 24.5241 34.1963 24.5602C34.1839 24.5718 34.1711 24.5835 34.1582 24.5951L34.1386 24.6129C34.0979 24.649 34.0563 24.6841 34.0141 24.7185C34.0067 24.7244 33.9991 24.7303 33.9919 24.7366C33.9625 24.7603 33.9322 24.7844 33.9007 24.8084C33.7924 24.8913 33.6819 24.9712 33.5695 25.0483C33.5033 25.0936 33.4349 25.1393 33.3642 25.1857C33.2325 25.2721 33.0999 25.3566 32.966 25.4394C32.9274 25.4633 32.8885 25.4875 32.8489 25.5116C32.4851 25.7354 32.0818 25.9747 31.6516 26.2349L31.5402 26.3026C31.4184 26.3769 31.3033 26.448 31.1951 26.5155L31.1406 26.5499L31.0374 26.6161C30.9965 26.642 30.9567 26.6675 30.9181 26.6927C30.8889 26.7113 30.8604 26.7298 30.8324 26.7481L30.7773 26.7844C30.7505 26.802 30.7239 26.8195 30.6972 26.8375L30.6714 26.8539C30.644 26.8722 30.6173 26.8902 30.5915 26.9079L30.5491 26.9368L30.4993 26.9714L30.4535 27.0034C30.381 27.0542 30.3094 27.1062 30.2384 27.1591L30.2136 27.178C30.1857 27.199 30.1587 27.2201 30.1326 27.2407L30.0986 27.2678C30.0412 27.3139 29.9893 27.3581 29.9423 27.4003L29.9193 27.4214C29.9062 27.4334 29.8933 27.4454 29.8811 27.4572C29.8724 27.4654 29.8644 27.4737 29.8557 27.4818L29.8437 27.4937C29.8173 27.5201 29.7915 27.5473 29.7666 27.5752L29.7544 27.5893C29.7272 27.6207 29.7035 27.6509 29.6826 27.6803L29.6734 27.6936C29.6493 27.7287 29.6281 27.7659 29.6099 27.8046L29.6036 27.8181L29.5998 27.8275L29.5966 27.8356L29.5924 27.8469C29.5911 27.8508 29.5885 27.8576 29.587 27.8636C29.5794 27.8856 29.5739 27.9083 29.5702 27.9314L29.5683 27.9438L29.5668 27.9551L29.5659 27.966V28.0241C29.5659 28.0289 29.5659 28.0339 29.567 28.0389C29.5672 28.0419 29.5676 28.0448 29.5679 28.0478C29.5679 28.0526 29.5692 28.0574 29.5698 28.0624L29.5733 28.0827V28.0837C29.5746 28.0901 29.5759 28.0966 29.5776 28.1031C29.5792 28.1095 29.5809 28.1168 29.5829 28.1236C29.5888 28.1445 29.5961 28.1652 29.6044 28.1854C29.6044 28.1869 29.6057 28.1885 29.6062 28.19C29.6084 28.195 29.6105 28.2002 29.6129 28.2052C29.622 28.2263 29.6321 28.2468 29.6432 28.2669L29.6549 28.2878L29.6671 28.3089L29.6798 28.33C29.6821 28.3335 29.6845 28.3367 29.6872 28.3398L29.6915 28.3442L29.6959 28.3483L29.7009 28.3522C29.7043 28.3546 29.7078 28.3566 29.7115 28.3587C29.7152 28.3603 29.7192 28.3622 29.7233 28.3637C29.7277 28.3652 29.7322 28.3664 29.7366 28.3676C29.8433 28.3916 30.0627 28.3032 30.354 28.1493L30.4063 28.1216L30.4949 28.0733L30.5384 28.0493C30.5691 28.0326 30.6007 28.0141 30.6327 27.9958L30.6913 27.9627C31.0766 27.7409 31.5369 27.4559 32.0126 27.1778C32.057 27.1517 32.1017 27.1258 32.1465 27.0999L32.2364 27.0426C32.2813 27.0167 32.3261 26.9912 32.371 26.966C32.5623 26.8573 32.7561 26.7528 32.952 26.6527L33.0398 26.6081C33.0983 26.5793 33.1561 26.5512 33.2133 26.5238C33.3241 26.4713 33.436 26.4215 33.549 26.3744L33.6109 26.3492L33.6185 26.3462C33.9466 26.2162 34.2442 26.1358 34.485 26.1358C34.5372 26.1354 34.5891 26.1397 34.6405 26.1485H34.642C34.6587 26.1515 34.6736 26.1548 34.6888 26.1587H34.6916C34.7138 26.1641 34.7356 26.1709 34.7567 26.1794C34.7735 26.1855 34.7898 26.1927 34.8055 26.2012C34.8745 26.2362 34.9335 26.2878 34.9775 26.3514C34.9812 26.3568 34.9847 26.3623 34.9881 26.3681C35.0043 26.3929 35.0184 26.4189 35.0299 26.4463C35.0367 26.462 35.043 26.4783 35.0489 26.4959C35.0548 26.5136 35.06 26.5306 35.0654 26.549C35.1046 26.6891 35.1007 26.8375 35.0543 26.9754Z" fill="#030046"/>
<path id="Vector_4" fill-rule="evenodd" clip-rule="evenodd" d="M32.8726 16.9301V16.8395C32.8726 9.09862 26.5995 2.82349 18.8581 2.82349C11.1171 2.82349 4.84158 9.09899 4.84158 16.8395L4.8414 16.8698C4.84121 16.89 4.84103 16.9099 4.8414 16.9301C4.84229 16.9602 4.8426 16.9904 4.84232 17.0205L4.84343 17.0871L4.8438 17.1112L4.84473 17.1441C4.8451 17.1618 4.84565 17.1794 4.84565 17.1972L4.8475 17.2691L4.85046 17.3536L4.85139 17.3814L4.85508 17.4689V17.4729L4.86026 17.5752V17.5778C4.86211 17.6127 4.86396 17.6477 4.86618 17.6825C4.86803 17.7148 4.87006 17.747 4.87228 17.7792L4.87284 17.7849C4.87447 17.8125 4.87632 17.8402 4.87839 17.8678L4.87894 17.875C4.88079 17.9016 4.88283 17.9284 4.88505 17.9549L4.88542 17.9601L4.88912 18.0063C4.90019 18.1397 4.91314 18.273 4.92795 18.406L4.92888 18.4143L4.93998 18.512L4.95274 18.6148C4.9613 18.6832 4.97044 18.7515 4.98011 18.8197C4.98588 18.861 4.99187 18.902 4.99805 18.9431L4.99897 18.9481C5.01279 19.0409 5.0277 19.1338 5.04373 19.2262C5.08973 19.4946 5.14375 19.7617 5.20575 20.0269L5.20667 20.0311L5.21259 20.0561C5.21814 20.0798 5.22369 20.1034 5.22961 20.1273L5.23978 20.1149C5.64667 19.6285 6.23036 19.3603 6.88342 19.3603C7.40682 19.3603 7.94391 19.5332 8.48193 19.8745C8.83888 20.1012 9.23356 20.5029 9.63971 21.008C10.0155 20.4859 10.5422 20.1391 11.1448 20.0444C11.2598 20.0263 11.376 20.0171 11.4921 20.0169C12.8676 20.0169 13.696 21.2106 14.0089 22.284C14.1634 22.6469 14.9087 24.2986 16.0325 25.4161C17.7405 27.1226 18.1679 28.8837 17.3227 30.7693H17.3254C17.3831 30.7756 17.441 30.7815 17.4991 30.7868C17.5337 30.7902 17.5683 30.7935 17.6029 30.7965L17.6151 30.7976C17.6404 30.8 17.6659 30.8022 17.6914 30.804L17.7617 30.8098C17.8287 30.8149 17.8958 30.8196 17.9633 30.824L18.0166 30.8272L18.0589 30.8296L18.0854 30.831L18.1679 30.8355L18.1904 30.8364L18.2774 30.8401L18.3737 30.8438L18.4514 30.846L18.4643 30.8466C18.4806 30.8471 18.4973 30.8479 18.5137 30.8479L18.5313 30.8482C18.6404 30.8508 18.7493 30.8521 18.8585 30.8521H18.9742L19.0571 30.8512C19.0774 30.8501 19.0976 30.8501 19.118 30.8501H19.1501L19.1781 30.8495C19.189 30.8492 19.2001 30.8488 19.211 30.8488H19.2441L19.309 30.8469L19.4067 30.8436L19.5143 30.839C19.5452 30.8377 19.5759 30.8362 19.6068 30.8346L19.6399 30.8327L19.6889 30.8299L19.7179 30.8283L19.7396 30.827L19.8389 30.8203C19.872 30.8183 19.9051 30.8157 19.9382 30.8131L20.0281 30.8061L20.0915 30.8007L20.1609 30.7944C20.2321 30.7878 20.3031 30.7807 20.3738 30.7733C20.4189 30.7683 20.4636 30.7633 20.5086 30.758L20.5876 30.7486C19.7555 28.8708 20.1862 27.1176 21.8874 25.4178C23.0085 24.2975 23.7539 22.6454 23.9092 22.2827C24.2224 21.2091 25.05 20.0156 26.4258 20.0156C26.5422 20.0158 26.6583 20.0248 26.7732 20.0432C27.3752 20.1378 27.9021 20.4848 28.2785 21.0067C28.6848 20.5016 29.0793 20.0999 29.4363 19.8732C29.9743 19.532 30.5117 19.359 31.0346 19.359C31.6109 19.359 32.1334 19.568 32.5279 19.9512C32.5495 19.8547 32.5704 19.7581 32.5904 19.6612C32.6026 19.6008 32.6146 19.5401 32.6264 19.4792C32.6409 19.4045 32.6545 19.3294 32.6671 19.2543C32.6705 19.234 32.674 19.2137 32.6779 19.1931C32.684 19.1611 32.6893 19.1295 32.6943 19.0973L32.6963 19.0851L32.7095 19.0013L32.7224 18.9164L32.7226 18.9155C32.7278 18.88 32.7332 18.8443 32.738 18.8086C32.7418 18.7816 32.7455 18.7546 32.7491 18.7274L32.7513 18.7119L32.7627 18.6235L32.7722 18.5482C32.7779 18.4986 32.7835 18.4491 32.7888 18.3993C32.7912 18.3795 32.7933 18.3596 32.7953 18.3396L32.7971 18.3235C32.8007 18.2904 32.8038 18.2575 32.8068 18.2244L32.8142 18.1474C32.8295 17.9769 32.8419 17.8064 32.8515 17.6355V17.6344L32.8565 17.5438L32.8574 17.5234L32.8611 17.4374C32.8626 17.405 32.8639 17.3723 32.865 17.3392V17.3368L32.8659 17.3129C32.8669 17.2926 32.8676 17.2723 32.8676 17.2521L32.868 17.2438C32.8687 17.2249 32.8695 17.2053 32.8695 17.1859L32.87 17.1692C32.8706 17.1498 32.8711 17.1306 32.8711 17.1112L32.8715 17.0947C32.872 17.0699 32.8726 17.0453 32.8726 17.0205V16.9301ZM15.3818 30.932C16.4917 29.3041 16.4131 28.0823 14.89 26.5602C13.367 25.0381 12.4805 22.812 12.4805 22.812C12.4805 22.812 12.1496 21.5189 11.395 21.6378C10.6405 21.7565 10.0869 23.6887 11.6667 24.8714C13.2466 26.0542 11.3525 26.8561 10.7444 25.7462C10.1361 24.6362 8.47601 21.783 7.61508 21.2372C6.75432 20.6914 6.14899 20.9973 6.35188 22.1222C6.45267 22.6805 7.38999 23.6334 8.26573 24.5237C9.15422 25.4272 9.97928 26.2659 9.80302 26.5628C9.45291 27.1524 8.21986 25.8702 8.21986 25.8702C8.21986 25.8702 4.35887 22.3567 3.51827 23.2724C2.74352 24.1163 3.93829 24.8337 5.77964 25.9393C5.9363 26.0335 6.09757 26.1304 6.26273 26.2302C8.3693 27.5057 8.53316 27.8421 8.23429 28.3246C8.12387 28.5029 7.41866 28.0796 6.55125 27.5587C5.07258 26.671 3.12267 25.5004 2.84746 26.5482C2.60906 27.455 4.04353 28.0106 5.34446 28.5146C6.42826 28.9344 7.41959 29.3183 7.27385 29.8395C7.12274 30.3798 6.3036 29.9292 5.40808 29.4365C4.40288 28.8833 3.30151 28.2773 2.94123 28.9612C2.25988 30.254 7.64078 31.7759 7.68499 31.787C9.42351 32.2379 13.8386 33.1934 15.3818 30.932ZM22.5327 30.932C21.4226 29.3041 21.5014 28.0823 23.0244 26.5602C24.5475 25.0381 25.4341 22.812 25.4341 22.812C25.4341 22.812 25.7648 21.5189 26.5194 21.6378C27.274 21.7565 27.8278 23.6887 26.2477 24.8714C24.6677 26.0542 26.562 26.8561 27.1703 25.7462C27.7784 24.6362 29.4377 21.783 30.2985 21.2372C31.1592 20.6914 31.7648 20.9973 31.5619 22.1222C31.4611 22.6805 30.5238 23.6336 29.6478 24.5239C28.7595 25.4272 27.9345 26.2659 28.1107 26.5628C28.4606 27.1524 29.6948 25.8694 29.6948 25.8694C29.6948 25.8694 33.5556 22.3559 34.3962 23.2716C35.171 24.1155 33.976 24.8331 32.1347 25.939C31.978 26.0329 31.8169 26.1296 31.6518 26.2297C29.545 27.5049 29.3813 27.8415 29.6802 28.3239C29.7906 28.5022 30.4958 28.0788 31.3631 27.5582C32.8419 26.6704 34.7918 25.4997 35.067 26.5474C35.3054 27.4542 33.871 28.01 32.5698 28.514C31.486 28.9338 30.4949 29.3176 30.6405 29.839C30.7916 30.3792 31.6103 29.9285 32.5055 29.4358C33.5107 28.8826 34.6122 28.2763 34.9727 28.9605C35.6541 30.2542 30.2724 31.7745 30.2288 31.7857C28.4902 32.2379 24.0751 33.1934 22.5327 30.932Z" fill="white"/>
<path id="Vector_5" fill-rule="evenodd" clip-rule="evenodd" d="M23.4103 13.0243C23.6287 13.1016 23.7913 13.3371 23.9459 13.5608C24.1549 13.8636 24.3495 14.1451 24.648 13.9864C25.0003 13.7992 25.289 13.5118 25.4779 13.1604C25.6667 12.8091 25.747 12.4097 25.7087 12.0126C25.6802 11.7158 25.5862 11.4289 25.4335 11.1727C25.2807 10.9166 25.073 10.6975 24.8256 10.5312C24.5779 10.365 24.2964 10.2558 24.0016 10.2114C23.7066 10.167 23.4055 10.1887 23.12 10.2747C22.738 10.3897 22.3988 10.6153 22.1451 10.923C21.8915 11.2308 21.7347 11.6068 21.6946 12.0036C21.6546 12.4005 21.7332 12.8003 21.9204 13.1525C22.0587 13.4127 22.3657 13.2901 22.6898 13.1604C22.9439 13.0589 23.2084 12.9531 23.4103 13.0243ZM13.9084 13.0245C13.69 13.1018 13.5272 13.3372 13.3726 13.561C13.1636 13.8636 12.969 14.1453 12.6705 13.9866C12.4073 13.8466 12.1786 13.6498 12.0005 13.4107C11.8224 13.1715 11.6995 12.896 11.6407 12.6036C11.5819 12.3113 11.5886 12.0096 11.6603 11.7202C11.7323 11.4308 11.8673 11.1609 12.0558 10.9299C12.2446 10.6991 12.4821 10.513 12.7513 10.3849C13.0206 10.2569 13.3151 10.1902 13.6132 10.1895C13.9113 10.1889 14.206 10.2543 14.4758 10.3811C14.7457 10.508 14.9841 10.6931 15.1738 10.9231C15.4276 11.2308 15.5844 11.6069 15.6245 12.0038C15.6645 12.4007 15.5859 12.8005 15.3985 13.1527C15.2598 13.4129 14.9528 13.2901 14.6288 13.1604C14.3748 13.0589 14.1104 12.9531 13.9084 13.0245ZM21.9404 21.671C23.4464 20.4844 23.9996 18.5474 23.9996 17.3541C23.9996 16.4109 23.3648 16.7077 22.3489 17.2106L22.2918 17.2391C21.3591 17.7009 20.1177 18.3157 18.755 18.3157C17.3921 18.3157 16.1507 17.7007 15.2184 17.2389C14.1695 16.7194 13.5117 16.3935 13.5117 17.3543C13.5117 18.5852 14.1002 20.6065 15.7157 21.7809C15.9288 21.3481 16.2288 20.964 16.5972 20.6525C16.9654 20.3411 17.3941 20.1091 17.8563 19.971C18.0176 19.9229 18.1837 20.2005 18.3538 20.4846C18.5179 20.7589 18.6854 21.0393 18.8561 21.0393C19.0378 21.0393 19.2164 20.7629 19.3908 20.4931C19.573 20.2112 19.7506 19.9364 19.9224 19.9913C20.7872 20.2689 21.5105 20.8709 21.9404 21.671Z" fill="#030046" fill-opacity="0.85"/>
<path id="Vector_6" d="M21.9399 21.6708C21.1555 22.2889 20.113 22.7034 18.7555 22.7034C17.4799 22.7034 16.4821 22.3376 15.7158 21.7807C15.9291 21.3481 16.2292 20.964 16.5975 20.6527C16.9657 20.3412 17.3944 20.1091 17.8564 19.9708C18.1732 19.8763 18.5087 21.0391 18.8561 21.0391C19.228 21.0391 19.5862 19.8837 19.9225 19.9911C20.7869 20.2689 21.5101 20.8709 21.9399 21.6708Z" fill="#E9E9E9"/>
<path id="Vector_7" fill-rule="evenodd" clip-rule="evenodd" d="M10.3075 14.7025C10.1644 14.7988 10.0036 14.866 9.83454 14.9C9.66542 14.934 9.49125 14.9344 9.32201 14.9011C9.15276 14.8676 8.99176 14.8012 8.84824 14.7056C8.70472 14.6098 8.58151 14.4868 8.48565 14.3433C8.38979 14.2 8.32319 14.0389 8.28966 13.8698C8.25613 13.7006 8.25631 13.5264 8.29021 13.3571C8.32411 13.1881 8.39108 13.0274 8.48724 12.884C8.58341 12.7409 8.7069 12.618 8.85063 12.5226C9.1397 12.3308 9.49305 12.2613 9.83322 12.3295C10.1734 12.3977 10.4727 12.598 10.6655 12.8864C10.8582 13.175 10.9289 13.528 10.8617 13.8683C10.7946 14.2088 10.5952 14.5088 10.3075 14.7025ZM29.0635 14.7025C28.9203 14.7988 28.7596 14.866 28.5906 14.9C28.4215 14.934 28.2473 14.9344 28.0781 14.9011C27.9089 14.8676 27.7478 14.8012 27.6042 14.7056C27.4607 14.6098 27.3375 14.4868 27.2417 14.3433C27.1458 14.2 27.0792 14.0389 27.0457 13.8698C27.0122 13.7006 27.0124 13.5264 27.0463 13.3571C27.0801 13.1881 27.147 13.0274 27.2432 12.884C27.3394 12.7409 27.4629 12.618 27.6066 12.5226C27.8957 12.3308 28.2492 12.2613 28.5893 12.3295C28.9294 12.3977 29.2286 12.598 29.4215 12.8864C29.6143 13.175 29.6849 13.528 29.6178 13.8683C29.5506 14.2088 29.3513 14.5088 29.0635 14.7025Z" fill="#F4F4F4"/>
</g>
</svg>
