<svg width="54" height="54" viewBox="0 0 54 54" fill="none" xmlns="http://www.w3.org/2000/svg">
<g id="Social Icons/Medium/Original">
<path id="Vector" d="M53.9999 26.6123C53.9999 33.7658 52.801 39.5684 51.3217 39.5684C49.8424 39.5684 48.644 33.7673 48.644 26.6123C48.644 19.4573 49.8429 13.6562 51.3217 13.6562C52.8005 13.6562 53.9999 19.4568 53.9999 26.6123Z" fill="white"/>
<path id="Vector_2" d="M47.1664 26.6119C47.1664 34.5978 43.7571 41.0743 39.5515 41.0743C35.3458 41.0743 31.9365 34.5978 31.9365 26.6119C31.9365 18.6259 35.3453 12.1494 39.551 12.1494C43.7566 12.1494 47.1659 18.6238 47.1659 26.6119" fill="white"/>
<path id="Vector_3" d="M30.4592 26.6123C30.4592 35.0964 23.6406 41.9741 15.2299 41.9741C6.81914 41.9741 0 35.0949 0 26.6123C0 18.1298 6.81862 11.25 15.2299 11.25C23.6411 11.25 30.4592 18.1282 30.4592 26.6123Z" fill="white"/>
</g>
</svg>
