<svg width="137" height="30" viewBox="0 0 137 30" fill="none" xmlns="http://www.w3.org/2000/svg">
<g id="PolygonID">
<path id="Vector" d="M34.7974 9.85383H37.7712V11.03C38.108 10.5954 38.5495 10.2533 39.0546 10.036C39.6279 9.7898 40.2472 9.66921 40.871 9.68236C41.7886 9.6604 42.6939 9.89716 43.4832 10.3656C44.2335 10.834 44.8312 11.5108 45.2032 12.3133C45.6265 13.2313 45.8354 14.2336 45.8141 15.2443C45.8363 16.2564 45.6119 17.2586 45.1604 18.1646C44.7497 18.9742 44.1156 19.6492 43.3332 20.1097C42.5076 20.584 41.5685 20.8248 40.6165 20.8063C40.0461 20.8132 39.4797 20.7113 38.9474 20.5062C38.4894 20.3358 38.0839 20.0485 37.7712 19.673V24.9992H34.7974V9.85383ZM38.3365 17.4144C38.5833 17.6743 38.8804 17.8813 39.2098 18.0227C39.5391 18.1641 39.8937 18.2371 40.2521 18.2371C40.6106 18.2371 40.9652 18.1641 41.2945 18.0227C41.6239 17.8813 41.921 17.6743 42.1678 17.4144C42.6716 16.8067 42.9305 16.0329 42.8938 15.2443C42.9321 14.4482 42.6734 13.6662 42.1678 13.0501C41.921 12.7902 41.6239 12.5832 41.2945 12.4418C40.9652 12.3004 40.6106 12.2274 40.2521 12.2274C39.8937 12.2274 39.5391 12.3004 39.2098 12.4418C38.8804 12.5832 38.5833 12.7902 38.3365 13.0501C37.8309 13.6662 37.5721 14.4482 37.6105 15.2443C37.5733 16.0329 37.8323 16.807 38.3365 17.4144ZM49.6426 20.0882C48.7923 19.6297 48.0884 18.9407 47.6118 18.1003C47.1337 17.2243 46.8831 16.2423 46.8831 15.2443C46.8831 14.2463 47.1337 13.2643 47.6118 12.3883C48.0891 11.5478 48.7927 10.858 49.6426 10.3977C50.5482 9.92776 51.5534 9.68244 52.5736 9.68244C53.5939 9.68244 54.5991 9.92776 55.5046 10.3977C56.3546 10.858 57.0582 11.5478 57.5355 12.3883C58.0136 13.2643 58.2641 14.2463 58.2641 15.2443C58.2641 16.2423 58.0136 17.2243 57.5355 18.1003C57.0589 18.9407 56.355 19.6297 55.5046 20.0882C54.5996 20.5599 53.5942 20.8062 52.5736 20.8062C51.5531 20.8062 50.5476 20.5599 49.6426 20.0882ZM50.6259 17.4091C50.8775 17.6722 51.1798 17.8815 51.5146 18.0246C51.8493 18.1676 52.2096 18.2414 52.5736 18.2414C52.9377 18.2414 53.2979 18.1676 53.6327 18.0246C53.9675 17.8815 54.2698 17.6722 54.5214 17.4091C55.0362 16.8106 55.3035 16.0384 55.2689 15.2497C55.3043 14.4536 55.0373 13.6735 54.5214 13.0661C54.2698 12.8031 53.9675 12.5937 53.6327 12.4506C53.2979 12.3076 52.9377 12.2339 52.5736 12.2339C52.2096 12.2339 51.8493 12.3076 51.5146 12.4506C51.1798 12.5937 50.8775 12.8031 50.6259 13.0661C50.11 13.6735 49.843 14.4536 49.8784 15.2497C49.8451 16.0365 50.1123 16.8066 50.6259 17.4037V17.4091ZM60.0592 5.16797H63.0331V20.6348H60.0592V5.16797ZM68.3432 20.5491L64.4236 9.85383H67.4618L69.7283 16.8197L71.9762 9.86723H75.0411L71.1269 20.6053L69.6078 25.0126H66.7545L68.3432 20.5491ZM76.7344 19.2979C75.7849 18.1673 75.2994 16.7187 75.376 15.2443C75.3548 14.2336 75.5636 13.2313 75.9869 12.3133C76.3623 11.5063 76.9682 10.8286 77.7283 10.3656C78.5469 9.8946 79.4795 9.65822 80.4236 9.68236C81.0214 9.67401 81.6148 9.78703 82.1677 10.0146C82.6498 10.205 83.0737 10.5181 83.3974 10.9228V9.85115H86.3928V21.2724C86.4139 21.777 86.3254 22.2802 86.1335 22.7473C85.9415 23.2144 85.6507 23.6344 85.2809 23.9784C84.4645 24.6816 83.4101 25.0458 82.3338 24.9965H76.8951V22.6763H81.8569C82.0683 22.6839 82.2787 22.6445 82.4731 22.5611C82.6667 22.477 82.8402 22.3528 82.9822 22.1967C83.2799 21.8579 83.4363 21.4177 83.4189 20.967V19.5551C83.1204 19.9766 82.7036 20.3001 82.2213 20.4848C81.6655 20.7121 81.0696 20.8251 80.4691 20.817C79.7744 20.8516 79.0805 20.7346 78.4356 20.4741C77.7907 20.2137 77.2102 19.816 76.7344 19.3086V19.2979ZM79.0224 17.4225C79.2631 17.6888 79.5595 17.8989 79.8906 18.0378C80.2217 18.1767 80.5793 18.241 80.938 18.2262C81.2983 18.241 81.6574 18.1767 81.9902 18.0378C82.323 17.899 82.6213 17.6889 82.8643 17.4225C83.3725 16.813 83.6319 16.0341 83.5904 15.2416C83.6287 14.4455 83.3699 13.6635 82.8643 13.0474C82.6232 12.7768 82.3252 12.5629 81.9917 12.4212C81.6582 12.2794 81.2974 12.2133 80.9353 12.2276C80.5752 12.212 80.2162 12.278 79.8851 12.4205C79.5539 12.5644 79.2585 12.7793 79.0197 13.0501C78.5179 13.6677 78.263 14.4496 78.3044 15.2443C78.2648 16.0352 78.5207 16.8125 79.0224 17.4252V17.4225ZM90.95 20.0882C90.0983 19.6306 89.3934 18.9414 88.9165 18.1003C88.4384 17.2243 88.1878 16.2423 88.1878 15.2443C88.1878 14.2463 88.4384 13.2643 88.9165 12.3883C89.394 11.547 90.0988 10.8572 90.95 10.3977C91.8551 9.92777 92.8599 9.68246 93.8797 9.68246C94.8995 9.68246 95.9043 9.92777 96.8094 10.3977C97.6606 10.8572 98.3653 11.547 98.8428 12.3883C99.3193 13.2648 99.5689 14.2467 99.5689 15.2443C99.5689 16.242 99.3193 17.2238 98.8428 18.1003C98.366 18.9414 97.661 19.6306 96.8094 20.0882C95.9048 20.5599 94.8998 20.8062 93.8797 20.8062C92.8596 20.8062 91.8545 20.5599 90.95 20.0882ZM91.9333 17.4091C92.1828 17.6739 92.4849 17.8838 92.8201 18.0253C93.3239 18.2428 93.8824 18.3004 94.42 18.1902C94.9577 18.08 95.4485 17.8073 95.8261 17.4091C96.3409 16.8106 96.6082 16.0384 96.5736 15.2497C96.6104 14.4534 96.3432 13.6728 95.8261 13.0661C95.5741 12.8042 95.2727 12.5948 94.9393 12.4499C94.6044 12.3067 94.2439 12.2329 93.8797 12.2329C93.5155 12.2329 93.155 12.3067 92.8201 12.4499C92.4859 12.5934 92.1843 12.803 91.9333 13.0661C91.4166 13.6733 91.1487 14.4532 91.1831 15.2497C91.1522 16.0367 91.4202 16.8062 91.9333 17.4037V17.4091ZM101.195 9.85383H104.19V11.3515C104.493 10.8205 104.947 10.3922 105.495 10.1217C106.105 9.81985 106.779 9.66915 107.459 9.68236C108.197 9.6674 108.926 9.85256 109.568 10.2182C110.17 10.5742 110.66 11.0934 110.979 11.7158C111.322 12.3985 111.493 13.1544 111.478 13.9181V20.6348H108.491V14.5799C108.51 13.9898 108.303 13.4145 107.912 12.9724C107.722 12.7667 107.49 12.6041 107.231 12.4955C106.977 12.3888 106.703 12.3376 106.428 12.3455C106.127 12.3349 105.828 12.3896 105.55 12.5057C105.273 12.6217 105.024 12.7965 104.82 13.0179C104.399 13.4907 104.177 14.108 104.201 14.7406V20.6348H101.195V9.85383ZM118.607 5.66094H120.831V20.6348H118.607V5.66094ZM123.869 5.66094H128.469C129.799 5.64259 131.115 5.93912 132.308 6.52631C133.444 7.09417 134.389 7.98284 135.025 9.08223C135.716 10.3229 136.059 11.727 136.019 13.1465C136.061 14.5662 135.717 15.9707 135.025 17.2108C134.39 18.3115 133.445 19.2012 132.308 19.7694C131.115 20.3566 129.799 20.6531 128.469 20.6348H123.869V5.66094ZM128.34 18.6576C129.27 18.6727 130.191 18.4786 131.036 18.0896C131.857 17.6951 132.54 17.0608 132.994 16.2704C133.517 15.3145 133.771 14.2352 133.731 13.1465C133.771 12.0587 133.517 10.9802 132.994 10.0253C132.541 9.23526 131.858 8.60176 131.036 8.20882C130.192 7.81748 129.271 7.61976 128.34 7.63012H126.093V18.6576H128.34Z" fill="white"/>
<path id="Vector_2" d="M26.6524 7.47706C26.1648 6.63273 25.4647 5.93075 24.6216 5.44089L22.8212 4.40405C22.9206 4.90342 22.9708 5.41131 22.9712 5.92046V7.79588L23.1909 7.92448C23.5982 8.1643 23.936 8.50614 24.1709 8.91629C24.4058 9.32644 24.5298 9.79073 24.5305 10.2634V19.6673C24.5324 20.1394 24.4095 20.6036 24.1742 21.0129C23.939 21.4222 23.5998 21.7621 23.1909 21.9981L23.2124 22.0356C23.0945 22.0627 22.9815 22.1079 22.8775 22.1696L21.913 22.7349C21.6019 22.9126 21.2549 23.0179 20.8976 23.043C20.8807 23.0456 20.8635 23.0456 20.8467 23.043C20.5995 23.0662 20.3502 23.0462 20.1099 22.9841C20.0122 22.9633 19.9163 22.9346 19.8232 22.8983L17.2512 21.4543L16.9833 21.3042L16.7529 21.1676L15.1454 20.2379L9.40127 16.905L6.59082 18.5795L17.7603 25.0658C17.8991 25.1841 18.0591 25.275 18.2318 25.3337C18.237 25.3355 18.2427 25.3355 18.2479 25.3337C19.0392 25.7404 19.92 25.9418 20.8095 25.9194C21.699 25.8969 22.5685 25.6513 23.3383 25.2051L24.3028 24.6478C24.4073 24.5861 24.5037 24.5114 24.5895 24.4255L24.6163 24.4764C25.8903 23.7376 26.8192 22.5235 27.199 21.1006C27.3275 20.6346 27.3924 20.1533 27.3919 19.6699V10.2554C27.3918 9.28063 27.1369 8.32287 26.6524 7.47706Z" fill="white"/>
<path id="Vector_3" d="M2.86135 10.8421V10.2553C2.86265 9.78279 2.98682 9.3187 3.22167 8.90864C3.45653 8.49858 3.794 8.15665 4.20093 7.91643L8.99664 5.14885L11.7723 3.55475L12.3483 3.21717C12.7591 2.98372 13.2234 2.86098 13.6959 2.86098C14.1684 2.86098 14.6327 2.98372 15.0435 3.21717L16.008 3.77712C16.3285 3.95881 16.6036 4.21094 16.8125 4.51447C17.0213 4.818 17.1585 5.165 17.2136 5.52929L17.2351 5.70076C17.2445 5.72285 17.2499 5.74643 17.2512 5.77042C17.2552 5.81856 17.2552 5.86695 17.2512 5.91509V18.1642L20.1125 19.7717V5.92045C20.1121 5.62583 20.0861 5.33181 20.0348 5.04168C19.9071 4.26527 19.6088 3.52685 19.1614 2.8796C18.7127 2.23115 18.1239 1.69185 17.4387 1.30157L16.4742 0.744302C15.7741 0.340168 14.9943 0.0936402 14.1892 0.021917C13.384 -0.0498062 12.5729 0.0550024 11.8124 0.329031C11.5087 0.44337 11.2148 0.582252 10.9337 0.744302L8.01607 2.4161L2.77294 5.44088C1.92971 5.9324 1.22999 6.63628 0.743468 7.4824C0.256948 8.32853 0.000614293 9.28735 0 10.2634V12.6746C0.383508 12.348 0.795006 12.0557 1.22974 11.8012L2.86135 10.8421Z" fill="white"/>
<path id="Vector_4" d="M14.9525 26.7456C14.5496 26.9581 14.0993 27.0649 13.6439 27.056C13.1884 27.0471 12.7427 26.9228 12.3484 26.6947L5.72814 22.8635L4.9619 22.4268L4.21173 21.9901C3.80327 21.7542 3.46431 21.4148 3.22909 21.006C2.99387 20.5972 2.87074 20.1335 2.87215 19.6619V18.8796C2.87092 18.5341 2.94314 18.1923 3.08401 17.8768C3.22489 17.5613 3.43121 17.2794 3.68929 17.0497C3.71926 17.0144 3.75345 16.9829 3.7911 16.9559C3.8016 16.9364 3.81869 16.9212 3.83933 16.913C3.88793 16.8693 3.9409 16.8307 3.9974 16.7978L5.69599 15.7905L6.57475 15.2761L8.59752 14.1026L14.3899 10.684V7.3645L3.07576 14.0169L3.02486 14.0463L2.66049 14.2607C2.39819 14.4113 2.15373 14.591 1.93176 14.7965C1.32436 15.2918 0.835585 15.9168 0.501319 16.6256C0.167053 17.3345 -0.00421824 18.1092 7.89045e-05 18.893V19.9968C-0.000349861 20.1098 0.0140621 20.2224 0.0429455 20.3317C0.139888 21.0972 0.394445 21.8343 0.790553 22.4964C1.18666 23.1586 1.71572 23.7315 2.34435 24.1789C2.48111 24.2834 2.62428 24.3791 2.77302 24.4656L3.4187 24.8353L10.9204 29.1622C11.765 29.6502 12.7232 29.9071 13.6987 29.9071C14.6741 29.9071 15.6323 29.6502 16.477 29.1622L17.9746 28.3022C17.4915 28.1409 17.0264 27.9299 16.5868 27.6726L14.9525 26.7456Z" fill="white"/>
</g>
</svg>
