<svg width="152" height="150" viewBox="0 0 152 150" fill="none" xmlns="http://www.w3.org/2000/svg">
<path id="Vector" d="M75.7162 149.458C45.1313 149.458 23.4733 142.479 0.895167 125.389L0 124.718L18.7736 93.7438L19.8677 94.5138C39.2381 108.2 58.0366 114.559 79.0233 114.559C100.01 114.559 112.269 109.79 112.269 102.115C112.269 98.2149 111.846 95.9793 103.267 95.2341L55.0279 89.6453C21.9067 85.6958 6.48996 71.8603 6.48996 46.1019C6.48996 17.6608 32.226 0 73.6772 0C104.511 0 127.288 6.95502 147.504 22.5541L148.424 23.2496L129.053 52.6595L128.009 51.8894C112.493 40.513 96.2553 35.6693 73.7021 35.6693C48.6623 35.6693 45.7778 41.4569 45.7778 45.8286C45.7778 50.2004 49.7066 51.3181 59.1556 52.4608L99.9851 57.0312C134.35 61.2539 151.059 75.8346 151.059 101.593C151.059 131.574 122.911 149.458 75.7411 149.458H75.7162ZM3.28228 124.073C25.0647 140.318 46.126 146.975 75.7162 146.975C121.991 146.975 148.548 130.432 148.548 101.593C148.548 77.3001 132.559 63.5391 99.6619 59.4903L58.8323 54.9198C51.1737 54.0008 43.2664 53.0321 43.2664 45.8286C43.2664 37.2094 52.9392 33.1854 73.6772 33.1854C95.9818 33.1854 112.94 38.1036 128.407 49.1323L145.067 23.821C125.547 9.06637 103.466 2.48394 73.6772 2.48394C42.3961 2.48394 8.97653 13.9349 8.97653 46.1019C8.97653 70.3451 23.6971 83.4106 55.3263 87.1862L103.516 92.7502C112.965 93.5699 114.755 96.65 114.755 102.09C114.755 111.429 101.402 117.018 79.0233 117.018C58.1858 117.018 38.716 110.56 19.5445 97.271L3.30714 124.073H3.28228Z" fill="white" fill-opacity="0.2"/>
</svg>
