<svg width="31" height="30" viewBox="0 0 31 30" fill="none" xmlns="http://www.w3.org/2000/svg">
<path id="Vector" d="M25.8718 10.3178C22.631 7.94197 19.2511 7.03887 14.8976 7.03887C10.1407 7.03887 9.08361 8.09481 9.08361 9.31748C9.08361 10.5401 10.2937 10.6791 11.9628 10.8875L20.0996 11.7906C26.2613 12.5409 30.0584 15.0279 30.0584 20.4326C30.0584 26.8517 23.6881 29.7277 15.3009 29.7277C9.48697 29.7277 5.13344 28.4634 0.543457 24.976L4.03462 19.2239C7.83179 21.9054 11.6707 23.267 15.9686 23.267C19.8075 23.267 22.8396 22.4056 22.8396 20.5438C22.8396 19.5851 22.5893 19.0849 20.8228 18.9321L11.2117 17.8206C5.30035 17.112 1.75355 14.7917 1.75355 9.38695C1.75355 3.2736 7.66489 0.453125 14.8976 0.453125C20.2526 0.453125 25.0095 1.46739 29.4603 4.8992L25.8718 10.3595V10.3178Z" fill="white"/>
</svg>
