<?xml version="1.0" standalone="no"?>
<!DOCTYPE svg PUBLIC "-//W3C//DTD SVG 20010904//EN"
 "http://www.w3.org/TR/2001/REC-SVG-20010904/DTD/svg10.dtd">
<svg version="1.0" xmlns="http://www.w3.org/2000/svg"
 width="980.000000pt" height="645.000000pt" viewBox="0 0 980.000000 645.000000"
 preserveAspectRatio="xMidYMid meet">

<g transform="translate(0.000000,645.000000) scale(0.100000,-0.100000)"
fill="#000000" stroke="none">
<path d="M22 6434 l-22 -15 0 -3210 0 -3209 4900 0 4900 0 -2 3223 -3 3222
-4875 3 c-4401 2 -4878 1 -4898 -14z m4260 -1255 c29 -6 88 -27 131 -46 l77
-36 23 21 c31 29 39 28 116 -14 85 -47 138 -89 156 -125 20 -38 19 -46 -9 -74
l-25 -25 41 -35 c46 -39 72 -44 100 -18 17 15 19 15 36 0 29 -26 61 -20 109
19 l43 36 -25 20 c-14 11 -25 30 -25 44 0 35 61 97 142 144 94 54 113 58 143
30 l25 -23 78 36 c99 47 171 61 251 48 57 -9 91 -22 118 -43 24 -19 2 -27 -34
-12 -105 44 -194 37 -336 -29 l-87 -40 -26 24 -25 24 -63 -33 c-79 -41 -146
-97 -146 -123 0 -24 31 -25 70 -2 24 14 34 15 54 5 47 -21 34 -52 -59 -142
-61 -60 -86 -93 -91 -116 -13 -73 65 -145 165 -152 62 -4 100 9 154 54 16 13
36 24 46 24 25 0 61 -29 72 -57 8 -22 4 -34 -28 -80 -31 -45 -38 -64 -41 -117
-5 -71 18 -128 64 -165 66 -52 105 -38 209 70 72 75 112 98 112 64 0 -8 -7
-15 -16 -15 -9 0 -38 -27 -64 -59 -26 -33 -69 -74 -95 -91 -39 -26 -54 -31
-89 -27 -82 9 -147 88 -159 194 -7 54 21 136 57 169 24 21 24 46 1 67 -17 15
-21 14 -66 -18 -69 -49 -137 -62 -209 -41 -70 20 -130 74 -147 132 -17 58 5
99 105 196 44 43 74 78 66 78 -8 0 -47 -31 -86 -69 -76 -74 -111 -91 -158 -73
-20 8 -35 8 -52 0 -39 -18 -75 0 -151 74 -40 38 -78 68 -84 66 -7 -2 23 -37
65 -78 126 -122 140 -185 59 -266 -85 -85 -206 -93 -310 -19 -45 32 -49 33
-66 18 -22 -20 -23 -46 -2 -64 23 -19 53 -81 60 -126 18 -113 -75 -243 -174
-243 -41 0 -111 50 -168 120 -33 40 -55 58 -66 56 -12 -3 -18 2 -18 15 0 37
38 19 97 -45 70 -76 126 -116 164 -116 62 0 128 94 129 183 0 51 -15 92 -55
146 -29 39 -26 64 11 99 32 28 55 28 91 -2 54 -45 92 -58 154 -54 100 7 182
84 165 154 -4 17 -42 64 -92 113 -92 91 -105 122 -58 143 20 10 30 9 54 -5 39
-23 70 -22 70 2 0 26 -67 82 -146 123 l-63 33 -21 -23 c-11 -12 -24 -22 -29
-22 -5 0 -46 17 -92 39 -139 64 -228 71 -334 27 -46 -19 -45 -19 -45 -1 0 18
57 44 120 55 65 11 73 11 132 -1z m1458 -195 c0 -15 12 -38 29 -55 16 -16 24
-29 17 -29 -7 0 -22 10 -34 23 -25 26 -41 87 -23 87 6 0 11 -12 11 -26z
m-1685 -81 c-9 -13 -19 -22 -22 -20 -3 3 2 16 11 29 9 12 17 34 17 48 2 24 2
24 6 -3 3 -16 -3 -39 -12 -54z m1519 16 c14 -17 26 -35 26 -40 0 -12 98 -109
110 -109 18 0 70 -53 70 -71 0 -23 -4 -23 -35 -3 -15 10 -34 14 -49 10 -34 -9
-74 9 -88 39 -6 14 -17 25 -24 25 -22 0 -44 43 -44 87 0 24 -6 48 -15 57 -21
20 -19 36 4 36 11 0 31 -14 45 -31z m135 -7 c35 -26 58 -62 66 -99 5 -25 3
-33 -8 -33 -8 0 -17 13 -20 29 -9 42 -53 89 -98 102 -38 12 -46 19 -33 31 8 9
66 -10 93 -30z m-1425 -1 c3 -5 -1 -14 -9 -21 -9 -7 -15 -29 -15 -51 0 -52
-16 -90 -41 -96 -11 -3 -25 -16 -30 -30 -10 -27 -45 -43 -98 -43 -20 0 -42 -5
-49 -12 -9 -9 -12 -6 -12 15 0 21 8 32 32 45 44 24 113 92 133 133 26 52 74
85 89 60z m-96 -13 c-3 -7 -19 -15 -37 -19 -43 -9 -87 -52 -105 -103 l-14 -41
-1 39 c-1 47 32 95 81 119 39 20 81 22 76 5z m995 -133 c25 -14 55 -41 66 -60
12 -21 28 -35 40 -35 23 0 37 -18 24 -31 -18 -18 -73 12 -99 52 -13 22 -30 39
-38 39 -22 0 -60 35 -52 48 9 15 6 16 59 -13z m-496 -19 c-3 -8 -22 -22 -41
-30 -20 -8 -42 -28 -50 -45 -18 -33 -44 -51 -75 -51 -29 0 -26 26 3 34 13 3
34 22 47 42 12 20 37 42 55 50 18 8 36 19 39 25 10 16 29 -6 22 -25z m-301
-21 c16 -16 24 -34 22 -48 -4 -27 -33 -30 -33 -2 0 16 -23 35 -59 48 -5 2 -6
9 -2 15 12 20 45 14 72 -13z m1124 10 c0 -8 -8 -15 -18 -15 -25 0 -42 -19 -42
-47 0 -14 -6 -23 -15 -23 -22 0 -19 56 5 80 24 24 70 27 70 5z m-386 -60 c17
-21 41 -39 66 -46 40 -12 54 -29 25 -29 -33 0 -83 29 -109 62 -14 19 -26 38
-26 41 0 17 20 4 44 -28z m-394 9 c0 -9 -17 -34 -39 -55 -31 -31 -46 -39 -75
-39 -22 0 -35 4 -31 10 3 6 18 10 33 10 18 0 38 13 66 45 23 24 42 45 44 45 1
0 2 -7 2 -16z m880 -62 c0 -41 -33 -67 -77 -63 -25 2 -13 31 12 31 14 0 28 7
30 15 3 8 7 22 10 30 8 26 25 16 25 -13z m-1363 -12 c9 -23 18 -30 37 -30 17
0 26 -5 26 -16 0 -11 -8 -14 -32 -12 -35 3 -74 47 -65 72 10 24 21 19 34 -14z
m1273 -169 c0 -10 19 -34 43 -54 42 -35 86 -102 74 -113 -13 -13 -37 6 -51 40
-8 20 -28 42 -45 50 -17 9 -35 25 -41 35 -15 29 -12 61 5 61 8 0 15 -8 15 -19z
m-1190 -6 c0 -28 -22 -60 -55 -83 -19 -12 -41 -38 -49 -57 -13 -30 -46 -50
-46 -27 0 27 44 93 74 110 20 12 38 32 42 46 7 27 34 36 34 11z m1197 -165
c46 -41 34 -52 -15 -13 -23 19 -41 45 -48 69 -16 54 -4 68 14 16 7 -23 29 -55
49 -72z m-1167 70 c0 -32 -26 -76 -59 -99 -50 -36 -53 -23 -6 22 31 30 45 52
45 70 0 15 5 27 10 27 6 0 10 -9 10 -20z m-173 -218 c4 -16 0 -36 -10 -53 -13
-24 -13 -30 -1 -46 7 -10 14 -33 14 -51 0 -27 -13 -45 -75 -111 -71 -74 -88
-101 -65 -101 6 0 42 34 82 76 40 41 84 82 100 90 65 34 138 6 188 -72 54 -86
50 -190 -11 -267 -33 -40 -34 -63 -6 -81 12 -8 22 -8 35 1 63 46 119 66 177
66 137 0 244 -114 202 -216 -15 -34 -140 -167 -158 -167 -5 0 -9 -7 -9 -15 0
-8 3 -15 6 -15 4 0 40 31 80 70 78 73 111 89 149 72 17 -8 32 -8 52 0 47 18
82 1 159 -74 40 -38 77 -67 83 -63 7 4 -21 37 -68 81 -124 117 -137 178 -56
260 83 83 199 94 297 28 55 -37 74 -40 92 -12 8 14 8 22 -2 35 -68 95 -80 135
-64 211 21 101 88 172 163 172 48 0 112 -44 174 -120 33 -39 56 -59 66 -56 20
4 19 -26 0 -32 -7 -2 -54 37 -105 87 -82 80 -98 91 -129 91 -44 0 -89 -36
-118 -93 -30 -57 -24 -151 12 -198 50 -66 52 -76 29 -114 -27 -44 -61 -54 -96
-29 -72 52 -100 64 -149 64 -117 -1 -208 -89 -175 -170 7 -16 48 -63 91 -104
81 -76 93 -101 63 -130 -20 -21 -25 -20 -74 5 -30 16 -44 19 -52 11 -21 -21 9
-61 80 -107 107 -69 119 -73 143 -47 11 12 25 22 31 22 6 0 47 -17 92 -39 135
-64 225 -71 335 -25 42 17 49 12 21 -14 -33 -31 -100 -45 -193 -40 -70 4 -96
10 -161 41 -43 20 -82 37 -87 37 -5 0 -18 -9 -30 -21 -24 -24 -39 -21 -128 28
-84 47 -138 97 -147 136 -5 26 -2 35 20 53 l26 23 -47 40 c-25 23 -51 41 -58
41 -7 0 -24 -10 -39 -21 l-27 -21 -24 22 -25 23 -40 -28 c-61 -43 -67 -52 -42
-76 50 -46 5 -116 -120 -186 -98 -55 -113 -59 -135 -34 -21 26 -39 26 -78 3
-84 -51 -206 -77 -288 -62 -67 13 -127 39 -127 57 0 16 4 16 38 -1 15 -7 53
-19 85 -26 75 -15 145 -1 254 51 46 21 87 39 93 39 5 0 20 -10 32 -22 l21 -21
66 34 c77 40 141 94 141 120 0 28 -13 30 -53 9 -45 -24 -55 -25 -79 -3 -28 25
-22 49 24 90 112 102 138 135 138 176 0 69 -93 137 -190 137 -39 0 -59 -7
-108 -40 -33 -22 -66 -40 -74 -40 -22 0 -68 53 -68 78 0 12 14 41 30 64 66 91
61 186 -15 264 -35 37 -48 44 -80 44 -34 0 -46 -9 -131 -91 -115 -114 -125
-113 -121 5 2 75 4 83 19 75 9 -5 19 -14 22 -21 6 -16 86 70 86 94 0 9 -8 30
-17 46 -17 29 -17 31 0 50 26 28 21 53 -22 102 l-39 45 -22 -22 c-11 -13 -22
-23 -23 -23 -1 0 -3 30 -3 68 l-2 67 74 -78 c41 -43 77 -90 81 -105z m1608
113 c0 -57 -8 -67 -31 -37 -13 16 -17 14 -54 -27 -43 -47 -49 -74 -23 -103 16
-18 16 -21 -1 -52 -22 -42 -16 -62 33 -110 38 -37 39 -38 50 -17 19 34 26 24
26 -34 0 -30 -3 -55 -6 -55 -16 0 -139 132 -145 155 -3 14 -1 39 6 55 10 24
10 36 0 60 -7 16 -10 40 -6 53 5 23 130 167 144 167 4 0 7 -25 7 -55z m-240
-400 c-16 -13 -33 -24 -36 -25 -9 0 -29 -49 -29 -70 0 -11 -4 -20 -10 -20 -30
0 3 85 46 119 39 31 67 27 29 -4z m-1239 -10 c19 -14 38 -34 42 -43 15 -29 23
-72 13 -72 -5 0 -12 13 -16 29 -6 28 -59 91 -77 91 -4 0 -8 5 -8 10 0 16 10
12 46 -15z m1320 -48 c-10 -17 -38 -51 -62 -73 -24 -23 -44 -49 -44 -59 0 -9
-6 -15 -12 -12 -21 7 -11 60 14 80 46 36 63 54 81 87 14 25 21 30 30 21 8 -8
7 -19 -7 -44z m-1391 -10 c11 -21 35 -46 52 -57 33 -20 50 -57 39 -86 -8 -20
-26 -9 -26 16 0 10 -18 33 -40 50 -23 18 -48 49 -57 69 -9 20 -19 40 -21 44
-2 5 4 7 14 5 11 -2 28 -20 39 -41z m65 -258 c0 -14 -5 -19 -14 -16 -18 7 -43
-13 -48 -37 -5 -33 -28 -31 -28 2 0 21 8 37 26 51 35 28 64 27 64 0z m1290 -6
c21 -27 23 -54 5 -60 -6 -2 -16 10 -22 26 -7 19 -19 31 -34 33 -35 5 -36 28
-1 28 21 0 37 -8 52 -27z m-355 -13 c3 -5 -12 -14 -34 -20 -26 -7 -51 -24 -70
-47 -34 -41 -48 -40 -30 1 13 28 47 54 88 66 36 11 39 11 46 0z m-569 -26 c33
-16 82 -79 70 -91 -3 -4 -22 12 -42 35 -24 28 -46 43 -69 48 -19 3 -35 10 -35
15 0 14 39 10 76 -7z m654 -19 c0 -8 -8 -15 -19 -15 -10 0 -34 -19 -54 -42
-35 -43 -102 -87 -113 -75 -12 12 6 37 38 53 18 9 45 33 60 55 22 31 34 39 58
39 20 0 30 -5 30 -15z m-716 -50 c21 -25 44 -45 50 -45 7 0 21 -9 31 -20 14
-16 16 -23 7 -32 -9 -9 -16 -7 -30 5 -10 9 -24 17 -30 17 -6 0 -28 20 -49 45
-20 25 -45 45 -55 45 -20 0 -32 16 -22 31 12 20 59 -2 98 -46z m-200 20 c15
-39 -40 -96 -78 -82 -23 9 -20 25 5 29 22 3 32 16 43 51 7 21 22 22 30 2z
m1036 -4 c0 -21 17 -37 44 -42 25 -5 32 -25 11 -32 -39 -16 -96 39 -82 77 9
22 27 20 27 -3z m346 -7 c-1 -18 -12 -32 -38 -48 -39 -24 -118 -100 -118 -115
0 -22 -53 -71 -77 -71 -25 0 -25 1 -9 25 9 13 16 43 16 65 0 30 7 47 25 65 13
14 29 25 35 25 5 0 10 6 10 14 0 25 42 46 92 46 26 0 50 5 53 10 10 16 12 12
11 -16z m-1716 -14 c0 -5 17 -10 39 -10 58 0 98 -18 105 -46 4 -13 12 -24 18
-24 28 0 48 -34 48 -80 0 -30 6 -52 15 -60 21 -17 19 -40 -4 -40 -22 0 -68 51
-77 85 -3 14 -15 27 -26 31 -10 3 -24 16 -30 29 -6 13 -24 28 -39 34 -55 19
-105 91 -64 91 8 0 15 -4 15 -10z m1715 -95 c-1 -60 -71 -125 -135 -125 -33 0
-19 21 25 36 44 15 95 64 95 92 0 15 8 32 15 32 1 0 1 -16 0 -35z m-1706 -35
c12 -42 54 -81 106 -97 35 -11 31 -29 -5 -25 -58 8 -118 68 -134 135 -10 44
19 33 33 -13z m0 -116 c12 -15 21 -38 20 -53 0 -24 -1 -24 -13 8 -6 18 -24 44
-39 57 -15 13 -27 26 -27 29 0 12 39 -16 59 -41z m1701 31 c-7 -8 -16 -30 -20
-48 -8 -32 -8 -32 -9 -4 -1 32 15 67 31 67 7 0 6 -5 -2 -15z m-2140 -980 l0
-365 -75 0 -75 0 0 365 0 365 75 0 75 0 0 -365z m340 65 l0 -300 115 0 115 0
0 -65 0 -65 -190 0 -190 0 0 365 0 365 75 0 75 0 0 -300z m497 35 c2 -143 3
-277 3 -297 l0 -38 110 0 110 0 0 -65 0 -65 -190 0 -190 0 0 358 c0 197 3 362
7 366 4 4 39 5 78 4 l70 -3 2 -260z m763 195 l0 -70 -140 0 -140 0 0 -80 0
-80 120 0 120 0 0 -65 0 -65 -74 0 c-40 0 -94 -3 -120 -6 l-46 -7 0 -143 0
-144 -70 0 -70 0 0 365 0 365 210 0 210 0 0 -70z m270 -200 c5 -290 7 -297 66
-325 66 -31 145 -10 179 48 18 29 20 55 23 290 l4 258 71 -3 72 -3 3 -220 c4
-346 -14 -415 -128 -479 -52 -29 -61 -31 -160 -31 -94 0 -110 3 -155 26 -60
32 -78 50 -104 109 -19 42 -21 65 -21 323 l0 278 73 -3 72 -3 5 -265z m740
-30 l0 -300 115 0 115 0 0 -65 0 -65 -190 0 -190 0 0 365 0 365 75 0 75 0 0
-300z m-3350 150 l0 -140 33 0 c29 1 41 13 141 140 l109 140 90 0 c85 0 89 -1
75 -17 -54 -63 -251 -310 -255 -320 -3 -7 55 -90 129 -185 74 -95 137 -179
142 -185 5 -10 -14 -13 -86 -13 l-93 1 -110 154 c-103 144 -112 154 -142 155
l-33 0 0 -155 0 -155 -70 0 -70 0 0 360 0 360 70 0 70 0 0 -140z m4214 28 c-1
-103 -4 -122 -38 -212 -20 -54 -36 -104 -36 -112 0 -8 15 -14 38 -16 l37 -3 0
-55 0 -55 -64 -5 -64 -5 -25 -72 -24 -73 -73 0 -74 0 34 93 c73 201 226 611
231 619 3 4 17 8 33 8 l27 0 -2 -112z m-3514 -1015 c6 -32 16 -74 21 -93 5
-19 9 -38 9 -42 0 -14 -28 -8 -34 7 -7 20 -36 19 -52 -2 -29 -41 -26 20 7 150
15 56 36 47 49 -20z m182 40 c22 -20 23 -47 1 -83 -15 -26 -15 -30 7 -64 12
-21 20 -40 17 -43 -13 -12 -37 8 -54 44 l-17 38 -4 -37 c-2 -20 -10 -39 -18
-42 -12 -4 -14 12 -14 99 l0 105 32 0 c17 0 40 -7 50 -17z m198 2 c0 -8 -9
-15 -20 -15 -19 0 -20 -7 -20 -90 0 -73 -3 -90 -15 -90 -12 0 -15 17 -15 90 0
83 -1 90 -20 90 -11 0 -20 7 -20 15 0 12 13 15 55 15 42 0 55 -3 55 -15z m285
-8 c21 -18 27 -32 27 -67 1 -25 -2 -55 -6 -68 -10 -31 -58 -54 -88 -43 -39 15
-52 39 -52 96 -1 90 60 133 119 82z m185 9 c0 -9 -12 -16 -27 -18 -36 -4 -40
-41 -5 -46 31 -5 29 -32 -3 -32 -23 0 -25 -4 -25 -45 0 -33 -4 -45 -15 -45
-12 0 -15 18 -15 100 l0 100 45 0 c32 0 45 -4 45 -14z m242 -3 c37 -33 14
-113 -33 -113 -16 0 -19 -7 -19 -40 0 -29 -4 -40 -15 -40 -12 0 -15 18 -15
105 l0 105 32 0 c17 0 40 -7 50 -17z m168 2 c0 -9 -10 -15 -26 -15 -21 0 -25
-4 -22 -22 2 -15 11 -24 26 -26 31 -5 29 -32 -3 -32 -21 0 -25 -5 -25 -30 0
-25 4 -30 25 -30 16 0 25 -6 25 -15 0 -11 -12 -15 -45 -15 l-45 0 0 100 0 100
45 0 c33 0 45 -4 45 -15z m142 -2 c22 -20 23 -47 1 -83 -15 -26 -15 -30 5 -63
27 -42 27 -47 2 -47 -12 0 -27 13 -39 38 l-20 37 -1 -37 c0 -31 -4 -38 -20
-38 -19 0 -20 7 -20 105 l0 105 37 0 c20 0 45 -7 55 -17z m176 5 c-3 -7 -14
-14 -26 -16 -31 -5 -28 -33 8 -67 52 -50 32 -119 -34 -113 -21 2 -32 9 -34 22
-3 14 0 17 13 12 22 -8 55 2 55 16 0 6 -16 28 -35 49 -39 43 -43 64 -18 91 18
21 77 25 71 6z m192 2 c43 -23 50 -139 9 -176 -23 -20 -71 -23 -93 -5 -21 18
-38 84 -30 118 14 60 66 89 114 63z m160 -52 l30 -63 -5 63 c-4 57 -3 62 15
62 19 0 20 -7 20 -105 0 -128 -14 -138 -59 -42 l-29 62 -1 -62 c-1 -49 -4 -63
-16 -63 -12 0 -15 18 -15 105 0 128 14 138 60 43z m204 40 c32 -150 37 -180
31 -186 -4 -4 -12 1 -19 11 -16 21 -52 22 -60 2 -3 -8 -13 -15 -22 -15 -9 0
-14 6 -11 13 2 6 13 54 23 105 15 74 22 92 36 92 10 0 20 -9 22 -22z m136 -63
c0 -84 0 -85 25 -85 18 0 25 -5 25 -20 0 -17 -7 -20 -40 -20 l-40 0 0 105 c0
87 3 105 15 105 12 0 15 -16 15 -85z m150 -15 c0 -82 -3 -100 -15 -100 -12 0
-15 18 -15 100 0 82 3 100 15 100 12 0 15 -18 15 -100z m160 90 c0 -5 -11 -39
-25 -76 -32 -86 -32 -94 5 -94 17 0 30 -4 30 -10 0 -5 -22 -10 -50 -10 -27 0
-50 4 -50 9 0 6 11 41 25 79 14 38 25 72 25 76 0 3 -11 6 -25 6 -16 0 -25 6
-25 15 0 11 12 15 45 15 25 0 45 -4 45 -10z m160 -4 c0 -9 -12 -16 -27 -18
-40 -4 -39 -42 0 -46 33 -4 31 -24 -4 -32 -36 -9 -34 -54 4 -58 16 -2 27 -9
27 -18 0 -12 -10 -14 -42 -12 -51 4 -54 12 -43 125 l7 73 39 0 c27 0 39 -4 39
-14z m120 -1 c0 -8 -7 -15 -15 -15 -12 0 -15 -14 -15 -70 0 -54 4 -72 15 -76
24 -9 17 -24 -10 -24 l-25 0 0 100 0 100 25 0 c16 0 25 -6 25 -15z"/>
<path d="M5573 4855 c2 -32 7 -42 28 -52 15 -7 30 -24 33 -37 6 -24 30 -36 74
-36 33 0 27 14 -11 28 -19 7 -39 23 -45 36 -6 13 -19 27 -30 30 -10 4 -26 21
-35 39 l-17 32 3 -40z"/>
<path d="M4201 4825 c-7 -19 -16 -35 -21 -35 -5 0 -24 -15 -43 -32 -18 -18
-42 -38 -53 -45 -17 -11 -15 -12 16 -12 42 -1 55 7 64 36 4 12 17 25 29 29 29
9 37 22 37 62 0 42 -13 41 -29 -3z"/>
<path d="M5669 3350 c-7 -19 -18 -30 -30 -30 -24 0 -41 -33 -37 -73 l3 -32 23
43 c12 23 29 42 37 42 9 0 20 11 25 25 5 14 16 25 23 25 7 0 22 7 33 15 18 13
16 14 -24 15 -39 0 -44 -3 -53 -30z"/>
<path d="M4100 3345 c0 -2 18 -14 40 -25 22 -11 40 -27 40 -36 0 -9 9 -18 20
-21 12 -3 29 -22 40 -42 l19 -36 1 43 c0 39 -3 44 -30 53 -19 7 -30 18 -30 30
0 10 -9 23 -19 29 -20 10 -81 14 -81 5z"/>
<path d="M3577 1386 c-12 -30 -8 -56 8 -56 16 0 18 23 6 54 -7 18 -8 18 -14 2z"/>
<path d="M3740 1415 c0 -37 10 -44 30 -20 14 17 4 55 -16 55 -9 0 -14 -11 -14
-35z"/>
<path d="M4204 1439 c-26 -29 -26 -105 0 -125 25 -18 31 -18 50 2 23 23 21
106 -2 127 -23 21 -25 21 -48 -4z"/>
<path d="M4650 1415 c0 -24 5 -35 14 -35 20 0 30 38 16 55 -20 24 -30 17 -30
-20z"/>
<path d="M4960 1416 c0 -28 3 -34 16 -29 18 7 16 54 -3 61 -9 2 -13 -8 -13
-32z"/>
<path d="M5317 1442 c-22 -24 -23 -105 -1 -126 19 -20 25 -20 50 -2 26 20 26
96 0 125 -23 26 -28 26 -49 3z"/>
<path d="M5717 1383 c-12 -12 -7 -43 7 -43 9 0 12 8 8 25 -5 27 -6 28 -15 18z"/>
</g>
</svg>
