<svg width="180" height="21" viewBox="0 0 180 21" fill="none" xmlns="http://www.w3.org/2000/svg">
<g id="WalletConnect">
<path id="Vector" d="M7.01744 4.10303C12.6075 -1.36768 21.6707 -1.36768 27.2608 4.10303L27.9335 4.76142C28.213 5.03499 28.213 5.47845 27.9335 5.75202L25.6321 8.00429C25.4924 8.14107 25.2657 8.14107 25.126 8.00429L24.2002 7.09828C20.3005 3.28174 13.9777 3.28174 10.078 7.09828L9.08653 8.06853C8.9468 8.20532 8.72016 8.20532 8.58043 8.06853L6.279 5.81626C5.99954 5.54269 5.99954 5.09924 6.279 4.82567L7.01744 4.10303ZM32.0203 8.76102L34.0685 10.7655C34.3481 11.0391 34.3481 11.4825 34.0685 11.7561L24.8328 20.7949C24.5533 21.0684 24.1002 21.0684 23.8206 20.7949L17.2656 14.3798C17.1958 14.3114 17.0825 14.3114 17.0127 14.3798L10.4578 20.7949C10.1783 21.0684 9.72513 21.0684 9.44567 20.7949L0.209628 11.756C-0.069876 11.4824 -0.069876 11.039 0.209628 10.7654L2.25789 8.76093C2.53738 8.48736 2.99055 8.48736 3.27006 8.76093L9.82515 15.176C9.89502 15.2444 10.0082 15.2444 10.0781 15.176L16.6329 8.76093C16.9124 8.48736 17.3656 8.48736 17.645 8.76085L24.2001 15.176C24.27 15.2444 24.3833 15.2444 24.4531 15.176L31.0081 8.76102C31.2876 8.48745 31.7408 8.48745 32.0203 8.76102Z" fill="white"/>
<path id="Vector_2" d="M46.596 17.8791L49.0703 7.9823C49.217 7.43712 49.3428 6.85001 49.5106 5.92749C49.6364 6.85001 49.7831 7.43712 49.888 7.9823L52.0268 17.8791H56.4509L60.1832 3.20166H56.7864L54.7316 12.2178C54.5219 13.0984 54.3961 13.7904 54.2493 14.8178C54.0816 13.8323 53.9138 13.0984 53.7251 12.2388L51.7332 3.20166H47.288L45.1284 12.2388C44.9396 13.0984 44.7929 13.7904 44.6251 14.8178C44.4574 13.7904 44.3106 13.0984 44.1219 12.2388L42.109 3.20166H38.5654L42.2767 17.8791H46.596Z" fill="white"/>
<path id="Vector_3" d="M62.7159 18.2566C64.3933 18.2566 65.4627 17.5647 66.0079 16.5582C65.945 16.8727 65.924 17.1873 65.924 17.5018V17.8792H68.7337V11.8195C68.7337 8.926 67.4127 7.24854 64.1837 7.24854C61.3949 7.24854 59.5708 8.80019 59.403 10.9389H62.4853C62.5901 9.9953 63.2611 9.42915 64.2886 9.42915C65.253 9.42915 65.7772 9.97433 65.7772 10.6034C65.7772 11.0647 65.5046 11.3373 64.6869 11.4421L63.2192 11.6099C61.0385 11.8825 59.1724 12.6792 59.1724 14.9856C59.1724 17.0824 60.9127 18.2566 62.7159 18.2566ZM63.6595 16.0969C62.8417 16.0969 62.2337 15.6356 62.2337 14.8389C62.2337 14.0631 62.9256 13.6856 63.974 13.4969L64.6869 13.3711C65.2949 13.2453 65.6304 13.1405 65.8401 12.9517V13.9163C65.8401 15.2162 64.8965 16.0969 63.6595 16.0969Z" fill="white"/>
<path id="Vector_4" d="M70.1943 3.20166V17.8791H73.2347V3.20166H70.1943Z" fill="white"/>
<path id="Vector_5" d="M74.9937 3.20166V17.8791H78.034V3.20166H74.9937Z" fill="white"/>
<path id="Vector_6" d="M84.6705 18.2566C87.5639 18.2566 89.4306 16.6211 89.6403 14.4824H86.5789C86.4317 15.4259 85.6349 15.9501 84.6705 15.9501C83.3705 15.9501 82.427 14.9018 82.406 13.455H89.7027V12.8679C89.7027 9.47109 87.837 7.24854 84.6076 7.24854C81.5044 7.24854 79.3237 9.42915 79.3237 12.7211C79.3237 16.2856 81.5673 18.2566 84.6705 18.2566ZM82.385 11.4631C82.5108 10.2889 83.3705 9.42915 84.5866 9.42915C85.7607 9.42915 86.5789 10.2469 86.5994 11.4631H82.385Z" fill="white"/>
<path id="Vector_7" d="M96.1372 18.0888C96.8082 18.0888 97.4587 17.984 97.7523 17.9001V15.5936C97.5212 15.6355 97.249 15.6565 97.0179 15.6565C95.907 15.6565 95.5082 15.0275 95.5082 14.0001V9.97425H97.9825V7.60492H95.5082V3.95654H92.4888V7.60492H90.2661V9.97425H92.4888V14.4195C92.4888 16.8517 93.7049 18.0888 96.1372 18.0888Z" fill="white"/>
<path id="Vector_8" d="M106.401 18.2564C110.552 18.2564 113.069 15.8242 113.383 12.3226H110.091C109.839 14.2307 108.497 15.5306 106.526 15.5306C104.199 15.5306 102.564 13.6436 102.564 10.4565C102.564 7.33227 104.262 5.55005 106.59 5.55005C108.581 5.55005 109.714 6.76612 109.944 8.54843H113.32C112.985 4.90003 110.301 2.82422 106.61 2.82422C102.396 2.82422 99.167 5.67586 99.167 10.4565C99.167 15.4048 101.997 18.2564 106.401 18.2564Z" fill="white"/>
<path id="Vector_9" d="M119.974 18.2566C123.141 18.2566 125.384 16.2647 125.384 12.784C125.384 9.36625 123.141 7.24854 119.974 7.24854C116.83 7.24854 114.585 9.36625 114.585 12.784C114.585 16.2647 116.808 18.2566 119.974 18.2566ZM119.974 15.9082C118.569 15.9082 117.667 14.755 117.667 12.784C117.667 10.7711 118.611 9.63884 119.974 9.63884C121.358 9.63884 122.302 10.7711 122.302 12.784C122.302 14.755 121.379 15.9082 119.974 15.9082Z" fill="white"/>
<path id="Vector_10" d="M129.622 17.8792V11.8615C129.622 10.5824 130.418 9.63884 131.551 9.63884C132.62 9.63884 133.249 10.4566 133.249 11.8195V17.8792H136.289V11.3792C136.289 8.90504 134.989 7.24854 132.662 7.24854C131.047 7.24854 130.062 8.02436 129.539 8.94697C129.601 8.56954 129.622 8.27598 129.622 8.0034V7.605H126.582V17.8792H129.622Z" fill="white"/>
<path id="Vector_11" d="M141.149 17.8792V11.8615C141.149 10.5824 141.946 9.63884 143.078 9.63884C144.147 9.63884 144.776 10.4566 144.776 11.8195V17.8792H147.817V11.3792C147.817 8.90504 146.517 7.24854 144.189 7.24854C142.575 7.24854 141.589 8.02436 141.065 8.94697C141.128 8.56954 141.149 8.27598 141.149 8.0034V7.605H138.109V17.8792H141.149Z" fill="white"/>
<path id="Vector_12" d="M154.358 18.2566C157.252 18.2566 159.118 16.6211 159.327 14.4824H156.267C156.12 15.4259 155.323 15.9501 154.358 15.9501C153.058 15.9501 152.115 14.9018 152.094 13.455H159.391V12.8679C159.391 9.47109 157.524 7.24854 154.296 7.24854C151.192 7.24854 149.012 9.42915 149.012 12.7211C149.012 16.2856 151.255 18.2566 154.358 18.2566ZM152.073 11.4631C152.199 10.2889 153.058 9.42915 154.274 9.42915C155.449 9.42915 156.267 10.2469 156.287 11.4631H152.073Z" fill="white"/>
<path id="Vector_13" d="M165.919 18.2566C169.106 18.2566 170.847 16.5163 171.182 13.8114H168.141C168.037 14.9437 167.387 15.9082 166.024 15.9082C164.64 15.9082 163.697 14.6292 163.697 12.7421C163.697 10.6873 164.787 9.63884 166.087 9.63884C167.366 9.63884 167.995 10.5614 168.079 11.6308H171.119C170.889 9.1356 169.19 7.24854 166.066 7.24854C163.026 7.24854 160.614 9.26141 160.614 12.7421C160.614 16.1808 162.649 18.2566 165.919 18.2566Z" fill="white"/>
<path id="Vector_14" d="M177.758 18.0888C178.429 18.0888 179.079 17.984 179.373 17.9001V15.5936C179.142 15.6355 178.87 15.6565 178.639 15.6565C177.528 15.6565 177.129 15.0275 177.129 14.0001V9.97425H179.603V7.60492H177.129V3.95654H174.109V7.60492H171.887V9.97425H174.109V14.4195C174.109 16.8517 175.326 18.0888 177.758 18.0888Z" fill="white"/>
</g>
</svg>
