<svg width="62" height="38" viewBox="0 0 62 38" fill="none" xmlns="http://www.w3.org/2000/svg">
<g id="AWS">
<path id="path1857" d="M17.4721 13.4652C17.4721 14.2282 17.5546 14.8468 17.699 15.3005C17.8639 15.7541 18.0701 16.249 18.3588 16.7851C18.4619 16.9501 18.5032 17.1151 18.5032 17.2594C18.5032 17.4656 18.3794 17.6718 18.1114 17.878L16.8123 18.7441C16.6267 18.8678 16.4411 18.9297 16.2762 18.9297C16.0699 18.9297 15.8637 18.8266 15.6575 18.641C15.3688 18.3317 15.1214 18.0018 14.9152 17.6718C14.709 17.3213 14.5028 16.9295 14.276 16.4552C12.6676 18.3523 10.6467 19.3008 8.21351 19.3008C6.48138 19.3008 5.09981 18.806 4.0894 17.8162C3.07899 16.8264 2.56348 15.5067 2.56348 13.857C2.56348 12.1043 3.18209 10.6815 4.43995 9.60918C5.6978 8.53691 7.36807 8.00078 9.49199 8.00078C10.1931 8.00078 10.9148 8.06264 11.6778 8.16574C12.4407 8.26885 13.2243 8.43381 14.0491 8.6194V7.11409C14.0491 5.54693 13.7192 4.45404 13.08 3.8148C12.4201 3.17557 11.3066 2.86626 9.71881 2.86626C8.99709 2.86626 8.25475 2.94874 7.49179 3.13433C6.72883 3.31991 5.98649 3.54674 5.26477 3.83543C4.93484 3.97977 4.68739 4.06225 4.54305 4.10349C4.39871 4.14473 4.2956 4.16535 4.21312 4.16535C3.92443 4.16535 3.78009 3.95915 3.78009 3.52612V2.51571C3.78009 2.18578 3.82133 1.93833 3.92443 1.79399C4.02754 1.64965 4.21312 1.5053 4.50181 1.36096C5.22353 0.989787 6.08959 0.680479 7.1 0.433032C8.11041 0.164965 9.18268 0.0412411 10.3168 0.0412411C12.7707 0.0412411 14.5646 0.597996 15.7194 1.71151C16.8535 2.82502 17.4309 4.5159 17.4309 6.78417V13.4652H17.4721ZM9.10019 16.5996C9.78067 16.5996 10.4818 16.4758 11.2241 16.2284C11.9665 15.9809 12.6263 15.5273 13.1831 14.9087C13.513 14.5169 13.7604 14.0838 13.8842 13.589C14.0079 13.0941 14.0904 12.4961 14.0904 11.795V10.9289C13.4924 10.7846 12.8531 10.6608 12.1933 10.5784C11.5334 10.4959 10.8942 10.4546 10.2549 10.4546C8.87337 10.4546 7.86296 10.7227 7.18248 11.2794C6.502 11.8362 6.17208 12.6198 6.17208 13.6508C6.17208 14.62 6.41952 15.3417 6.93504 15.8366C7.42993 16.3521 8.15165 16.5996 9.10019 16.5996ZM25.6585 18.8266C25.2873 18.8266 25.0399 18.7647 24.8749 18.6204C24.71 18.4966 24.5656 18.208 24.4419 17.8162L19.5961 1.87647C19.4723 1.46406 19.4105 1.19599 19.4105 1.05165C19.4105 0.72172 19.5754 0.536135 19.9054 0.536135H21.9262C22.318 0.536135 22.586 0.597996 22.7304 0.74234C22.8954 0.866064 23.0191 1.15475 23.1428 1.54654L26.6071 15.1974L29.8239 1.54654C29.927 1.13413 30.0507 0.866064 30.2156 0.74234C30.3806 0.618617 30.6693 0.536135 31.0405 0.536135H32.6901C33.0819 0.536135 33.35 0.597996 33.5149 0.74234C33.6799 0.866064 33.8242 1.15475 33.9067 1.54654L37.1648 15.3623L40.7321 1.54654C40.8559 1.13413 41.0002 0.866064 41.1445 0.74234C41.3095 0.618617 41.5776 0.536135 41.9487 0.536135H43.8665C44.1964 0.536135 44.382 0.701099 44.382 1.05165C44.382 1.15475 44.3614 1.25785 44.3407 1.38158C44.3201 1.5053 44.2789 1.67027 44.1964 1.89709L39.2268 17.8368C39.1031 18.2492 38.9588 18.5173 38.7938 18.641C38.6288 18.7647 38.3608 18.8472 38.0102 18.8472H36.2369C35.8451 18.8472 35.577 18.7853 35.412 18.641C35.2471 18.4966 35.1027 18.2286 35.0202 17.8162L31.8241 4.5159L28.6485 17.7955C28.5454 18.208 28.4217 18.476 28.2567 18.6204C28.0917 18.7647 27.803 18.8266 27.4319 18.8266H25.6585ZM52.1559 19.3833C51.0837 19.3833 50.0114 19.2596 48.9804 19.0122C47.9493 18.7647 47.1451 18.4966 46.609 18.1873C46.2791 18.0018 46.0522 17.7955 45.9698 17.61C45.8873 17.4244 45.846 17.2182 45.846 17.0326V15.9809C45.846 15.5479 46.011 15.3417 46.3203 15.3417C46.444 15.3417 46.5678 15.3623 46.6915 15.4036C46.8152 15.4448 47.0008 15.5273 47.207 15.6098C47.9081 15.9191 48.6711 16.1665 49.4753 16.3315C50.3001 16.4965 51.1043 16.5789 51.9291 16.5789C53.2282 16.5789 54.2386 16.3521 54.9397 15.8985C55.6408 15.4448 56.012 14.7849 56.012 13.9395C56.012 13.3621 55.8264 12.8879 55.4552 12.4961C55.084 12.1043 54.3829 11.7537 53.3725 11.4238L50.3826 10.4959C48.8773 10.0216 47.7637 9.3205 47.0833 8.39257C46.4028 7.48527 46.0522 6.47486 46.0522 5.40259C46.0522 4.53652 46.2378 3.77356 46.609 3.11371C46.9802 2.45385 47.4751 1.87647 48.0937 1.42282C48.7123 0.948546 49.4134 0.597996 50.2382 0.35055C51.063 0.103103 51.9291 0 52.8364 0C53.2901 0 53.7643 0.0206206 54.218 0.0824823C54.6923 0.144344 55.1253 0.226826 55.5583 0.309308C55.9707 0.412411 56.3625 0.515514 56.7337 0.639238C57.1049 0.762961 57.3936 0.886684 57.5998 1.01041C57.8884 1.17537 58.0947 1.34034 58.2184 1.52592C58.3421 1.69089 58.404 1.91771 58.404 2.2064V3.17557C58.404 3.6086 58.239 3.83543 57.9297 3.83543C57.7647 3.83543 57.4967 3.75294 57.1461 3.58798C55.9707 3.05184 54.651 2.78378 53.187 2.78378C52.0116 2.78378 51.0837 2.96936 50.4444 3.36115C49.8052 3.75294 49.4753 4.35094 49.4753 5.19638C49.4753 5.77376 49.6815 6.26865 50.0939 6.66044C50.5063 7.05223 51.2692 7.44402 52.3621 7.79457L55.2902 8.7225C56.7749 9.19677 57.8472 9.85663 58.4864 10.7021C59.1257 11.5475 59.435 12.5167 59.435 13.589C59.435 14.4756 59.2494 15.2798 58.8988 15.9809C58.5277 16.682 58.0328 17.3007 57.3936 17.7955C56.7543 18.3111 55.9914 18.6822 55.1047 18.9503C54.1767 19.239 53.2076 19.3833 52.1559 19.3833Z" fill="white"/>
<g id="g1863">
<path id="path1859" fill-rule="evenodd" clip-rule="evenodd" d="M56.0533 29.4049C49.2692 34.4157 39.4125 37.0757 30.9375 37.0757C19.06 37.0757 8.35793 32.6836 0.27467 25.3839C-0.364568 24.8065 0.212808 24.0229 0.975769 24.4766C9.71889 29.5492 20.5035 32.6217 31.6592 32.6217C39.1857 32.6217 47.4545 31.0545 55.0635 27.8377C56.1977 27.3222 57.1668 28.5801 56.0533 29.4049Z" fill="white"/>
<path id="path1861" fill-rule="evenodd" clip-rule="evenodd" d="M58.8783 26.1881C58.0122 25.0746 53.1458 25.6519 50.9394 25.92C50.2795 26.0025 50.1764 25.4251 50.7744 24.9921C54.6511 22.2702 61.0228 23.0538 61.7652 23.9611C62.5075 24.889 61.559 31.2608 57.9297 34.3126C57.373 34.7869 56.8369 34.5394 57.0843 33.9208C57.9091 31.8794 59.7443 27.281 58.8783 26.1881Z" fill="white"/>
</g>
</g>
</svg>
