<svg width="45" height="46" viewBox="0 0 45 46" fill="none" xmlns="http://www.w3.org/2000/svg">
<path id="Vector" d="M39.6294 6.82852L27.8873 0L22.4917 3.13675L17.096 0L5.36231 6.82852V13.06L0 16.1715V29.8201L5.36231 32.9316V39.1715L17.1043 46L22.5 42.8633L27.8957 46L39.6377 39.1715V32.9316L45 29.8201V16.1715L39.6377 13.06V6.82852H39.6294ZM33.1662 10.9996C33.4665 10.9996 33.7083 11.2435 33.7083 11.5378C33.7083 11.8322 33.4665 12.0761 33.1662 12.0761C32.866 12.0761 32.6242 11.8322 32.6242 11.5378C32.6242 11.2435 32.866 10.9996 33.1662 10.9996ZM11.8254 10.9996C12.1256 10.9996 12.3675 11.2435 12.3675 11.5378C12.3675 11.8322 12.1256 12.0761 11.8254 12.0761C11.5252 12.0761 11.2834 11.8322 11.2834 11.5378C11.2834 11.2435 11.5252 10.9996 11.8254 10.9996ZM11.8254 35.0004C11.5252 35.0004 11.2834 34.7565 11.2834 34.4622C11.2834 34.1678 11.5252 33.9239 11.8254 33.9239C12.1256 33.9239 12.3675 34.1678 12.3675 34.4622C12.3675 34.7565 12.1256 35.0004 11.8254 35.0004ZM21.6911 41.543L17.1043 44.2172L12.601 41.5934V35.8161C13.068 35.547 13.3933 35.0424 13.3933 34.4622C13.3933 33.596 12.6927 32.8896 11.8338 32.8896C10.9748 32.8896 10.2743 33.596 10.2743 34.4622C10.2743 35.0424 10.5912 35.547 11.0665 35.8161V40.702L6.90512 38.2885V32.9905L11.8087 30.1565L16.4205 32.8391V38.2296C15.9618 38.4987 15.6533 39.0033 15.6533 39.5751C15.6533 40.4413 16.3538 41.1477 17.2128 41.1477C18.0717 41.1477 18.7722 40.4413 18.7722 39.5751C18.7722 38.9865 18.447 38.4735 17.9633 38.2128V31.9477L12.6427 28.853V24.3371C13.0847 24.0596 13.3849 23.5718 13.3849 23.0084C13.3849 22.1422 12.6844 21.4358 11.8254 21.4358C10.9665 21.4358 10.2659 22.1422 10.2659 23.0084C10.2659 23.6139 10.6079 24.1269 11.0999 24.3876V28.7689L6.1629 31.6197L1.53447 28.9287V24.1605L4.91197 26.1115C4.91197 26.6581 5.18718 27.1879 5.68755 27.4739C6.42976 27.9111 7.38881 27.6505 7.81412 26.902C8.24778 26.1536 7.98925 25.1949 7.24704 24.7576C6.74666 24.4633 6.15456 24.4969 5.68755 24.766L1.54281 22.3693V17.0629L6.11286 14.4055L10.1742 16.7517L7.20534 18.4757C6.98851 18.358 6.74666 18.2907 6.4798 18.2907C5.62083 18.2907 4.92031 18.9971 4.92031 19.8633C4.92031 20.7294 5.62083 21.4358 6.4798 21.4358C7.33877 21.4358 8.03929 20.7294 8.03929 19.8633C8.03929 19.838 8.03929 19.8128 8.03929 19.7876L17.9299 14.0523V7.81243C18.4303 7.55174 18.7722 7.03035 18.7722 6.42486C18.7722 5.55868 18.0717 4.85228 17.2128 4.85228C16.3538 4.85228 15.6533 5.55868 15.6533 6.42486C15.6533 6.9883 15.9451 7.47605 16.3871 7.75356V13.1609L11.7254 15.8687L6.90512 13.0852V7.71993L11.0665 5.3064V10.1839C10.5995 10.453 10.2743 10.9576 10.2743 11.5378C10.2743 12.404 10.9748 13.1104 11.8338 13.1104C12.6927 13.1104 13.3933 12.404 13.3933 11.5378C13.3933 10.9576 13.0764 10.453 12.601 10.1839V4.41499L17.1043 1.79122L21.6911 4.46545V16.3397L16.4122 19.4596V26.532L21.7244 29.6267L21.6911 41.5514V41.543ZM11.2834 23C11.2834 22.6973 11.5252 22.4618 11.8254 22.4618C12.1256 22.4618 12.3675 22.7057 12.3675 23C12.3675 23.2943 12.1256 23.5382 11.8254 23.5382C11.5252 23.5382 11.2834 23.2943 11.2834 23ZM16.6623 39.5667C16.6623 39.264 16.9042 39.0285 17.2044 39.0285C17.5046 39.0285 17.7465 39.2724 17.7465 39.5667C17.7465 39.8611 17.5046 40.1049 17.2044 40.1049C16.9042 40.1049 16.6623 39.8611 16.6623 39.5667ZM5.99611 25.8424C6.14622 25.5817 6.47146 25.4976 6.72999 25.6406C6.98851 25.792 7.07191 26.1199 6.93013 26.3806C6.78002 26.6413 6.45478 26.7254 6.19626 26.5824C5.93773 26.4311 5.85434 26.1031 5.99611 25.8424ZM7.02187 19.8633C7.02187 20.166 6.78002 20.4015 6.4798 20.4015C6.17958 20.4015 5.93773 20.1576 5.93773 19.8633C5.93773 19.5689 6.17958 19.325 6.4798 19.325C6.78002 19.325 7.02187 19.5689 7.02187 19.8633ZM16.6707 6.42486C16.6707 6.12212 16.9125 5.88665 17.2128 5.88665C17.513 5.88665 17.7548 6.13053 17.7548 6.42486C17.7548 6.7192 17.513 6.96307 17.2128 6.96307C16.9125 6.96307 16.6707 6.7192 16.6707 6.42486ZM17.9466 25.6322V20.3426L22.4917 17.66L27.0367 20.3426V25.6322L22.4917 28.2812L17.9466 25.6322ZM33.1662 35.0004C32.866 35.0004 32.6242 34.7565 32.6242 34.4622C32.6242 34.1678 32.866 33.9239 33.1662 33.9239C33.4665 33.9239 33.7083 34.1678 33.7083 34.4622C33.7083 34.7565 33.4665 35.0004 33.1662 35.0004ZM43.4572 17.0713V22.3777L39.3125 24.7744C38.8454 24.4969 38.2533 24.4717 37.753 24.766C37.0107 25.2033 36.7522 26.162 37.1859 26.9104C37.6195 27.6589 38.5702 27.9196 39.3125 27.4823C39.8128 27.1879 40.088 26.6581 40.088 26.1199L43.4655 24.1689V28.9371L38.8371 31.6282L33.9001 28.7773V24.396C34.3921 24.1353 34.7341 23.6139 34.7341 23.0168C34.7341 22.1506 34.0335 21.4442 33.1746 21.4442C32.3156 21.4442 31.6151 22.1506 31.6151 23.0168C31.6151 23.5803 31.9153 24.068 32.3573 24.3455V28.8614L27.0367 31.9561V38.2212C26.5613 38.4903 26.2278 38.9949 26.2278 39.5835C26.2278 40.4497 26.9283 41.1561 27.7873 41.1561C28.6462 41.1561 29.3467 40.4497 29.3467 39.5835C29.3467 39.0117 29.0382 38.5071 28.5795 38.238V32.8475L33.1913 30.1649L38.0949 32.9989V38.2969L33.9335 40.7104V35.8245C34.4005 35.5554 34.7257 35.0508 34.7257 34.4706C34.7257 33.6044 34.0252 32.898 33.1662 32.898C32.3073 32.898 31.6067 33.6044 31.6067 34.4706C31.6067 35.0508 31.9236 35.5554 32.399 35.8245V41.6102L27.8957 44.234L23.3089 41.5598L23.2756 29.6351L28.5878 26.5404V19.468L23.3089 16.3481V4.45704L27.8957 1.78282L32.399 4.40658V10.1755C31.932 10.4446 31.6067 10.9492 31.6067 11.5294C31.6067 12.3956 32.3073 13.102 33.1662 13.102C34.0252 13.102 34.7257 12.3956 34.7257 11.5294C34.7257 10.9492 34.4088 10.4446 33.9335 10.1755V5.29799L38.0949 7.71993V13.0852L33.2747 15.8687L28.6129 13.1609V7.75356C29.0549 7.47605 29.3467 6.9883 29.3467 6.42486C29.3467 5.55868 28.6462 4.85228 27.7873 4.85228C26.9283 4.85228 26.2278 5.55868 26.2278 6.42486C26.2278 7.03035 26.5697 7.55174 27.0701 7.81243V14.0523L36.9607 19.7876C36.9607 19.7876 36.9607 19.838 36.9607 19.8633C36.9607 20.7294 37.6612 21.4358 38.5202 21.4358C39.3792 21.4358 40.0797 20.7294 40.0797 19.8633C40.0797 18.9971 39.3792 18.2907 38.5202 18.2907C38.2617 18.2907 38.0115 18.3664 37.7947 18.4757L34.8258 16.7517L38.8871 14.4055L43.4572 17.0629V17.0713ZM38.8037 26.5824C38.5452 26.7338 38.22 26.6413 38.0699 26.3806C37.9198 26.1199 38.0115 25.792 38.27 25.6406C38.5285 25.4892 38.8538 25.5817 39.0039 25.8424C39.154 26.1031 39.0623 26.4311 38.8037 26.5824ZM33.7083 23C33.7083 23.3027 33.4665 23.5382 33.1662 23.5382C32.866 23.5382 32.6242 23.2943 32.6242 23C32.6242 22.7057 32.866 22.4618 33.1662 22.4618C33.4665 22.4618 33.7083 22.7057 33.7083 23ZM28.3293 39.5667C28.3293 39.8695 28.0875 40.1049 27.7873 40.1049C27.487 40.1049 27.2452 39.8611 27.2452 39.5667C27.2452 39.2724 27.487 39.0285 27.7873 39.0285C28.0875 39.0285 28.3293 39.2724 28.3293 39.5667ZM28.3293 6.42486C28.3293 6.7276 28.0875 6.96307 27.7873 6.96307C27.487 6.96307 27.2452 6.7192 27.2452 6.42486C27.2452 6.13053 27.487 5.88665 27.7873 5.88665C28.0875 5.88665 28.3293 6.13053 28.3293 6.42486ZM37.9781 19.8633C37.9781 19.5605 38.22 19.325 38.5202 19.325C38.8204 19.325 39.0623 19.5689 39.0623 19.8633C39.0623 20.1576 38.8204 20.4015 38.5202 20.4015C38.22 20.4015 37.9781 20.1576 37.9781 19.8633Z" fill="url(#paint0_linear_254279_5688)"/>
<defs>
<linearGradient id="paint0_linear_254279_5688" x1="5.90437" y1="6.27349" x2="39.3562" y2="39.4469" gradientUnits="userSpaceOnUse">
<stop stop-color="#FBB315"/>
<stop offset="0.3" stop-color="#F05F47"/>
<stop offset="0.6" stop-color="#DE3593"/>
<stop offset="1" stop-color="#9D4F9D"/>
</linearGradient>
</defs>
</svg>
