<svg width="116" height="25" viewBox="0 0 116 25" fill="none" xmlns="http://www.w3.org/2000/svg">
<g id="Polygon">
<path id="Vector" d="M20.5385 7.44271C20.0336 7.13616 19.3844 7.13616 18.8254 7.44271L14.9125 9.82293L12.2437 11.3737L8.33078 13.7539C7.82589 14.0605 7.17674 14.0605 6.61775 13.7539L3.49821 11.8966C2.99331 11.5901 2.6507 11.013 2.6507 10.4V6.73946C2.6507 6.12637 2.95725 5.54935 3.49821 5.2428L6.56365 3.4396C7.06854 3.13306 7.7177 3.13306 8.27669 3.4396L11.3421 5.2428C11.847 5.54935 12.1896 6.12637 12.1896 6.73946V9.11969L14.8584 7.51484V5.13461C14.8584 4.52152 14.5518 3.9445 14.0109 3.63795L8.33078 0.229908C7.82589 -0.076636 7.17674 -0.076636 6.61775 0.229908L0.847505 3.63795C0.288513 3.9445 0 4.52152 0 5.13461V11.9868C0 12.5999 0.306545 13.1769 0.847505 13.4834L6.61775 16.8915C7.12264 17.198 7.77179 17.198 8.33078 16.8915L12.2437 14.5653L14.9125 12.9605L18.8254 10.6344C19.3303 10.3278 19.9795 10.3278 20.5385 10.6344L23.6039 12.4376C24.1088 12.7441 24.4514 13.3211 24.4514 13.9342V17.5947C24.4514 18.2078 24.1449 18.7848 23.6039 19.0914L20.5385 20.9487C20.0336 21.2552 19.3844 21.2552 18.8254 20.9487L15.76 19.1455C15.2551 18.8389 14.9125 18.2619 14.9125 17.6488V15.2686L12.2437 16.8734V19.2537C12.2437 19.8668 12.5503 20.4438 13.0912 20.7503L18.8615 24.1584C19.3664 24.4649 20.0155 24.4649 20.5745 24.1584L26.3448 20.7503C26.8497 20.4438 27.1923 19.8668 27.1923 19.2537V12.4015C27.1923 11.7884 26.8857 11.2114 26.3448 10.9049L20.5385 7.44271Z" fill="white"/>
<path id="Vector_2" d="M37.8314 22.1928V16.4947C38.4445 17.2701 39.5625 17.7029 40.8427 17.7029C44.1246 17.7029 46.3605 15.3407 46.3605 11.7523C46.3605 8.16395 44.3229 5.80176 41.1132 5.80176C39.6346 5.80176 38.4986 6.34272 37.8314 7.24432V5.98208H34.6758V22.1748H37.8314V22.1928ZM40.4641 14.962C38.769 14.962 37.6511 13.6817 37.6511 11.7523C37.6511 9.80486 38.769 8.52459 40.4641 8.52459C42.123 8.52459 43.259 9.80486 43.259 11.7523C43.241 13.6817 42.105 14.962 40.4641 14.962Z" fill="white"/>
<path id="Vector_3" d="M53.5192 17.7029C57.0355 17.7029 59.56 15.1784 59.56 11.7523C59.56 8.32624 57.0355 5.80176 53.5192 5.80176C50.003 5.80176 47.4785 8.32624 47.4785 11.7523C47.4785 15.1784 50.003 17.7029 53.5192 17.7029ZM53.5192 14.962C51.8242 14.962 50.6521 13.6637 50.6521 11.7523C50.6521 9.82289 51.8062 8.52459 53.5192 8.52459C55.2142 8.52459 56.3863 9.82289 56.3863 11.7523C56.3863 13.6637 55.2142 14.962 53.5192 14.962Z" fill="white"/>
<path id="Vector_4" d="M64.6087 17.5224V0.987061H61.4531V17.5224H64.6087Z" fill="white"/>
<path id="Vector_5" d="M74.0936 6L71.7134 13.4292L69.3151 6H66.0874L70.2348 17.4323L68.5578 22.1927H71.5691L73.174 17.4864L77.3213 6H74.0936Z" fill="white"/>
<path id="Vector_6" d="M86.2113 7.13612C85.5802 6.34272 84.4442 5.80176 83.0557 5.80176C79.7198 5.80176 77.7002 8.16395 77.7002 11.7523C77.7002 15.3407 79.7198 17.7029 83.1098 17.7029C84.4442 17.7029 85.6523 17.198 86.2474 16.3505V17.8652C86.2474 18.9471 85.5441 19.6864 84.5884 19.6864H79.305V22.1748H85.0753C87.6539 22.1748 89.3849 20.588 89.3849 18.1897V5.98208H86.2113V7.13612ZM83.5967 14.962C81.9197 14.962 80.8017 13.6998 80.8017 11.7523C80.8017 9.80486 81.9197 8.52459 83.5967 8.52459C85.2917 8.52459 86.4097 9.80486 86.4097 11.7523C86.4097 13.6998 85.2917 14.962 83.5967 14.962Z" fill="white"/>
<path id="Vector_7" d="M97.3371 17.7029C100.853 17.7029 103.378 15.1784 103.378 11.7523C103.378 8.32624 100.853 5.80176 97.3371 5.80176C93.8209 5.80176 91.2964 8.32624 91.2964 11.7523C91.2964 15.1784 93.8209 17.7029 97.3371 17.7029ZM97.3371 14.962C95.6421 14.962 94.47 13.6637 94.47 11.7523C94.47 9.82289 95.6241 8.52459 97.3371 8.52459C99.0321 8.52459 100.204 9.82289 100.204 11.7523C100.186 13.6637 99.0321 14.962 97.3371 14.962Z" fill="white"/>
<path id="Vector_8" d="M108.264 17.5226V11.2114C108.264 9.73277 109.238 8.65085 110.627 8.65085C111.943 8.65085 112.827 9.66064 112.827 11.0491V17.5226H116V10.3459C116 7.69515 114.323 5.81982 111.727 5.81982C110.158 5.81982 108.896 6.48701 108.246 7.605V6.00014H105.091V17.5226H108.264Z" fill="white"/>
</g>
</svg>
