<svg width="110" height="37" viewBox="0 0 110 37" fill="none" xmlns="http://www.w3.org/2000/svg">
<g id="PyTorch">
<g id="Group">
<path id="Vector" d="M25.8917 10.7224L23.2426 13.3714C27.6577 17.7865 27.6577 24.9768 23.2426 29.3919C18.8275 33.807 11.6372 33.807 7.22212 29.3919C2.80702 24.9768 2.80702 17.7865 7.22212 13.3714L14.2863 6.30727L15.1693 5.29811V0L4.44691 10.7224C3.03802 12.117 1.91959 13.7772 1.1563 15.6068C0.393009 17.4364 0 19.3992 0 21.3817C0 23.3641 0.393009 25.3269 1.1563 27.1565C1.91959 28.9861 3.03802 30.6463 4.44691 32.041C5.8416 33.4498 7.50175 34.5683 9.33137 35.3316C11.161 36.0948 13.1238 36.4879 15.1062 36.4879C17.0887 36.4879 19.0515 36.0948 20.8811 35.3316C22.7107 34.5683 24.3709 33.4498 25.7656 32.041C31.8206 26.1121 31.8206 16.5251 25.8917 10.7224Z" fill="white"/>
<path id="Vector_2" d="M20.5935 9.96537C21.7082 9.96537 22.6119 9.06173 22.6119 7.94704C22.6119 6.83235 21.7082 5.92871 20.5935 5.92871C19.4788 5.92871 18.5752 6.83235 18.5752 7.94704C18.5752 9.06173 19.4788 9.96537 20.5935 9.96537Z" fill="white"/>
</g>
<path id="Vector_3" d="M42.1169 20.3466H40.0432V25.6802H38.4951V10.5399H42.2797C46.2945 10.5399 48.1868 12.4892 48.1868 15.3095C48.1868 18.6358 45.8351 20.2989 42.1076 20.3559L42.1169 20.3466ZM42.2206 11.9739H39.9934V18.9136L42.1729 18.8566C45.0409 18.7996 46.59 17.6518 46.59 15.3002C46.59 13.1787 45.099 11.9739 42.231 11.9739H42.2206ZM55.1939 25.6222L54.2763 28.0308C53.2436 30.7267 52.2026 31.5292 50.6628 31.5292C49.8022 31.5292 49.1718 31.3011 48.4833 31.0129L48.9416 29.6369C49.458 29.9241 50.0303 30.0952 50.6628 30.0952C51.5234 30.0952 52.1538 29.6369 52.9564 27.5031L53.7029 25.5537L49.402 14.6003H51.0091L54.5075 23.7766L57.9499 14.6003H59.498L55.1939 25.6222ZM64.6554 12.0309V25.7383H63.1073V12.0309H57.7737V10.5399H69.988V11.9739H64.6543L64.6554 12.0309ZM74.347 26.0234C71.2499 26.0234 68.9553 23.7299 68.9553 20.1734C68.9553 16.617 71.3069 14.2664 74.4507 14.2664C77.5478 14.2664 79.7844 16.5599 79.7844 20.1164C79.7844 23.6729 77.4327 26.0234 74.3356 26.0234H74.347ZM74.404 15.6548C72.0524 15.6548 70.5054 17.547 70.5054 20.1278C70.5054 22.8237 72.1126 24.6589 74.4621 24.6589C76.8117 24.6589 78.3607 22.7666 78.3607 20.1859C78.3607 17.49 76.7536 15.6548 74.404 15.6548ZM83.6384 25.7373H82.1474V14.6117L83.6384 14.3245V16.6761C84.385 15.2421 85.4737 14.3245 86.9077 14.3245C87.5905 14.3301 88.2609 14.5077 88.857 14.8408L88.4568 16.2738C87.9985 15.9866 87.368 15.8155 86.7355 15.8155C85.5888 15.8155 84.499 16.6761 83.5814 18.6835V25.7373H83.6384ZM94.764 26.0234C91.4378 26.0234 89.3153 23.6148 89.3153 20.1734C89.3153 16.675 91.6088 14.2664 94.764 14.2664C96.14 14.2664 97.2878 14.6106 98.2624 15.2411L97.8612 16.617C97.0006 16.0436 95.9689 15.6993 94.764 15.6993C92.3554 15.6993 90.8654 17.4776 90.8654 20.1164C90.8654 22.8123 92.4726 24.5895 94.8221 24.5895C95.9207 24.5844 96.9952 24.2661 97.9192 23.6718L98.2065 25.0478C97.2318 25.6782 96.027 26.0234 94.764 26.0234ZM107.553 25.7373V18.5684C107.553 16.6191 106.75 15.7688 105.201 15.7688C103.939 15.7688 102.677 16.3992 101.759 17.376V25.8057H100.268V9.40245L101.759 9.11523V16.112C102.906 14.9652 104.397 14.3338 105.601 14.3338C107.781 14.3338 109.1 15.7097 109.1 18.1184V25.7456L107.553 25.7373Z" fill="white"/>
</g>
</svg>
