<?xml version="1.0" encoding="UTF-8"?>
<!DOCTYPE svg PUBLIC "-//W3C//DTD SVG 1.1//EN" "http://www.w3.org/Graphics/SVG/1.1/DTD/svg11.dtd">
<svg xmlns="http://www.w3.org/2000/svg" version="1.1" width="619px" height="403px" style="shape-rendering:geometricPrecision; text-rendering:geometricPrecision; image-rendering:optimizeQuality; fill-rule:evenodd; clip-rule:evenodd" xmlns:xlink="http://www.w3.org/1999/xlink">
<g><path style="opacity:0.245" fill="#636363" d="M 350.5,74.5 C 351.964,73.8401 353.631,73.5068 355.5,73.5C 358.486,73.3817 361.152,74.0483 363.5,75.5C 359.202,74.8005 354.869,74.4672 350.5,74.5 Z"/></g>
<g><path style="opacity:0.996" fill="#d5d5d5" d="M 269.5,74.5 C 270.78,75.9313 272.447,76.5979 274.5,76.5C 276.153,76.6596 277.486,77.3263 278.5,78.5C 279.681,80.0672 281.347,80.9005 283.5,81C 281.527,81.4955 279.527,81.6621 277.5,81.5C 277.027,80.0937 276.027,79.427 274.5,79.5C 274.167,79.5 273.833,79.5 273.5,79.5C 272.942,78.2101 271.942,77.3768 270.5,77C 266.642,76.1901 262.976,76.3567 259.5,77.5C 259.167,77.5 258.833,77.5 258.5,77.5C 257.127,77.6567 255.793,77.49 254.5,77C 256.066,76.3918 257.4,75.5585 258.5,74.5C 262.065,73.2134 265.732,73.2134 269.5,74.5 Z"/></g>
<g><path style="opacity:0.322" fill="#6c6c6c" d="M 269.5,74.5 C 271.553,74.4021 273.22,75.0687 274.5,76.5C 272.447,76.5979 270.78,75.9313 269.5,74.5 Z"/></g>
<g><path style="opacity:0.994" fill="#f3f3f3" d="M 350.5,74.5 C 354.869,74.4672 359.202,74.8005 363.5,75.5C 364.514,76.6737 365.847,77.3404 367.5,77.5C 365.374,78.1032 363.041,78.1032 360.5,77.5C 356.688,76.6762 352.688,76.1762 348.5,76C 349.416,75.7216 350.082,75.2216 350.5,74.5 Z"/></g>
<g><path style="opacity:0.878" fill="#a0a0a0" d="M 259.5,77.5 C 262.976,76.3567 266.642,76.1901 270.5,77C 271.942,77.3768 272.942,78.2101 273.5,79.5C 268.993,77.8874 264.327,77.2207 259.5,77.5 Z"/></g>
<g><path style="opacity:0.259" fill="#767676" d="M 363.5,75.5 C 365.38,75.2291 366.713,75.8958 367.5,77.5C 365.847,77.3404 364.514,76.6737 363.5,75.5 Z"/></g>
<g><path style="opacity:0.227" fill="#656565" d="M 274.5,79.5 C 276.027,79.427 277.027,80.0937 277.5,81.5C 275.973,81.573 274.973,80.9063 274.5,79.5 Z"/></g>
<g><path style="opacity:0.996" fill="#c0c0c0" d="M 360.5,77.5 C 363.041,78.1032 365.374,78.1032 367.5,77.5C 374.752,80.6321 379.752,85.9654 382.5,93.5C 381.075,91.9689 380.409,92.3023 380.5,94.5C 380.167,94.5 379.833,94.5 379.5,94.5C 375.381,86.3821 369.048,80.7154 360.5,77.5 Z"/></g>
<g><path style="opacity:0.992" fill="#bebebe" d="M 300.5,95.5 C 298.974,94.8953 297.974,93.7286 297.5,92C 296.128,91.5983 294.795,91.0983 293.5,90.5C 292.537,90.9698 292.537,91.6365 293.5,92.5C 292.167,92.8333 292.167,93.1667 293.5,93.5C 293.5,94.1667 293.833,94.5 294.5,94.5C 294.5,94.8333 294.5,95.1667 294.5,95.5C 296.607,97.7267 298.94,99.7267 301.5,101.5C 305.915,108.595 304.248,113.928 296.5,117.5C 291.225,119.215 286.225,118.715 281.5,116C 284.141,116.155 286.807,116.655 289.5,117.5C 291.987,117.241 293.987,116.241 295.5,114.5C 302.156,109.431 301.822,104.764 294.5,100.5C 292.106,98.1094 290.106,95.4427 288.5,92.5C 288.775,90.3911 289.942,89.0578 292,88.5C 294.05,89.7912 296.217,90.2912 298.5,90C 297.874,89.2496 297.374,88.4162 297,87.5C 293.333,85.1667 289.667,82.8333 286,80.5C 283.47,84.1343 280.637,84.4676 277.5,81.5C 279.527,81.6621 281.527,81.4955 283.5,81C 281.347,80.9005 279.681,80.0672 278.5,78.5C 281.069,79.4196 283.403,78.7529 285.5,76.5C 292.839,79.0166 298.505,83.5166 302.5,90C 301.68,91.8003 301.014,93.6336 300.5,95.5 Z"/></g>
<g><path style="opacity:0.945" fill="#b5b4b5" d="M 350.5,74.5 C 350.082,75.2216 349.416,75.7216 348.5,76C 352.688,76.1762 356.688,76.6762 360.5,77.5C 352.082,77.1382 344.248,79.1382 337,83.5C 335.395,82.8993 334.062,81.8993 333,80.5C 328.828,82.9186 324.828,85.5852 321,88.5C 320.812,90.0613 321.645,90.728 323.5,90.5C 322.432,91.4345 321.099,91.7678 319.5,91.5C 318.524,87.0541 318.524,87.7208 319.5,93.5C 317.092,92.6852 316.259,91.0186 317,88.5C 321.213,82.7945 326.713,78.7945 333.5,76.5C 335.116,77.1152 336.449,78.1152 337.5,79.5C 341.549,76.9711 345.882,75.3044 350.5,74.5 Z"/></g>
<g><path style="opacity:0.997" fill="#bababa" d="M 258.5,74.5 C 257.4,75.5585 256.066,76.3918 254.5,77C 255.793,77.49 257.127,77.6567 258.5,77.5C 250.306,80.7 243.972,86.0333 239.5,93.5C 239.869,91.0065 239.203,90.3398 237.5,91.5C 239.864,84.9655 244.198,80.1322 250.5,77C 253.022,75.6591 255.689,74.8257 258.5,74.5 Z"/></g>
<g><path style="opacity:0.89" fill="#9f9f9f" d="M 365.5,94.5 C 365.5,93.8333 365.167,93.5 364.5,93.5C 364.5,92.8333 364.167,92.5 363.5,92.5C 363.5,91.8333 363.167,91.5 362.5,91.5C 361.11,89.0002 361.277,86.6668 363,84.5C 364.117,85.9494 364.784,87.6161 365,89.5C 367.268,90.7604 369.434,92.0937 371.5,93.5C 369.604,94.4656 367.604,94.7989 365.5,94.5 Z"/></g>
<g><path style="opacity:0.225" fill="#5c5c5c" d="M 257.5,92.5 C 259.683,91.1566 261.683,91.49 263.5,93.5C 263.5,94.1667 263.167,94.5 262.5,94.5C 262.167,94.5 261.833,94.5 261.5,94.5C 260.817,92.8235 259.483,92.1568 257.5,92.5 Z"/></g>
<g><path style="opacity:0.549" fill="#777777" d="M 267.5,94.5 C 267.631,93.6236 267.298,92.9569 266.5,92.5C 265.583,93.1272 264.583,93.4606 263.5,93.5C 265.45,90.2959 267.45,90.1293 269.5,93C 268.956,93.7172 268.289,94.2172 267.5,94.5 Z"/></g>
<g><path style="opacity:0.997" fill="#d3d3d3" d="M 323.5,90.5 C 325.54,87.8661 327.707,87.8661 330,90.5C 330.506,94.1889 329.006,96.8556 325.5,98.5C 323.596,98.7376 322.262,99.7376 321.5,101.5C 321.443,102.609 321.11,103.609 320.5,104.5C 320.167,104.5 319.833,104.5 319.5,104.5C 317.87,106.026 317.037,108.026 317,110.5C 316.398,107.779 316.565,105.113 317.5,102.5C 317.5,102.167 317.5,101.833 317.5,101.5C 319.833,99.8333 321.833,97.8333 323.5,95.5C 324.833,95.1667 324.833,94.8333 323.5,94.5C 320.808,96.8623 318.141,99.1956 315.5,101.5C 311.271,101.614 306.938,101.614 302.5,101.5C 300.5,98.8333 298.167,96.5 295.5,94.5C 295.167,94.5 294.833,94.5 294.5,94.5C 293.833,94.5 293.5,94.1667 293.5,93.5C 293.5,93.1667 293.5,92.8333 293.5,92.5C 292.537,91.6365 292.537,90.9698 293.5,90.5C 294.795,91.0983 296.128,91.5983 297.5,92C 297.974,93.7286 298.974,94.8953 300.5,95.5C 303.18,98.922 306.18,99.2553 309.5,96.5C 313.916,99.5596 317.249,98.5596 319.5,93.5C 318.524,87.7208 318.524,87.0541 319.5,91.5C 321.099,91.7678 322.432,91.4345 323.5,90.5 Z"/></g>
<g><path style="opacity:0.824" fill="#a8a8a8" d="M 254.5,93.5 C 253.833,93.5 253.5,93.8333 253.5,94.5C 252.833,94.5 252.5,94.8333 252.5,95.5C 251.833,95.5 251.5,95.8333 251.5,96.5C 250.833,96.5 250.167,96.5 249.5,96.5C 246.075,96.6332 245.742,95.9665 248.5,94.5C 251.48,93.1707 252.813,90.8374 252.5,87.5C 253.5,87.5 254.5,87.5 255.5,87.5C 255.483,89.5648 255.15,91.5648 254.5,93.5 Z"/></g>
<g><path style="opacity:0.989" fill="#e2e2e2" d="M 239.5,93.5 C 239.737,94.791 239.404,95.791 238.5,96.5C 236.882,99.1709 236.215,102.171 236.5,105.5C 235.26,102.891 235.26,98.8911 236.5,93.5C 236.328,92.5084 236.662,91.8417 237.5,91.5C 239.203,90.3398 239.869,91.0065 239.5,93.5 Z"/></g>
<g><path style="opacity:0.996" fill="#bdbdbd" d="M 257.5,92.5 C 259.483,92.1568 260.817,92.8235 261.5,94.5C 261.5,94.8333 261.5,95.1667 261.5,95.5C 256.543,95.7899 253.877,98.4565 253.5,103.5C 253.167,103.5 252.833,103.5 252.5,103.5C 250.824,102.817 250.157,101.483 250.5,99.5C 250.557,98.391 250.89,97.391 251.5,96.5C 252.167,96.5 252.5,96.1667 252.5,95.5C 253.167,95.5 253.5,95.1667 253.5,94.5C 254.167,94.5 254.5,94.1667 254.5,93.5C 255.391,92.8902 256.391,92.5569 257.5,92.5 Z"/></g>
<g><path style="opacity:0.063" fill="#6d6d6d" d="M 295.5,94.5 C 298.167,96.5 300.5,98.8333 302.5,101.5C 302.167,101.5 301.833,101.5 301.5,101.5C 298.94,99.7267 296.607,97.7267 294.5,95.5C 295.167,95.5 295.5,95.1667 295.5,94.5 Z"/></g>
<g><path style="opacity:0.19" fill="#5d5d5d" d="M 248.5,94.5 C 245.742,95.9665 246.075,96.6332 249.5,96.5C 248.432,97.4345 247.099,97.7678 245.5,97.5C 245.5,96.5 245.5,95.5 245.5,94.5C 246.5,94.5 247.5,94.5 248.5,94.5 Z"/></g>
<g><path style="opacity:0.125" fill="#5f5f5f" d="M 323.5,94.5 C 323.5,94.8333 323.5,95.1667 323.5,95.5C 321.833,97.8333 319.833,99.8333 317.5,101.5C 316.833,101.5 316.167,101.5 315.5,101.5C 318.141,99.1956 320.808,96.8623 323.5,94.5 Z"/></g>
<g><path style="opacity:0.247" fill="#5f5f5f" d="M 379.5,94.5 C 379.833,94.5 380.167,94.5 380.5,94.5C 381.219,96.7638 381.552,99.0971 381.5,101.5C 380.388,99.4006 379.721,97.0673 379.5,94.5 Z"/></g>
<g><path style="opacity:0.995" fill="#bbbbbb" d="M 362.5,91.5 C 363.167,91.5 363.5,91.8333 363.5,92.5C 364.167,92.5 364.5,92.8333 364.5,93.5C 365.167,93.5 365.5,93.8333 365.5,94.5C 366.704,96.9028 367.038,99.2362 366.5,101.5C 365,100.375 363.667,99.0414 362.5,97.5C 360.785,94.2136 358.118,92.7136 354.5,93C 356.054,95.3707 357.721,97.5374 359.5,99.5C 358.604,98.4937 357.938,98.4937 357.5,99.5C 356.833,99.1667 356.167,98.8333 355.5,98.5C 354.167,98.8333 354.167,99.1667 355.5,99.5C 355.5,99.8333 355.5,100.167 355.5,100.5C 354.761,100.369 354.094,100.536 353.5,101C 354.883,102.271 355.883,103.771 356.5,105.5C 354.563,103.909 352.563,102.242 350.5,100.5C 350.048,96.9486 349.048,93.6152 347.5,90.5C 349.755,88.3122 351.922,88.6455 354,91.5C 356.78,88.9847 359.614,88.9847 362.5,91.5 Z M 362.5,97.5 C 362.833,98.8333 363.167,100.167 363.5,101.5C 362.005,101.011 360.671,100.345 359.5,99.5C 357.721,97.5374 356.054,95.3707 354.5,93C 358.118,92.7136 360.785,94.2136 362.5,97.5 Z"/></g>
<g><path style="opacity:0.993" fill="#ebebeb" d="M 382.5,93.5 C 383.941,99.2256 383.774,104.892 382,110.5C 381.503,108.19 381.337,105.857 381.5,103.5C 381.5,102.833 381.5,102.167 381.5,101.5C 381.552,99.0971 381.219,96.7638 380.5,94.5C 380.409,92.3023 381.075,91.9689 382.5,93.5 Z"/></g>
<g><path style="opacity:0.302" fill="#6f6f6f" d="M 325.5,98.5 C 325.5,99.1667 325.5,99.8333 325.5,100.5C 324.167,100.5 323.5,101.167 323.5,102.5C 322.833,102.167 322.167,101.833 321.5,101.5C 322.262,99.7376 323.596,98.7376 325.5,98.5 Z"/></g>
<g><path style="opacity:0.114" fill="#595959" d="M 355.5,98.5 C 356.167,98.8333 356.833,99.1667 357.5,99.5C 357.782,100.778 358.449,101.778 359.5,102.5C 358.833,102.5 358.5,102.833 358.5,103.5C 357.272,102.694 356.272,101.694 355.5,100.5C 355.5,100.167 355.5,99.8333 355.5,99.5C 355.5,99.1667 355.5,98.8333 355.5,98.5 Z"/></g>
<g><path style="opacity:0.445" fill="#6f6f6f" d="M 238.5,96.5 C 237.326,100.819 237.326,105.153 238.5,109.5C 237.833,108.167 237.167,106.833 236.5,105.5C 236.215,102.171 236.882,99.1709 238.5,96.5 Z"/></g>
<g><path style="opacity:0.933" fill="#aeaeae" d="M 261.5,95.5 C 261.833,95.5 262.167,95.5 262.5,95.5C 265.015,97.6824 265.015,99.6824 262.5,101.5C 262.167,100.167 261.833,100.167 261.5,101.5C 261.201,103.455 260.201,104.789 258.5,105.5C 256.611,106.742 254.611,106.742 252.5,105.5C 252.5,105.167 252.5,104.833 252.5,104.5C 253.167,104.5 253.5,104.167 253.5,103.5C 257.145,101.855 259.812,99.1884 261.5,95.5 Z"/></g>
<g><path style="opacity:0.065" fill="#5f5f5f" d="M 362.5,97.5 C 363.667,99.0414 365,100.375 366.5,101.5C 366.167,102.167 365.833,102.833 365.5,103.5C 364.5,103.167 363.833,102.5 363.5,101.5C 363.167,100.167 362.833,98.8333 362.5,97.5 Z"/></g>
<g><path style="opacity:0.322" fill="#5f5f5f" d="M 250.5,99.5 C 250.157,101.483 250.824,102.817 252.5,103.5C 252.5,103.833 252.5,104.167 252.5,104.5C 252.5,104.833 252.5,105.167 252.5,105.5C 252.167,105.5 251.833,105.5 251.5,105.5C 249.49,103.683 249.157,101.683 250.5,99.5 Z"/></g>
<g><path style="opacity:0.989" fill="#c2c2c2" d="M 294.5,100.5 C 295.532,103.679 294.199,105.513 290.5,106C 289.601,107.652 288.601,109.152 287.5,110.5C 285.801,110.66 284.134,110.494 282.5,110C 283.416,109.722 284.082,109.222 284.5,108.5C 286.359,103.973 289.692,101.306 294.5,100.5 Z"/></g>
<g><path style="opacity:0.996" fill="#dcdcdc" d="M 359.5,99.5 C 360.671,100.345 362.005,101.011 363.5,101.5C 363.833,102.5 364.5,103.167 365.5,103.5C 367.895,105.249 367.895,106.916 365.5,108.5C 362.575,107.047 359.575,106.047 356.5,105.5C 355.883,103.771 354.883,102.271 353.5,101C 354.094,100.536 354.761,100.369 355.5,100.5C 356.272,101.694 357.272,102.694 358.5,103.5C 360.224,103.539 360.557,103.206 359.5,102.5C 358.449,101.778 357.782,100.778 357.5,99.5C 357.938,98.4937 358.604,98.4937 359.5,99.5 Z"/></g>
<g><path style="opacity:0.983" fill="#d2d2d2" d="M 345.5,106.5 C 344.849,107.091 344.182,107.757 343.5,108.5C 342.702,108.043 342.369,107.376 342.5,106.5C 343.445,103.013 345.778,101.68 349.5,102.5C 349.5,103.5 349.5,104.5 349.5,105.5C 348.041,105.433 346.708,105.766 345.5,106.5 Z"/></g>
<g><path style="opacity:0.994" fill="#d8d8d8" d="M 267.5,94.5 C 267.936,100.462 265.603,104.962 260.5,108C 257.746,108.272 255.079,108.772 252.5,109.5C 251.624,109.631 250.957,109.298 250.5,108.5C 251.127,107.583 251.461,106.583 251.5,105.5C 251.833,105.5 252.167,105.5 252.5,105.5C 254.611,106.742 256.611,106.742 258.5,105.5C 260.201,104.789 261.201,103.455 261.5,101.5C 261.833,101.5 262.167,101.5 262.5,101.5C 265.015,99.6824 265.015,97.6824 262.5,95.5C 262.5,95.1667 262.5,94.8333 262.5,94.5C 263.167,94.5 263.5,94.1667 263.5,93.5C 264.583,93.4606 265.583,93.1272 266.5,92.5C 267.298,92.9569 267.631,93.6236 267.5,94.5 Z"/></g>
<g><path style="opacity:0.475" fill="#838383" d="M 251.5,105.5 C 251.461,106.583 251.127,107.583 250.5,108.5C 250.957,109.298 251.624,109.631 252.5,109.5C 251.791,110.404 250.791,110.737 249.5,110.5C 249.12,108.302 249.787,106.635 251.5,105.5 Z"/></g>
<g><path style="opacity:0.8" fill="#9c9c9c" d="M 320.5,104.5 C 322.682,105.3 324.349,106.8 325.5,109C 327.345,110.128 329.345,110.628 331.5,110.5C 331.5,111.5 331.5,112.5 331.5,113.5C 325.071,113.729 321.404,110.729 320.5,104.5 Z"/></g>
<g><path style="opacity:0.965" fill="#d0d0d0" d="M 325.5,100.5 C 328.784,102.117 331.451,104.45 333.5,107.5C 334.091,108.151 334.757,108.818 335.5,109.5C 335.043,110.298 334.376,110.631 333.5,110.5C 332.833,110.5 332.167,110.5 331.5,110.5C 329.864,109.251 328.697,107.584 328,105.5C 326.122,104.947 324.622,103.947 323.5,102.5C 323.5,101.167 324.167,100.5 325.5,100.5 Z"/></g>
<g><path style="opacity:0.537" fill="#b6b6b6" d="M 275.5,110.5 C 273.915,109.526 272.915,108.026 272.5,106C 271.552,105.517 270.552,105.351 269.5,105.5C 269.5,104.5 269.5,103.5 269.5,102.5C 275.8,102.12 277.8,104.786 275.5,110.5 Z"/></g>
<g><path style="opacity:0.78" fill="#838383" d="M 342.5,106.5 C 342.369,107.376 342.702,108.043 343.5,108.5C 344.182,107.757 344.849,107.091 345.5,106.5C 345.771,108.38 345.104,109.713 343.5,110.5C 342.722,109.844 342.056,109.011 341.5,108C 341.57,107.235 341.903,106.735 342.5,106.5 Z"/></g>
<g><path style="opacity:0.498" fill="#6f6f6f" d="M 333.5,107.5 C 335.359,107.461 336.692,108.294 337.5,110C 336.182,111.63 334.849,111.797 333.5,110.5C 334.376,110.631 335.043,110.298 335.5,109.5C 334.757,108.818 334.091,108.151 333.5,107.5 Z"/></g>
<g><path style="opacity:0.137" fill="#585858" d="M 355.5,113.5 C 355.33,108.725 354.33,108.392 352.5,112.5C 352.5,111.167 352.5,109.833 352.5,108.5C 353.833,108.5 355.167,108.5 356.5,108.5C 356.784,110.415 356.451,112.081 355.5,113.5 Z"/></g>
<g><path style="opacity:0.292" fill="#606060" d="M 266.5,112.5 C 264.334,109.96 263.334,110.627 263.5,114.5C 262.193,112.777 262.193,110.943 263.5,109C 265.934,108.667 266.934,109.834 266.5,112.5 Z"/></g>
<g><path style="opacity:0.996" fill="#e4e4e4" d="M 266.5,112.5 C 267.209,113.404 268.209,113.737 269.5,113.5C 269.38,114.586 268.713,115.253 267.5,115.5C 266.151,115.154 264.817,114.821 263.5,114.5C 263.334,110.627 264.334,109.96 266.5,112.5 Z"/></g>
<g><path style="opacity:0.447" fill="#787878" d="M 284.5,108.5 C 284.082,109.222 283.416,109.722 282.5,110C 284.134,110.494 285.801,110.66 287.5,110.5C 287.5,110.833 287.5,111.167 287.5,111.5C 285.5,111.833 283.5,112.167 281.5,112.5C 281.5,111.833 281.167,111.5 280.5,111.5C 281.048,109.468 282.381,108.468 284.5,108.5 Z"/></g>
<g><path style="opacity:0.955" fill="#a1a1a1" d="M 317.5,102.5 C 316.565,105.113 316.398,107.779 317,110.5C 317.037,108.026 317.87,106.026 319.5,104.5C 318.065,109.959 320.065,113.625 325.5,115.5C 323.774,115.185 322.107,115.019 320.5,115C 321.381,115.708 322.047,116.542 322.5,117.5C 318.014,115.675 315.347,112.342 314.5,107.5C 314.757,105.308 315.757,103.641 317.5,102.5 Z"/></g>
<g><path style="opacity:0.984" fill="#a5a5a5" d="M 382.5,93.5 C 383.268,94.2625 383.768,95.2625 384,96.5C 384.667,100.833 384.667,105.167 384,109.5C 383.33,112.174 382.163,114.507 380.5,116.5C 380.869,114.007 380.203,113.34 378.5,114.5C 379.614,110.75 380.614,107.083 381.5,103.5C 381.337,105.857 381.503,108.19 382,110.5C 383.774,104.892 383.941,99.2256 382.5,93.5 Z"/></g>
<g><path style="opacity:0.757" fill="#949494" d="M 287.5,111.5 C 291.568,110.933 294.734,108.933 297,105.5C 296.566,112.094 293.066,114.761 286.5,113.5C 286.863,112.817 287.196,112.15 287.5,111.5 Z"/></g>
<g><path style="opacity:0.995" fill="#a1a1a1" d="M 275.5,110.5 C 277.216,110.629 278.883,110.962 280.5,111.5C 281.167,111.5 281.5,111.833 281.5,112.5C 285.691,116.38 290.357,117.046 295.5,114.5C 293.987,116.241 291.987,117.241 289.5,117.5C 286.807,116.655 284.141,116.155 281.5,116C 286.225,118.715 291.225,119.215 296.5,117.5C 296.082,118.222 295.416,118.722 294.5,119C 290.833,119.667 287.167,119.667 283.5,119C 280.941,117.223 278.274,115.723 275.5,114.5C 275.918,113.778 276.584,113.278 277.5,113C 275.505,112.387 273.838,112.887 272.5,114.5C 272.771,112.57 273.771,111.236 275.5,110.5 Z"/></g>
<g><path style="opacity:0.996" fill="#bcbcbc" d="M 355.5,113.5 C 353.964,116.092 351.631,117.092 348.5,116.5C 348.167,113.5 349.5,112.167 352.5,112.5C 354.33,108.392 355.33,108.725 355.5,113.5 Z"/></g>
<g><path style="opacity:0.722" fill="#818181" d="M 269.5,113.5 C 270.705,115.41 270.038,116.743 267.5,117.5C 265.739,116.965 264.406,115.965 263.5,114.5C 264.817,114.821 266.151,115.154 267.5,115.5C 268.713,115.253 269.38,114.586 269.5,113.5 Z"/></g>
<g><path style="opacity:0.592" fill="#898989" d="M 322.5,117.5 C 326.466,118.162 330.466,118.495 334.5,118.5C 333.036,119.16 331.369,119.493 329.5,119.5C 326.795,119.684 324.462,119.017 322.5,117.5 Z"/></g>
<g><path style="opacity:0.4" fill="#646464" d="M 268.5,122.5 C 269.209,121.596 270.209,121.263 271.5,121.5C 271.784,123.415 271.451,125.081 270.5,126.5C 270.843,124.517 270.176,123.183 268.5,122.5 Z"/></g>
<g><path style="opacity:0.965" fill="#cacaca" d="M 268.5,122.5 C 270.176,123.183 270.843,124.517 270.5,126.5C 269.027,128.395 267.36,130.061 265.5,131.5C 264.624,131.631 263.957,131.298 263.5,130.5C 264.193,129.482 264.859,128.482 265.5,127.5C 266.752,125.999 267.752,124.332 268.5,122.5 Z"/></g>
<g><path style="opacity:0.85" fill="#aaaaaa" d="M 340.5,123.5 C 340.5,127.167 340.5,130.833 340.5,134.5C 337.833,130.833 337.833,127.167 340.5,123.5 Z"/></g>
<g><path style="opacity:0.992" fill="#bababa" d="M 236.5,93.5 C 235.26,98.8911 235.26,102.891 236.5,105.5C 237.167,106.833 237.833,108.167 238.5,109.5C 240.111,113.406 241.778,117.406 243.5,121.5C 242.155,123.323 241.655,125.323 242,127.5C 243.796,132.473 246.963,136.139 251.5,138.5C 250.737,139.268 249.737,139.768 248.5,140C 250.134,140.494 251.801,140.66 253.5,140.5C 251.712,141.622 249.712,141.789 247.5,141C 243.472,137.113 240.306,132.613 238,127.5C 237.394,124.924 237.894,122.59 239.5,120.5C 236.276,114.948 234.276,108.948 233.5,102.5C 234.133,99.268 235.133,96.268 236.5,93.5 Z"/></g>
<g><path style="opacity:0.996" fill="#cecece" d="M 343.5,110.5 C 347.274,112.919 348.274,116.252 346.5,120.5C 345.167,121.167 344.167,122.167 343.5,123.5C 341.416,125.993 341.083,128.66 342.5,131.5C 343.803,135.969 346.636,138.969 351,140.5C 353.901,139.763 356.068,138.097 357.5,135.5C 358.833,134.5 360.167,133.5 361.5,132.5C 363.213,130.15 365.547,129.15 368.5,129.5C 369.267,130.172 369.934,131.005 370.5,132C 368.681,134.056 368.015,136.223 368.5,138.5C 372.451,135.044 375.451,130.878 377.5,126C 374.971,121.939 375.304,118.106 378.5,114.5C 380.203,113.34 380.869,114.007 380.5,116.5C 379.052,119.705 379.386,122.705 381.5,125.5C 379.392,130.882 376.392,135.716 372.5,140C 369.46,142.155 366.627,141.988 364,139.5C 362.667,140.833 361.333,142.167 360,143.5C 360.138,145.49 360.638,147.49 361.5,149.5C 361.457,150.416 361.124,151.083 360.5,151.5C 359.262,153.214 358.595,155.214 358.5,157.5C 358.167,157.5 357.833,157.5 357.5,157.5C 357.5,156.833 357.167,156.5 356.5,156.5C 357.437,151.436 357.771,146.436 357.5,141.5C 360.5,139.167 363.167,136.5 365.5,133.5C 365.167,132.167 364.833,132.167 364.5,133.5C 361.5,135.833 358.833,138.5 356.5,141.5C 348.655,145.249 343.322,142.916 340.5,134.5C 340.5,130.833 340.5,127.167 340.5,123.5C 340.933,120.805 342.266,118.638 344.5,117C 344.002,115.842 343.169,115.009 342,114.5C 339.853,116.478 337.353,117.811 334.5,118.5C 330.466,118.495 326.466,118.162 322.5,117.5C 322.047,116.542 321.381,115.708 320.5,115C 322.107,115.019 323.774,115.185 325.5,115.5C 327.144,115.286 328.644,115.62 330,116.5C 334.632,114.677 339.132,112.677 343.5,110.5 Z M 346.5,120.5 C 346.5,122.5 346.5,124.5 346.5,126.5C 346.833,126.5 347.167,126.5 347.5,126.5C 350.832,129.622 354.165,132.622 357.5,135.5C 356.068,138.097 353.901,139.763 351,140.5C 346.636,138.969 343.803,135.969 342.5,131.5C 342.575,128.794 342.908,126.127 343.5,123.5C 344.167,122.167 345.167,121.167 346.5,120.5 Z"/></g>
<g><path style="opacity:0.71" fill="#959595" d="M 368.5,129.5 C 365.547,129.15 363.213,130.15 361.5,132.5C 362.121,129.879 363.788,128.212 366.5,127.5C 367.522,127.855 368.189,128.522 368.5,129.5 Z"/></g>
<g><path style="opacity:0.99" fill="#b8b8b8" d="M 349.5,121.5 C 352.771,124.889 355.771,128.723 358.5,133C 357.748,133.671 357.414,134.504 357.5,135.5C 354.165,132.622 350.832,129.622 347.5,126.5C 347.077,124.219 347.744,122.552 349.5,121.5 Z"/></g>
<g><path style="opacity:0.359" fill="#818181" d="M 343.5,123.5 C 342.908,126.127 342.575,128.794 342.5,131.5C 341.083,128.66 341.416,125.993 343.5,123.5 Z"/></g>
<g><path style="opacity:0.404" fill="#646464" d="M 346.5,120.5 C 347.791,120.263 348.791,120.596 349.5,121.5C 347.744,122.552 347.077,124.219 347.5,126.5C 347.167,126.5 346.833,126.5 346.5,126.5C 346.5,124.5 346.5,122.5 346.5,120.5 Z"/></g>
<g><path style="opacity:0.906" fill="#9f9f9f" d="M 346.5,126.5 C 346.697,130.097 348.363,132.763 351.5,134.5C 352.386,135.325 352.719,136.325 352.5,137.5C 347.649,136.148 344.649,132.981 343.5,128C 344.244,126.961 345.244,126.461 346.5,126.5 Z"/></g>
<g><path style="opacity:0.153" fill="#585858" d="M 364.5,133.5 C 364.833,133.5 365.167,133.5 365.5,133.5C 363.167,136.5 360.5,139.167 357.5,141.5C 357.167,141.5 356.833,141.5 356.5,141.5C 358.833,138.5 361.5,135.833 364.5,133.5 Z"/></g>
<g><path style="opacity:0.995" fill="#c3c3c3" d="M 360.5,151.5 C 360.299,154.765 361.466,157.431 364,159.5C 366.845,155.859 370.012,155.692 373.5,159C 377.072,163.308 379.738,168.141 381.5,173.5C 381.061,175.104 380.394,176.604 379.5,178C 387.999,193.533 385.665,207.2 372.5,219C 370.423,220.705 368.09,221.872 365.5,222.5C 367.129,220.804 366.796,219.804 364.5,219.5C 374.437,214.204 380.104,205.871 381.5,194.5C 381.889,191.447 381.223,188.78 379.5,186.5C 377.904,183.639 376.57,180.639 375.5,177.5C 376.845,175.677 377.345,173.677 377,171.5C 375.414,166.934 372.748,163.267 369,160.5C 367.97,160.836 367.47,161.503 367.5,162.5C 368.219,164.764 368.552,167.097 368.5,169.5C 366.983,170.735 365.316,170.735 363.5,169.5C 362.185,167.684 360.685,166.017 359,164.5C 356.709,168.455 354.042,172.122 351,175.5C 349.989,176.337 348.822,176.67 347.5,176.5C 347.5,174.833 347.5,173.167 347.5,171.5C 351.606,169.096 354.939,165.93 357.5,162C 354.076,158.114 350.243,157.614 346,160.5C 341.05,167.156 341.383,173.489 347,179.5C 348.203,183.963 346.536,186.63 342,187.5C 339.817,187.478 338.317,186.478 337.5,184.5C 336.537,183.637 336.537,182.97 337.5,182.5C 338.417,183.127 339.417,183.461 340.5,183.5C 342.103,183.688 343.437,183.188 344.5,182C 336.695,173.714 336.695,165.381 344.5,157C 346.588,155.97 348.755,155.137 351,154.5C 352.8,155.32 354.634,155.986 356.5,156.5C 357.167,156.5 357.5,156.833 357.5,157.5C 357.833,158.833 358.167,158.833 358.5,157.5C 358.595,155.214 359.262,153.214 360.5,151.5 Z"/></g>
<g><path style="opacity:0.898" fill="#9d9d9d" d="M 347.5,171.5 C 346.078,171.25 345.078,170.417 344.5,169C 345.51,164.657 348.01,161.49 352,159.5C 352.692,160.025 353.192,160.692 353.5,161.5C 352.135,162.941 350.635,164.274 349,165.5C 348.187,167.436 347.687,169.436 347.5,171.5 Z"/></g>
<g><path style="opacity:0.643" fill="#818181" d="M 367.5,162.5 C 370.734,164.572 371.067,166.905 368.5,169.5C 368.552,167.097 368.219,164.764 367.5,162.5 Z"/></g>
<g><path style="opacity:0.991" fill="#c5c5c5" d="M 275.5,114.5 C 274.027,116.593 274.527,118.26 277,119.5C 282.179,128.951 280.346,136.785 271.5,143C 268.77,143.728 266.103,143.562 263.5,142.5C 261.036,147.136 261.036,151.802 263.5,156.5C 270.956,153.812 276.122,156.145 279,163.5C 281.417,170.589 279.917,176.756 274.5,182C 274.833,182.333 275.167,182.667 275.5,183C 279.719,180.757 284.386,179.257 289.5,178.5C 292.555,178.737 295.221,179.737 297.5,181.5C 297.973,182.906 298.973,183.573 300.5,183.5C 301.906,183.973 302.573,184.973 302.5,186.5C 302.813,189.247 302.48,191.914 301.5,194.5C 301.638,192.564 301.305,190.564 300.5,188.5C 296.011,182.841 290.344,181.341 283.5,184C 281.283,185.723 278.95,187.223 276.5,188.5C 273.909,187.072 272.242,184.905 271.5,182C 273.969,178.388 275.636,174.388 276.5,170C 276.636,164.075 273.969,160.241 268.5,158.5C 265.313,159.027 262.98,160.693 261.5,163.5C 260.833,163.5 260.5,163.833 260.5,164.5C 258.5,166.167 256.5,167.833 254.5,169.5C 253.178,169.67 252.011,169.337 251,168.5C 250.51,166.455 250.677,164.455 251.5,162.5C 251.483,160.972 250.816,160.472 249.5,161C 246.115,164.717 243.115,168.717 240.5,173C 242.124,174.117 243.124,175.617 243.5,177.5C 242.43,180.639 241.096,183.639 239.5,186.5C 237.953,188.807 237.287,191.473 237.5,194.5C 237.505,196.696 237.838,198.696 238.5,200.5C 239.902,205.899 242.569,210.566 246.5,214.5C 246.973,215.906 247.973,216.573 249.5,216.5C 252.181,220.003 255.848,221.67 260.5,221.5C 266.981,221.341 272.981,219.675 278.5,216.5C 281.29,216.222 283.79,216.889 286,218.5C 286.765,218.43 287.265,218.097 287.5,217.5C 290.131,215.847 292.797,214.181 295.5,212.5C 298.821,211.902 299.821,210.235 298.5,207.5C 296.393,208.3 294.226,208.967 292,209.5C 289.199,208.895 288.199,207.229 289,204.5C 290.873,202.291 293.04,200.458 295.5,199C 289.593,196.574 285.26,192.741 282.5,187.5C 284.565,187.517 286.565,187.85 288.5,188.5C 288.987,189.473 289.487,190.473 290,191.5C 292.883,193.17 295.383,195.17 297.5,197.5C 298.458,197.047 299.292,196.381 300,195.5C 300.464,196.094 300.631,196.761 300.5,197.5C 298.833,198.5 297.5,199.833 296.5,201.5C 296.5,202.167 296.833,202.5 297.5,202.5C 298.458,202.047 299.292,201.381 300,200.5C 300.483,201.448 300.649,202.448 300.5,203.5C 302.792,206.352 302.958,209.352 301,212.5C 297.89,215.448 294.39,217.781 290.5,219.5C 288.194,219.993 285.861,220.326 283.5,220.5C 282.735,220.077 281.902,219.743 281,219.5C 277.634,221.27 274.134,222.603 270.5,223.5C 265.5,223.5 260.5,223.5 255.5,223.5C 238.679,216.192 232.179,203.526 236,185.5C 237.303,183.06 238.47,180.56 239.5,178C 238.606,176.604 237.939,175.104 237.5,173.5C 239.262,168.141 241.928,163.308 245.5,159C 247.274,158.03 249.107,157.196 251,156.5C 252.892,156.777 254.225,157.777 255,159.5C 259.235,156.776 260.069,153.442 257.5,149.5C 259.39,145.44 258.556,142.107 255,139.5C 254.617,140.056 254.117,140.389 253.5,140.5C 251.801,140.66 250.134,140.494 248.5,140C 249.737,139.768 250.737,139.268 251.5,138.5C 250.914,136.16 249.914,133.993 248.5,132C 249.333,129.833 250.833,128.333 253,127.5C 256,129.167 258.333,131.5 260,134.5C 261,132.5 262,130.5 263,128.5C 263.671,127.748 264.504,127.414 265.5,127.5C 264.859,128.482 264.193,129.482 263.5,130.5C 263.957,131.298 264.624,131.631 265.5,131.5C 264.952,133.394 263.952,135.06 262.5,136.5C 264.786,140.342 267.786,141.175 271.5,139C 277.967,132.328 278.134,125.495 272,118.5C 271.235,116.934 271.402,115.601 272.5,114.5C 273.838,112.887 275.505,112.387 277.5,113C 276.584,113.278 275.918,113.778 275.5,114.5 Z M 255.5,197.5 C 256.167,197.5 256.833,197.5 257.5,197.5C 259.928,199.916 261.928,202.583 263.5,205.5C 258.867,204.867 256.2,202.2 255.5,197.5 Z"/></g>
<g><path style="opacity:0.937" fill="#a6a6a6" d="M 266.5,160.5 C 272.599,161.908 274.932,165.575 273.5,171.5C 272.47,167.903 270.303,165.236 267,163.5C 266.517,162.552 266.351,161.552 266.5,160.5 Z"/></g>
<g><path style="opacity:0.514" fill="#7b7b7b" d="M 251.5,162.5 C 250.677,164.455 250.51,166.455 251,168.5C 252.011,169.337 253.178,169.67 254.5,169.5C 253.116,170.801 251.616,170.801 250,169.5C 249.333,167.5 249.333,165.5 250,163.5C 250.383,162.944 250.883,162.611 251.5,162.5 Z"/></g>
<g><path style="opacity:0.984" fill="#c2c2c2" d="M 264.5,164.5 C 266.089,167.925 268.589,170.592 272,172.5C 272.494,174.134 272.66,175.801 272.5,177.5C 271.325,177.719 270.325,177.386 269.5,176.5C 267.955,173.739 265.955,171.406 263.5,169.5C 263.579,168.07 263.246,166.736 262.5,165.5C 262.957,164.702 263.624,164.369 264.5,164.5 Z"/></g>
<g><path style="opacity:0.455" fill="#666666" d="M 261.5,163.5 C 262.791,163.263 263.791,163.596 264.5,164.5C 263.624,164.369 262.957,164.702 262.5,165.5C 263.246,166.736 263.579,168.07 263.5,169.5C 262.11,168.101 261.11,166.434 260.5,164.5C 261.167,164.5 261.5,164.167 261.5,163.5 Z"/></g>
<g><path style="opacity:0.163" fill="#555555" d="M 253.5,133.5 C 257.1,135.43 260.1,138.097 262.5,141.5C 258.9,139.57 255.9,136.903 253.5,133.5 Z"/></g>
<g><path style="opacity:0.91" fill="#999999" d="M 271.5,127.5 C 272.995,127.415 273.995,128.081 274.5,129.5C 273.086,134.248 270.086,137.248 265.5,138.5C 266.195,136.022 267.695,134.022 270,132.5C 270.608,130.846 271.108,129.179 271.5,127.5 Z"/></g>
<g><path style="opacity:0.027" fill="#585858" d="M 297.5,181.5 C 299.027,181.427 300.027,182.094 300.5,183.5C 298.973,183.573 297.973,182.906 297.5,181.5 Z"/></g>
<g><path style="opacity:0.995" fill="#9f9f9f" d="M 340.5,183.5 C 339.417,183.461 338.417,183.127 337.5,182.5C 336.537,182.97 336.537,183.637 337.5,184.5C 329.743,180.701 323.576,182.368 319,189.5C 318.616,191.197 318.782,192.863 319.5,194.5C 318.053,193.866 317.387,192.699 317.5,191C 318.125,189.159 318.292,187.326 318,185.5C 317.617,186.056 317.117,186.389 316.5,186.5C 319.313,181.223 323.813,178.556 330,178.5C 334.372,178.557 337.872,180.224 340.5,183.5 Z"/></g>
<g><path style="opacity:0.996" fill="#f8f8f8" d="M 323.5,180.5 C 327.514,180.334 331.514,180.501 335.5,181C 335,181.5 334.5,182 334,182.5C 330.712,181.239 327.379,181.239 324,182.5C 322.316,182.317 322.15,181.65 323.5,180.5 Z"/></g>
<g><path style="opacity:0.996" fill="#bababa" d="M 352.5,185.5 C 351.1,184.9 350.1,183.9 349.5,182.5C 352.102,181.031 354.269,181.698 356,184.5C 356.667,185.833 356.667,187.167 356,188.5C 353.342,189.694 352.176,188.694 352.5,185.5 Z"/></g>
<g><path style="opacity:0.996" fill="#dddddd" d="M 267.5,185.5 C 267.5,186.167 267.167,186.5 266.5,186.5C 264.694,189.338 263.694,189.005 263.5,185.5C 265.16,183.752 267.16,183.252 269.5,184C 268.584,184.278 267.918,184.778 267.5,185.5 Z"/></g>
<g><path style="opacity:0.471" fill="#858585" d="M 267.5,185.5 C 267.918,184.778 268.584,184.278 269.5,184C 267.16,183.252 265.16,183.752 263.5,185.5C 263.414,184.504 263.748,183.671 264.5,183C 268.146,180.327 270.146,181.16 270.5,185.5C 269.5,185.5 268.5,185.5 267.5,185.5 Z"/></g>
<g><path style="opacity:0.216" fill="#666666" d="M 349.5,182.5 C 350.1,183.9 351.1,184.9 352.5,185.5C 351.167,185.5 349.833,185.5 348.5,185.5C 348.263,184.209 348.596,183.209 349.5,182.5 Z"/></g>
<g><path style="opacity:0.722" fill="#9b9b9b" d="M 331.5,187.5 C 327.423,187.017 325.09,188.684 324.5,192.5C 323.5,192.5 322.5,192.5 321.5,192.5C 322.392,186.048 326.059,183.548 332.5,185C 331.748,185.671 331.414,186.504 331.5,187.5 Z"/></g>
<g><path style="opacity:0.686" fill="#828282" d="M 263.5,185.5 C 263.694,189.005 264.694,189.338 266.5,186.5C 266.5,187.5 266.5,188.5 266.5,189.5C 265.167,189.5 263.833,189.5 262.5,189.5C 262.232,187.901 262.566,186.568 263.5,185.5 Z"/></g>
<g><path style="opacity:0.725" fill="#a3a3a3" d="M 288.5,188.5 C 288.5,187.5 288.5,186.5 288.5,185.5C 294.889,184.902 297.889,187.569 297.5,193.5C 295.833,192.5 294.5,191.167 293.5,189.5C 291.929,188.691 290.262,188.357 288.5,188.5 Z"/></g>
<g><path style="opacity:0.929" fill="#939393" d="M 276.5,188.5 C 277.686,189.961 277.686,191.295 276.5,192.5C 276.631,191.624 276.298,190.957 275.5,190.5C 274.818,191.243 274.151,191.909 273.5,192.5C 273.088,190.027 274.088,188.694 276.5,188.5 Z"/></g>
<g><path style="opacity:0.741" fill="#868686" d="M 316.5,186.5 C 316.5,189.5 316.5,192.5 316.5,195.5C 313.983,192.461 313.983,189.461 316.5,186.5 Z"/></g>
<g><path style="opacity:0.987" fill="#bbbbbb" d="M 323.5,197.5 C 323.626,194.405 325.293,192.572 328.5,192C 329.386,190.385 330.386,188.885 331.5,187.5C 334,186.11 336.333,186.277 338.5,188C 335.355,189.766 332.688,192.099 330.5,195C 328.35,196.411 326.016,197.245 323.5,197.5 Z"/></g>
<g><path style="opacity:0.388" fill="#888888" d="M 367.5,188.5 C 367.389,189.117 367.056,189.617 366.5,190C 364.19,190.497 361.857,190.663 359.5,190.5C 362.003,189.629 364.67,188.963 367.5,188.5 Z"/></g>
<g><path style="opacity:0.991" fill="#d4d4d4" d="M 367.5,188.5 C 368.404,189.209 368.737,190.209 368.5,191.5C 368.167,192.5 367.5,193.167 366.5,193.5C 365.833,193.5 365.5,193.833 365.5,194.5C 363.205,195.136 361.539,196.469 360.5,198.5C 359.761,198.631 359.094,198.464 358.5,198C 359.823,197.184 360.489,196.017 360.5,194.5C 360.5,193.833 360.167,193.5 359.5,193.5C 358.596,194.209 358.263,195.209 358.5,196.5C 357.209,196.263 356.209,196.596 355.5,197.5C 354.828,199.998 354.828,202.331 355.5,204.5C 355.167,205.5 354.5,206.167 353.5,206.5C 351.952,206.179 351.285,205.179 351.5,203.5C 351.248,200.68 351.748,198.014 353,195.5C 354.011,194.663 355.178,194.33 356.5,194.5C 356.088,192.027 357.088,190.694 359.5,190.5C 361.857,190.663 364.19,190.497 366.5,190C 367.056,189.617 367.389,189.117 367.5,188.5 Z"/></g>
<g><path style="opacity:0.49" fill="#6c6c6c" d="M 367.5,188.5 C 368.472,187.249 369.139,187.582 369.5,189.5C 369.457,190.416 369.124,191.083 368.5,191.5C 368.737,190.209 368.404,189.209 367.5,188.5 Z"/></g>
<g><path style="opacity:0.706" fill="#868686" d="M 256.5,192.5 C 255.417,192.461 254.417,192.127 253.5,191.5C 252.702,191.957 252.369,192.624 252.5,193.5C 251.596,192.791 251.263,191.791 251.5,190.5C 253.698,190.12 255.365,190.787 256.5,192.5 Z"/></g>
<g><path style="opacity:0.678" fill="#bababa" d="M 342.5,188.5 C 343.5,188.5 344.5,188.5 345.5,188.5C 345.167,191.5 346.5,192.833 349.5,192.5C 349.428,196.536 347.761,197.37 344.5,195C 342.771,193.211 342.104,191.044 342.5,188.5 Z"/></g>
<g><path style="opacity:0.033" fill="#454545" d="M 239.5,186.5 C 238.686,191.119 238.353,195.786 238.5,200.5C 237.838,198.696 237.505,196.696 237.5,194.5C 237.287,191.473 237.953,188.807 239.5,186.5 Z"/></g>
<g><path style="opacity:0.016" fill="#545454" d="M 379.5,186.5 C 381.223,188.78 381.889,191.447 381.5,194.5C 380.469,192.039 379.802,189.373 379.5,186.5 Z"/></g>
<g><path style="opacity:0.929" fill="#b9b9b9" d="M 276.5,192.5 C 276.021,194.844 274.521,196.178 272,196.5C 268.641,194.188 269.141,192.854 273.5,192.5C 274.151,191.909 274.818,191.243 275.5,190.5C 276.298,190.957 276.631,191.624 276.5,192.5 Z"/></g>
<g><path style="opacity:0.996" fill="#a0a0a0" d="M 302.5,186.5 C 305.075,189.718 305.075,193.051 302.5,196.5C 301.833,196.5 301.5,196.833 301.5,197.5C 301.167,197.5 300.833,197.5 300.5,197.5C 300.631,196.761 300.464,196.094 300,195.5C 299.292,196.381 298.458,197.047 297.5,197.5C 299.336,194.817 300.336,191.817 300.5,188.5C 301.305,190.564 301.638,192.564 301.5,194.5C 302.48,191.914 302.813,189.247 302.5,186.5 Z"/></g>
<g><path style="opacity:0.761" fill="#828282" d="M 319.5,194.5 C 320.833,195.5 322.167,196.5 323.5,197.5C 324.167,198.5 324.833,199.5 325.5,200.5C 322.5,199.5 320.5,197.5 319.5,194.5 Z"/></g>
<g><path style="opacity:0.071" fill="#757575" d="M 316.5,196.5 C 316.5,196.167 316.5,195.833 316.5,195.5C 319.452,197.785 322.118,200.452 324.5,203.5C 324.167,203.5 323.833,203.5 323.5,203.5C 321.427,201.42 319.093,199.754 316.5,198.5C 316.5,198.167 316.5,197.833 316.5,197.5C 317.833,197.167 317.833,196.833 316.5,196.5 Z"/></g>
<g><path style="opacity:0.992" fill="#d6d6d6" d="M 256.5,192.5 C 258.823,191.418 261.157,191.585 263.5,193C 264.357,195.019 265.691,196.519 267.5,197.5C 267.963,200.33 268.629,202.997 269.5,205.5C 270.167,205.5 270.5,205.833 270.5,206.5C 270.179,208.048 269.179,208.715 267.5,208.5C 266.833,208.167 266.167,207.833 265.5,207.5C 265.5,207.167 265.5,206.833 265.5,206.5C 266.623,204.021 266.623,201.688 265.5,199.5C 265.167,199.5 264.833,199.5 264.5,199.5C 263.143,198.41 262.143,197.076 261.5,195.5C 261.167,195.5 260.833,195.5 260.5,195.5C 259.399,194.402 258.066,194.235 256.5,195C 257.252,195.671 257.586,196.504 257.5,197.5C 256.833,197.5 256.167,197.5 255.5,197.5C 255.5,196.833 255.167,196.5 254.5,196.5C 253.833,195.5 253.167,194.5 252.5,193.5C 252.369,192.624 252.702,191.957 253.5,191.5C 254.417,192.127 255.417,192.461 256.5,192.5 Z"/></g>
<g><path style="opacity:0.996" fill="#a3a3a3" d="M 316.5,196.5 C 316.5,196.833 316.5,197.167 316.5,197.5C 316.5,197.833 316.5,198.167 316.5,198.5C 316.062,198.435 315.728,198.601 315.5,199C 317.141,200.129 318.141,201.629 318.5,203.5C 316.852,202.19 315.186,200.857 313.5,199.5C 312.167,200.5 310.833,201.5 309.5,202.5C 308.167,201.5 306.833,200.5 305.5,199.5C 303.814,200.857 302.148,202.19 300.5,203.5C 300.649,202.448 300.483,201.448 300,200.5C 299.292,201.381 298.458,202.047 297.5,202.5C 296.833,202.5 296.5,202.167 296.5,201.5C 297.5,199.833 298.833,198.5 300.5,197.5C 300.833,198.833 301.167,198.833 301.5,197.5C 302.167,197.5 302.5,197.167 302.5,196.5C 307.167,197.833 311.833,197.833 316.5,196.5 Z"/></g>
<g><path style="opacity:0.996" fill="#bfbfbf" d="M 254.5,196.5 C 255.167,196.5 255.5,196.833 255.5,197.5C 256.2,202.2 258.867,204.867 263.5,205.5C 263.5,205.833 263.5,206.167 263.5,206.5C 263.179,208.048 262.179,208.715 260.5,208.5C 259.391,208.443 258.391,208.11 257.5,207.5C 257.144,205.81 256.144,204.81 254.5,204.5C 251.996,201.629 251.996,198.962 254.5,196.5 Z"/></g>
<g><path style="opacity:0.996" fill="#ababab" d="M 359.5,193.5 C 360.167,193.5 360.5,193.833 360.5,194.5C 360.489,196.017 359.823,197.184 358.5,198C 359.094,198.464 359.761,198.631 360.5,198.5C 356.331,204.267 357.331,204.934 363.5,200.5C 365.086,198.827 365.753,196.827 365.5,194.5C 365.5,193.833 365.833,193.5 366.5,193.5C 367.209,194.404 368.209,194.737 369.5,194.5C 369.336,197.817 368.336,200.817 366.5,203.5C 365.833,203.5 365.5,203.833 365.5,204.5C 364.833,204.5 364.5,204.833 364.5,205.5C 362.45,205.961 360.45,206.628 358.5,207.5C 357.265,206.66 356.265,205.66 355.5,204.5C 354.828,202.331 354.828,199.998 355.5,197.5C 356.209,196.596 357.209,196.263 358.5,196.5C 358.263,195.209 358.596,194.209 359.5,193.5 Z M 365.5,194.5 C 365.753,196.827 365.086,198.827 363.5,200.5C 357.331,204.934 356.331,204.267 360.5,198.5C 361.539,196.469 363.205,195.136 365.5,194.5 Z"/></g>
<g><path style="opacity:0.314" fill="#696969" d="M 267.5,197.5 C 268.117,197.611 268.617,197.944 269,198.5C 269.497,200.81 269.663,203.143 269.5,205.5C 268.629,202.997 267.963,200.33 267.5,197.5 Z"/></g>
<g><path style="opacity:0.769" fill="#939393" d="M 260.5,195.5 C 259.817,196.644 260.151,196.644 261.5,195.5C 262.143,197.076 263.143,198.41 264.5,199.5C 264.833,200.833 265.167,200.833 265.5,199.5C 266.623,201.688 266.623,204.021 265.5,206.5C 265.167,206.5 264.833,206.5 264.5,206.5C 264.5,205.833 264.167,205.5 263.5,205.5C 261.928,202.583 259.928,199.916 257.5,197.5C 257.586,196.504 257.252,195.671 256.5,195C 258.066,194.235 259.399,194.402 260.5,195.5 Z"/></g>
<g><path style="opacity:0.796" fill="#a7a7a7" d="M 366.5,210.5 C 364.824,209.817 364.157,208.483 364.5,206.5C 364.5,206.167 364.5,205.833 364.5,205.5C 365.167,205.5 365.5,205.167 365.5,204.5C 366.167,204.5 366.5,204.167 366.5,203.5C 368.479,201.832 370.812,201.166 373.5,201.5C 373.5,202.5 373.5,203.5 373.5,204.5C 368.983,204.02 366.65,206.02 366.5,210.5 Z"/></g>
<g><path style="opacity:0.998" fill="#dddddd" d="M 319.5,194.5 C 320.5,197.5 322.5,199.5 325.5,200.5C 328.532,201.999 330.032,204.332 330,207.5C 329.196,208.804 328.029,209.471 326.5,209.5C 324.484,208.822 322.484,208.156 320.5,207.5C 319.732,208.263 319.232,209.263 319,210.5C 318.506,208.866 318.34,207.199 318.5,205.5C 319.506,204.604 319.506,203.938 318.5,203.5C 318.141,201.629 317.141,200.129 315.5,199C 315.728,198.601 316.062,198.435 316.5,198.5C 319.093,199.754 321.427,201.42 323.5,203.5C 323.833,204.833 324.167,204.833 324.5,203.5C 322.118,200.452 319.452,197.785 316.5,195.5C 316.5,192.5 316.5,189.5 316.5,186.5C 317.117,186.389 317.617,186.056 318,185.5C 318.292,187.326 318.125,189.159 317.5,191C 317.387,192.699 318.053,193.866 319.5,194.5 Z"/></g>
<g><path style="opacity:0.573" fill="#6d6d6d" d="M 351.5,203.5 C 351.285,205.179 351.952,206.179 353.5,206.5C 352.458,207.791 351.292,207.791 350,206.5C 349.415,205.002 349.915,204.002 351.5,203.5 Z"/></g>
<g><path style="opacity:0.941" fill="#8f8f8f" d="M 254.5,204.5 C 256.144,204.81 257.144,205.81 257.5,207.5C 257.558,209.281 257.225,211.281 256.5,213.5C 254.988,212.009 253.988,210.176 253.5,208C 251.564,207.187 249.564,206.687 247.5,206.5C 247.5,205.5 247.5,204.5 247.5,203.5C 249.936,203.317 252.103,203.984 254,205.5C 254.399,205.272 254.565,204.938 254.5,204.5 Z"/></g>
<g><path style="opacity:0.149" fill="#4a4a4a" d="M 364.5,206.5 C 364.157,208.483 364.824,209.817 366.5,210.5C 365.791,211.404 364.791,211.737 363.5,211.5C 363.216,209.585 363.549,207.919 364.5,206.5 Z"/></g>
<g><path style="opacity:0.094" fill="#565656" d="M 263.5,206.5 C 263.833,206.5 264.167,206.5 264.5,206.5C 264.5,207.167 264.833,207.5 265.5,207.5C 264.121,209.597 262.455,209.93 260.5,208.5C 262.179,208.715 263.179,208.048 263.5,206.5 Z"/></g>
<g><path style="opacity:0.455" fill="#616161" d="M 270.5,206.5 C 271.404,207.209 271.737,208.209 271.5,209.5C 269.901,209.768 268.568,209.434 267.5,208.5C 269.179,208.715 270.179,208.048 270.5,206.5 Z"/></g>
<g><path style="opacity:0.482" fill="#747474" d="M 298.5,207.5 C 299.821,210.235 298.821,211.902 295.5,212.5C 296.925,211.078 297.925,209.411 298.5,207.5 Z"/></g>
<g><path style="opacity:0.999" fill="#bebebe" d="M 318.5,205.5 C 318.34,207.199 318.506,208.866 319,210.5C 319.232,209.263 319.732,208.263 320.5,207.5C 320.859,209.371 321.859,210.871 323.5,212C 326.407,213.609 329.073,215.442 331.5,217.5C 331.735,218.097 332.235,218.43 333,218.5C 334.396,217.606 335.896,216.939 337.5,216.5C 339.516,217.178 341.516,217.844 343.5,218.5C 345.921,218.878 348.254,219.545 350.5,220.5C 350.5,220.833 350.5,221.167 350.5,221.5C 348.007,221.131 347.34,221.797 348.5,223.5C 344.866,222.603 341.366,221.27 338,219.5C 336.604,220.394 335.104,221.061 333.5,221.5C 325.877,219.368 320.211,214.868 316.5,208C 316.639,206.699 317.305,205.866 318.5,205.5 Z"/></g>
<g><path style="opacity:0.02" fill="#545454" d="M 246.5,214.5 C 248.027,214.427 249.027,215.094 249.5,216.5C 247.973,216.573 246.973,215.906 246.5,214.5 Z"/></g>
<g><path style="opacity:0.486" fill="#6a6a6a" d="M 278.5,216.5 C 279.274,215.853 280.274,215.52 281.5,215.5C 283.693,215.719 285.693,216.385 287.5,217.5C 287.265,218.097 286.765,218.43 286,218.5C 283.79,216.889 281.29,216.222 278.5,216.5 Z"/></g>
<g><path style="opacity:0.89" fill="#898989" d="M 249.5,216.5 C 253.122,218.481 256.789,220.148 260.5,221.5C 255.848,221.67 252.181,220.003 249.5,216.5 Z"/></g>
<g><path style="opacity:0.431" fill="#727272" d="M 343.5,218.5 C 341.516,217.844 339.516,217.178 337.5,216.5C 335.896,216.939 334.396,217.606 333,218.5C 332.235,218.43 331.735,218.097 331.5,217.5C 333.307,216.385 335.307,215.719 337.5,215.5C 340.102,215.467 342.102,216.467 343.5,218.5 Z"/></g>
<g><path style="opacity:0.427" fill="#6e6e6e" d="M 290.5,219.5 C 288.345,221.534 286.012,221.867 283.5,220.5C 285.861,220.326 288.194,219.993 290.5,219.5 Z"/></g>
<g><path style="opacity:0.933" fill="#a0a0a0" d="M 364.5,219.5 C 363.411,221.117 361.744,221.95 359.5,222C 356.445,222.634 353.445,222.468 350.5,221.5C 350.5,221.167 350.5,220.833 350.5,220.5C 355.263,221.813 359.93,221.479 364.5,219.5 Z"/></g>
<g><path style="opacity:0.997" fill="#e5e5e5" d="M 364.5,219.5 C 366.796,219.804 367.129,220.804 365.5,222.5C 364.791,223.404 363.791,223.737 362.5,223.5C 357.833,223.5 353.167,223.5 348.5,223.5C 347.34,221.797 348.007,221.131 350.5,221.5C 353.445,222.468 356.445,222.634 359.5,222C 361.744,221.95 363.411,221.117 364.5,219.5 Z"/></g>
<g><path style="opacity:0.757" fill="#7e7e7e" d="M 255.5,223.5 C 260.5,223.5 265.5,223.5 270.5,223.5C 265.516,226.008 260.516,226.008 255.5,223.5 Z"/></g>
<g><path style="opacity:0.733" fill="#858585" d="M 348.5,223.5 C 353.167,223.5 357.833,223.5 362.5,223.5C 357.857,225.959 353.19,225.959 348.5,223.5 Z"/></g>
<g><path style="opacity:0.017" fill="#303030" d="M 133.5,245.5 C 137.93,244.139 142.263,244.473 146.5,246.5C 142.19,245.92 137.857,245.586 133.5,245.5 Z"/></g>
<g><path style="opacity:0.999" fill="#ececec" d="M 133.5,245.5 C 137.857,245.586 142.19,245.92 146.5,246.5C 149.152,246.41 151.485,247.076 153.5,248.5C 154.11,249.391 154.443,250.391 154.5,251.5C 154.443,252.609 154.11,253.609 153.5,254.5C 151.621,255.341 149.621,255.675 147.5,255.5C 144.814,254.009 141.814,253.343 138.5,253.5C 136.304,253.505 134.304,253.838 132.5,254.5C 132.5,255.167 132.167,255.5 131.5,255.5C 128.986,258.032 129.32,260.365 132.5,262.5C 135.157,262.935 137.491,263.935 139.5,265.5C 141.426,267.293 143.759,268.293 146.5,268.5C 150.892,269.359 154.225,271.693 156.5,275.5C 156.427,277.027 157.094,278.027 158.5,278.5C 158.5,278.833 158.5,279.167 158.5,279.5C 157.793,282.786 157.46,286.119 157.5,289.5C 157.573,291.027 156.906,292.027 155.5,292.5C 153.973,292.427 152.973,293.094 152.5,294.5C 151.791,295.404 150.791,295.737 149.5,295.5C 142.013,295.942 134.68,295.108 127.5,293C 126.692,292.692 126.025,292.192 125.5,291.5C 126.309,289.929 126.643,288.262 126.5,286.5C 126.5,286.167 126.5,285.833 126.5,285.5C 133.46,288.223 140.46,288.89 147.5,287.5C 151.099,285.222 151.432,282.389 148.5,279C 146.685,278.243 145.019,277.41 143.5,276.5C 141.574,274.707 139.241,273.707 136.5,273.5C 132.495,272.502 129.161,270.502 126.5,267.5C 126.144,265.81 125.144,264.81 123.5,264.5C 122.028,262.883 121.361,260.883 121.5,258.5C 121.361,256.117 122.028,254.117 123.5,252.5C 125.5,251.167 127.167,249.5 128.5,247.5C 129.78,246.069 131.447,245.402 133.5,245.5 Z"/></g>
<g><path style="opacity:0.528" fill="#6b6b6b" d="M 199.5,250.5 C 199.5,249.167 199.5,247.833 199.5,246.5C 197.143,246.337 194.81,246.503 192.5,247C 191.915,248.302 191.249,249.469 190.5,250.5C 190.178,248.278 190.845,246.444 192.5,245C 195.082,245.255 197.748,245.422 200.5,245.5C 200.784,247.415 200.451,249.081 199.5,250.5 Z"/></g>
<g><path style="opacity:0.3" fill="#737373" d="M 467.5,246.5 C 463.445,246.176 459.445,246.509 455.5,247.5C 454.67,250.016 453.67,252.35 452.5,254.5C 452.548,251.687 453.215,249.021 454.5,246.5C 458.984,245.189 463.317,245.189 467.5,246.5 Z"/></g>
<g><path style="opacity:0.626" fill="#acabac" d="M 174.5,245.5 C 174.5,245.833 174.5,246.167 174.5,246.5C 172.167,246.5 169.833,246.5 167.5,246.5C 167.5,262.5 167.5,278.5 167.5,294.5C 167.167,294.5 166.833,294.5 166.5,294.5C 166.5,278.167 166.5,261.833 166.5,245.5C 169.167,245.5 171.833,245.5 174.5,245.5 Z"/></g>
<g><path style="opacity:1" fill="#f0f0f0" d="M 174.5,246.5 C 174.334,253.508 174.5,260.508 175,267.5C 175.717,266.956 176.217,266.289 176.5,265.5C 177.262,263.738 178.596,262.738 180.5,262.5C 184.5,260.5 187.5,257.5 189.5,253.5C 189.557,252.391 189.89,251.391 190.5,250.5C 191.249,249.469 191.915,248.302 192.5,247C 194.81,246.503 197.143,246.337 199.5,246.5C 199.5,247.833 199.5,249.167 199.5,250.5C 198.069,251.78 197.402,253.447 197.5,255.5C 195.164,260.349 191.831,264.516 187.5,268C 190.748,272.4 193.748,276.9 196.5,281.5C 196.427,283.027 197.094,284.027 198.5,284.5C 198.427,286.027 199.094,287.027 200.5,287.5C 202.326,289.147 203.66,291.147 204.5,293.5C 201.713,294.477 198.713,294.81 195.5,294.5C 195.446,292.368 194.446,291.035 192.5,290.5C 188.53,285.011 184.696,279.344 181,273.5C 178.932,275.396 177.099,277.396 175.5,279.5C 174.513,284.305 174.179,289.305 174.5,294.5C 172.167,294.5 169.833,294.5 167.5,294.5C 167.5,278.5 167.5,262.5 167.5,246.5C 169.833,246.5 172.167,246.5 174.5,246.5 Z"/></g>
<g><path style="opacity:0.177" fill="#484848" d="M 174.5,245.5 C 175.167,252.167 175.833,258.833 176.5,265.5C 176.217,266.289 175.717,266.956 175,267.5C 174.5,260.508 174.334,253.508 174.5,246.5C 174.5,246.167 174.5,245.833 174.5,245.5 Z"/></g>
<g><path style="opacity:0.216" fill="#535353" d="M 220.5,246.5 C 220.167,246.5 219.833,246.5 219.5,246.5C 217.167,246.5 214.833,246.5 212.5,246.5C 212.5,262.5 212.5,278.5 212.5,294.5C 212.5,294.833 212.5,295.167 212.5,295.5C 211.503,279.008 211.17,262.342 211.5,245.5C 214.713,245.19 217.713,245.523 220.5,246.5 Z"/></g>
<g><path style="opacity:1" fill="#fafafa" d="M 219.5,246.5 C 219.5,262.5 219.5,278.5 219.5,294.5C 217.167,294.5 214.833,294.5 212.5,294.5C 212.5,278.5 212.5,262.5 212.5,246.5C 214.833,246.5 217.167,246.5 219.5,246.5 Z"/></g>
<g><path style="opacity:0.593" fill="#919191" d="M 238.5,246.5 C 236.167,246.5 233.833,246.5 231.5,246.5C 231.5,262.5 231.5,278.5 231.5,294.5C 240.5,294.5 249.5,294.5 258.5,294.5C 258.5,292.167 258.5,289.833 258.5,287.5C 258.833,287.5 259.167,287.5 259.5,287.5C 259.5,290.167 259.5,292.833 259.5,295.5C 249.5,295.5 239.5,295.5 229.5,295.5C 230.831,279.53 230.831,263.697 229.5,248C 229.645,247.228 229.978,246.561 230.5,246C 233.367,245.199 236.034,245.366 238.5,246.5 Z"/></g>
<g><path style="opacity:1" fill="#fcfcfc" d="M 238.5,246.5 C 238.5,260.167 238.5,273.833 238.5,287.5C 245.167,287.5 251.833,287.5 258.5,287.5C 258.5,289.833 258.5,292.167 258.5,294.5C 249.5,294.5 240.5,294.5 231.5,294.5C 231.5,278.5 231.5,262.5 231.5,246.5C 233.833,246.5 236.167,246.5 238.5,246.5 Z"/></g>
<g><path style="opacity:0.753" fill="#b5b5b5" d="M 275.5,286.5 C 275.5,286.833 275.5,287.167 275.5,287.5C 274.504,274.01 274.171,260.344 274.5,246.5C 272.5,246.5 270.5,246.5 268.5,246.5C 268.5,262.5 268.5,278.5 268.5,294.5C 267.504,278.675 267.17,262.675 267.5,246.5C 269.948,245.527 272.615,245.194 275.5,245.5C 275.721,259.255 275.721,272.922 275.5,286.5 Z"/></g>
<g><path style="opacity:1" fill="#fefefe" d="M 275.5,287.5 C 282.167,287.5 288.833,287.5 295.5,287.5C 295.5,289.833 295.5,292.167 295.5,294.5C 286.5,294.5 277.5,294.5 268.5,294.5C 268.5,278.5 268.5,262.5 268.5,246.5C 270.5,246.5 272.5,246.5 274.5,246.5C 274.171,260.344 274.504,274.01 275.5,287.5 Z"/></g>
<g><path style="opacity:0.31" fill="#707070" d="M 312.5,265.5 C 311.517,261.702 311.183,257.702 311.5,253.5C 317.833,253.5 324.167,253.5 330.5,253.5C 330.5,251.167 330.5,248.833 330.5,246.5C 321.833,246.5 313.167,246.5 304.5,246.5C 304.5,262.5 304.5,278.5 304.5,294.5C 304.5,294.833 304.5,295.167 304.5,295.5C 303.503,279.008 303.17,262.342 303.5,245.5C 312.833,245.5 322.167,245.5 331.5,245.5C 331.5,248.5 331.5,251.5 331.5,254.5C 325.167,254.5 318.833,254.5 312.5,254.5C 312.5,258.167 312.5,261.833 312.5,265.5 Z"/></g>
<g><path style="opacity:1" fill="#fafafa" d="M 312.5,265.5 C 317.975,266.489 323.642,266.822 329.5,266.5C 329.5,268.833 329.5,271.167 329.5,273.5C 323.5,273.5 317.5,273.5 311.5,273.5C 311.5,280.5 311.5,287.5 311.5,294.5C 309.167,294.5 306.833,294.5 304.5,294.5C 304.5,278.5 304.5,262.5 304.5,246.5C 313.167,246.5 321.833,246.5 330.5,246.5C 330.5,248.833 330.5,251.167 330.5,253.5C 324.167,253.5 317.833,253.5 311.5,253.5C 311.183,257.702 311.517,261.702 312.5,265.5 Z"/></g>
<g><path style="opacity:1" fill="#efefef" d="M 345.5,246.5 C 346.331,258.66 346.831,270.993 347,283.5C 348.376,284.705 349.542,286.038 350.5,287.5C 352.117,288.972 354.117,289.639 356.5,289.5C 357.833,289.333 359.167,289.167 360.5,289C 361.056,288.617 361.389,288.117 361.5,287.5C 363.833,287.167 365.167,285.833 365.5,283.5C 366.222,283.082 366.722,282.416 367,281.5C 367.5,269.838 367.667,258.171 367.5,246.5C 369.833,246.5 372.167,246.5 374.5,246.5C 374.5,258.833 374.5,271.167 374.5,283.5C 373.326,284.514 372.66,285.847 372.5,287.5C 370.242,292.751 366.242,295.751 360.5,296.5C 356.466,296.495 352.466,296.162 348.5,295.5C 347.508,295.672 346.842,295.338 346.5,294.5C 345.738,292.738 344.404,291.738 342.5,291.5C 340.75,290.341 339.75,288.674 339.5,286.5C 338.596,273.192 338.263,259.859 338.5,246.5C 340.833,246.5 343.167,246.5 345.5,246.5 Z"/></g>
<g><path style="opacity:0.267" fill="#727272" d="M 383.5,245.5 C 386.5,245.5 389.5,245.5 392.5,245.5C 392.5,259.167 392.5,272.833 392.5,286.5C 399.5,286.5 406.5,286.5 413.5,286.5C 413.665,289.518 413.498,292.518 413,295.5C 412.586,295.957 412.086,296.291 411.5,296.5C 402.625,296.717 393.292,296.384 383.5,295.5C 383.5,278.833 383.5,262.167 383.5,245.5 Z"/></g>
<g><path style="opacity:1" fill="#fdfdfd" d="M 384.5,246.5 C 386.833,246.5 389.167,246.5 391.5,246.5C 391.5,260.167 391.5,273.833 391.5,287.5C 398.5,287.5 405.5,287.5 412.5,287.5C 412.5,289.833 412.5,292.167 412.5,294.5C 403.167,294.5 393.833,294.5 384.5,294.5C 384.5,278.5 384.5,262.5 384.5,246.5 Z"/></g>
<g><path style="opacity:1" fill="#f8f8f8" d="M 467.5,246.5 C 467.5,247.167 467.5,247.833 467.5,248.5C 467.723,252.162 468.723,255.495 470.5,258.5C 470.723,262.162 471.723,265.495 473.5,268.5C 473.259,270.898 473.926,272.898 475.5,274.5C 475.171,277.228 475.837,279.562 477.5,281.5C 477.171,284.228 477.837,286.562 479.5,288.5C 479.261,290.467 479.594,292.301 480.5,294C 477.854,294.497 475.187,294.664 472.5,294.5C 471.815,289.761 470.815,285.094 469.5,280.5C 468.209,280.263 467.209,280.596 466.5,281.5C 466.167,281.5 465.833,281.5 465.5,281.5C 464.209,281.263 463.209,281.596 462.5,282.5C 462.167,282.5 461.833,282.5 461.5,282.5C 460.209,282.263 459.209,282.596 458.5,283.5C 456.565,284.15 454.565,284.483 452.5,284.5C 450.288,287.321 449.288,290.655 449.5,294.5C 446.615,294.806 443.948,294.473 441.5,293.5C 443.191,286.07 445.191,278.736 447.5,271.5C 449.163,269.562 449.829,267.228 449.5,264.5C 451.68,261.619 452.68,258.286 452.5,254.5C 453.67,252.35 454.67,250.016 455.5,247.5C 459.445,246.509 463.445,246.176 467.5,246.5 Z M 463.5,263.5 C 463.41,266.152 464.076,268.485 465.5,270.5C 465.443,271.609 465.11,272.609 464.5,273.5C 461.833,273.833 459.167,274.167 456.5,274.5C 457.685,268.773 459.185,263.106 461,257.5C 461.566,259.723 462.4,261.723 463.5,263.5 Z"/></g>
<g><path style="opacity:0.509" fill="#7d7d7d" d="M 488.5,245.5 C 491.5,245.5 494.5,245.5 497.5,245.5C 497.5,262.167 497.5,278.833 497.5,295.5C 494.5,295.5 491.5,295.5 488.5,295.5C 488.5,278.833 488.5,262.167 488.5,245.5 Z"/></g>
<g><path style="opacity:0.999" fill="#fefffe" d="M 489.5,246.5 C 491.833,246.5 494.167,246.5 496.5,246.5C 496.5,262.5 496.5,278.5 496.5,294.5C 494.167,294.5 491.833,294.5 489.5,294.5C 489.5,278.5 489.5,262.5 489.5,246.5 Z"/></g>
<g><path style="opacity:0.517" fill="#949494" d="M 219.5,246.5 C 219.833,246.5 220.167,246.5 220.5,246.5C 220.184,262.241 220.517,278.241 221.5,294.5C 218.572,295.484 215.572,295.817 212.5,295.5C 212.5,295.167 212.5,294.833 212.5,294.5C 214.833,294.5 217.167,294.5 219.5,294.5C 219.5,278.5 219.5,262.5 219.5,246.5 Z"/></g>
<g><path style="opacity:0.51" fill="#767676" d="M 374.5,283.5 C 374.5,271.167 374.5,258.833 374.5,246.5C 372.167,246.5 369.833,246.5 367.5,246.5C 367.667,258.171 367.5,269.838 367,281.5C 366.722,282.416 366.222,283.082 365.5,283.5C 366.792,271.487 366.792,259.487 365.5,247.5C 365.709,246.914 366.043,246.414 366.5,246C 369.482,245.502 372.482,245.335 375.5,245.5C 375.829,258.344 375.495,271.011 374.5,283.5 Z"/></g>
<g><path style="opacity:0.624" fill="#7d7d7d" d="M 128.5,247.5 C 127.167,249.5 125.5,251.167 123.5,252.5C 124.167,249.833 125.833,248.167 128.5,247.5 Z"/></g>
<g><path style="opacity:0.157" fill="#5a5a5a" d="M 153.5,248.5 C 155.552,249.053 155.885,250.053 154.5,251.5C 154.443,250.391 154.11,249.391 153.5,248.5 Z"/></g>
<g><path style="opacity:0.843" fill="#9f9f9f" d="M 467.5,248.5 C 469.277,251.505 470.277,254.838 470.5,258.5C 468.723,255.495 467.723,252.162 467.5,248.5 Z"/></g>
<g><path style="opacity:0.057" fill="#505050" d="M 132.5,254.5 C 134.304,253.838 136.304,253.505 138.5,253.5C 141.814,253.343 144.814,254.009 147.5,255.5C 142.73,255.125 137.73,254.792 132.5,254.5 Z"/></g>
<g><path style="opacity:0.396" fill="#707070" d="M 199.5,250.5 C 199.598,252.553 198.931,254.22 197.5,255.5C 197.402,253.447 198.069,251.78 199.5,250.5 Z"/></g>
<g><path style="opacity:0.361" fill="#5b5b5b" d="M 153.5,254.5 C 153.539,255.756 153.039,256.756 152,257.5C 150.378,256.901 148.878,256.234 147.5,255.5C 149.621,255.675 151.621,255.341 153.5,254.5 Z"/></g>
<g><path style="opacity:0.286" fill="#6a6a6a" d="M 463.5,263.5 C 462.4,261.723 461.566,259.723 461,257.5C 459.185,263.106 457.685,268.773 456.5,274.5C 456.167,274.5 455.833,274.5 455.5,274.5C 456.394,267.592 458.227,260.925 461,254.5C 462.549,257.312 463.382,260.312 463.5,263.5 Z"/></g>
<g><path style="opacity:0.8" fill="#838383" d="M 452.5,254.5 C 452.68,258.286 451.68,261.619 449.5,264.5C 449.899,260.884 450.899,257.55 452.5,254.5 Z"/></g>
<g><path style="opacity:0.161" fill="#5d5d5d" d="M 131.5,255.5 C 131.586,256.496 131.252,257.329 130.5,258C 131.582,259.33 132.249,260.83 132.5,262.5C 129.32,260.365 128.986,258.032 131.5,255.5 Z"/></g>
<g><path style="opacity:0.78" fill="#a2a2a2" d="M 189.5,253.5 C 187.5,257.5 184.5,260.5 180.5,262.5C 183.167,259.167 186.167,256.167 189.5,253.5 Z"/></g>
<g><path style="opacity:0.714" fill="#909090" d="M 470.5,258.5 C 472.277,261.505 473.277,264.838 473.5,268.5C 471.723,265.495 470.723,262.162 470.5,258.5 Z"/></g>
<g><path style="opacity:0.674" fill="#adadad" d="M 345.5,246.5 C 343.167,246.5 340.833,246.5 338.5,246.5C 338.263,259.859 338.596,273.192 339.5,286.5C 338.778,286.082 338.278,285.416 338,284.5C 337.5,271.504 337.333,258.504 337.5,245.5C 340.385,245.194 343.052,245.527 345.5,246.5 Z"/></g>
<g><path style="opacity:0.606" fill="#7b7b7b" d="M 329.5,273.5 C 329.5,271.167 329.5,268.833 329.5,266.5C 323.642,266.822 317.975,266.489 312.5,265.5C 318.084,264.382 323.751,264.215 329.5,265C 330.817,267.937 330.817,270.77 329.5,273.5 Z"/></g>
<g><path style="opacity:0.01" fill="#545454" d="M 463.5,263.5 C 464.924,265.515 465.59,267.848 465.5,270.5C 464.076,268.485 463.41,266.152 463.5,263.5 Z"/></g>
<g><path style="opacity:0.431" fill="#747474" d="M 123.5,264.5 C 125.144,264.81 126.144,265.81 126.5,267.5C 124.856,267.19 123.856,266.19 123.5,264.5 Z"/></g>
<g><path style="opacity:0.224" fill="#5a5a5a" d="M 139.5,265.5 C 142.241,265.707 144.574,266.707 146.5,268.5C 143.759,268.293 141.426,267.293 139.5,265.5 Z"/></g>
<g><path style="opacity:0.761" fill="#7e7e7e" d="M 449.5,264.5 C 449.829,267.228 449.163,269.562 447.5,271.5C 447.721,268.933 448.388,266.599 449.5,264.5 Z"/></g>
<g><path style="opacity:0.62" fill="#7d7d7d" d="M 473.5,268.5 C 474.738,270.214 475.405,272.214 475.5,274.5C 473.926,272.898 473.259,270.898 473.5,268.5 Z"/></g>
<g><path style="opacity:0.384" fill="#6c6c6c" d="M 465.5,270.5 C 466.885,271.947 466.552,272.947 464.5,273.5C 465.11,272.609 465.443,271.609 465.5,270.5 Z"/></g>
<g><path style="opacity:0.161" fill="#454545" d="M 136.5,273.5 C 139.241,273.707 141.574,274.707 143.5,276.5C 140.759,276.293 138.426,275.293 136.5,273.5 Z"/></g>
<g><path style="opacity:0.524" fill="#828282" d="M 329.5,273.5 C 324.025,274.489 318.358,274.822 312.5,274.5C 312.5,281.5 312.5,288.5 312.5,295.5C 309.833,295.5 307.167,295.5 304.5,295.5C 304.5,295.167 304.5,294.833 304.5,294.5C 306.833,294.5 309.167,294.5 311.5,294.5C 311.5,287.5 311.5,280.5 311.5,273.5C 317.5,273.5 323.5,273.5 329.5,273.5 Z"/></g>
<g><path style="opacity:0.392" fill="#707070" d="M 156.5,275.5 C 157.906,275.973 158.573,276.973 158.5,278.5C 157.094,278.027 156.427,277.027 156.5,275.5 Z"/></g>
<g><path style="opacity:0.643" fill="#767676" d="M 475.5,274.5 C 476.612,276.599 477.279,278.933 477.5,281.5C 475.837,279.562 475.171,277.228 475.5,274.5 Z"/></g>
<g><path style="opacity:0.353" fill="#686868" d="M 462.5,282.5 C 463.209,281.596 464.209,281.263 465.5,281.5C 464.895,283.481 463.895,283.815 462.5,282.5 Z"/></g>
<g><path style="opacity:0.286" fill="#5c5c5c" d="M 458.5,283.5 C 459.209,282.596 460.209,282.263 461.5,282.5C 460.895,284.481 459.895,284.815 458.5,283.5 Z"/></g>
<g><path style="opacity:0.184" fill="#7a7a7a" d="M 466.5,281.5 C 467.209,280.596 468.209,280.263 469.5,280.5C 470.815,285.094 471.815,289.761 472.5,294.5C 470.955,290.861 469.621,287.027 468.5,283C 468.164,281.97 467.497,281.47 466.5,281.5 Z"/></g>
<g><path style="opacity:0.978" fill="#a9a9a9" d="M 158.5,279.5 C 159.865,282.959 159.531,286.292 157.5,289.5C 157.46,286.119 157.793,282.786 158.5,279.5 Z"/></g>
<g><path style="opacity:0.443" fill="#7a7a7a" d="M 196.5,281.5 C 197.906,281.973 198.573,282.973 198.5,284.5C 197.094,284.027 196.427,283.027 196.5,281.5 Z"/></g>
<g><path style="opacity:0.341" fill="#686868" d="M 126.5,285.5 C 126.735,284.903 127.235,284.57 128,284.5C 134.361,286.421 140.861,287.421 147.5,287.5C 140.46,288.89 133.46,288.223 126.5,285.5 Z"/></g>
<g><path style="opacity:0.506" fill="#7b7b7b" d="M 365.5,283.5 C 365.167,285.833 363.833,287.167 361.5,287.5C 362.5,285.833 363.833,284.5 365.5,283.5 Z"/></g>
<g><path style="opacity:0.69" fill="#777777" d="M 477.5,281.5 C 478.612,283.599 479.279,285.933 479.5,288.5C 477.837,286.562 477.171,284.228 477.5,281.5 Z"/></g>
<g><path style="opacity:0.459" fill="#7f7f7f" d="M 198.5,284.5 C 199.906,284.973 200.573,285.973 200.5,287.5C 199.094,287.027 198.427,286.027 198.5,284.5 Z"/></g>
<g><path style="opacity:0.297" fill="#505050" d="M 238.5,246.5 C 239.496,259.656 239.829,272.99 239.5,286.5C 246.354,286.176 253.021,286.509 259.5,287.5C 259.167,287.5 258.833,287.5 258.5,287.5C 251.833,287.5 245.167,287.5 238.5,287.5C 238.5,273.833 238.5,260.167 238.5,246.5 Z"/></g>
<g><path style="opacity:0.212" fill="#636363" d="M 374.5,283.5 C 374.771,285.38 374.104,286.713 372.5,287.5C 372.66,285.847 373.326,284.514 374.5,283.5 Z"/></g>
<g><path style="opacity:0.82" fill="#9e9e9e" d="M 452.5,284.5 C 451.87,288.048 450.87,291.381 449.5,294.5C 449.288,290.655 450.288,287.321 452.5,284.5 Z"/></g>
<g><path style="opacity:0.51" fill="#979797" d="M 350.5,287.5 C 354.183,288.675 357.85,288.675 361.5,287.5C 361.389,288.117 361.056,288.617 360.5,289C 359.167,289.167 357.833,289.333 356.5,289.5C 354.117,289.639 352.117,288.972 350.5,287.5 Z"/></g>
<g><path style="opacity:0.816" fill="#5a5a5a" d="M 126.5,286.5 C 126.643,288.262 126.309,289.929 125.5,291.5C 126.025,292.192 126.692,292.692 127.5,293C 134.68,295.108 142.013,295.942 149.5,295.5C 140.639,297.326 131.973,296.326 123.5,292.5C 124.519,290.396 125.519,288.396 126.5,286.5 Z"/></g>
<g><path style="opacity:0.792" fill="#797979" d="M 192.5,290.5 C 194.446,291.035 195.446,292.368 195.5,294.5C 194.026,293.564 193.026,292.23 192.5,290.5 Z"/></g>
<g><path style="opacity:0.58" fill="#707070" d="M 342.5,291.5 C 344.404,291.738 345.738,292.738 346.5,294.5C 344.596,294.262 343.262,293.262 342.5,291.5 Z"/></g>
<g><path style="opacity:0.175" fill="#515151" d="M 175.5,279.5 C 175.5,284.833 175.5,290.167 175.5,295.5C 172.287,295.81 169.287,295.477 166.5,294.5C 166.833,294.5 167.167,294.5 167.5,294.5C 169.833,294.5 172.167,294.5 174.5,294.5C 174.179,289.305 174.513,284.305 175.5,279.5 Z"/></g>
<g><path style="opacity:0.012" fill="#404040" d="M 155.5,292.5 C 155.027,293.906 154.027,294.573 152.5,294.5C 152.973,293.094 153.973,292.427 155.5,292.5 Z"/></g>
<g><path style="opacity:0.334" fill="#6c6c6c" d="M 204.5,293.5 C 205.043,293.56 205.376,293.893 205.5,294.5C 202.02,295.806 198.687,295.806 195.5,294.5C 198.713,294.81 201.713,294.477 204.5,293.5 Z"/></g>
<g><path style="opacity:0.57" fill="#777777" d="M 267.5,246.5 C 267.17,262.675 267.504,278.675 268.5,294.5C 277.5,294.5 286.5,294.5 295.5,294.5C 295.5,292.167 295.5,289.833 295.5,287.5C 288.833,287.5 282.167,287.5 275.5,287.5C 275.5,287.167 275.5,286.833 275.5,286.5C 282.5,286.5 289.5,286.5 296.5,286.5C 296.5,289.5 296.5,292.5 296.5,295.5C 286.5,295.5 276.5,295.5 266.5,295.5C 266.17,278.991 266.504,262.658 267.5,246.5 Z"/></g>
<g><path style="opacity:0.565" fill="#9c9c9c" d="M 441.5,293.5 C 443.948,294.473 446.615,294.806 449.5,294.5C 446.645,295.803 443.645,295.803 440.5,294.5C 440.624,293.893 440.957,293.56 441.5,293.5 Z"/></g>
<g><path style="opacity:0.561" fill="#969696" d="M 479.5,288.5 C 480.612,290.599 481.279,292.933 481.5,295.5C 478.287,295.81 475.287,295.477 472.5,294.5C 475.187,294.664 477.854,294.497 480.5,294C 479.594,292.301 479.261,290.467 479.5,288.5 Z"/></g>
<g><path style="opacity:0.041" fill="#4b4b4b" d="M 348.5,295.5 C 352.466,296.162 356.466,296.495 360.5,296.5C 359.207,297.158 357.707,297.492 356,297.5C 353.179,297.592 350.679,296.926 348.5,295.5 Z"/></g>
<g><path style="opacity:0.812" fill="#878787" d="M 262.5,311.5 C 261.883,311.389 261.383,311.056 261,310.5C 260.809,312.708 260.309,314.708 259.5,316.5C 260.029,313.396 259.029,311.063 256.5,309.5C 254.022,310.722 253.022,312.722 253.5,315.5C 252.71,314.391 252.21,313.058 252,311.5C 251.506,313.134 251.34,314.801 251.5,316.5C 249.453,312.097 250.787,308.93 255.5,307C 259.138,306.485 261.471,307.985 262.5,311.5 Z M 259.5,316.5 C 257.379,316.675 255.379,316.341 253.5,315.5C 253.022,312.722 254.022,310.722 256.5,309.5C 259.029,311.063 260.029,313.396 259.5,316.5 Z"/></g>
<g><path style="opacity:0.205" fill="#646464" d="M 174.5,314.5 C 176.265,313.539 178.265,313.205 180.5,313.5C 181.788,314.425 181.788,314.092 180.5,312.5C 178.265,312.795 176.265,312.461 174.5,311.5C 176.167,311.5 177.833,311.5 179.5,311.5C 179.5,310.167 179.5,308.833 179.5,307.5C 180.5,307.5 181.5,307.5 182.5,307.5C 182.5,311.5 182.5,315.5 182.5,319.5C 181.5,319.5 180.5,319.5 179.5,319.5C 179.5,317.833 179.5,316.167 179.5,314.5C 177.833,314.5 176.167,314.5 174.5,314.5 Z"/></g>
<g><path style="opacity:0.202" fill="#676767" d="M 269.5,312.5 C 268.596,311.791 268.263,310.791 268.5,309.5C 270.199,309.66 271.866,309.494 273.5,309C 271.527,308.505 269.527,308.338 267.5,308.5C 267.335,311.85 267.502,315.183 268,318.5C 268.21,316.942 268.71,315.609 269.5,314.5C 269.5,316.167 269.5,317.833 269.5,319.5C 268.5,319.5 267.5,319.5 266.5,319.5C 266.5,315.5 266.5,311.5 266.5,307.5C 269.572,307.183 272.572,307.516 275.5,308.5C 273.335,309.707 271.335,311.04 269.5,312.5 Z"/></g>
<g><path style="opacity:0.749" fill="#969696" d="M 286.5,308.5 C 286.5,308.167 286.5,307.833 286.5,307.5C 288.857,307.337 291.19,307.503 293.5,308C 294.801,309.616 294.801,311.116 293.5,312.5C 293.649,311.448 293.483,310.448 293,309.5C 292.768,310.737 292.268,311.737 291.5,312.5C 290.5,309.833 289.5,309.833 288.5,312.5C 287.209,311.458 287.209,310.292 288.5,309C 287.906,308.536 287.239,308.369 286.5,308.5 Z M 291.5,312.5 C 290.5,312.5 289.5,312.5 288.5,312.5C 289.5,309.833 290.5,309.833 291.5,312.5 Z"/></g>
<g><path style="opacity:0.833" fill="#9e9e9e" d="M 304.5,312.5 C 303.167,313.167 301.833,313.833 300.5,314.5C 302.335,315.96 304.335,317.293 306.5,318.5C 303.572,319.484 300.572,319.817 297.5,319.5C 297.5,315.5 297.5,311.5 297.5,307.5C 300.572,307.183 303.572,307.516 306.5,308.5C 305.034,310.657 303.2,310.99 301,309.5C 300.517,310.448 300.351,311.448 300.5,312.5C 301.833,312.5 303.167,312.5 304.5,312.5 Z"/></g>
<g><path style="opacity:0.963" fill="#e1e1e1" d="M 187.5,307.5 C 189.5,307.5 191.5,307.5 193.5,307.5C 192.448,309.256 190.781,309.923 188.5,309.5C 188.263,310.791 188.596,311.791 189.5,312.5C 190.833,312.5 192.167,312.5 193.5,312.5C 192.081,313.451 190.415,313.784 188.5,313.5C 188.5,314.833 188.5,316.167 188.5,317.5C 190.5,317.5 192.5,317.5 194.5,317.5C 192.393,318.468 190.059,318.802 187.5,318.5C 187.5,314.833 187.5,311.167 187.5,307.5 Z"/></g>
<g><path style="opacity:0.069" fill="#4e4e4e" d="M 193.5,307.5 C 195.028,307.517 195.528,308.184 195,309.5C 192.674,309.88 190.841,310.88 189.5,312.5C 188.596,311.791 188.263,310.791 188.5,309.5C 190.781,309.923 192.448,309.256 193.5,307.5 Z"/></g>
<g><path style="opacity:0.209" fill="#5d5d5d" d="M 286.5,307.5 C 286.5,307.833 286.5,308.167 286.5,308.5C 286.335,311.85 286.502,315.183 287,318.5C 287.21,316.942 287.71,315.609 288.5,314.5C 288.5,316.167 288.5,317.833 288.5,319.5C 287.5,319.5 286.5,319.5 285.5,319.5C 285.183,315.298 285.517,311.298 286.5,307.5 Z"/></g>
<g><path style="opacity:0.751" fill="#bababa" d="M 381.5,316.5 C 382.609,317.29 383.942,317.79 385.5,318C 383.527,318.495 381.527,318.662 379.5,318.5C 379.32,314.917 378.986,311.251 378.5,307.5C 379.5,307.5 380.5,307.5 381.5,307.5C 381.5,310.5 381.5,313.5 381.5,316.5 Z"/></g>
<g><path style="opacity:0.587" fill="#808080" d="M 389.5,307.5 C 390.833,307.5 392.167,307.5 393.5,307.5C 392.332,310.504 392.332,313.504 393.5,316.5C 393.292,319.185 392.125,319.851 390,318.5C 389.501,314.848 389.335,311.182 389.5,307.5 Z"/></g>
<g><path style="opacity:0.824" fill="#b8b8b8" d="M 421.5,307.5 C 430.664,306.147 433.664,309.647 430.5,318C 427.649,319.289 424.649,319.789 421.5,319.5C 421.5,315.5 421.5,311.5 421.5,307.5 Z M 428.5,310.5 C 430.062,312.901 429.729,314.901 427.5,316.5C 426.5,316.5 425.5,316.5 424.5,316.5C 424.5,314.5 424.5,312.5 424.5,310.5C 425.833,310.5 427.167,310.5 428.5,310.5 Z"/></g>
<g><path style="opacity:0.6" fill="#828282" d="M 456.5,307.5 C 457.833,307.5 459.167,307.5 460.5,307.5C 460.665,311.182 460.499,314.848 460,318.5C 459,319.833 458,319.833 457,318.5C 456.501,314.848 456.335,311.182 456.5,307.5 Z"/></g>
<g><path style="opacity:0.576" fill="#ababab" d="M 239.5,307.5 C 239.179,309.048 238.179,309.715 236.5,309.5C 236.5,312.833 236.5,316.167 236.5,319.5C 234.612,317.012 233.945,314.012 234.5,310.5C 232.654,310.778 231.32,310.111 230.5,308.5C 233.428,307.516 236.428,307.183 239.5,307.5 Z"/></g>
<g><path style="opacity:0.871" fill="#e6e6e6" d="M 317.5,308.5 C 317.631,309.239 317.464,309.906 317,310.5C 315.384,309.199 313.884,309.199 312.5,310.5C 312.5,310.833 312.5,311.167 312.5,311.5C 312.5,312.5 312.5,313.5 312.5,314.5C 312.5,315.833 312.5,317.167 312.5,318.5C 311.521,315.375 311.187,312.042 311.5,308.5C 313.5,308.5 315.5,308.5 317.5,308.5 Z"/></g>
<g><path style="opacity:0.195" fill="#525252" d="M 428.5,310.5 C 427.167,310.5 425.833,310.5 424.5,310.5C 424.5,312.5 424.5,314.5 424.5,316.5C 425.5,316.5 426.5,316.5 427.5,316.5C 426.432,317.434 425.099,317.768 423.5,317.5C 423.5,314.833 423.5,312.167 423.5,309.5C 425.415,309.216 427.081,309.549 428.5,310.5 Z"/></g>
<g><path style="opacity:0.342" fill="#797979" d="M 165.5,309.5 C 165.5,312.833 165.5,316.167 165.5,319.5C 164.5,319.5 163.5,319.5 162.5,319.5C 162.665,316.15 162.498,312.817 162,309.5C 160.455,310.821 159.289,310.488 158.5,308.5C 162.167,307.167 165.833,307.167 169.5,308.5C 168.563,310.642 167.23,310.976 165.5,309.5 Z"/></g>
<g><path style="opacity:0.926" fill="#efefef" d="M 165.5,309.5 C 164.681,312.305 164.181,315.305 164,318.5C 163.176,315.118 163.343,311.784 164.5,308.5C 165.107,308.624 165.44,308.957 165.5,309.5 Z"/></g>
<g><path style="opacity:0.13" fill="#424242" d="M 239.5,307.5 C 241.867,309.54 241.2,310.54 237.5,310.5C 237.81,313.713 237.477,316.713 236.5,319.5C 236.5,316.167 236.5,312.833 236.5,309.5C 238.179,309.715 239.179,309.048 239.5,307.5 Z"/></g>
<g><path style="opacity:0.941" fill="#ebebeb" d="M 174.5,308.5 C 174.5,309.5 174.5,310.5 174.5,311.5C 176.265,312.461 178.265,312.795 180.5,312.5C 181.788,314.092 181.788,314.425 180.5,313.5C 178.265,313.205 176.265,313.539 174.5,314.5C 174.5,315.833 174.5,317.167 174.5,318.5C 173.167,315.167 173.167,311.833 174.5,308.5 Z"/></g>
<g><path style="opacity:0.826" fill="#cdcdcd" d="M 269.5,312.5 C 271.288,312.215 272.955,312.548 274.5,313.5C 273.091,315.626 271.424,315.96 269.5,314.5C 268.71,315.609 268.21,316.942 268,318.5C 267.502,315.183 267.335,311.85 267.5,308.5C 269.527,308.338 271.527,308.505 273.5,309C 271.866,309.494 270.199,309.66 268.5,309.5C 268.263,310.791 268.596,311.791 269.5,312.5 Z"/></g>
<g><path style="opacity:0.857" fill="#d5d5d5" d="M 286.5,308.5 C 287.239,308.369 287.906,308.536 288.5,309C 287.209,310.292 287.209,311.458 288.5,312.5C 289.5,312.5 290.5,312.5 291.5,312.5C 292.268,311.737 292.768,310.737 293,309.5C 293.483,310.448 293.649,311.448 293.5,312.5C 292.365,314.213 290.698,314.88 288.5,314.5C 287.71,315.609 287.21,316.942 287,318.5C 286.502,315.183 286.335,311.85 286.5,308.5 Z M 291.5,312.5 C 290.5,312.5 289.5,312.5 288.5,312.5C 289.5,309.833 290.5,309.833 291.5,312.5 Z"/></g>
<g><path style="opacity:0.645" fill="#929292" d="M 174.5,308.5 C 173.167,311.833 173.167,315.167 174.5,318.5C 172.977,319.746 171.977,319.246 171.5,317C 172.045,313.813 172.711,310.646 173.5,307.5C 174.107,307.624 174.44,307.957 174.5,308.5 Z"/></g>
<g><path style="opacity:0.937" fill="#a7a7a7" d="M 220.5,307.5 C 227.894,305.872 229.894,308.205 226.5,314.5C 227.167,315.833 227.833,317.167 228.5,318.5C 228,318.833 227.5,319.167 227,319.5C 225.435,318.048 224.102,316.381 223,314.5C 222.798,316.256 222.298,317.922 221.5,319.5C 220.914,319.291 220.414,318.957 220,318.5C 219.938,314.852 220.105,311.185 220.5,307.5 Z M 222.5,310.5 C 223.675,310.281 224.675,310.614 225.5,311.5C 223.948,312.798 222.948,312.465 222.5,310.5 Z"/></g>
<g><path style="opacity:0.541" fill="#777777" d="M 304.5,312.5 C 306.705,312.846 306.872,313.513 305,314.5C 303.545,315.58 302.045,315.58 300.5,314.5C 301.833,313.833 303.167,313.167 304.5,312.5 Z"/></g>
<g><path style="opacity:0.933" fill="#a2a2a2" d="M 325.5,306.5 C 328.179,306.525 329.512,307.858 329.5,310.5C 327.801,310.34 326.134,310.506 324.5,311C 328.29,311.77 330.123,313.937 330,317.5C 327.299,319.922 324.465,320.089 321.5,318C 323.937,316.721 324.437,315.221 323,313.5C 321.916,310.341 322.75,308.008 325.5,306.5 Z M 325.5,314.5 C 327.76,315.238 327.927,316.238 326,317.5C 325.517,316.552 325.351,315.552 325.5,314.5 Z"/></g>
<g><path style="opacity:0.556" fill="#9d9d9d" d="M 317.5,308.5 C 315.5,308.5 313.5,308.5 311.5,308.5C 311.187,312.042 311.521,315.375 312.5,318.5C 312.5,318.833 312.5,319.167 312.5,319.5C 310.577,315.971 309.911,311.971 310.5,307.5C 313.059,307.198 315.393,307.532 317.5,308.5 Z"/></g>
<g><path style="opacity:0.052" fill="#323232" d="M 312.5,314.5 C 313.492,314.328 314.158,314.662 314.5,315.5C 313.833,316.833 313.167,318.167 312.5,319.5C 312.5,319.167 312.5,318.833 312.5,318.5C 312.5,317.167 312.5,315.833 312.5,314.5 Z"/></g>
<g><path style="opacity:0.725" fill="#989898" d="M 317.5,308.5 C 319.96,310.517 319.627,312.35 316.5,314C 317.5,315.667 318.5,317.333 319.5,319C 316.461,319.813 314.794,318.646 314.5,315.5C 314.158,314.662 313.492,314.328 312.5,314.5C 312.5,313.5 312.5,312.5 312.5,311.5C 313.575,312.562 314.575,312.562 315.5,311.5C 314.675,310.614 313.675,310.281 312.5,310.5C 313.884,309.199 315.384,309.199 317,310.5C 317.464,309.906 317.631,309.239 317.5,308.5 Z"/></g>
<g><path style="opacity:0.808" fill="#a5a5a5" d="M 349.5,307.5 C 350.873,307.343 352.207,307.51 353.5,308C 355,310.167 356.5,312.333 358,314.5C 358.497,312.19 358.663,309.857 358.5,307.5C 359.675,307.281 360.675,307.614 361.5,308.5C 360.574,312.094 360.241,315.76 360.5,319.5C 357.279,318.118 354.779,315.785 353,312.5C 352.503,314.81 352.337,317.143 352.5,319.5C 351.5,319.5 350.5,319.5 349.5,319.5C 349.5,315.5 349.5,311.5 349.5,307.5 Z"/></g>
<g><path style="opacity:0.847" fill="#e1e1e1" d="M 411.5,310.5 C 412.552,312.256 414.219,312.923 416.5,312.5C 415.081,313.451 413.415,313.784 411.5,313.5C 411.5,314.833 411.5,316.167 411.5,317.5C 413.167,317.5 414.833,317.5 416.5,317.5C 414.735,318.461 412.735,318.795 410.5,318.5C 410.5,315.167 410.5,311.833 410.5,308.5C 412.527,308.338 414.527,308.505 416.5,309C 414.618,309.198 412.952,309.698 411.5,310.5 Z"/></g>
<g><path style="opacity:0.678" fill="#aaaaaa" d="M 209.5,307.5 C 210.675,307.281 211.675,307.614 212.5,308.5C 214.238,312.049 215.571,315.716 216.5,319.5C 215.5,319.5 214.5,319.5 213.5,319.5C 213.5,318.5 213.5,317.5 213.5,316.5C 210.592,316.262 208.258,317.262 206.5,319.5C 206.167,319 205.833,318.5 205.5,318C 206.711,314.419 208.044,310.919 209.5,307.5 Z M 210.5,311.5 C 211.776,312.386 211.776,313.386 210.5,314.5C 209.913,313.767 209.913,312.767 210.5,311.5 Z"/></g>
<g><path style="opacity:0.675" fill="#aaaaaa" d="M 368.5,307.5 C 369.822,307.33 370.989,307.663 372,308.5C 373.674,312.021 374.84,315.687 375.5,319.5C 374.5,319.5 373.5,319.5 372.5,319.5C 372.5,318.5 372.5,317.5 372.5,316.5C 369.592,316.262 367.258,317.262 365.5,319.5C 365.167,318.833 364.833,318.167 364.5,317.5C 365.843,314.15 367.177,310.817 368.5,307.5 Z M 369.5,311.5 C 370.776,312.386 370.776,313.386 369.5,314.5C 368.913,313.767 368.913,312.767 369.5,311.5 Z"/></g>
<g><path style="opacity:0.677" fill="#aeaeaf" d="M 446.5,307.5 C 447.675,307.281 448.675,307.614 449.5,308.5C 451.238,312.049 452.571,315.716 453.5,319.5C 451.255,317.639 448.588,316.639 445.5,316.5C 445.5,317.5 445.5,318.5 445.5,319.5C 444.127,319.657 442.793,319.49 441.5,319C 443.308,315.219 444.974,311.385 446.5,307.5 Z M 447.5,312.5 C 448.773,313.077 448.773,313.743 447.5,314.5C 446.537,314.03 446.537,313.363 447.5,312.5 Z"/></g>
<g><path style="opacity:0.044" fill="#575757" d="M 193.5,312.5 C 194.043,312.56 194.376,312.893 194.5,313.5C 192.833,314.167 191.167,314.833 189.5,315.5C 191.291,316.17 192.958,316.837 194.5,317.5C 192.5,317.5 190.5,317.5 188.5,317.5C 188.5,316.167 188.5,314.833 188.5,313.5C 190.415,313.784 192.081,313.451 193.5,312.5 Z"/></g>
<g><path style="opacity:0.78" fill="#a9a9a9" d="M 395.5,308.5 C 407.507,305.163 409.174,307.663 400.5,316C 402.974,316.113 404.974,317.113 406.5,319C 403.183,319.498 399.85,319.665 396.5,319.5C 396.862,315.797 398.529,312.797 401.5,310.5C 399.429,310.924 397.429,310.258 395.5,308.5 Z"/></g>
<g><path style="opacity:0.078" fill="#515151" d="M 416.5,312.5 C 417.774,313.189 417.774,314.023 416.5,315C 414.915,315.085 413.582,315.251 412.5,315.5C 414.291,316.17 415.958,316.837 417.5,317.5C 417.167,317.5 416.833,317.5 416.5,317.5C 414.833,317.5 413.167,317.5 411.5,317.5C 411.5,316.167 411.5,314.833 411.5,313.5C 413.415,313.784 415.081,313.451 416.5,312.5 Z"/></g>
<g><path style="opacity:0.635" fill="#adacad" d="M 262.5,311.5 C 263.422,318.092 260.422,320.592 253.5,319C 252.619,318.292 251.953,317.458 251.5,316.5C 251.34,314.801 251.506,313.134 252,311.5C 252.21,313.058 252.71,314.391 253.5,315.5C 255.379,316.341 257.379,316.675 259.5,316.5C 260.309,314.708 260.809,312.708 261,310.5C 261.383,311.056 261.883,311.389 262.5,311.5 Z"/></g>
<g><path style="opacity:0.569" fill="#818081" d="M 187.5,307.5 C 187.5,311.167 187.5,314.833 187.5,318.5C 190.059,318.802 192.393,318.468 194.5,317.5C 195.043,317.56 195.376,317.893 195.5,318.5C 192.572,319.484 189.572,319.817 186.5,319.5C 186.183,315.298 186.517,311.298 187.5,307.5 Z"/></g>
<g><path style="opacity:0.627" fill="#a3a3a3" d="M 338.5,306.5 C 346.454,308.234 348.12,312.401 343.5,319C 336.17,320.666 333.003,317.833 334,310.5C 335.397,308.93 336.897,307.596 338.5,306.5 Z M 337.5,310.5 C 342.123,309.408 343.956,311.075 343,315.5C 341.236,317.661 339.403,317.828 337.5,316C 336.248,314.172 336.248,312.339 337.5,310.5 Z"/></g>
<g><path style="opacity:0.591" fill="#787878" d="M 381.5,316.5 C 383.977,316.051 385.977,316.717 387.5,318.5C 384.691,319.8 382.024,319.8 379.5,318.5C 381.527,318.662 383.527,318.495 385.5,318C 383.942,317.79 382.609,317.29 381.5,316.5 Z"/></g>
<g><path style="opacity:0.578" fill="#a1a1a1" d="M 411.5,310.5 C 412.952,309.698 414.618,309.198 416.5,309C 414.527,308.505 412.527,308.338 410.5,308.5C 410.5,311.833 410.5,315.167 410.5,318.5C 412.735,318.795 414.735,318.461 416.5,317.5C 416.833,317.5 417.167,317.5 417.5,317.5C 415.365,319.369 412.698,320.036 409.5,319.5C 409.5,315.5 409.5,311.5 409.5,307.5C 412.167,307.5 414.833,307.5 417.5,307.5C 417.5,308.5 417.5,309.5 417.5,310.5C 415.5,310.5 413.5,310.5 411.5,310.5 Z"/></g>
</svg>
