<svg width="137" height="38" viewBox="0 0 137 38" fill="none" xmlns="http://www.w3.org/2000/svg">
<g id="TensorFlow">
<path id="Vector" d="M15.356 20.412L20.4738 17.4422L25.516 20.412L20.4738 23.3189L15.356 20.4751V20.412ZM0 11.6285L20.4839 0L35.7113 8.65743L30.6691 17.4409L20.4965 11.6273L5.14303 20.3477L0 11.6285Z" fill="white"/>
<path id="Vector_2" d="M15.3562 32.0381V26.2245L20.3984 23.3177L25.5163 20.4109V26.2245L20.4741 29.1313V34.945L15.3562 37.9148V32.0381ZM15.3562 20.4121L10.2384 17.5053L5.12061 20.3491V14.5342L20.4741 5.81372V17.441L15.3562 20.4121ZM30.5836 14.5354V11.6286L35.7015 8.65877L35.7645 14.4724L30.6467 17.4423L30.5836 14.5354Z" fill="#D3D3D3"/>
<path id="Vector_3" d="M10.2356 34.8189V17.5053L15.2778 14.6615L15.3409 20.4121L20.4587 23.2559V29.1325L15.3409 26.4148V37.9148L10.2356 34.8189ZM2.52866 18.8326L0 17.3162V11.6311L5.11782 14.5379V20.3516L2.52866 18.8326ZM20.4738 11.6286V5.81494L30.5834 11.6286L30.6464 17.4422L20.4738 11.6286Z" fill="#E7E7E7"/>
<path id="Vector_4" d="M45.6005 13.6366V26.9983H43.2521V13.6366H38.689V11.3323H50.1599V13.6353L45.6005 13.6366ZM57.935 18.4897C58.0787 19.0708 58.1427 19.6687 58.1253 20.267L50.5482 22.5133C50.6074 23.0806 50.591 22.8499 50.7688 23.2533C50.9465 23.6566 51.1722 23.9869 51.4394 24.2617C51.7066 24.5365 52.0066 24.7155 52.3218 24.8416C52.6369 24.9676 52.9987 25.0332 53.3504 25.0306C53.8546 25.0306 54.2933 24.9487 54.703 24.7848C55.1317 24.6099 55.5343 24.3766 55.8992 24.0915L57.2631 25.5664C56.7587 26.0532 56.1668 26.4403 55.5185 26.7072C54.8756 26.9757 54.1092 27.1105 53.2155 27.1105C52.5426 27.1132 51.8764 26.9763 51.2591 26.7084C50.6289 26.4399 50.0994 26.0454 49.6381 25.5235C49.1767 25.0016 48.8112 24.3613 48.5414 23.5999C48.2716 22.8385 48.138 21.9612 48.138 21.0057C48.138 20.0074 48.2641 19.1149 48.5187 18.3674C48.7733 17.6199 49.1238 16.9808 49.57 16.4551C50.0127 15.9443 50.5675 15.5426 51.1911 15.2816C51.8538 15.0076 52.5652 14.8708 53.2823 14.8795C54.1168 14.8795 54.8454 15.0358 55.4631 15.3496C56.0807 15.6635 56.5976 16.0883 57.006 16.6102C57.4307 17.1753 57.742 17.8174 57.9224 18.501L57.935 18.4897ZM55.7328 19.0191C55.7026 18.6157 55.4252 18.1367 55.1958 17.8178C54.9796 17.5329 54.6898 17.3124 54.3576 17.18C54.0147 17.0438 53.5483 16.9871 53.1386 17.0035C52.3823 17.0375 51.4999 17.3035 51.0814 17.8859C50.6629 18.4682 50.5305 19.4779 50.5469 20.5544L55.7328 19.0191ZM66.4437 26.8521V20.209C66.4437 19.0166 66.2294 18.1922 65.8058 17.7043C65.3823 17.2165 64.7886 16.9883 64.0411 16.9883C63.2658 16.9883 62.6696 17.2493 62.2511 17.7699C61.8326 18.2905 61.6246 19.0304 61.6246 19.9834V26.8483H59.309V15.1127H61.612V16.2308C61.9108 15.7984 62.3242 15.4744 62.8536 15.2248C63.3831 14.9753 63.9528 14.8668 64.5642 14.8668C65.9357 14.8668 66.9756 15.308 67.6841 16.1866C68.3925 17.0652 68.7467 18.38 68.7467 20.1221V26.8534L66.4437 26.8521ZM78.2071 23.7663C78.2071 24.4218 78.0836 24.9701 77.8378 25.4101C77.6037 25.8375 77.2699 26.202 76.8646 26.4727C76.4612 26.7412 75.9822 26.9353 75.478 27.0526C74.9309 27.1738 74.372 27.2338 73.8116 27.2315C73.0048 27.2315 72.2056 27.0904 71.4077 26.8067C70.6628 26.5507 69.9586 26.189 69.3165 25.7328L70.3552 24.0008C70.8792 24.3744 71.4556 24.6684 72.0657 24.8731C72.6544 25.0672 73.2254 25.163 73.7763 25.163C75.207 25.163 75.923 24.7306 75.923 23.8646C75.923 23.4171 75.681 23.0579 75.1969 22.7932C74.7129 22.5284 74.0448 22.2259 73.1952 21.9108C72.6455 21.7078 72.1113 21.4651 71.5968 21.1847C71.1581 20.9376 70.7989 20.6742 70.5228 20.3906C70.2566 20.1222 70.0541 19.7973 69.9304 19.4401C69.8106 19.0897 69.7514 18.6838 69.7514 18.2212C69.7514 17.6993 69.8484 17.2379 70.0413 16.8346C70.2311 16.437 70.5149 16.0918 70.8682 15.8286C71.2262 15.5601 71.6497 15.3585 72.1287 15.2236C72.6078 15.0887 73.1574 15.0219 73.7385 15.0219C74.4948 15.0219 75.2032 15.1416 75.8965 15.3799C76.5898 15.6181 77.1974 15.932 77.7193 16.319L76.7297 18.0762C76.2533 17.7333 75.7679 17.48 75.2763 17.3161C74.7847 17.1522 74.2679 17.0703 73.688 17.0703C73.1082 17.0703 72.7111 17.1711 72.4578 17.3728C72.3378 17.4621 72.2408 17.5786 72.1746 17.7127C72.1084 17.8468 72.075 17.9947 72.0771 18.1443C72.0757 18.287 72.1063 18.4283 72.1666 18.5577C72.2258 18.6838 72.338 18.8149 72.5019 18.9359C72.7068 19.096 72.9277 19.2346 73.1611 19.3493C73.515 19.5257 73.8768 19.686 74.2452 19.8296L75.9671 20.557C76.4149 20.7598 76.8327 21.0232 77.2088 21.3398C77.5336 21.6164 77.7899 21.9646 77.9575 22.357C78.1214 22.744 78.2033 23.2142 78.2033 23.7663H78.2071ZM88.9192 21.0599C88.9192 22.0305 88.7856 22.8978 88.5159 23.6655C88.2461 24.4331 87.8856 25.0823 87.3978 25.6105C86.9337 26.1305 86.3615 26.5427 85.7212 26.8181C85.091 27.0954 84.38 27.2315 83.6186 27.2315C82.8623 27.2315 82.1879 27.0866 81.5614 26.7954C80.9346 26.5032 80.3779 26.0798 79.929 25.5538C79.4664 25.018 79.1059 24.3764 78.8449 23.6302C78.584 22.8839 78.4668 22.0494 78.4668 21.1255C78.4668 20.1712 78.6004 19.3141 78.8702 18.5539C79.1399 17.7938 79.508 17.1484 79.9769 16.619C80.4299 16.0962 80.9959 15.6833 81.632 15.4114C82.2787 15.1366 82.9556 14.9979 83.6993 14.9979C84.4159 14.992 85.1254 15.1407 85.7792 15.4341C86.4136 15.7198 86.9812 16.135 87.4457 16.653C87.9158 17.1749 88.2801 17.8127 88.5423 18.5653C88.8045 19.3178 88.9205 20.1498 88.9205 21.0587L88.9192 21.0599ZM86.5935 21.1267C86.5935 19.9191 86.3414 18.9611 85.7994 18.2527C85.2573 17.5442 84.5363 17.19 83.5972 17.19C83.1906 17.1759 82.7871 17.2661 82.4252 17.4521C82.0633 17.6382 81.7551 17.9138 81.5299 18.2527C81.032 18.9624 80.7811 19.8964 80.7811 21.0599C80.7811 22.3583 81.0496 23.344 81.5879 24.0222C81.8353 24.3487 82.1572 24.6113 82.5266 24.7883C82.8961 24.9652 83.3024 25.0513 83.7119 25.0395C84.1443 25.0395 84.5388 24.9348 84.8968 24.7268C85.2579 24.515 85.5701 24.2294 85.8132 23.8886C86.0788 23.5123 86.2756 23.0919 86.3944 22.6469C86.528 22.1705 86.596 21.6637 86.596 21.1267H86.5935ZM96.3439 17.6829C96.095 17.5507 95.8325 17.4459 95.5611 17.3703C95.2926 17.2947 94.9648 17.2442 94.5778 17.2442C93.8467 17.2442 93.2795 17.4963 92.8786 18.0043C92.4778 18.5123 92.2735 19.2649 92.2735 20.2632V26.9719H89.9705V15.2311H92.2735V16.3493C92.5621 15.9435 92.941 15.6104 93.3803 15.3761C93.8634 15.1119 94.4067 14.9773 94.9573 14.9853C95.4337 14.9853 95.8396 15.0269 96.1296 15.1089C96.4203 15.185 96.6961 15.3099 96.9451 15.4782L96.3401 17.6716L96.3439 17.6829Z" fill="white"/>
<path id="Vector_5" d="M100.211 13.6365V17.7295H104.706V20.0325H100.211V26.987H97.8623V11.3322H107.947V13.6353L100.211 13.6365ZM108.329 26.9857V11.8919L110.632 10.6843V26.9882L108.329 26.9857ZM122.396 21.0611C122.396 22.0318 122.261 22.899 121.993 23.6667C121.724 24.4344 121.35 25.0835 120.875 25.6117C120.41 26.1319 119.838 26.5441 119.197 26.8193C118.554 27.0966 117.856 27.2328 117.094 27.2328C116.351 27.2328 115.664 27.0878 115.037 26.7966C114.411 26.5054 113.867 26.0907 113.405 25.555C112.942 25.0193 112.582 24.3776 112.321 23.6314C112.06 22.8852 111.943 22.0507 111.943 21.1267C111.943 20.1725 112.076 19.3153 112.346 18.5552C112.616 17.7951 112.984 17.1497 113.453 16.6202C113.922 16.0908 114.461 15.6874 115.108 15.4126C115.755 15.1378 116.431 14.9992 117.175 14.9992C117.919 14.9992 118.612 15.1441 119.255 15.4353C119.889 15.7211 120.457 16.1363 120.921 16.6543C121.392 17.1761 121.756 17.814 122.018 18.5665C122.28 19.3191 122.396 20.1523 122.396 21.0611ZM120.071 21.128C120.071 19.9204 119.819 18.9623 119.276 18.2539C118.734 17.5455 118.013 17.1913 117.074 17.1913C116.194 17.1913 115.505 17.5442 115.007 18.2539C114.509 18.9636 114.258 19.8977 114.258 21.0611C114.258 22.3595 114.527 23.3453 115.065 24.0234C115.312 24.3499 115.634 24.6126 116.004 24.7895C116.373 24.9664 116.78 25.0526 117.189 25.0407C117.605 25.0452 118.014 24.9372 118.374 24.7281C118.735 24.5162 119.047 24.2306 119.29 23.8898C119.542 23.5394 119.738 23.1259 119.87 22.6482C120.003 22.1704 120.071 21.6649 120.071 21.128ZM133.756 26.987H131.79L130.202 21.0624L129.855 19.6884L129.598 18.559L129.341 19.6998L128.994 21.0864L127.428 26.9908H125.462L122.241 15.25H124.51L125.897 20.9527L126.232 22.362L126.478 23.5255L126.768 22.362L127.126 20.9527L128.691 15.25H130.548L132.137 20.9754L132.483 22.3746L132.763 23.5268L133.02 22.3545L133.344 20.9553L134.731 15.2525H137L133.756 26.987Z" fill="white"/>
</g>
</svg>
