<svg width="149" height="147" viewBox="0 0 149 147" fill="none" xmlns="http://www.w3.org/2000/svg">
<path id="Vector" d="M74.445 146.459C28.3937 146.459 0.916992 119.011 0.916992 73.0085V0.303711H40.7022V73.2569C40.7022 98.4937 52.0659 111.286 74.4699 111.286C96.8739 111.286 107.989 98.4937 107.989 73.2569V0.303711H148.023V73.0085C148.023 119.011 120.521 146.459 74.4947 146.459H74.445ZM3.40357 2.78765V73.0085C3.40357 117.446 29.9602 143.975 74.445 143.975C118.93 143.975 145.486 117.446 145.486 73.0085V2.78765H110.426V73.2569C110.426 99.7605 97.968 113.77 74.4201 113.77C50.8723 113.77 38.1659 99.7605 38.1659 73.2569V2.78765H3.35386H3.40357Z" fill="white" fill-opacity="0.2"/>
</svg>
