<svg width="654" height="479" viewBox="0 0 654 479" fill="none" xmlns="http://www.w3.org/2000/svg">
<g filter="url(#filter0_d_254479_9370)">
<g filter="url(#filter1_bd_254479_9370)">
<rect x="62" y="40" width="474" height="298.402" rx="11.477" fill="url(#paint0_linear_254479_9370)"/>
</g>
<rect x="248.119" y="257.966" width="102.908" height="38.0678" rx="11.477" fill="#343261"/>
<path d="M275.634 271.601C276.768 271.601 277.748 271.815 278.573 272.242C279.409 272.66 280.045 273.262 280.483 274.048C280.931 274.833 281.154 275.758 281.154 276.823C281.154 277.887 280.931 278.812 280.483 279.598C280.045 280.374 279.409 280.971 278.573 281.388C277.748 281.796 276.768 282 275.634 282H272.396V271.601H275.634ZM275.634 280.881C276.977 280.881 278.001 280.528 278.707 279.822C279.414 279.106 279.767 278.106 279.767 276.823C279.767 275.53 279.409 274.52 278.693 273.794C277.986 273.068 276.967 272.705 275.634 272.705H273.754V280.881H275.634ZM283.646 272.496C283.388 272.496 283.169 272.406 282.99 272.227C282.811 272.048 282.721 271.829 282.721 271.571C282.721 271.312 282.811 271.093 282.99 270.914C283.169 270.735 283.388 270.646 283.646 270.646C283.895 270.646 284.104 270.735 284.273 270.914C284.452 271.093 284.542 271.312 284.542 271.571C284.542 271.829 284.452 272.048 284.273 272.227C284.104 272.406 283.895 272.496 283.646 272.496ZM284.303 273.824V282H282.945V273.824H284.303ZM289.511 282.134C288.885 282.134 288.323 282.03 287.825 281.821C287.328 281.602 286.935 281.304 286.647 280.926C286.358 280.538 286.199 280.095 286.169 279.598H287.572C287.612 280.006 287.801 280.339 288.139 280.598C288.487 280.856 288.94 280.985 289.497 280.985C290.014 280.985 290.422 280.871 290.72 280.642C291.018 280.413 291.168 280.125 291.168 279.777C291.168 279.419 291.008 279.155 290.69 278.986C290.372 278.807 289.879 278.633 289.213 278.464C288.606 278.305 288.109 278.146 287.721 277.986C287.343 277.817 287.015 277.574 286.736 277.255C286.468 276.927 286.333 276.499 286.333 275.972C286.333 275.555 286.458 275.172 286.706 274.823C286.955 274.475 287.308 274.202 287.766 274.003C288.223 273.794 288.746 273.69 289.332 273.69C290.238 273.69 290.969 273.918 291.526 274.376C292.083 274.833 292.381 275.46 292.421 276.256H291.063C291.033 275.828 290.859 275.485 290.541 275.226C290.233 274.968 289.815 274.838 289.288 274.838C288.8 274.838 288.412 274.943 288.124 275.152C287.835 275.361 287.691 275.634 287.691 275.972C287.691 276.241 287.776 276.465 287.945 276.644C288.124 276.813 288.343 276.952 288.601 277.061C288.87 277.161 289.238 277.275 289.705 277.405C290.292 277.564 290.77 277.723 291.138 277.882C291.506 278.031 291.819 278.26 292.078 278.568C292.346 278.877 292.486 279.28 292.495 279.777C292.495 280.225 292.371 280.627 292.122 280.985C291.874 281.344 291.521 281.627 291.063 281.836C290.616 282.035 290.098 282.134 289.511 282.134ZM304.244 273.675C304.881 273.675 305.448 273.809 305.945 274.077C306.443 274.336 306.836 274.729 307.124 275.256C307.413 275.783 307.557 276.425 307.557 277.181V282H306.214V277.375C306.214 276.559 306.01 275.937 305.602 275.51C305.204 275.072 304.662 274.853 303.976 274.853C303.27 274.853 302.708 275.082 302.29 275.54C301.872 275.987 301.663 276.639 301.663 277.494V282H300.32V277.375C300.32 276.559 300.117 275.937 299.709 275.51C299.311 275.072 298.769 274.853 298.082 274.853C297.376 274.853 296.814 275.082 296.396 275.54C295.979 275.987 295.77 276.639 295.77 277.494V282H294.412V273.824H295.77V275.002C296.038 274.575 296.396 274.247 296.844 274.018C297.302 273.789 297.804 273.675 298.351 273.675C299.037 273.675 299.644 273.829 300.171 274.137C300.698 274.445 301.091 274.898 301.35 275.495C301.579 274.918 301.957 274.47 302.484 274.152C303.011 273.834 303.598 273.675 304.244 273.675ZM310.485 272.496C310.227 272.496 310.008 272.406 309.829 272.227C309.65 272.048 309.56 271.829 309.56 271.571C309.56 271.312 309.65 271.093 309.829 270.914C310.008 270.735 310.227 270.646 310.485 270.646C310.734 270.646 310.943 270.735 311.112 270.914C311.291 271.093 311.38 271.312 311.38 271.571C311.38 271.829 311.291 272.048 311.112 272.227C310.943 272.406 310.734 272.496 310.485 272.496ZM311.142 273.824V282H309.784V273.824H311.142ZM316.35 282.134C315.724 282.134 315.162 282.03 314.664 281.821C314.167 281.602 313.774 281.304 313.485 280.926C313.197 280.538 313.038 280.095 313.008 279.598H314.411C314.45 280.006 314.639 280.339 314.977 280.598C315.326 280.856 315.778 280.985 316.335 280.985C316.852 280.985 317.26 280.871 317.559 280.642C317.857 280.413 318.006 280.125 318.006 279.777C318.006 279.419 317.847 279.155 317.529 278.986C317.211 278.807 316.718 278.633 316.052 278.464C315.445 278.305 314.948 278.146 314.56 277.986C314.182 277.817 313.854 277.574 313.575 277.255C313.306 276.927 313.172 276.499 313.172 275.972C313.172 275.555 313.297 275.172 313.545 274.823C313.794 274.475 314.147 274.202 314.604 274.003C315.062 273.794 315.584 273.69 316.171 273.69C317.076 273.69 317.807 273.918 318.364 274.376C318.921 274.833 319.22 275.46 319.26 276.256H317.902C317.872 275.828 317.698 275.485 317.38 275.226C317.071 274.968 316.654 274.838 316.126 274.838C315.639 274.838 315.251 274.943 314.963 275.152C314.674 275.361 314.53 275.634 314.53 275.972C314.53 276.241 314.614 276.465 314.784 276.644C314.963 276.813 315.181 276.952 315.44 277.061C315.709 277.161 316.077 277.275 316.544 277.405C317.131 277.564 317.608 277.723 317.976 277.882C318.344 278.031 318.658 278.26 318.916 278.568C319.185 278.877 319.324 279.28 319.334 279.777C319.334 280.225 319.21 280.627 318.961 280.985C318.712 281.344 318.359 281.627 317.902 281.836C317.454 282.035 316.937 282.134 316.35 282.134ZM324.145 282.134C323.519 282.134 322.957 282.03 322.459 281.821C321.962 281.602 321.569 281.304 321.281 280.926C320.992 280.538 320.833 280.095 320.803 279.598H322.206C322.245 280.006 322.434 280.339 322.773 280.598C323.121 280.856 323.573 280.985 324.13 280.985C324.648 280.985 325.055 280.871 325.354 280.642C325.652 280.413 325.801 280.125 325.801 279.777C325.801 279.419 325.642 279.155 325.324 278.986C325.006 278.807 324.513 278.633 323.847 278.464C323.24 278.305 322.743 278.146 322.355 277.986C321.977 277.817 321.649 277.574 321.37 277.255C321.102 276.927 320.967 276.499 320.967 275.972C320.967 275.555 321.092 275.172 321.34 274.823C321.589 274.475 321.942 274.202 322.4 274.003C322.857 273.794 323.379 273.69 323.966 273.69C324.871 273.69 325.603 273.918 326.16 274.376C326.717 274.833 327.015 275.46 327.055 276.256H325.697C325.667 275.828 325.493 275.485 325.175 275.226C324.866 274.968 324.449 274.838 323.922 274.838C323.434 274.838 323.046 274.943 322.758 275.152C322.469 275.361 322.325 275.634 322.325 275.972C322.325 276.241 322.41 276.465 322.579 276.644C322.758 276.813 322.977 276.952 323.235 277.061C323.504 277.161 323.872 277.275 324.339 277.405C324.926 277.564 325.404 277.723 325.772 277.882C326.14 278.031 326.453 278.26 326.712 278.568C326.98 278.877 327.119 279.28 327.129 279.777C327.129 280.225 327.005 280.627 326.756 280.985C326.508 281.344 326.155 281.627 325.697 281.836C325.249 282.035 324.732 282.134 324.145 282.134Z" fill="white"/>
<path d="M265.627 231.096C264.993 231.096 264.424 230.986 263.919 230.766C263.423 230.536 263.033 230.224 262.748 229.829C262.464 229.425 262.317 228.962 262.308 228.438H263.644C263.69 228.888 263.873 229.269 264.195 229.581C264.525 229.884 265.003 230.036 265.627 230.036C266.224 230.036 266.692 229.889 267.032 229.595C267.381 229.292 267.555 228.907 267.555 228.438C267.555 228.071 267.454 227.773 267.252 227.543C267.05 227.314 266.798 227.139 266.495 227.02C266.192 226.9 265.783 226.772 265.269 226.634C264.635 226.469 264.126 226.304 263.74 226.138C263.364 225.973 263.038 225.716 262.762 225.367C262.496 225.009 262.363 224.532 262.363 223.935C262.363 223.411 262.496 222.948 262.762 222.544C263.028 222.14 263.4 221.828 263.878 221.607C264.364 221.387 264.92 221.277 265.544 221.277C266.444 221.277 267.179 221.502 267.748 221.952C268.326 222.401 268.652 222.998 268.726 223.742H267.348C267.302 223.375 267.11 223.053 266.77 222.778C266.43 222.493 265.98 222.351 265.42 222.351C264.897 222.351 264.47 222.489 264.139 222.764C263.809 223.03 263.644 223.407 263.644 223.893C263.644 224.242 263.74 224.527 263.933 224.747C264.135 224.968 264.378 225.138 264.663 225.257C264.957 225.367 265.365 225.496 265.889 225.643C266.522 225.817 267.032 225.991 267.417 226.166C267.803 226.331 268.133 226.593 268.409 226.951C268.684 227.3 268.822 227.777 268.822 228.383C268.822 228.852 268.698 229.292 268.45 229.705C268.202 230.119 267.835 230.454 267.348 230.711C266.862 230.968 266.288 231.096 265.627 231.096ZM277.553 226.937C277.553 227.176 277.539 227.428 277.511 227.695H271.479C271.525 228.438 271.777 229.021 272.236 229.444C272.705 229.857 273.269 230.063 273.93 230.063C274.472 230.063 274.922 229.94 275.28 229.692C275.647 229.435 275.904 229.095 276.051 228.672H277.401C277.199 229.398 276.795 229.99 276.189 230.449C275.583 230.899 274.83 231.124 273.93 231.124C273.214 231.124 272.572 230.963 272.002 230.642C271.442 230.321 271.001 229.866 270.68 229.278C270.359 228.682 270.198 227.993 270.198 227.213C270.198 226.432 270.354 225.748 270.666 225.161C270.979 224.573 271.415 224.123 271.975 223.811C272.544 223.489 273.196 223.329 273.93 223.329C274.647 223.329 275.28 223.485 275.831 223.797C276.382 224.109 276.804 224.541 277.098 225.092C277.401 225.633 277.553 226.249 277.553 226.937ZM276.258 226.675C276.258 226.198 276.152 225.789 275.941 225.45C275.73 225.101 275.441 224.839 275.074 224.665C274.715 224.481 274.316 224.389 273.875 224.389C273.242 224.389 272.7 224.591 272.25 224.995C271.809 225.399 271.557 225.959 271.493 226.675H276.258ZM286.093 226.937C286.093 227.176 286.079 227.428 286.052 227.695H280.019C280.065 228.438 280.318 229.021 280.777 229.444C281.245 229.857 281.81 230.063 282.471 230.063C283.013 230.063 283.463 229.94 283.821 229.692C284.188 229.435 284.445 229.095 284.592 228.672H285.942C285.74 229.398 285.336 229.99 284.73 230.449C284.124 230.899 283.371 231.124 282.471 231.124C281.755 231.124 281.112 230.963 280.543 230.642C279.983 230.321 279.542 229.866 279.221 229.278C278.899 228.682 278.739 227.993 278.739 227.213C278.739 226.432 278.895 225.748 279.207 225.161C279.519 224.573 279.955 224.123 280.515 223.811C281.084 223.489 281.736 223.329 282.471 223.329C283.187 223.329 283.821 223.485 284.372 223.797C284.922 224.109 285.345 224.541 285.639 225.092C285.942 225.633 286.093 226.249 286.093 226.937ZM284.798 226.675C284.798 226.198 284.693 225.789 284.482 225.45C284.271 225.101 283.981 224.839 283.614 224.665C283.256 224.481 282.857 224.389 282.416 224.389C281.782 224.389 281.241 224.591 280.791 224.995C280.35 225.399 280.097 225.959 280.033 226.675H284.798ZM295.165 223.315C295.734 223.315 296.249 223.439 296.708 223.687C297.167 223.926 297.525 224.288 297.782 224.775C298.048 225.262 298.181 225.854 298.181 226.552V231H296.942V226.731C296.942 225.978 296.754 225.404 296.377 225.009C296.001 224.605 295.487 224.403 294.835 224.403C294.174 224.403 293.646 224.61 293.251 225.023C292.865 225.436 292.672 226.037 292.672 226.827V231H291.419V220.808H292.672V224.527C292.92 224.141 293.26 223.843 293.692 223.632C294.132 223.421 294.623 223.315 295.165 223.315ZM300.876 222.227C300.637 222.227 300.435 222.144 300.27 221.979C300.105 221.814 300.022 221.612 300.022 221.373C300.022 221.134 300.105 220.932 300.27 220.767C300.435 220.602 300.637 220.519 300.876 220.519C301.105 220.519 301.298 220.602 301.454 220.767C301.62 220.932 301.702 221.134 301.702 221.373C301.702 221.612 301.62 221.814 301.454 221.979C301.298 222.144 301.105 222.227 300.876 222.227ZM301.482 223.453V231H300.229V223.453H301.482ZM306.29 231.124C305.711 231.124 305.193 231.028 304.733 230.835C304.274 230.633 303.912 230.357 303.645 230.008C303.379 229.65 303.232 229.242 303.205 228.783H304.499C304.536 229.159 304.711 229.467 305.023 229.705C305.344 229.944 305.762 230.063 306.276 230.063C306.753 230.063 307.13 229.958 307.405 229.747C307.681 229.536 307.818 229.269 307.818 228.948C307.818 228.617 307.672 228.374 307.378 228.218C307.084 228.053 306.629 227.892 306.014 227.736C305.454 227.589 304.995 227.442 304.637 227.295C304.288 227.139 303.985 226.914 303.728 226.62C303.48 226.317 303.356 225.923 303.356 225.436C303.356 225.05 303.471 224.697 303.701 224.375C303.93 224.054 304.256 223.802 304.678 223.618C305.101 223.425 305.583 223.329 306.124 223.329C306.96 223.329 307.635 223.54 308.149 223.962C308.663 224.385 308.939 224.963 308.975 225.698H307.722C307.695 225.303 307.534 224.986 307.24 224.747C306.955 224.509 306.57 224.389 306.083 224.389C305.633 224.389 305.275 224.486 305.009 224.678C304.743 224.871 304.61 225.124 304.61 225.436C304.61 225.684 304.688 225.89 304.844 226.056C305.009 226.212 305.211 226.34 305.45 226.441C305.698 226.533 306.037 226.639 306.469 226.758C307.01 226.905 307.451 227.052 307.791 227.199C308.131 227.337 308.42 227.548 308.659 227.832C308.906 228.117 309.035 228.489 309.044 228.948C309.044 229.361 308.929 229.733 308.7 230.063C308.47 230.394 308.144 230.656 307.722 230.849C307.309 231.032 306.831 231.124 306.29 231.124ZM312.342 224.486V228.934C312.342 229.301 312.42 229.563 312.576 229.719C312.732 229.866 313.003 229.94 313.389 229.94H314.312V231H313.182C312.484 231 311.961 230.839 311.612 230.518C311.263 230.197 311.089 229.669 311.089 228.934V224.486H310.111V223.453H311.089V221.552H312.342V223.453H314.312V224.486H312.342ZM319.122 231.124C318.415 231.124 317.772 230.963 317.194 230.642C316.624 230.321 316.174 229.866 315.844 229.278C315.523 228.682 315.362 227.993 315.362 227.213C315.362 226.441 315.527 225.762 315.858 225.174C316.197 224.577 316.656 224.123 317.235 223.811C317.813 223.489 318.461 223.329 319.177 223.329C319.893 223.329 320.54 223.489 321.119 223.811C321.697 224.123 322.152 224.573 322.482 225.161C322.822 225.748 322.992 226.432 322.992 227.213C322.992 227.993 322.817 228.682 322.468 229.278C322.129 229.866 321.665 230.321 321.077 230.642C320.49 230.963 319.838 231.124 319.122 231.124ZM319.122 230.022C319.572 230.022 319.994 229.917 320.389 229.705C320.784 229.494 321.1 229.177 321.339 228.755C321.587 228.333 321.711 227.819 321.711 227.213C321.711 226.607 321.592 226.092 321.353 225.67C321.114 225.248 320.802 224.936 320.416 224.734C320.031 224.522 319.613 224.417 319.163 224.417C318.704 224.417 318.282 224.522 317.896 224.734C317.52 224.936 317.217 225.248 316.987 225.67C316.757 226.092 316.643 226.607 316.643 227.213C316.643 227.828 316.753 228.347 316.973 228.769C317.203 229.191 317.506 229.508 317.882 229.719C318.259 229.921 318.672 230.022 319.122 230.022ZM325.893 224.678C326.113 224.247 326.425 223.912 326.829 223.673C327.243 223.434 327.743 223.315 328.331 223.315V224.61H328C326.595 224.61 325.893 225.372 325.893 226.896V231H324.64V223.453H325.893V224.678ZM336.278 223.453L331.733 234.553H330.438L331.926 230.917L328.882 223.453H330.273L332.642 229.568L334.983 223.453H336.278Z" fill="#030046"/>
<path d="M191.145 186.801L187.498 193.774V198H186.035V193.774L182.372 186.801H183.995L186.758 192.473L189.522 186.801H191.145ZM196.527 198.145C195.703 198.145 194.953 197.957 194.278 197.582C193.614 197.207 193.089 196.677 192.703 195.992C192.328 195.295 192.141 194.492 192.141 193.581C192.141 192.682 192.334 191.889 192.719 191.203C193.116 190.507 193.651 189.977 194.326 189.613C195.001 189.238 195.756 189.05 196.592 189.05C197.427 189.05 198.182 189.238 198.857 189.613C199.532 189.977 200.062 190.502 200.448 191.187C200.844 191.873 201.042 192.671 201.042 193.581C201.042 194.492 200.839 195.295 200.432 195.992C200.036 196.677 199.495 197.207 198.809 197.582C198.123 197.957 197.363 198.145 196.527 198.145ZM196.527 196.859C197.052 196.859 197.545 196.736 198.006 196.49C198.466 196.243 198.836 195.874 199.114 195.381C199.404 194.888 199.548 194.288 199.548 193.581C199.548 192.874 199.409 192.275 199.13 191.782C198.852 191.289 198.488 190.925 198.038 190.689C197.588 190.443 197.1 190.32 196.576 190.32C196.04 190.32 195.547 190.443 195.097 190.689C194.658 190.925 194.305 191.289 194.037 191.782C193.769 192.275 193.635 192.874 193.635 193.581C193.635 194.299 193.764 194.904 194.021 195.397C194.289 195.89 194.642 196.259 195.081 196.506C195.52 196.741 196.002 196.859 196.527 196.859ZM210.774 189.195V198H209.312V196.699C209.033 197.148 208.642 197.502 208.139 197.759C207.646 198.005 207.1 198.129 206.5 198.129C205.814 198.129 205.198 197.989 204.652 197.711C204.106 197.422 203.672 196.993 203.351 196.425C203.04 195.858 202.885 195.167 202.885 194.353V189.195H204.331V194.16C204.331 195.027 204.55 195.697 204.989 196.168C205.429 196.629 206.029 196.859 206.789 196.859C207.571 196.859 208.187 196.618 208.637 196.136C209.087 195.654 209.312 194.952 209.312 194.031V189.195H210.774ZM218.314 187.765C218.035 187.765 217.8 187.668 217.607 187.476C217.425 187.283 217.334 187.047 217.334 186.769C217.334 186.49 217.425 186.254 217.607 186.062C217.8 185.869 218.035 185.772 218.314 185.772C218.592 185.772 218.822 185.869 219.005 186.062C219.197 186.254 219.294 186.49 219.294 186.769C219.294 187.047 219.197 187.283 219.005 187.476C218.822 187.668 218.592 187.765 218.314 187.765ZM219.037 199.912C219.037 200.694 218.839 201.267 218.442 201.631C218.046 201.996 217.467 202.178 216.707 202.178H215.855V200.94H216.466C216.873 200.94 217.157 200.86 217.317 200.699C217.489 200.539 217.575 200.266 217.575 199.88V189.195H219.037V199.912ZM229.321 189.195V198H227.859V196.699C227.58 197.148 227.189 197.502 226.686 197.759C226.193 198.005 225.647 198.129 225.047 198.129C224.361 198.129 223.745 197.989 223.199 197.711C222.653 197.422 222.219 196.993 221.898 196.425C221.587 195.858 221.432 195.167 221.432 194.353V189.195H222.878V194.16C222.878 195.027 223.097 195.697 223.536 196.168C223.976 196.629 224.576 196.859 225.336 196.859C226.118 196.859 226.734 196.618 227.184 196.136C227.634 195.654 227.859 194.952 227.859 194.031V189.195H229.321ZM234.907 198.145C234.232 198.145 233.627 198.032 233.091 197.807C232.556 197.572 232.132 197.25 231.822 196.843C231.511 196.425 231.34 195.949 231.308 195.413H232.818C232.861 195.852 233.064 196.211 233.429 196.49C233.803 196.768 234.291 196.907 234.891 196.907C235.448 196.907 235.887 196.784 236.208 196.538C236.53 196.291 236.69 195.981 236.69 195.606C236.69 195.22 236.519 194.936 236.176 194.754C235.833 194.561 235.303 194.374 234.585 194.192C233.932 194.021 233.396 193.849 232.979 193.678C232.572 193.496 232.218 193.233 231.918 192.89C231.629 192.537 231.484 192.076 231.484 191.509C231.484 191.059 231.618 190.646 231.886 190.271C232.154 189.896 232.534 189.602 233.027 189.388C233.52 189.163 234.082 189.05 234.714 189.05C235.689 189.05 236.476 189.297 237.076 189.789C237.676 190.282 237.997 190.957 238.04 191.814H236.578C236.546 191.353 236.358 190.984 236.015 190.705C235.683 190.427 235.234 190.287 234.666 190.287C234.141 190.287 233.723 190.4 233.413 190.625C233.102 190.85 232.947 191.144 232.947 191.509C232.947 191.798 233.038 192.039 233.22 192.232C233.413 192.414 233.648 192.564 233.927 192.682C234.216 192.789 234.612 192.912 235.116 193.051C235.748 193.223 236.262 193.394 236.658 193.565C237.055 193.726 237.392 193.972 237.67 194.304C237.96 194.636 238.11 195.07 238.12 195.606C238.12 196.088 237.986 196.522 237.719 196.907C237.451 197.293 237.071 197.598 236.578 197.823C236.096 198.037 235.539 198.145 234.907 198.145ZM241.968 190.4V195.59C241.968 196.018 242.059 196.324 242.241 196.506C242.423 196.677 242.739 196.763 243.189 196.763H244.266V198H242.948C242.134 198 241.523 197.813 241.116 197.438C240.709 197.063 240.506 196.447 240.506 195.59V190.4H239.365V189.195H240.506V186.977H241.968V189.195H244.266V190.4H241.968ZM258.355 193.26C258.355 193.539 258.339 193.833 258.307 194.144H251.269C251.323 195.011 251.617 195.692 252.153 196.184C252.699 196.666 253.358 196.907 254.129 196.907C254.761 196.907 255.286 196.763 255.704 196.474C256.132 196.174 256.432 195.777 256.603 195.285H258.178C257.942 196.131 257.471 196.822 256.764 197.357C256.057 197.882 255.179 198.145 254.129 198.145C253.294 198.145 252.544 197.957 251.88 197.582C251.226 197.207 250.712 196.677 250.337 195.992C249.962 195.295 249.775 194.492 249.775 193.581C249.775 192.671 249.957 191.873 250.321 191.187C250.685 190.502 251.194 189.977 251.847 189.613C252.512 189.238 253.272 189.05 254.129 189.05C254.965 189.05 255.704 189.232 256.346 189.597C256.989 189.961 257.482 190.464 257.825 191.107C258.178 191.739 258.355 192.457 258.355 193.26ZM256.845 192.955C256.845 192.398 256.721 191.921 256.475 191.525C256.229 191.118 255.891 190.812 255.463 190.609C255.045 190.395 254.579 190.287 254.065 190.287C253.326 190.287 252.694 190.523 252.169 190.994C251.655 191.466 251.36 192.119 251.285 192.955H256.845ZM259.739 193.565C259.739 192.665 259.921 191.878 260.285 191.203C260.649 190.518 261.147 189.988 261.779 189.613C262.422 189.238 263.134 189.05 263.916 189.05C264.687 189.05 265.357 189.216 265.925 189.548C266.492 189.88 266.916 190.298 267.194 190.802V189.195H268.672V198H267.194V196.361C266.905 196.875 266.471 197.304 265.893 197.647C265.325 197.979 264.661 198.145 263.9 198.145C263.118 198.145 262.411 197.952 261.779 197.566C261.147 197.181 260.649 196.64 260.285 195.943C259.921 195.247 259.739 194.454 259.739 193.565ZM267.194 193.581C267.194 192.917 267.06 192.339 266.792 191.846C266.525 191.353 266.16 190.978 265.7 190.721C265.25 190.453 264.752 190.32 264.205 190.32C263.659 190.32 263.161 190.448 262.711 190.705C262.261 190.962 261.902 191.337 261.635 191.83C261.367 192.323 261.233 192.901 261.233 193.565C261.233 194.24 261.367 194.829 261.635 195.333C261.902 195.825 262.261 196.206 262.711 196.474C263.161 196.731 263.659 196.859 264.205 196.859C264.752 196.859 265.25 196.731 265.7 196.474C266.16 196.206 266.525 195.825 266.792 195.333C267.06 194.829 267.194 194.245 267.194 193.581ZM272.605 190.625C272.862 190.121 273.227 189.73 273.698 189.452C274.18 189.173 274.764 189.034 275.449 189.034V190.545H275.064C273.425 190.545 272.605 191.434 272.605 193.212V198H271.143V189.195H272.605V190.625ZM281.427 189.034C282.499 189.034 283.366 189.361 284.03 190.014C284.694 190.657 285.027 191.589 285.027 192.81V198H283.58V193.019C283.58 192.141 283.361 191.471 282.922 191.011C282.482 190.539 281.883 190.304 281.122 190.304C280.351 190.304 279.735 190.545 279.274 191.027C278.824 191.509 278.599 192.21 278.599 193.131V198H277.137V189.195H278.599V190.448C278.889 189.998 279.28 189.65 279.772 189.404C280.276 189.157 280.827 189.034 281.427 189.034ZM295.449 193.26C295.449 193.539 295.433 193.833 295.401 194.144H288.363C288.417 195.011 288.711 195.692 289.247 196.184C289.793 196.666 290.452 196.907 291.223 196.907C291.855 196.907 292.38 196.763 292.798 196.474C293.226 196.174 293.526 195.777 293.697 195.285H295.272C295.036 196.131 294.565 196.822 293.858 197.357C293.151 197.882 292.273 198.145 291.223 198.145C290.388 198.145 289.638 197.957 288.974 197.582C288.32 197.207 287.806 196.677 287.431 195.992C287.056 195.295 286.869 194.492 286.869 193.581C286.869 192.671 287.051 191.873 287.415 191.187C287.779 190.502 288.288 189.977 288.941 189.613C289.606 189.238 290.366 189.05 291.223 189.05C292.059 189.05 292.798 189.232 293.44 189.597C294.083 189.961 294.576 190.464 294.919 191.107C295.272 191.739 295.449 192.457 295.449 193.26ZM293.939 192.955C293.939 192.398 293.815 191.921 293.569 191.525C293.323 191.118 292.985 190.812 292.557 190.609C292.139 190.395 291.673 190.287 291.159 190.287C290.42 190.287 289.788 190.523 289.263 190.994C288.749 191.466 288.454 192.119 288.379 192.955H293.939ZM296.833 193.565C296.833 192.665 297.015 191.878 297.379 191.203C297.743 190.518 298.241 189.988 298.873 189.613C299.516 189.238 300.234 189.05 301.026 189.05C301.712 189.05 302.349 189.211 302.938 189.532C303.528 189.843 303.977 190.255 304.288 190.769V186.11H305.766V198H304.288V196.345C303.999 196.87 303.57 197.304 303.003 197.647C302.435 197.979 301.771 198.145 301.01 198.145C300.228 198.145 299.516 197.952 298.873 197.566C298.241 197.181 297.743 196.64 297.379 195.943C297.015 195.247 296.833 194.454 296.833 193.565ZM304.288 193.581C304.288 192.917 304.154 192.339 303.886 191.846C303.619 191.353 303.254 190.978 302.794 190.721C302.344 190.453 301.846 190.32 301.299 190.32C300.753 190.32 300.255 190.448 299.805 190.705C299.355 190.962 298.996 191.337 298.729 191.83C298.461 192.323 298.327 192.901 298.327 193.565C298.327 194.24 298.461 194.829 298.729 195.333C298.996 195.825 299.355 196.206 299.805 196.474C300.255 196.731 300.753 196.859 301.299 196.859C301.846 196.859 302.344 196.731 302.794 196.474C303.254 196.206 303.619 195.825 303.886 195.333C304.154 194.829 304.288 194.245 304.288 193.581Z" fill="#030046"/>
<path d="M386.788 198.112C386.049 198.112 385.385 197.984 384.796 197.727C384.217 197.459 383.762 197.095 383.43 196.634C383.098 196.163 382.927 195.622 382.916 195.011H384.474C384.528 195.536 384.742 195.981 385.117 196.345C385.503 196.699 386.06 196.875 386.788 196.875C387.484 196.875 388.031 196.704 388.427 196.361C388.834 196.008 389.038 195.558 389.038 195.011C389.038 194.583 388.92 194.235 388.684 193.967C388.449 193.699 388.154 193.496 387.8 193.356C387.447 193.217 386.97 193.067 386.37 192.907C385.631 192.714 385.037 192.521 384.587 192.328C384.148 192.135 383.767 191.835 383.446 191.428C383.135 191.011 382.98 190.453 382.98 189.757C382.98 189.147 383.135 188.606 383.446 188.134C383.757 187.663 384.191 187.299 384.748 187.042C385.315 186.785 385.963 186.656 386.692 186.656C387.742 186.656 388.599 186.919 389.263 187.443C389.937 187.968 390.318 188.665 390.403 189.532H388.797C388.743 189.104 388.518 188.729 388.122 188.408C387.725 188.075 387.201 187.909 386.547 187.909C385.937 187.909 385.439 188.07 385.053 188.391C384.667 188.702 384.474 189.141 384.474 189.709C384.474 190.116 384.587 190.448 384.812 190.705C385.048 190.962 385.331 191.16 385.663 191.3C386.006 191.428 386.483 191.578 387.093 191.75C387.833 191.953 388.427 192.157 388.877 192.36C389.327 192.553 389.713 192.858 390.034 193.276C390.355 193.683 390.516 194.24 390.516 194.947C390.516 195.493 390.371 196.008 390.082 196.49C389.793 196.972 389.364 197.363 388.797 197.663C388.229 197.963 387.559 198.112 386.788 198.112ZM398.741 198L394.13 192.89V198H392.668V186.801H394.13V191.991L398.757 186.801H400.605L395.528 192.408L400.653 198H398.741ZM408.906 195.509H404.022L403.122 198H401.579L405.628 186.865H407.316L411.349 198H409.806L408.906 195.509ZM408.489 194.32L406.464 188.665L404.439 194.32H408.489ZM414.575 186.801V198H413.113V186.801H414.575Z" fill="#030046"/>
<path d="M312.611 195.799C312.975 195.509 313.141 195.376 313.109 195.397C314.159 194.529 314.983 193.817 315.583 193.26C316.194 192.703 316.708 192.119 317.126 191.509C317.543 190.898 317.752 190.304 317.752 189.725C317.752 189.286 317.651 188.943 317.447 188.697C317.244 188.45 316.938 188.327 316.531 188.327C316.124 188.327 315.803 188.483 315.567 188.793C315.342 189.093 315.23 189.522 315.23 190.079H312.579C312.6 189.168 312.793 188.408 313.157 187.797C313.532 187.186 314.019 186.736 314.619 186.447C315.23 186.158 315.905 186.013 316.644 186.013C317.918 186.013 318.877 186.34 319.52 186.994C320.173 187.647 320.5 188.499 320.5 189.548C320.5 190.695 320.109 191.76 319.327 192.746C318.545 193.721 317.549 194.674 316.338 195.606H320.677V197.839H312.611V195.799ZM321.983 189.58C322.026 188.434 322.401 187.551 323.108 186.929C323.815 186.308 324.773 185.997 325.984 185.997C326.787 185.997 327.473 186.137 328.04 186.415C328.619 186.694 329.053 187.074 329.342 187.556C329.642 188.038 329.792 188.579 329.792 189.179C329.792 189.886 329.615 190.464 329.262 190.914C328.908 191.353 328.496 191.653 328.024 191.814V191.878C328.635 192.082 329.117 192.419 329.47 192.89C329.824 193.362 330.001 193.967 330.001 194.706C330.001 195.37 329.845 195.959 329.535 196.474C329.235 196.977 328.79 197.373 328.201 197.663C327.623 197.952 326.932 198.096 326.128 198.096C324.843 198.096 323.815 197.78 323.043 197.148C322.283 196.516 321.881 195.563 321.838 194.288H324.505C324.516 194.76 324.65 195.135 324.907 195.413C325.164 195.681 325.539 195.815 326.032 195.815C326.45 195.815 326.771 195.697 326.996 195.461C327.232 195.215 327.349 194.894 327.349 194.497C327.349 193.983 327.183 193.613 326.851 193.389C326.53 193.153 326.01 193.035 325.293 193.035H324.779V190.802H325.293C325.839 190.802 326.278 190.711 326.61 190.528C326.953 190.336 327.125 189.998 327.125 189.516C327.125 189.131 327.017 188.831 326.803 188.616C326.589 188.402 326.294 188.295 325.919 188.295C325.512 188.295 325.207 188.418 325.004 188.665C324.811 188.911 324.698 189.216 324.666 189.58H321.983ZM331.679 195.911V193.694L336.757 186.431H339.826V193.533H341.143V195.911H339.826V198H337.078V195.911H331.679ZM337.271 189.452L334.571 193.533H337.271V189.452ZM342.585 189.58C342.628 188.434 343.003 187.551 343.71 186.929C344.417 186.308 345.376 185.997 346.586 185.997C347.39 185.997 348.075 186.137 348.643 186.415C349.221 186.694 349.655 187.074 349.944 187.556C350.244 188.038 350.394 188.579 350.394 189.179C350.394 189.886 350.218 190.464 349.864 190.914C349.511 191.353 349.098 191.653 348.627 191.814V191.878C349.237 192.082 349.719 192.419 350.073 192.89C350.426 193.362 350.603 193.967 350.603 194.706C350.603 195.37 350.448 195.959 350.137 196.474C349.837 196.977 349.393 197.373 348.804 197.663C348.225 197.952 347.534 198.096 346.731 198.096C345.445 198.096 344.417 197.78 343.646 197.148C342.885 196.516 342.484 195.563 342.441 194.288H345.108C345.119 194.76 345.253 195.135 345.51 195.413C345.767 195.681 346.142 195.815 346.634 195.815C347.052 195.815 347.374 195.697 347.599 195.461C347.834 195.215 347.952 194.894 347.952 194.497C347.952 193.983 347.786 193.613 347.454 193.389C347.133 193.153 346.613 193.035 345.895 193.035H345.381V190.802H345.895C346.442 190.802 346.881 190.711 347.213 190.528C347.556 190.336 347.727 189.998 347.727 189.516C347.727 189.131 347.62 188.831 347.406 188.616C347.191 188.402 346.897 188.295 346.522 188.295C346.115 188.295 345.81 188.418 345.606 188.665C345.413 188.911 345.301 189.216 345.269 189.58H342.585ZM355.447 195.461L353.664 200.073H351.912L352.844 195.461H355.447ZM356.831 191.975C356.831 190.132 357.184 188.681 357.891 187.62C358.609 186.56 359.76 186.029 361.346 186.029C362.931 186.029 364.077 186.56 364.784 187.62C365.502 188.681 365.861 190.132 365.861 191.975C365.861 193.838 365.502 195.301 364.784 196.361C364.077 197.422 362.931 197.952 361.346 197.952C359.76 197.952 358.609 197.422 357.891 196.361C357.184 195.301 356.831 193.838 356.831 191.975ZM363.161 191.975C363.161 190.893 363.044 190.063 362.808 189.484C362.572 188.895 362.085 188.6 361.346 188.6C360.607 188.6 360.119 188.895 359.884 189.484C359.648 190.063 359.53 190.893 359.53 191.975C359.53 192.703 359.573 193.308 359.659 193.79C359.744 194.262 359.916 194.647 360.173 194.947C360.441 195.236 360.832 195.381 361.346 195.381C361.86 195.381 362.246 195.236 362.503 194.947C362.77 194.647 362.947 194.262 363.033 193.79C363.119 193.308 363.161 192.703 363.161 191.975ZM367.312 191.975C367.312 190.132 367.666 188.681 368.373 187.62C369.091 186.56 370.242 186.029 371.828 186.029C373.413 186.029 374.559 186.56 375.266 187.62C375.984 188.681 376.343 190.132 376.343 191.975C376.343 193.838 375.984 195.301 375.266 196.361C374.559 197.422 373.413 197.952 371.828 197.952C370.242 197.952 369.091 197.422 368.373 196.361C367.666 195.301 367.312 193.838 367.312 191.975ZM373.643 191.975C373.643 190.893 373.525 190.063 373.29 189.484C373.054 188.895 372.567 188.6 371.828 188.6C371.088 188.6 370.601 188.895 370.365 189.484C370.13 190.063 370.012 190.893 370.012 191.975C370.012 192.703 370.055 193.308 370.14 193.79C370.226 194.262 370.397 194.647 370.655 194.947C370.922 195.236 371.313 195.381 371.828 195.381C372.342 195.381 372.727 195.236 372.984 194.947C373.252 194.647 373.429 194.262 373.515 193.79C373.6 193.308 373.643 192.703 373.643 191.975Z" fill="#02012D"/>
<g opacity="0.24" filter="url(#filter2_f_254479_9370)">
<ellipse cx="332.903" cy="103.282" rx="20.0966" ry="18.6355" fill="#FF7EFA"/>
</g>
<path d="M298.055 159.83L318.486 148.607V126.566L298.055 138.13V159.83Z" fill="url(#paint1_linear_254479_9370)"/>
<path d="M298.067 160L278.537 149.632V126.884L298.067 138.32V160Z" fill="url(#paint2_linear_254479_9370)"/>
<path opacity="0.4" d="M294.97 154.752L281.631 147.671V132.133L294.97 139.944V154.752Z" stroke="url(#paint3_linear_254479_9370)" stroke-width="0.991613"/>
<path opacity="0.405357" d="M298.467 132.269L288.429 126.875L247 58H300.2L307.071 126.875L298.467 132.269Z" fill="url(#paint4_linear_254479_9370)"/>
<path opacity="0.405357" d="M307.071 126.945L327.147 63.0518H288.43L302.769 134.932L307.071 126.945Z" fill="url(#paint5_linear_254479_9370)"/>
<path d="M317.304 100.329C319.705 98.8579 321.396 98.6977 322.426 99.3794L324.053 100.178L323.672 100.693C324.916 104.181 321.705 112.134 314.966 115.915C313.547 116.711 312.383 117.11 311.454 117.192L311.101 117.669L309.927 116.965C306.369 115.255 309.735 104.965 317.304 100.329Z" fill="#D7911D"/>
<path d="M319.262 101.082C309.408 107.142 306.157 122.75 316.627 116.852C327.096 110.954 329.115 95.0214 319.262 101.082Z" fill="url(#paint6_linear_254479_9370)"/>
<path opacity="0.4" d="M318.736 103.477C311.68 107.958 309.492 119.161 316.989 114.8C324.485 110.438 325.792 98.9949 318.736 103.477Z" stroke="#D7911D" stroke-width="0.57385"/>
<path d="M268.018 97.1388C265.187 97.5652 263.574 97.0656 262.927 96.0491L261.787 94.6984L262.358 94.3737C262.732 90.712 269.11 84.6729 276.903 83.7932C278.544 83.608 279.781 83.6879 280.665 83.9683L281.194 83.6676L281.961 84.759C284.471 87.6806 276.94 95.7949 268.018 97.1388Z" fill="#D7911D"/>
<path d="M266.556 95.7022C278.182 93.93 287.911 80.913 275.792 82.3017C263.673 83.6904 254.93 97.4744 266.556 95.7022Z" fill="url(#paint7_linear_254479_9370)"/>
<path opacity="0.4" d="M268.073 93.7173C276.46 92.3185 283.311 82.92 274.573 84.0408C265.836 85.1615 259.687 95.1161 268.073 93.7173Z" stroke="#D7911D" stroke-width="0.57385"/>
<path d="M311.435 78.3749C311.426 76.5342 311.972 75.6007 312.795 75.3545L313.92 74.8507L314.099 75.2597C316.772 76.0665 320.554 81.008 320.358 86.0306C320.317 87.088 320.124 87.8511 319.82 88.3613L319.985 88.7398L319.093 89.05C316.655 90.1667 311.461 84.1775 311.435 78.3749Z" fill="#D7911D"/>
<path d="M312.57 77.7992C312.62 85.3636 321.208 93.4966 321.496 85.6835C321.784 77.8703 312.52 70.2348 312.57 77.7992Z" fill="url(#paint8_linear_254479_9370)"/>
<path opacity="0.3" d="M313.558 78.6785C313.596 84.5596 320.274 90.8828 320.498 84.8083C320.722 78.7338 313.519 72.7974 313.558 78.6785Z" stroke="#D7911D" stroke-width="0.57385"/>
<path d="M278.537 127.06L298.593 116.725L318.183 126.742L298.087 138.258L278.537 127.06Z" fill="url(#paint9_linear_254479_9370)"/>
<path d="M288.467 127.302L298.513 122.121L308.326 127.143L298.26 132.917L288.467 127.302Z" fill="url(#paint10_linear_254479_9370)"/>
<g opacity="0.405357" filter="url(#filter3_f_254479_9370)">
<ellipse cx="316.545" cy="144.443" rx="12.8402" ry="11.9067" fill="#FFC37E"/>
</g>
<g opacity="0.405357" filter="url(#filter4_f_254479_9370)">
<ellipse cx="274.819" cy="130.273" rx="12.2015" ry="11.3144" fill="#FF7E95" fill-opacity="0.98"/>
</g>
<path d="M298.738 126.883V109.667L306.811 103.817C307.068 103.63 307.22 103.332 307.22 103.014V91.957" stroke="url(#paint11_linear_254479_9370)" stroke-width="0.991613"/>
<path d="M298.712 109.611V102.304C298.712 101.756 298.268 101.312 297.72 101.312H291.551V92.2754" stroke="url(#paint12_linear_254479_9370)" stroke-width="0.991613"/>
<ellipse cx="291.721" cy="92.4347" rx="1.54083" ry="1.42881" fill="url(#paint13_linear_254479_9370)"/>
<ellipse cx="307.129" cy="92.4347" rx="1.54083" ry="1.42881" fill="url(#paint14_linear_254479_9370)"/>
<ellipse cx="298.91" cy="109.263" rx="1.54083" ry="1.42881" fill="url(#paint15_linear_254479_9370)"/>
<path d="M277.294 104.532C278.439 102.441 279.647 101.649 280.741 101.772L282.341 101.751L282.288 102.302C284.831 104.523 286.047 111.973 282.673 117.572C281.963 118.75 281.264 119.521 280.597 119.951L280.548 120.461L279.336 120.376C275.854 120.451 273.684 111.123 277.294 104.532Z" fill="#D7911D"/>
<path d="M278.951 104.434C274.262 113.034 278.96 126.452 284.189 117.735C289.419 109.018 283.639 95.8345 278.951 104.434Z" fill="url(#paint16_linear_254479_9370)"/>
<path opacity="0.4" d="M279.624 106.163C276.154 112.527 279.63 122.456 283.5 116.005C287.37 109.554 283.093 99.7988 279.624 106.163Z" stroke="#D7911D" stroke-width="0.57385"/>
<path opacity="0.2" fill-rule="evenodd" clip-rule="evenodd" d="M286.071 112.38C286.066 112.382 286.06 112.384 286.055 112.387C282.869 113.789 280.186 116.124 278.292 118.58C279.627 121.108 281.854 121.624 284.187 117.735C285.196 116.054 285.795 114.205 286.071 112.38Z" fill="black"/>
</g>
<defs>
<filter id="filter0_d_254479_9370" x="58" y="40" width="482" height="306.402" filterUnits="userSpaceOnUse" color-interpolation-filters="sRGB">
<feFlood flood-opacity="0" result="BackgroundImageFix"/>
<feColorMatrix in="SourceAlpha" type="matrix" values="0 0 0 0 0 0 0 0 0 0 0 0 0 0 0 0 0 0 127 0" result="hardAlpha"/>
<feOffset dy="4"/>
<feGaussianBlur stdDeviation="2"/>
<feComposite in2="hardAlpha" operator="out"/>
<feColorMatrix type="matrix" values="0 0 0 0 0 0 0 0 0 0 0 0 0 0 0 0 0 0 0.25 0"/>
<feBlend mode="normal" in2="BackgroundImageFix" result="effect1_dropShadow_254479_9370"/>
<feBlend mode="normal" in="SourceGraphic" in2="effect1_dropShadow_254479_9370" result="shape"/>
</filter>
<filter id="filter1_bd_254479_9370" x="0" y="0" width="654" height="478.402" filterUnits="userSpaceOnUse" color-interpolation-filters="sRGB">
<feFlood flood-opacity="0" result="BackgroundImageFix"/>
<feGaussianBlur in="BackgroundImageFix" stdDeviation="13.1985"/>
<feComposite in2="SourceAlpha" operator="in" result="effect1_backgroundBlur_254479_9370"/>
<feColorMatrix in="SourceAlpha" type="matrix" values="0 0 0 0 0 0 0 0 0 0 0 0 0 0 0 0 0 0 127 0" result="hardAlpha"/>
<feOffset dx="28" dy="50"/>
<feGaussianBlur stdDeviation="45"/>
<feColorMatrix type="matrix" values="0 0 0 0 0.0883651 0 0 0 0 0.0720128 0 0 0 0 0.169563 0 0 0 0.7 0"/>
<feBlend mode="normal" in2="effect1_backgroundBlur_254479_9370" result="effect2_dropShadow_254479_9370"/>
<feBlend mode="normal" in="SourceGraphic" in2="effect2_dropShadow_254479_9370" result="shape"/>
</filter>
<filter id="filter2_f_254479_9370" x="280.671" y="52.5109" width="104.465" height="101.543" filterUnits="userSpaceOnUse" color-interpolation-filters="sRGB">
<feFlood flood-opacity="0" result="BackgroundImageFix"/>
<feBlend mode="normal" in="SourceGraphic" in2="BackgroundImageFix" result="shape"/>
<feGaussianBlur stdDeviation="16.0678" result="effect1_foregroundBlur_254479_9370"/>
</filter>
<filter id="filter3_f_254479_9370" x="295.671" y="124.502" width="41.7475" height="39.8813" filterUnits="userSpaceOnUse" color-interpolation-filters="sRGB">
<feFlood flood-opacity="0" result="BackgroundImageFix"/>
<feBlend mode="normal" in="SourceGraphic" in2="BackgroundImageFix" result="shape"/>
<feGaussianBlur stdDeviation="4.01695" result="effect1_foregroundBlur_254479_9370"/>
</filter>
<filter id="filter4_f_254479_9370" x="243.106" y="99.4481" width="63.4241" height="61.6507" filterUnits="userSpaceOnUse" color-interpolation-filters="sRGB">
<feFlood flood-opacity="0" result="BackgroundImageFix"/>
<feBlend mode="normal" in="SourceGraphic" in2="BackgroundImageFix" result="shape"/>
<feGaussianBlur stdDeviation="9.75545" result="effect1_foregroundBlur_254479_9370"/>
</filter>
<linearGradient id="paint0_linear_254479_9370" x1="70.4919" y1="63.2091" x2="495.674" y2="96.4812" gradientUnits="userSpaceOnUse">
<stop stop-color="#FBB315"/>
<stop offset="0.25" stop-color="#F05F47"/>
<stop offset="0.729754" stop-color="#DE3593"/>
<stop offset="1" stop-color="#9D4F9D"/>
</linearGradient>
<linearGradient id="paint1_linear_254479_9370" x1="310.113" y1="87.8792" x2="246.898" y2="111.454" gradientUnits="userSpaceOnUse">
<stop stop-color="#EDB64F"/>
<stop offset="1" stop-color="#DD26BC"/>
</linearGradient>
<linearGradient id="paint2_linear_254479_9370" x1="308.006" y1="143.583" x2="270.697" y2="119.601" gradientUnits="userSpaceOnUse">
<stop stop-color="#6B1B98"/>
<stop offset="1" stop-color="#DE0F62"/>
</linearGradient>
<linearGradient id="paint3_linear_254479_9370" x1="280.104" y1="126.478" x2="264.961" y2="148.428" gradientUnits="userSpaceOnUse">
<stop stop-color="#FFD599"/>
<stop offset="0.482372" stop-color="#D178A0"/>
<stop offset="1" stop-color="#FFCE08"/>
</linearGradient>
<linearGradient id="paint4_linear_254479_9370" x1="262.106" y1="65.9214" x2="262.106" y2="163.231" gradientUnits="userSpaceOnUse">
<stop stop-color="#FDF27D" stop-opacity="0.01"/>
<stop offset="0.4936" stop-color="#FCF17B" stop-opacity="0.240234"/>
<stop offset="1" stop-color="#FBF079"/>
</linearGradient>
<linearGradient id="paint5_linear_254479_9370" x1="281" y1="71.0963" x2="281" y2="140.865" gradientUnits="userSpaceOnUse">
<stop stop-color="#FDF27D" stop-opacity="0.01"/>
<stop offset="0.4936" stop-color="#FCF17B" stop-opacity="0.240234"/>
<stop offset="1" stop-color="#FBF079"/>
</linearGradient>
<linearGradient id="paint6_linear_254479_9370" x1="307.785" y1="96.4851" x2="300.279" y2="119.922" gradientUnits="userSpaceOnUse">
<stop stop-color="#FFF585"/>
<stop offset="1" stop-color="#DCC613"/>
</linearGradient>
<linearGradient id="paint7_linear_254479_9370" x1="275.049" y1="104.286" x2="291.565" y2="85.3148" gradientUnits="userSpaceOnUse">
<stop stop-color="#FFF585"/>
<stop offset="1" stop-color="#DCC613"/>
</linearGradient>
<linearGradient id="paint8_linear_254479_9370" x1="305.286" y1="81.7815" x2="315.025" y2="96.7424" gradientUnits="userSpaceOnUse">
<stop stop-color="#FFF585"/>
<stop offset="1" stop-color="#DCC613"/>
</linearGradient>
<linearGradient id="paint9_linear_254479_9370" x1="312.311" y1="102.333" x2="275.739" y2="146.498" gradientUnits="userSpaceOnUse">
<stop stop-color="#EDB64F"/>
<stop offset="0.977895" stop-color="#E64082"/>
</linearGradient>
<linearGradient id="paint10_linear_254479_9370" x1="304.381" y1="120.943" x2="280.186" y2="120.943" gradientUnits="userSpaceOnUse">
<stop stop-color="#FFD066"/>
<stop offset="1" stop-color="#CE1D64"/>
</linearGradient>
<linearGradient id="paint11_linear_254479_9370" x1="297.768" y1="83.2254" x2="275.752" y2="96.3663" gradientUnits="userSpaceOnUse">
<stop stop-color="#FFD599"/>
<stop offset="0.482372" stop-color="#D178A0"/>
<stop offset="1" stop-color="#FFE26F"/>
</linearGradient>
<linearGradient id="paint12_linear_254479_9370" x1="287.581" y1="89.9578" x2="277.161" y2="123.903" gradientUnits="userSpaceOnUse">
<stop stop-color="#FFD599"/>
<stop offset="1" stop-color="#A014A8"/>
</linearGradient>
<linearGradient id="paint13_linear_254479_9370" x1="297.515" y1="96.3311" x2="294.821" y2="88.3127" gradientUnits="userSpaceOnUse">
<stop stop-color="#FFFCF5"/>
<stop offset="1" stop-color="#FFEFAD"/>
</linearGradient>
<linearGradient id="paint14_linear_254479_9370" x1="312.923" y1="96.3311" x2="310.229" y2="88.3127" gradientUnits="userSpaceOnUse">
<stop stop-color="#FFFCF5"/>
<stop offset="1" stop-color="#FFEFAD"/>
</linearGradient>
<linearGradient id="paint15_linear_254479_9370" x1="304.704" y1="113.159" x2="302.01" y2="105.141" gradientUnits="userSpaceOnUse">
<stop stop-color="#FFFCF5"/>
<stop offset="1" stop-color="#FFEFAD"/>
</linearGradient>
<linearGradient id="paint16_linear_254479_9370" x1="268.142" y1="105.39" x2="271.593" y2="126.833" gradientUnits="userSpaceOnUse">
<stop stop-color="#FFF585"/>
<stop offset="1" stop-color="#DCC613"/>
</linearGradient>
</defs>
</svg>
